<svg width="284" height="50" viewBox="0 0 284 50" fill="none" xmlns="http://www.w3.org/2000/svg">
<path d="M196.137 14.6863H194.672V16.1844C194.672 16.5696 194.84 17.0404 195.593 17.0404H197.058V15.5423C197.058 15.1999 196.932 14.6863 196.137 14.6863Z" fill="white"/>
<path d="M196.008 19.5229H194.836V31.8927C194.836 32.4063 195.17 32.7487 195.631 32.7915V32.8343H196.97V20.4218C196.928 19.8653 196.635 19.5229 196.008 19.5229Z" fill="white"/>
<path d="M125.112 29.1963C124.609 28.6827 123.981 28.8111 123.605 29.1535C122.056 30.4803 120.633 30.994 118.792 30.994C115.109 30.994 112.179 27.8266 112.179 23.7604C112.179 19.6943 115.025 16.5697 118.792 16.5697C120.591 16.5697 122.098 17.1261 123.521 18.3674C123.856 18.667 124.442 18.7954 124.86 18.3246C125.237 17.9394 125.614 17.5114 125.614 17.5114L125.697 17.4257L125.614 17.3401C124.107 15.8421 122.224 14.4724 118.792 14.4724C113.811 14.4724 109.961 18.5814 109.961 23.8032C109.961 29.0679 113.727 33.0485 118.75 33.0485C121.554 33.0485 123.605 32.1068 125.697 29.8811L125.739 29.7955L125.697 29.7099C125.697 29.7955 125.572 29.6243 125.112 29.1963Z" fill="white"/>
<path d="M156.921 19.2233C155.079 19.2233 153.613 20.0365 152.483 21.663C151.981 20.6357 150.809 19.1377 148.382 19.1377C146.289 19.1377 145.159 20.2505 144.322 21.3634V20.4217C144.322 19.7797 143.945 19.3945 143.359 19.3945H142.188V32.7059H143.359C143.945 32.7059 144.281 32.5347 144.281 31.807V25.1727C144.281 22.8614 145.745 21.1493 147.712 21.1493C149.721 21.1493 150.893 22.5618 150.893 24.9587V31.807C150.893 32.4491 151.228 32.7487 151.813 32.7487H152.985V25.1299C152.985 22.3906 154.701 21.1922 156.417 21.1922C158.468 21.1922 159.641 22.6046 159.641 25.0015V31.6786C159.641 32.2351 159.767 32.7487 160.604 32.7487H161.733V24.5735C161.774 21.2778 159.934 19.2233 156.921 19.2233Z" fill="white"/>
<path d="M172.031 19.2661C170.106 19.2661 168.515 20.1222 167.218 21.9627V20.593C167.218 19.9082 166.841 19.5657 166.171 19.5657H165.125V35.9161C165.125 36.5581 165.418 36.8577 166.046 36.8577H167.218V30.5231C168.515 32.2351 170.064 33.0912 172.031 33.0912C175.044 33.0912 178.225 30.6515 178.225 26.1573C178.225 21.663 175.044 19.2661 172.031 19.2661ZM176.049 26.1573C176.049 29.0678 174.249 31.0795 171.654 31.0795C169.436 31.0795 167.134 29.1962 167.134 26.1144C167.134 23.0327 169.436 21.1494 171.654 21.1494C173.83 21.1922 176.049 22.9043 176.049 26.1573Z" fill="white"/>
<path d="M210.742 20.4645V21.5774C209.863 20.4217 208.314 19.1377 205.845 19.1377C204.296 19.1377 202.748 19.7369 201.618 20.8069C200.404 21.9626 199.734 23.6319 199.734 25.4295C199.734 29.4957 202.873 31.6786 205.845 31.6786C207.77 31.6786 209.402 30.8654 210.784 29.1533V30.4374C210.784 33.3479 209.109 35.0172 206.263 35.0172C204.882 35.0172 203.543 34.6748 202.287 33.9471C201.953 33.7331 201.701 33.6475 201.492 33.6475C201.241 33.6475 200.99 33.7759 200.823 34.0755C200.488 34.632 200.362 34.8888 200.362 34.8888L200.32 34.9744L200.404 35.0172C202.12 36.2584 204.087 36.8577 206.263 36.8577C210.449 36.8577 212.876 34.5036 212.876 30.3946V19.4801H211.704C211.328 19.4801 210.742 19.8225 210.742 20.4645ZM210.867 25.558C210.867 28.2973 208.524 29.9238 206.263 29.9238C203.794 29.9238 201.953 28.0405 201.953 25.558C201.953 23.0326 203.794 21.235 206.263 21.235C208.482 21.1922 210.867 22.6902 210.867 25.558Z" fill="white"/>
<path d="M222.75 19.2661C220.909 19.2661 219.486 20.0366 218.481 21.5774V20.4646C218.481 19.8226 217.979 19.5657 217.477 19.5657H216.305V32.8772H218.44L218.398 25.2584C218.398 22.9043 219.946 21.2778 222.165 21.2778C224.341 21.2778 225.596 22.6903 225.596 25.13V31.9783C225.596 32.6203 225.889 32.8772 226.434 32.8772H227.689V24.5736C227.731 21.3206 225.806 19.2661 222.75 19.2661Z" fill="white"/>
<path d="M186.092 19.3091C184.459 19.3091 182.994 19.6515 181.404 20.3792L181.32 20.422L181.362 20.5076C181.362 20.5076 181.571 21.1068 181.739 21.5348C181.906 21.9628 182.409 22.0056 182.785 21.8344C183.873 21.4064 184.836 21.1924 185.924 21.1924C188.31 21.1924 189.607 22.4337 189.607 24.6594V27.8695C189.607 29.8812 187.849 31.2937 185.422 31.2937C183.915 31.2937 182.283 30.5232 182.283 28.8112C182.283 27.1847 183.58 26.2858 185.924 26.2858H186.97C187.598 26.2858 187.891 25.9862 187.891 25.387V24.6594H185.715C182.157 24.6594 180.148 26.2002 180.148 28.854C180.148 30.8656 181.655 33.0914 185.045 33.0914C186.887 33.0914 188.435 32.3637 189.565 30.9941V31.8929C189.565 32.4921 189.858 32.7489 190.486 32.7489H191.658V24.6166C191.616 21.2352 189.649 19.3091 186.092 19.3091Z" fill="white"/>
<path d="M133.393 19.3091C131.384 19.3091 129.961 19.8227 128.706 20.3792L128.622 20.4648L128.664 20.5504C128.664 20.5504 128.873 21.1496 129.041 21.5776C129.208 22.0056 129.71 22.0484 130.087 21.8772C131.175 21.4492 132.138 21.2352 133.226 21.2352C135.612 21.2352 136.951 22.4765 136.951 24.7022V27.8695C136.951 29.8812 135.193 31.2937 132.766 31.2937C131.259 31.2937 129.668 30.5232 129.668 28.8112C129.668 27.1847 130.966 26.2858 133.268 26.2858H134.314C134.942 26.2858 135.235 25.9862 135.235 25.387V24.6594H133.1C129.543 24.6594 127.492 26.2002 127.492 28.854C127.492 30.8656 128.999 33.0914 132.347 33.0914C134.189 33.0914 135.737 32.3637 136.909 30.9941V31.8929C136.909 32.4921 137.202 32.7489 137.788 32.7489H138.96V24.6166C138.918 21.2352 136.951 19.3091 133.393 19.3091Z" fill="white"/>
<path d="M249.245 24.274C248.952 24.0172 237.024 15.4996 236.48 15.1572L236.312 15.0288V17.1261C236.312 17.8109 236.647 18.0249 237.066 18.3674L237.15 18.4102C237.736 18.8382 246.232 24.8733 247.362 25.6865C246.232 26.4997 237.61 32.6204 237.066 32.9628C236.396 33.3909 236.355 33.6905 236.355 34.2897V36.3014C236.355 36.3014 249.037 27.2702 249.288 27.0562C249.874 26.6281 249.999 26.0717 249.999 25.7293V25.4725C249.999 25.0445 249.747 24.6164 249.245 24.274Z" fill="white"/>
<path d="M241.794 26.6283C242.128 26.6283 242.463 26.4999 242.798 26.2431C243.217 25.9435 243.593 25.6867 243.593 25.6867L243.719 25.6011L243.593 25.5154C243.552 25.4726 237.985 21.5349 237.399 21.1496C237.148 20.9356 236.813 20.8928 236.604 21.0212C236.395 21.1496 236.227 21.3637 236.227 21.7061V23.0329L236.269 23.0757C236.311 23.1185 240.12 25.8151 240.873 26.3287C241.208 26.5427 241.501 26.6283 241.794 26.6283Z" fill="white"/>
<path d="M64.2953 29.7528C63.8349 29.282 63.249 29.5816 62.9978 29.7956C62.0352 30.6944 60.947 31.1224 59.7752 31.1224C57.2221 31.1224 55.2132 28.9396 55.2132 26.1146C55.2132 23.3325 57.1803 21.1496 59.6496 21.1496C61.0726 21.1496 61.9934 21.7916 62.7467 22.3909C63.2908 22.8617 63.7512 22.9045 64.1279 22.4765C64.4627 22.134 64.8394 21.706 64.8394 21.706L64.9231 21.6204L64.8394 21.5348C63.3745 19.9083 61.7422 19.1807 59.6496 19.1807C55.9247 19.1807 52.9531 22.2196 52.9531 26.1146C52.9531 29.924 55.9665 33.0485 59.6496 33.0485C62.37 33.0485 63.9186 31.6361 64.9231 30.4376H65.0068L64.9231 30.352C64.9231 30.352 64.7138 30.1808 64.2953 29.7528Z" fill="white"/>
<path d="M78.1915 14.6863H76.7266V16.1844C76.7266 16.5696 76.894 17.0404 77.6474 17.0404H79.1122V15.7135C79.1541 15.1143 78.7774 14.6863 78.1915 14.6863Z" fill="white"/>
<path d="M78.0262 19.5229H76.8125V31.8927C76.8125 32.4063 77.1473 32.7487 77.6077 32.7915V32.8343H78.947V20.4218C78.9889 19.8653 78.654 19.5229 78.0262 19.5229Z" fill="white"/>
<path d="M91.7919 20.2508C91.6245 20.7216 88.4437 28.5972 87.8159 30.0524C87.2299 28.5544 84.0491 20.6788 83.8817 20.2508C83.6724 19.7372 83.2539 19.4375 82.7098 19.4375H81.2031L81.2868 19.5659C81.3286 19.7372 86.3929 31.6789 86.6021 32.1497C86.8114 32.7061 87.1462 32.8346 87.6903 32.8346H87.9414C88.4437 32.8346 88.7785 32.6205 88.9878 32.1497C89.197 31.6789 94.2612 19.8228 94.3031 19.6944L94.3868 19.5231H92.9219C92.3778 19.5231 92.0012 19.7372 91.7919 20.2508Z" fill="white"/>
<path d="M104.893 25.3869H99.9118C99.3678 25.3869 99.0329 25.7293 99.0329 26.2857V27.1418H99.1585C101.544 27.0989 104.307 27.099 105.437 27.099C106.106 27.099 106.609 26.9277 106.985 26.5425C107.32 26.1573 107.487 25.5581 107.446 24.8732C107.069 21.4491 104.683 19.2234 101.419 19.2234C97.861 19.2234 95.1406 22.2195 95.1406 26.1573C95.1406 30.1379 97.9448 33.0912 101.67 33.0912C103.846 33.0912 105.478 32.3208 107.027 30.6087L107.111 30.5231L107.027 30.4375C107.027 30.4375 106.734 30.1807 106.399 29.8811C105.897 29.4531 105.437 29.6243 105.186 29.8811C104.265 30.7371 103.135 31.1651 101.754 31.1651C99.3678 31.1651 97.6099 29.4103 97.317 26.7993C97.317 26.7993 97.2751 26.4997 97.2751 26.1145C97.2751 25.6865 97.317 25.3869 97.317 25.3869C97.5681 22.8188 99.2422 21.0211 101.377 21.0211C103.511 21.0211 105.06 22.4763 105.269 24.702C105.311 24.916 105.269 25.0873 105.227 25.1729C105.102 25.3441 105.018 25.3869 104.893 25.3869Z" fill="white"/>
<path d="M44.71 15.3711C44.4589 14.8575 44.1659 14.6863 43.6218 14.6863H43.1196C42.701 14.6863 42.3244 14.9431 42.1151 15.3283C41.9477 15.7135 34.5816 32.4919 34.4978 32.6631L34.4141 32.8343H35.7953C36.3812 32.8343 36.7579 32.5775 37.0509 31.9783C37.302 31.4647 38.5157 28.6397 38.725 28.1689H44.124C44.7937 28.1689 45.2122 27.7409 45.2122 27.0989V26.1572H39.5621L43.3707 17.4256C44.1659 19.2233 49.4812 31.6359 49.7323 32.1495C50.0672 32.8343 50.8624 32.8343 51.1135 32.8343H52.3691L52.2854 32.6631C52.2854 32.4919 44.9611 15.9276 44.71 15.3711Z" fill="white"/>
<path d="M73.7176 30.9084C73.5083 30.78 73.2154 30.7372 72.9224 30.8228C72.462 30.9512 72.1272 31.0368 71.7087 31.0368C70.3694 31.0368 69.6579 30.352 69.6579 28.9395V21.4492H73.7176V20.5503C73.7176 19.8655 73.1317 19.5231 72.6294 19.5231H69.616V15.7565C69.616 15.1573 69.1975 14.7292 68.5697 14.7292H67.5234V29.2391C67.5234 31.6788 68.8208 33.0485 71.2483 33.0485C72.169 33.0485 73.2154 32.8345 73.885 32.4921L73.9269 32.4493V32.4065C73.9269 32.4065 73.9687 32.0212 73.9687 31.5504C74.0106 31.208 73.8432 31.0368 73.7176 30.9084Z" fill="white"/>
</svg>
