<svg width="284" height="50" viewBox="0 0 284 50" fill="none" xmlns="http://www.w3.org/2000/svg">
<path d="M196.135 14.6864H194.67V16.1845C194.67 16.5697 194.838 17.0405 195.591 17.0405H197.056V15.5424C197.056 15.2 196.93 14.6864 196.135 14.6864Z" fill="#356AE5"/>
<path d="M196.01 19.523H194.838V31.8928C194.838 32.4064 195.172 32.7488 195.633 32.7916V32.8344H196.972V20.4219C196.93 19.8654 196.637 19.523 196.01 19.523Z" fill="#356AE5"/>
<path d="M125.111 29.1963C124.608 28.6827 123.98 28.8111 123.604 29.1535C122.055 30.4803 120.632 30.994 118.791 30.994C115.108 30.994 112.178 27.8266 112.178 23.7604C112.178 19.6943 115.024 16.5697 118.791 16.5697C120.59 16.5697 122.097 17.1261 123.52 18.3674C123.855 18.667 124.441 18.7954 124.859 18.3246C125.236 17.9394 125.613 17.5114 125.613 17.5114L125.696 17.4257L125.613 17.3401C124.106 15.8421 122.223 14.4724 118.791 14.4724C113.81 14.4724 109.96 18.5814 109.96 23.8032C109.96 29.0679 113.726 33.0485 118.749 33.0485C121.553 33.0485 123.604 32.1068 125.696 29.8811L125.738 29.7955L125.696 29.7099C125.696 29.7955 125.571 29.6243 125.111 29.1963Z" fill="#356AE5"/>
<path d="M156.919 19.2234C155.077 19.2234 153.612 20.0366 152.482 21.6631C151.98 20.6358 150.808 19.1378 148.381 19.1378C146.288 19.1378 145.158 20.2506 144.321 21.3635V20.4218C144.321 19.7798 143.944 19.3946 143.358 19.3946H142.186V32.706H143.358C143.944 32.706 144.279 32.5348 144.279 31.8071V25.1728C144.279 22.8615 145.744 21.1494 147.711 21.1494C149.72 21.1494 150.892 22.5619 150.892 24.9588V31.8071C150.892 32.4492 151.227 32.7488 151.812 32.7488H152.984V25.13C152.984 22.3907 154.7 21.1923 156.416 21.1923C158.467 21.1923 159.639 22.6047 159.639 25.0016V31.6787C159.639 32.2352 159.765 32.7488 160.602 32.7488H161.732V24.5736C161.773 21.2779 159.932 19.2234 156.919 19.2234Z" fill="#356AE5"/>
<path d="M172.028 19.2662C170.103 19.2662 168.512 20.1223 167.215 21.9628V20.5931C167.215 19.9083 166.838 19.5658 166.168 19.5658H165.122V35.9162C165.122 36.5582 165.415 36.8578 166.043 36.8578H167.215V30.5232C168.512 32.2352 170.061 33.0913 172.028 33.0913C175.041 33.0913 178.222 30.6516 178.222 26.1574C178.222 21.6631 175.041 19.2662 172.028 19.2662ZM176.046 26.1574C176.046 29.0679 174.246 31.0796 171.651 31.0796C169.433 31.0796 167.131 29.1963 167.131 26.1145C167.131 23.0328 169.433 21.1495 171.651 21.1495C173.827 21.1923 176.046 22.9044 176.046 26.1574Z" fill="#356AE5"/>
<path d="M210.742 20.4646V21.5775C209.863 20.4218 208.314 19.1378 205.845 19.1378C204.296 19.1378 202.748 19.737 201.618 20.807C200.404 21.9627 199.734 23.632 199.734 25.4296C199.734 29.4958 202.873 31.6787 205.845 31.6787C207.77 31.6787 209.402 30.8655 210.784 29.1534V30.4375C210.784 33.348 209.109 35.0173 206.263 35.0173C204.882 35.0173 203.543 34.6749 202.287 33.9472C201.953 33.7332 201.701 33.6476 201.492 33.6476C201.241 33.6476 200.99 33.776 200.823 34.0756C200.488 34.6321 200.362 34.8889 200.362 34.8889L200.32 34.9745L200.404 35.0173C202.12 36.2585 204.087 36.8578 206.263 36.8578C210.449 36.8578 212.876 34.5037 212.876 30.3947V19.4802H211.704C211.328 19.4802 210.742 19.8226 210.742 20.4646ZM210.867 25.5581C210.867 28.2974 208.524 29.9239 206.263 29.9239C203.794 29.9239 201.953 28.0406 201.953 25.5581C201.953 23.0327 203.794 21.2351 206.263 21.2351C208.482 21.1923 210.867 22.6903 210.867 25.5581Z" fill="#356AE5"/>
<path d="M222.753 19.2662C220.912 19.2662 219.489 20.0367 218.484 21.5775V20.4647C218.484 19.8227 217.982 19.5658 217.48 19.5658H216.308V32.8773H218.443L218.401 25.2585C218.401 22.9044 219.949 21.2779 222.168 21.2779C224.344 21.2779 225.599 22.6904 225.599 25.1301V31.9784C225.599 32.6204 225.892 32.8773 226.437 32.8773H227.692V24.5737C227.734 21.3207 225.809 19.2662 222.753 19.2662Z" fill="#356AE5"/>
<path d="M186.091 19.309C184.458 19.309 182.993 19.6514 181.403 20.3791L181.319 20.4219L181.361 20.5075C181.361 20.5075 181.57 21.1067 181.738 21.5347C181.905 21.9627 182.408 22.0055 182.784 21.8343C183.872 21.4063 184.835 21.1923 185.923 21.1923C188.309 21.1923 189.606 22.4336 189.606 24.6593V27.8694C189.606 29.8811 187.848 31.2936 185.421 31.2936C183.914 31.2936 182.282 30.5231 182.282 28.8111C182.282 27.1846 183.579 26.2857 185.923 26.2857H186.969C187.597 26.2857 187.89 25.9861 187.89 25.3869V24.6593H185.714C182.156 24.6593 180.147 26.2001 180.147 28.8539C180.147 30.8655 181.654 33.0913 185.044 33.0913C186.886 33.0913 188.434 32.3636 189.564 30.994V31.8928C189.564 32.492 189.857 32.7488 190.485 32.7488H191.657V24.6165C191.615 21.2351 189.648 19.309 186.091 19.309Z" fill="#356AE5"/>
<path d="M133.397 19.309C131.388 19.309 129.965 19.8226 128.71 20.3791L128.626 20.4647L128.668 20.5503C128.668 20.5503 128.877 21.1495 129.045 21.5775C129.212 22.0055 129.714 22.0483 130.091 21.8771C131.179 21.4491 132.142 21.2351 133.23 21.2351C135.616 21.2351 136.955 22.4764 136.955 24.7021V27.8694C136.955 29.8811 135.197 31.2936 132.77 31.2936C131.263 31.2936 129.672 30.5231 129.672 28.8111C129.672 27.1846 130.97 26.2857 133.272 26.2857H134.318C134.946 26.2857 135.239 25.9861 135.239 25.3869V24.6593H133.104C129.547 24.6593 127.496 26.2001 127.496 28.8539C127.496 30.8655 129.003 33.0913 132.351 33.0913C134.193 33.0913 135.741 32.3636 136.913 30.994V31.8928C136.913 32.492 137.206 32.7488 137.792 32.7488H138.964V24.6165C138.922 21.2351 136.955 19.309 133.397 19.309Z" fill="#356AE5"/>
<path d="M249.247 24.274C248.954 24.0172 237.026 15.4996 236.482 15.1572L236.314 15.0288V17.1261C236.314 17.8109 236.649 18.0249 237.068 18.3674L237.151 18.4102C237.737 18.8382 246.233 24.8733 247.363 25.6865C246.233 26.4997 237.612 32.6204 237.068 32.9628C236.398 33.3909 236.356 33.6905 236.356 34.2897V36.3014C236.356 36.3014 249.038 27.2702 249.289 27.0562C249.875 26.6281 250 26.0717 250 25.7293V25.4725C250 25.0445 249.749 24.6164 249.247 24.274Z" fill="#356AE5"/>
<path d="M241.797 26.6282C242.131 26.6282 242.466 26.4998 242.801 26.243C243.22 25.9434 243.596 25.6866 243.596 25.6866L243.722 25.601L243.596 25.5153C243.555 25.4725 237.988 21.5348 237.402 21.1495C237.151 20.9355 236.816 20.8927 236.607 21.0211C236.398 21.1495 236.23 21.3636 236.23 21.706V23.0328L236.272 23.0756C236.314 23.1184 240.123 25.815 240.876 26.3286C241.211 26.5426 241.504 26.6282 241.797 26.6282Z" fill="#356AE5"/>
<path d="M64.298 29.7527C63.8376 29.2819 63.2517 29.5815 63.0005 29.7955C62.0379 30.6943 60.9497 31.1223 59.7779 31.1223C57.2248 31.1223 55.2159 28.9395 55.2159 26.1145C55.2159 23.3324 57.183 21.1495 59.6523 21.1495C61.0753 21.1495 61.9961 21.7915 62.7494 22.3908C63.2935 22.8616 63.7539 22.9044 64.1306 22.4764C64.4654 22.1339 64.8421 21.7059 64.8421 21.7059L64.9258 21.6203L64.8421 21.5347C63.3772 19.9082 61.7449 19.1806 59.6523 19.1806C55.9274 19.1806 52.9558 22.2195 52.9558 26.1145C52.9558 29.9239 55.9692 33.0484 59.6523 33.0484C62.3727 33.0484 63.9213 31.636 64.9258 30.4375H65.0095L64.9258 30.3519C64.9258 30.3519 64.7165 30.1807 64.298 29.7527Z" fill="#356AE5"/>
<path d="M78.1934 14.6864H76.7285V16.1845C76.7285 16.5697 76.8959 17.0405 77.6493 17.0405H79.1141V15.7136C79.156 15.1144 78.7793 14.6864 78.1934 14.6864Z" fill="#356AE5"/>
<path d="M78.0257 19.523H76.812V31.8928C76.812 32.4064 77.1468 32.7488 77.6072 32.7916V32.8344H78.9465V20.4219C78.9884 19.8654 78.6535 19.523 78.0257 19.523Z" fill="#356AE5"/>
<path d="M91.7956 20.2507C91.6282 20.7215 88.4474 28.5971 87.8196 30.0523C87.2336 28.5543 84.0528 20.6787 83.8854 20.2507C83.6761 19.7371 83.2576 19.4374 82.7135 19.4374H81.2068L81.2905 19.5658C81.3323 19.7371 86.3966 31.6788 86.6058 32.1496C86.8151 32.706 87.1499 32.8345 87.694 32.8345H87.9451C88.4474 32.8345 88.7822 32.6204 88.9915 32.1496C89.2007 31.6788 94.2649 19.8227 94.3068 19.6943L94.3905 19.523H92.9256C92.3815 19.523 92.0049 19.7371 91.7956 20.2507Z" fill="#356AE5"/>
<path d="M104.896 25.3869H99.915C99.371 25.3869 99.0361 25.7293 99.0361 26.2857V27.1418H99.1617C101.547 27.0989 104.31 27.099 105.44 27.099C106.109 27.099 106.612 26.9277 106.988 26.5425C107.323 26.1573 107.49 25.5581 107.449 24.8732C107.072 21.4491 104.686 19.2234 101.422 19.2234C97.8642 19.2234 95.1438 22.2195 95.1438 26.1573C95.1438 30.1379 97.948 33.0912 101.673 33.0912C103.849 33.0912 105.481 32.3208 107.03 30.6087L107.114 30.5231L107.03 30.4375C107.03 30.4375 106.737 30.1807 106.402 29.8811C105.9 29.4531 105.44 29.6243 105.189 29.8811C104.268 30.7371 103.138 31.1651 101.757 31.1651C99.371 31.1651 97.6131 29.4103 97.3202 26.7993C97.3202 26.7993 97.2783 26.4997 97.2783 26.1145C97.2783 25.6865 97.3202 25.3869 97.3202 25.3869C97.5713 22.8188 99.2454 21.0211 101.38 21.0211C103.514 21.0211 105.063 22.4763 105.272 24.702C105.314 24.916 105.272 25.0873 105.23 25.1729C105.105 25.3441 105.021 25.3869 104.896 25.3869Z" fill="#356AE5"/>
<path d="M44.7109 15.3712C44.4598 14.8576 44.1668 14.6864 43.6227 14.6864H43.1205C42.7019 14.6864 42.3253 14.9432 42.116 15.3284C41.9486 15.7136 34.5825 32.492 34.4987 32.6632L34.415 32.8344H35.7962C36.3821 32.8344 36.7588 32.5776 37.0518 31.9784C37.3029 31.4648 38.5166 28.6398 38.7259 28.169H44.1249C44.7946 28.169 45.2131 27.741 45.2131 27.099V26.1573H39.563L43.3716 17.4257C44.1668 19.2234 49.4821 31.636 49.7332 32.1496C50.0681 32.8344 50.8633 32.8344 51.1144 32.8344H52.37L52.2863 32.6632C52.2863 32.492 44.962 15.9277 44.7109 15.3712Z" fill="#356AE5"/>
<path d="M73.715 30.9084C73.5057 30.78 73.2128 30.7372 72.9198 30.8228C72.4594 30.9512 72.1246 31.0368 71.7061 31.0368C70.3668 31.0368 69.6553 30.352 69.6553 28.9395V21.4492H73.715V20.5503C73.715 19.8655 73.1291 19.5231 72.6268 19.5231H69.6134V15.7565C69.6134 15.1573 69.1949 14.7292 68.5671 14.7292H67.5208V29.2391C67.5208 31.6788 68.8182 33.0485 71.2457 33.0485C72.1664 33.0485 73.2128 32.8345 73.8824 32.4921L73.9243 32.4493V32.4065C73.9243 32.4065 73.9661 32.0212 73.9661 31.5504C74.008 31.208 73.8406 31.0368 73.715 30.9084Z" fill="#356AE5"/>
</svg>
