<svg width="284" height="50" viewBox="0 0 284 50" fill="none" xmlns="http://www.w3.org/2000/svg">
<mask id="mask0_11825_16204" style="mask-type:luminance" maskUnits="userSpaceOnUse" x="55" y="12" width="174" height="25">
<path d="M229 12.6929H55V36.3072H229V12.6929Z" fill="white"/>
</mask>
<g mask="url(#mask0_11825_16204)">
<path d="M89.1299 33.2664C89.1299 34.0846 88.4675 34.7079 87.6883 34.7079H56.4416C55.6623 34.7469 55 34.0846 55 33.2664V14.4482C55 13.669 55.6623 13.0066 56.4416 13.0066H87.6494C88.4675 13.0066 89.0909 13.669 89.0909 14.4482V33.2664H89.1299Z" fill="#00BAFF"/>
<path d="M88.8172 13.552C84.7653 19.8248 78.4926 25.591 72.025 25.4352C69.6484 25.3962 66.9211 24.6949 64.6224 22.8248C62.9082 21.4222 61.1939 19.2404 60.5315 16.1235H59.8302C58.7783 16.1235 58.1549 17.0585 58.2718 17.9157C58.3107 18.1105 58.3497 18.3442 58.3887 18.578C58.8952 21.617 60.6874 25.0455 63.6874 27.2663C66.025 28.9806 68.9082 30.1105 72.064 30.1105C77.7523 30.1105 83.8302 26.4871 89.1289 17.1754V14.4481C89.1289 14.1365 89.012 13.7858 88.8172 13.552Z" fill="black"/>
<path d="M224.012 20.1365C227.207 20.1365 228.96 22.4741 228.96 25.4352C228.96 25.7469 228.882 26.4871 228.882 26.4871H221.168C221.402 28.4741 222.843 29.4871 224.518 29.4871C226.311 29.4871 227.674 28.2404 227.674 28.2404L228.843 30.1884C228.843 30.1884 227.129 31.8637 224.324 31.8637C220.622 31.8637 218.285 29.1754 218.285 25.9806C218.324 22.552 220.661 20.1365 224.012 20.1365ZM226.116 24.5391C226.077 23.2144 225.142 22.2793 224.012 22.2793C222.57 22.2793 221.557 23.1365 221.285 24.5391H226.116ZM118.661 20.1365C121.856 20.1365 123.609 22.4741 123.609 25.4352C123.609 25.7469 123.531 26.4871 123.531 26.4871H115.817C116.051 28.4741 117.492 29.4871 119.168 29.4871C120.96 29.4871 122.324 28.2404 122.324 28.2404L123.492 30.1884C123.492 30.1884 121.778 31.8637 118.973 31.8637C115.272 31.8637 112.934 29.1754 112.934 25.9806C112.973 22.552 115.311 20.1365 118.661 20.1365ZM120.765 24.5391C120.726 23.2144 119.791 22.2793 118.661 22.2793C117.22 22.2793 116.207 23.1365 115.934 24.5391H120.765ZM150.921 20.1365C154.116 20.1365 155.869 22.4741 155.869 25.4352C155.869 25.7469 155.791 26.4871 155.791 26.4871H148.077C148.311 28.4741 149.752 29.4871 151.428 29.4871C153.22 29.4871 154.583 28.2404 154.583 28.2404L155.752 30.1884C155.752 30.1884 154.038 31.8637 151.233 31.8637C147.531 31.8637 145.194 29.1754 145.194 25.9806C145.233 22.552 147.57 20.1365 150.921 20.1365ZM153.025 24.5391C152.986 23.2144 152.051 22.2793 150.921 22.2793C149.48 22.2793 148.467 23.1365 148.194 24.5391H153.025ZM195.454 23.2533C195.454 22.9417 195.298 22.7858 194.986 22.7858H194.09V20.4092H196.661C197.635 20.4092 198.142 20.8767 198.142 21.6559V21.9676C198.142 22.2014 198.103 22.4352 198.103 22.4352H198.142C198.609 21.5001 199.817 20.0975 202.116 20.0975C204.609 20.0975 206.012 21.3832 206.012 24.3443V28.7079C206.012 29.0196 206.168 29.1754 206.48 29.1754H207.376V31.5131H204.726C203.674 31.5131 203.246 31.0845 203.246 30.0326V24.9676C203.246 23.604 202.895 22.6689 201.492 22.6689C200.012 22.6689 198.882 23.604 198.492 24.9676C198.337 25.4352 198.259 25.9417 198.259 26.4482V31.591H195.492V23.2533H195.454ZM187.233 20.1365C190.661 20.1365 193.389 22.591 193.389 26.0196C193.389 29.4871 190.661 31.9027 187.233 31.9027C183.843 31.9027 181.116 29.4871 181.116 26.0196C181.116 22.552 183.843 20.1365 187.233 20.1365ZM187.233 29.4871C189.064 29.4871 190.583 28.0845 190.583 25.9806C190.583 23.9157 189.064 22.4741 187.233 22.4741C185.441 22.4741 183.921 23.9157 183.921 25.9806C183.921 28.0845 185.441 29.4871 187.233 29.4871ZM179.791 25.9806C179.791 29.4482 177.843 31.8637 174.843 31.8637C172.428 31.8637 171.492 30.2663 171.492 30.2663H171.454C171.454 30.2663 171.492 30.6559 171.492 31.2404V35.9936H168.687V23.2533C168.687 22.9417 168.492 22.7858 168.22 22.7858H167.324V20.4092H169.778C170.791 20.4092 171.22 20.8378 171.22 21.3832V21.7728H171.259C171.259 21.7728 172.194 20.1365 174.726 20.1365C177.687 20.1365 179.791 22.4352 179.791 25.9806ZM174.22 29.4871C175.856 29.4871 177.025 28.1235 177.025 25.9806C177.025 23.7598 175.739 22.5131 174.22 22.5131C172.35 22.5131 171.415 24.2274 171.415 25.9806C171.376 28.4352 172.739 29.4871 174.22 29.4871ZM158.635 28.0456C158.635 28.0456 160.077 29.6819 161.986 29.6819C162.843 29.6819 163.505 29.3313 163.505 28.591C163.505 26.9936 157.583 27.0326 157.583 23.4092C157.583 21.1494 159.609 20.1365 161.947 20.1365C163.467 20.1365 165.882 20.643 165.882 22.4741V23.643H163.428V23.0975C163.428 22.552 162.648 22.3183 162.025 22.3183C161.051 22.3183 160.35 22.6689 160.35 23.3313C160.35 25.0845 166.311 24.7339 166.311 28.4741C166.311 30.578 164.441 31.9027 161.986 31.9027C158.908 31.9027 157.311 29.9157 157.311 29.9157L158.635 28.0456ZM209.674 28.0456C209.674 28.0456 211.116 29.6819 213.025 29.6819C213.882 29.6819 214.544 29.3313 214.544 28.591C214.544 26.9936 208.622 27.0326 208.622 23.4092C208.622 21.1494 210.648 20.1365 212.986 20.1365C214.505 20.1365 216.921 20.643 216.921 22.4741V23.643H214.467V23.0975C214.467 22.552 213.687 22.3183 213.064 22.3183C212.09 22.3183 211.389 22.6689 211.389 23.3313C211.389 25.0845 217.35 24.7339 217.35 28.4741C217.35 30.578 215.48 31.9027 213.064 31.9027C209.986 31.9027 208.389 29.9157 208.389 29.9157L209.674 28.0456ZM130.973 29.2533C130.194 29.2533 128.752 28.9806 128.752 27.1495V22.591H131.285V21.578C131.285 20.7598 130.934 20.4092 130.116 20.4092H128.752V17.3702H126.025V20.4092H124.505V22.63H125.947V27.5001C125.947 31.2404 129.064 31.7079 130.622 31.7079C131.129 31.7079 131.48 31.63 131.48 31.63V29.1754C131.48 29.2144 131.285 29.2533 130.973 29.2533ZM104.752 15.7339C108.57 15.7339 110.441 17.7209 110.441 17.7209L108.804 19.7858C108.804 19.7858 107.168 18.3832 104.791 18.3832C102.103 18.3832 99.7657 20.5261 99.7657 23.6819C99.7657 27.0715 102.103 29.1754 104.869 29.1754C107.363 29.1754 108.843 27.5391 108.843 27.5391V26.3702C108.843 26.0585 108.648 25.9027 108.376 25.9027H107.441V23.4482H109.973C111.025 23.4482 111.454 23.8767 111.454 24.9287V31.591H108.999V30.8507C108.999 30.5391 109.038 30.1884 109.038 30.1884H108.999C108.999 30.1884 107.324 31.8637 104.402 31.8637C100.311 31.8637 96.8047 28.7469 96.8047 23.7209C96.8047 19.2014 100.233 15.7339 104.752 15.7339ZM133.038 15.9676H138.609C141.454 15.9676 143.48 17.7209 143.48 20.6819C143.48 23.4871 141.531 24.6559 140.869 24.8118V24.8507C140.869 24.8507 141.337 25.0845 141.648 25.63L143.168 28.63C143.402 29.0975 143.791 29.1365 144.259 29.1365H144.531V31.591H143.051C141.882 31.591 141.376 31.3962 140.869 30.4222L138.882 26.4871C138.57 25.8637 138.22 25.7469 137.402 25.7469H135.96V31.591H133.077V15.9676H133.038ZM138.22 23.2923C139.661 23.2923 140.518 22.3962 140.518 20.8378C140.518 19.3183 139.661 18.4222 138.259 18.4222H135.921V23.2923H138.22Z" fill="white"/>
</g>
</svg>
