<svg width="284" height="50" viewBox="0 0 284 50" fill="none" xmlns="http://www.w3.org/2000/svg">
<g clip-path="url(#clip0_968_21653)">
<path d="M89.1299 33.2663C89.1299 34.0845 88.4675 34.7078 87.6883 34.7078H56.4416C55.6623 34.7468 55 34.0845 55 33.2663V14.4481C55 13.6689 55.6623 13.0065 56.4416 13.0065H87.6494C88.4675 13.0065 89.0909 13.6689 89.0909 14.4481V33.2663H89.1299Z" fill="#00BAFF"/>
<path d="M88.8182 13.5519C84.7663 19.8247 78.4936 25.5909 72.026 25.4351C69.6494 25.3961 66.9221 24.6948 64.6234 22.8247C62.9092 21.4221 61.1949 19.2403 60.5325 16.1234H59.8312C58.7793 16.1234 58.1559 17.0584 58.2728 17.9156C58.3117 18.1104 58.3507 18.3441 58.3897 18.5779C58.8962 21.6169 60.6884 25.0454 63.6884 27.2662C66.026 28.9805 68.9092 30.1104 72.065 30.1104C77.7533 30.1104 83.8312 26.487 89.1299 17.1753V14.448C89.1299 14.1364 89.013 13.7857 88.8182 13.5519Z" fill="white"/>
<path d="M224.013 20.1364C227.208 20.1364 228.961 22.474 228.961 25.4351C228.961 25.7468 228.883 26.487 228.883 26.487H221.169C221.403 28.474 222.844 29.487 224.519 29.487C226.312 29.487 227.675 28.2403 227.675 28.2403L228.844 30.1883C228.844 30.1883 227.13 31.8636 224.325 31.8636C220.623 31.8636 218.286 29.1753 218.286 25.9805C218.325 22.5519 220.662 20.1364 224.013 20.1364ZM226.117 24.539C226.078 23.2143 225.143 22.2792 224.013 22.2792C222.571 22.2792 221.558 23.1364 221.286 24.539H226.117ZM118.662 20.1364C121.857 20.1364 123.61 22.474 123.61 25.4351C123.61 25.7468 123.532 26.487 123.532 26.487H115.818C116.052 28.474 117.493 29.487 119.169 29.487C120.961 29.487 122.325 28.2403 122.325 28.2403L123.493 30.1883C123.493 30.1883 121.779 31.8636 118.974 31.8636C115.273 31.8636 112.935 29.1753 112.935 25.9805C112.974 22.5519 115.312 20.1364 118.662 20.1364ZM120.766 24.539C120.727 23.2143 119.792 22.2792 118.662 22.2792C117.221 22.2792 116.208 23.1364 115.935 24.539H120.766ZM150.922 20.1364C154.117 20.1364 155.87 22.474 155.87 25.4351C155.87 25.7468 155.792 26.487 155.792 26.487H148.078C148.312 28.474 149.753 29.487 151.429 29.487C153.221 29.487 154.584 28.2403 154.584 28.2403L155.753 30.1883C155.753 30.1883 154.039 31.8636 151.234 31.8636C147.532 31.8636 145.195 29.1753 145.195 25.9805C145.234 22.5519 147.571 20.1364 150.922 20.1364ZM153.026 24.539C152.987 23.2143 152.052 22.2792 150.922 22.2792C149.481 22.2792 148.468 23.1364 148.195 24.539H153.026ZM195.455 23.2532C195.455 22.9416 195.299 22.7857 194.987 22.7857H194.091V20.4091H196.662C197.636 20.4091 198.143 20.8766 198.143 21.6558V21.9675C198.143 22.2013 198.104 22.4351 198.104 22.4351H198.143C198.61 21.5 199.818 20.0974 202.117 20.0974C204.61 20.0974 206.013 21.3831 206.013 24.3442V28.7078C206.013 29.0195 206.169 29.1753 206.481 29.1753H207.377V31.513H204.727C203.675 31.513 203.247 31.0844 203.247 30.0325V24.9675C203.247 23.6039 202.896 22.6688 201.493 22.6688C200.013 22.6688 198.883 23.6039 198.493 24.9675C198.338 25.4351 198.26 25.9416 198.26 26.4481V31.5909H195.493V23.2532H195.455ZM187.234 20.1364C190.662 20.1364 193.39 22.5909 193.39 26.0195C193.39 29.487 190.662 31.9026 187.234 31.9026C183.844 31.9026 181.117 29.487 181.117 26.0195C181.117 22.5519 183.844 20.1364 187.234 20.1364ZM187.234 29.487C189.065 29.487 190.584 28.0844 190.584 25.9805C190.584 23.9156 189.065 22.474 187.234 22.474C185.442 22.474 183.922 23.9156 183.922 25.9805C183.922 28.0844 185.442 29.487 187.234 29.487ZM179.792 25.9805C179.792 29.4481 177.844 31.8636 174.844 31.8636C172.429 31.8636 171.493 30.2662 171.493 30.2662H171.455C171.455 30.2662 171.493 30.6558 171.493 31.2403V35.9935H168.688V23.2532C168.688 22.9416 168.493 22.7857 168.221 22.7857H167.325V20.4091H169.779C170.792 20.4091 171.221 20.8377 171.221 21.3831V21.7727H171.26C171.26 21.7727 172.195 20.1364 174.727 20.1364C177.688 20.1364 179.792 22.4351 179.792 25.9805ZM174.221 29.487C175.857 29.487 177.026 28.1234 177.026 25.9805C177.026 23.7597 175.74 22.513 174.221 22.513C172.351 22.513 171.416 24.2273 171.416 25.9805C171.377 28.4351 172.74 29.487 174.221 29.487ZM158.636 28.0455C158.636 28.0455 160.078 29.6818 161.987 29.6818C162.844 29.6818 163.506 29.3312 163.506 28.5909C163.506 26.9935 157.584 27.0325 157.584 23.4091C157.584 21.1493 159.61 20.1364 161.948 20.1364C163.468 20.1364 165.883 20.6429 165.883 22.474V23.6429H163.429V23.0974C163.429 22.5519 162.649 22.3182 162.026 22.3182C161.052 22.3182 160.351 22.6688 160.351 23.3312C160.351 25.0844 166.312 24.7338 166.312 28.474C166.312 30.5779 164.442 31.9026 161.987 31.9026C158.909 31.9026 157.312 29.9156 157.312 29.9156L158.636 28.0455ZM209.675 28.0455C209.675 28.0455 211.117 29.6818 213.026 29.6818C213.883 29.6818 214.545 29.3312 214.545 28.5909C214.545 26.9935 208.623 27.0325 208.623 23.4091C208.623 21.1493 210.649 20.1364 212.987 20.1364C214.506 20.1364 216.922 20.6429 216.922 22.474V23.6429H214.468V23.0974C214.468 22.5519 213.688 22.3182 213.065 22.3182C212.091 22.3182 211.39 22.6688 211.39 23.3312C211.39 25.0844 217.351 24.7338 217.351 28.474C217.351 30.5779 215.481 31.9026 213.065 31.9026C209.987 31.9026 208.39 29.9156 208.39 29.9156L209.675 28.0455ZM130.974 29.2532C130.195 29.2532 128.753 28.9805 128.753 27.1494V22.5909H131.286V21.5779C131.286 20.7597 130.935 20.4091 130.117 20.4091H128.753V17.3701H126.026V20.4091H124.506V22.6299H125.948V27.5C125.948 31.2403 129.065 31.7078 130.623 31.7078C131.13 31.7078 131.481 31.6299 131.481 31.6299V29.1753C131.481 29.2143 131.286 29.2532 130.974 29.2532ZM104.753 15.7338C108.571 15.7338 110.442 17.7208 110.442 17.7208L108.805 19.7857C108.805 19.7857 107.169 18.3831 104.792 18.3831C102.104 18.3831 99.7662 20.526 99.7662 23.6818C99.7662 27.0714 102.104 29.1753 104.87 29.1753C107.364 29.1753 108.844 27.539 108.844 27.539V26.3701C108.844 26.0584 108.649 25.9026 108.377 25.9026H107.442V23.4481H109.974C111.026 23.4481 111.455 23.8766 111.455 24.9286V31.5909H109V30.8506C109 30.539 109.039 30.1883 109.039 30.1883H109C109 30.1883 107.325 31.8636 104.403 31.8636C100.312 31.8636 96.8052 28.7468 96.8052 23.7208C96.8052 19.2013 100.234 15.7338 104.753 15.7338ZM133.039 15.9675H138.61C141.455 15.9675 143.481 17.7208 143.481 20.6818C143.481 23.487 141.532 24.6558 140.87 24.8117V24.8506C140.87 24.8506 141.338 25.0844 141.649 25.6299L143.169 28.6299C143.403 29.0974 143.792 29.1364 144.26 29.1364H144.532V31.5909H143.052C141.883 31.5909 141.377 31.3961 140.87 30.4221L138.883 26.487C138.571 25.8636 138.221 25.7468 137.403 25.7468H135.961V31.5909H133.078V15.9675H133.039ZM138.221 23.2922C139.662 23.2922 140.519 22.3961 140.519 20.8377C140.519 19.3182 139.662 18.4221 138.26 18.4221H135.922V23.2922H138.221Z" fill="#262626"/>
</g>
<defs>
<clipPath id="clip0_968_21653">
<rect width="174" height="23.6143" fill="white" transform="translate(55 12.6929)"/>
</clipPath>
</defs>
</svg>
