<svg width="284" height="50" viewBox="0 0 284 50" fill="none" xmlns="http://www.w3.org/2000/svg">
<g clip-path="url(#clip0_968_21653)">
<path d="M100.408 26.9H92.6733V35.0484H89V14.9428H92.6733V23.3661H100.408V14.9428H104.081V35.0484H100.408V26.9Z" fill="#213343"/>
<path d="M115.834 28.5499C115.834 30.2244 114.47 31.5869 112.796 31.5869C111.121 31.5869 109.758 30.2244 109.758 28.5499V19.9385H106.28V28.5499C106.28 32.1426 109.203 35.065 112.796 35.065C116.388 35.065 119.311 32.1426 119.311 28.5499V19.9385H115.834V28.5499Z" fill="#213343"/>
<path d="M141.644 20.8251C141.644 19.0595 142.813 18.4997 144.092 18.4997C145.122 18.4997 146.485 19.2837 147.375 20.2364L149.656 17.5476C148.516 16.0075 146.207 14.9428 144.315 14.9428C140.53 14.9428 137.803 17.1557 137.803 20.8251C137.803 27.6311 146.123 25.4737 146.123 29.2838C146.123 30.4588 144.983 31.4962 143.676 31.4962C141.616 31.4962 140.948 30.4878 140.002 29.4233L137.47 32.0556C139.084 34.0444 141.087 35.0534 143.48 35.0534C147.07 35.0534 149.964 32.8125 149.964 29.3109C149.964 21.7488 141.644 24.1018 141.644 20.8251Z" fill="#213343"/>
<path d="M193.115 31.8366C191.057 31.8366 190.473 30.9467 190.473 29.5827V23.5452H193.672V20.4848H190.473V16.4496L186.94 18.0355V30.3342C186.94 33.4787 189.109 35.065 192.086 35.065C192.531 35.065 193.144 35.0363 193.478 34.9538L194.34 31.782C193.951 31.8089 193.506 31.8366 193.115 31.8366Z" fill="#213343"/>
<path d="M129.092 20.0393C127.367 20.0393 126.163 20.5401 125 21.6816V15.0629H121.51V27.3294C121.51 31.9206 124.83 35.0651 128.559 35.0651C132.705 35.0651 136.338 31.8647 136.338 27.5525C136.338 23.2949 132.988 20.0393 129.092 20.0393ZM129.071 31.5533C126.885 31.5533 125.113 29.7814 125.113 27.5956C125.113 25.4099 126.885 23.6379 129.071 23.6379C131.256 23.6379 133.028 25.4099 133.028 27.5956C133.028 29.7814 131.256 31.5533 129.071 31.5533Z" fill="#213343"/>
<path d="M166.975 27.3713C166.975 23.0591 163.343 19.8587 159.197 19.8587C155.467 19.8587 152.147 23.0032 152.147 27.5944V39.8609H155.637V33.2422C156.8 34.3837 158.004 34.8845 159.729 34.8845C163.626 34.8845 166.975 31.6289 166.975 27.3713ZM163.665 27.3282C163.665 29.5139 161.893 31.2859 159.708 31.2859C157.522 31.2859 155.75 29.5139 155.75 27.3282C155.75 25.1424 157.522 23.3705 159.708 23.3705C161.893 23.3705 163.665 25.1424 163.665 27.3282Z" fill="#213343"/>
<path d="M178.251 19.6897V16.1847C179.165 15.7525 179.806 14.8269 179.806 13.7527V13.6717C179.806 12.1894 178.594 10.9765 177.111 10.9765H177.03C175.548 10.9765 174.335 12.1894 174.335 13.6717V13.7527C174.335 14.8269 174.976 15.7526 175.891 16.1847V19.6898C174.529 19.9002 173.284 20.462 172.257 21.2888L162.634 13.8026C162.697 13.5588 162.741 13.3076 162.742 13.044C162.744 11.365 161.385 10.0022 159.705 10C158.026 9.9979 156.664 11.3573 156.661 13.0363C156.659 14.7153 158.019 16.0782 159.698 16.0803C160.245 16.081 160.751 15.9256 161.195 15.6731L170.662 23.0375C169.857 24.2527 169.385 25.7084 169.385 27.2754C169.385 28.916 169.904 30.4334 170.78 31.6817L167.901 34.5607C167.673 34.4924 167.437 34.4446 167.187 34.4446C165.807 34.4446 164.689 35.5631 164.689 36.9429C164.689 38.3226 165.807 39.4411 167.187 39.4411C168.567 39.4411 169.685 38.3226 169.685 36.9429C169.685 36.693 169.637 36.4567 169.569 36.2291L172.417 33.3814C173.709 34.3682 175.319 34.9609 177.071 34.9609C181.315 34.9609 184.756 31.52 184.756 27.2754C184.756 23.433 181.934 20.2586 178.251 19.6897ZM177.071 31.2156C174.895 31.2156 173.13 29.4515 173.13 27.2754C173.13 25.0993 174.895 23.3351 177.071 23.3351C179.247 23.3351 181.011 25.0993 181.011 27.2754C181.011 29.4515 179.247 31.2156 177.071 31.2156Z" fill="#FF5C35"/>
</g>
<defs>
<clipPath id="clip0_968_21653">
<rect width="105.34" height="29.8609" fill="white" transform="translate(89 10)"/>
</clipPath>
</defs>
</svg>
