<svg width="284" height="50" viewBox="0 0 284 50" fill="none" xmlns="http://www.w3.org/2000/svg">
<mask id="mask0_11824_16118" style="mask-type:luminance" maskUnits="userSpaceOnUse" x="89" y="10" width="106" height="30">
<path d="M194.34 10H89V39.8609H194.34V10Z" fill="white"/>
</mask>
<g mask="url(#mask0_11824_16118)">
<path d="M100.408 26.9001H92.6733V35.0485H89V14.9429H92.6733V23.3662H100.408V14.9429H104.081V35.0485H100.408V26.9001Z" fill="white"/>
<path d="M115.835 28.5499C115.835 30.2244 114.471 31.5869 112.797 31.5869C111.122 31.5869 109.759 30.2244 109.759 28.5499V19.9385H106.281V28.5499C106.281 32.1426 109.204 35.065 112.797 35.065C116.389 35.065 119.312 32.1426 119.312 28.5499V19.9385H115.835V28.5499Z" fill="white"/>
<path d="M141.643 20.8252C141.643 19.0596 142.812 18.4998 144.091 18.4998C145.121 18.4998 146.484 19.2838 147.374 20.2365L149.655 17.5477C148.515 16.0076 146.206 14.9429 144.314 14.9429C140.529 14.9429 137.802 17.1558 137.802 20.8252C137.802 27.6312 146.122 25.4738 146.122 29.2839C146.122 30.4589 144.982 31.4963 143.675 31.4963C141.615 31.4963 140.947 30.4879 140.001 29.4234L137.469 32.0557C139.083 34.0445 141.086 35.0535 143.479 35.0535C147.069 35.0535 149.963 32.8126 149.963 29.311C149.963 21.7489 141.643 24.1019 141.643 20.8252Z" fill="white"/>
<path d="M193.113 31.8367C191.055 31.8367 190.471 30.9468 190.471 29.5828V23.5453H193.669V20.4849H190.471V16.4497L186.938 18.0356V30.3343C186.938 33.4788 189.106 35.0651 192.083 35.0651C192.528 35.0651 193.141 35.0364 193.475 34.9539L194.337 31.7821C193.948 31.809 193.504 31.8367 193.113 31.8367Z" fill="white"/>
<path d="M129.09 20.0394C127.365 20.0394 126.161 20.5402 124.998 21.6817V15.063H121.508V27.3295C121.508 31.9207 124.828 35.0652 128.557 35.0652C132.703 35.0652 136.336 31.8648 136.336 27.5526C136.336 23.295 132.986 20.0394 129.09 20.0394ZM129.069 31.5534C126.883 31.5534 125.111 29.7815 125.111 27.5957C125.111 25.41 126.883 23.638 129.069 23.638C131.254 23.638 133.026 25.41 133.026 27.5957C133.026 29.7815 131.254 31.5534 129.069 31.5534Z" fill="white"/>
<path d="M166.976 27.3712C166.976 23.059 163.344 19.8586 159.198 19.8586C155.468 19.8586 152.148 23.0031 152.148 27.5943V39.8608H155.638V33.2421C156.801 34.3836 158.005 34.8844 159.73 34.8844C163.627 34.8844 166.976 31.6288 166.976 27.3712ZM163.666 27.3281C163.666 29.5138 161.894 31.2858 159.709 31.2858C157.523 31.2858 155.751 29.5138 155.751 27.3281C155.751 25.1423 157.523 23.3704 159.709 23.3704C161.894 23.3704 163.666 25.1423 163.666 27.3281Z" fill="white"/>
<path d="M178.254 19.6897V16.1847C179.168 15.7525 179.809 14.8269 179.809 13.7527V13.6717C179.809 12.1894 178.597 10.9765 177.114 10.9765H177.033C175.551 10.9765 174.338 12.1894 174.338 13.6717V13.7527C174.338 14.8269 174.979 15.7526 175.894 16.1847V19.6898C174.532 19.9002 173.287 20.462 172.26 21.2888L162.637 13.8026C162.7 13.5588 162.744 13.3076 162.745 13.044C162.747 11.365 161.388 10.0022 159.708 10C158.029 9.9979 156.667 11.3573 156.664 13.0363C156.662 14.7153 158.022 16.0782 159.701 16.0803C160.248 16.081 160.754 15.9256 161.198 15.6731L170.665 23.0375C169.86 24.2527 169.388 25.7084 169.388 27.2754C169.388 28.916 169.907 30.4334 170.783 31.6817L167.904 34.5607C167.676 34.4924 167.44 34.4446 167.19 34.4446C165.81 34.4446 164.692 35.5631 164.692 36.9429C164.692 38.3226 165.81 39.4411 167.19 39.4411C168.57 39.4411 169.688 38.3226 169.688 36.9429C169.688 36.693 169.64 36.4567 169.572 36.2291L172.42 33.3814C173.712 34.3682 175.322 34.9609 177.074 34.9609C181.318 34.9609 184.759 31.52 184.759 27.2754C184.759 23.433 181.937 20.2586 178.254 19.6897ZM177.074 31.2156C174.898 31.2156 173.133 29.4515 173.133 27.2754C173.133 25.0993 174.898 23.3351 177.074 23.3351C179.25 23.3351 181.014 25.0993 181.014 27.2754C181.014 29.4515 179.25 31.2156 177.074 31.2156Z" fill="#FF5C35"/>
</g>
</svg>
