<svg width="284" height="50" viewBox="0 0 284 50" fill="none" xmlns="http://www.w3.org/2000/svg">
<mask id="mask0_11824_16094" style="mask-type:luminance" maskUnits="userSpaceOnUse" x="83" y="8" width="117" height="35">
<path d="M200 8H83V42.6368H200V8Z" fill="white"/>
</mask>
<g mask="url(#mask0_11824_16094)">
<path d="M149.438 14.9207C150.06 14.924 150.658 14.6845 151.106 14.2532C151.552 13.8235 151.811 13.2353 151.826 12.6162C151.819 11.9884 151.565 11.3888 151.119 10.9467C150.671 10.5029 150.068 10.2509 149.438 10.2443C148.816 10.2588 148.225 10.5154 147.79 10.9594C147.356 11.4017 147.115 11.997 147.117 12.6162C147.123 13.2267 147.369 13.8104 147.803 14.2403C148.238 14.6719 148.825 14.916 149.438 14.9207ZM165.667 17.1367H171.427V17.5906C171.108 17.6465 170.8 17.7523 170.513 17.9043C169.987 18.149 168.934 19.3349 168.125 21.3223C166.756 24.7755 165.317 28.8546 163.807 33.5294L163.245 35.3021C162.999 36.1034 162.788 36.6263 162.683 36.9419C162.577 37.2575 162.436 37.7432 162.192 38.3352C162.052 38.7806 161.873 39.2126 161.656 39.6258C161.374 40.1488 160.847 41.2214 160.426 41.544C159.759 42.1024 158.775 42.7299 157.547 42.6254C155.159 42.6254 153.368 40.8526 153.333 38.7555C153.333 37.3247 154.247 36.3835 155.616 36.3835C156.599 36.3835 157.476 36.9153 157.476 38.0215C157.476 38.8246 156.669 39.6613 156.669 40.0798C156.669 41.1609 157.301 41.6751 158.531 41.6751C159.512 41.6751 160.316 41.0476 160.917 39.7924C161.726 38.3618 161.795 36.7931 161.128 35.0485L156.073 21.7617C154.913 18.6933 154.034 17.6846 152.947 17.5765V17.1224H160.917V17.5761C159.969 17.6808 159.479 18.2392 159.479 19.2495C159.479 19.9817 159.759 21.0986 160.285 22.5291L161.233 25.1088C162.322 27.8989 163.197 30.34 163.657 31.8753C164.675 28.702 165.621 25.9117 166.536 23.4706C167.204 21.657 167.52 20.3666 167.52 19.5989C167.52 18.2392 166.783 17.6117 165.658 17.6117L165.667 17.1367ZM110.218 34.1214C109.2 33.9442 108.322 33.04 108.322 31.1219V8L102.528 9.25518V9.74453C103.511 9.63981 104.491 10.5102 104.491 12.3592V31.1219C104.491 32.9355 103.508 33.9815 102.528 34.1214C102.436 34.1375 102.343 34.1488 102.249 34.155C101.748 34.1893 101.246 34.1011 100.786 33.8981C100.007 33.5612 99.3578 32.9603 98.8079 32.0633L96.1306 27.8086C95.5659 26.9112 94.7265 26.2201 93.7374 25.8382C92.746 25.4547 91.6576 25.3997 90.6326 25.6813L93.6528 22.3682C95.934 19.8581 98.0423 18.2537 100.043 17.5908V17.1365H93.3995V17.5904C95.1201 18.2533 95.0148 19.7177 93.0425 22.0223L88.7942 26.9379V8L83 9.25518V9.74453C83.9835 9.74453 84.9634 10.7194 84.9634 12.4283V31.1219C84.9634 33.1802 84.0157 33.9815 83 34.1214V34.5753H90.6968V34.1214C89.4332 33.9442 88.8013 32.9709 88.8013 31.1219V27.6703L90.4505 25.8569L94.4455 32.3771C95.3933 33.9476 96.2715 34.5753 97.6764 34.5753H111.046V34.2207C111.046 34.2207 110.664 34.1941 110.218 34.1214ZM126.169 31.9161V24.116C126.092 19.0159 123.939 16.6936 119.009 16.6936C117.435 16.6814 115.902 17.1969 114.655 18.1577C113.356 19.1345 112.724 20.2514 112.724 21.542C112.724 22.7972 113.426 23.7384 114.584 23.7384C115.814 23.7384 116.692 23.0416 116.692 22.065C116.692 21.3328 116.199 20.3206 116.199 19.6239C116.199 18.3671 117.149 17.2857 118.798 17.2857C120.907 17.2857 122.415 18.8564 122.415 22.3433V24.4352L120.66 24.8534C119.746 25.0306 118.975 25.2081 118.377 25.3853C117.779 25.5625 117.008 25.8037 116.094 26.1511C114.268 26.8497 113.286 27.5126 112.442 28.7678C112.029 29.3744 111.809 30.0918 111.81 30.8259C111.81 33.7191 113.847 35.0451 116.692 35.0451C118.939 35.0451 121.333 33.859 122.415 31.6272C122.43 32.3312 122.6 33.0233 122.913 33.6552C124.103 36.0484 128.047 34.6337 128.047 34.6337V34.18C126.32 34.4476 126.178 32.4089 126.169 31.9161ZM122.42 29.5016C122.42 30.6521 121.999 31.5935 121.156 32.2565C120.35 32.9196 119.507 33.2688 118.629 33.2688C116.908 33.2688 115.784 32.1519 115.784 30.0937C115.784 29.1188 116.319 28.211 116.767 27.6882C117.122 27.327 117.539 27.0316 117.997 26.8159C118.593 26.5021 118.889 26.3408 119.296 26.1529L120.903 25.5609C121.71 25.2471 122.201 25.0733 122.411 24.9688L122.42 29.5016ZM200 17.1367H186.343V8H200L197.133 12.5684L200 17.1367ZM172.24 32.3557C171.399 31.4974 170.737 30.4817 170.29 29.3668C169.843 28.2519 169.62 27.0598 169.635 25.8587C169.617 24.6633 169.837 23.4763 170.284 22.3674C170.732 21.2567 171.397 20.2463 172.24 19.3951C173.962 17.5799 176.072 16.6705 178.535 16.6705C180.961 16.6705 183.073 17.5799 184.795 19.3951C185.649 20.2395 186.324 21.2479 186.778 22.3598C187.231 23.4697 187.454 24.66 187.433 25.8587C187.451 27.062 187.227 28.2565 186.774 29.3713C186.32 30.4882 185.647 31.5029 184.795 32.3557C183.073 34.1285 180.961 35.0451 178.535 35.0451C176.072 35.0451 173.962 34.1373 172.24 32.3557ZM181.7 19.6859C181.006 18.3369 180.093 17.5463 179.023 17.3334C176.85 16.8992 174.93 19.1168 174.214 22.6429C173.908 24.2246 173.834 25.8422 173.994 27.4452C174.151 29.0494 174.6 30.6114 175.319 32.0545C176.015 33.4053 176.925 34.1941 177.996 34.4068C180.169 34.8411 182.145 32.5295 182.866 28.968C183.464 25.9916 183.16 22.3664 181.691 19.6841L181.7 19.6859Z" fill="white"/>
<path d="M151.475 31.1219V17.1367H139.113V17.5569C140.765 17.8016 141.55 19.0391 140.8 21.0456C136.938 31.4729 137.184 31.0049 136.938 31.8416C136.691 31.0385 136.129 29.0656 135.217 26.5907C134.305 24.116 133.707 22.4746 133.46 21.7423C132.513 18.8474 132.828 17.766 134.374 17.5924V17.1385H126.367V17.5924C127.561 17.837 128.614 19.1965 129.492 21.6376L130.722 24.8109C132.073 28.2394 133.66 32.9655 134.19 34.5771H136.852C137.709 32.0951 141.147 22.1908 141.607 21.1839C142.103 20.0369 142.666 19.1681 143.294 18.5672C143.598 18.2434 143.967 17.9879 144.377 17.8177C144.788 17.6471 145.23 17.5654 145.675 17.5781C145.675 17.5781 147.605 17.5781 147.605 19.4271V31.1219C147.605 33.072 146.657 33.9814 145.673 34.1214V34.5753H153.329V34.1214C152.317 33.9814 151.475 33.0754 151.475 31.1219Z" fill="white"/>
</g>
</svg>
