<svg width="284" height="50" viewBox="0 0 284 50" fill="none" xmlns="http://www.w3.org/2000/svg">
<path d="M68.4817 26.0752C68.2252 26.0623 67.9681 26.0797 67.7157 26.1271C67.2947 26.195 66.8914 26.346 66.5293 26.5714C66.1672 26.7968 65.8536 27.0919 65.6067 27.4397C65.3598 27.7875 65.1846 28.1809 65.0913 28.5971C64.998 29.0132 64.9884 29.4438 65.0632 29.8637C65.2467 31.5954 67.0929 33.0556 68.802 33.0991C68.9774 33.1035 69.1529 33.0919 69.3261 33.0643C71.1756 32.7649 71.6598 30.8591 71.355 28.9871C71.0106 26.8734 69.5042 26.1283 68.4817 26.0752ZM70.2938 31.083C70.2158 31.1998 70.1074 31.2933 69.9803 31.3534C69.8532 31.4134 69.7122 31.4379 69.5724 31.424C69.3265 31.4045 69.0972 31.2923 68.9309 31.1101C68.7647 30.9279 68.6739 30.6894 68.6769 30.4427C68.6727 30.1141 68.736 29.788 68.8631 29.4849C68.9424 29.2923 68.9501 29.0777 68.8846 28.88C68.8191 28.6823 68.6849 28.5146 68.5063 28.4075C68.2868 28.2714 68.0235 28.2248 67.7706 28.2772C67.5257 28.3242 67.3093 28.4661 67.1686 28.6719C67.0735 28.8255 66.9994 28.9911 66.948 29.1643C66.9379 29.1946 66.93 29.2184 66.924 29.2339C66.8402 29.4476 66.7064 29.5101 66.616 29.4985C66.5827 29.4924 66.5519 29.4768 66.5272 29.4537C66.5025 29.4305 66.4849 29.4008 66.4767 29.3679C66.4298 29.0827 66.4518 28.7903 66.5408 28.5152C66.6298 28.2402 66.7833 27.9904 66.9885 27.7866C67.1671 27.6083 67.3842 27.4731 67.623 27.3914C67.8618 27.3096 68.1162 27.2835 68.3666 27.3149C68.6297 27.3465 68.881 27.4417 69.0991 27.5922C69.3171 27.7427 69.4952 27.944 69.618 28.1787C69.7362 28.4612 69.784 28.7681 69.7573 29.0732C69.7306 29.3782 69.6303 29.6722 69.4648 29.9299C69.4439 29.9745 69.4248 30.0153 69.4084 30.0518C69.3489 30.1528 69.3161 30.2672 69.313 30.3843C69.3099 30.5015 69.3367 30.6175 69.3908 30.7214C69.4384 30.7848 69.5005 30.8358 69.5719 30.8702C69.6433 30.9046 69.722 30.9213 69.8012 30.9189C69.8769 30.9179 69.9521 30.9079 70.0254 30.889C70.1204 30.868 70.2186 30.8464 70.2784 30.9175C70.2982 30.9399 70.3104 30.968 70.3132 30.9977C70.316 31.0275 70.3092 31.0573 70.2938 31.083Z" fill="white"/>
<path d="M92.1158 34.6341C92.5017 33.6549 92.7247 32.6192 92.7762 31.568C92.7762 30.2756 92.0444 29.7399 91.5785 29.7399C91.5642 29.69 91.4721 29.353 91.3452 28.9473C91.2726 28.7121 91.1864 28.4812 91.0872 28.2559C91.4685 27.7291 91.6299 27.0746 91.5372 26.4309C91.4609 25.9346 91.2249 25.4767 90.865 25.1265C90.1818 24.5466 89.3666 24.1434 88.4911 23.9525C88.3592 23.9156 87.9244 23.7964 87.8862 23.7848C87.8832 23.7599 87.8545 22.361 87.8282 21.7605C87.817 21.1583 87.7272 20.5601 87.5613 19.9811C87.355 19.1503 86.9287 18.3903 86.3271 17.7812C87.8333 16.2221 88.7736 14.5046 88.7714 13.0312C88.7671 10.1977 85.2822 9.34029 80.9878 11.1161C80.9831 11.1181 80.0843 11.4986 80.0779 11.5018C80.0739 11.4978 78.4329 9.89021 78.4082 9.86859C73.5121 5.60408 58.2033 22.5957 63.0978 26.7225L64.1675 27.6273C63.8788 28.4007 63.7769 29.2314 63.87 30.0517C64.015 31.2451 64.6049 32.3398 65.5219 33.1172C66.4119 33.925 67.5618 34.3873 68.7633 34.4204C70.668 38.8034 75.0198 41.4921 80.1224 41.6434C85.596 41.8057 90.1906 39.2411 92.1158 34.6341ZM93.2393 29.4472C93.7082 30.0523 93.9494 30.803 93.9209 31.568C93.8716 32.7613 93.6221 33.9378 93.1827 35.0483L93.1724 35.0743C92.1791 37.4627 90.445 39.4689 88.2256 40.7974C85.9155 42.141 83.2835 42.8311 80.6113 42.7939C80.4383 42.7939 80.2621 42.7912 80.0885 42.7861C77.4512 42.731 74.8767 41.971 72.6322 40.5851C70.6565 39.3471 69.0577 37.5914 68.0093 35.5089C66.8015 35.3213 65.6738 34.7878 64.7628 33.9729C63.63 33.0052 62.9044 31.6455 62.731 30.1658C62.6538 29.4468 62.6954 28.72 62.8544 28.0146L62.3578 27.5947C61.9559 27.2476 61.6292 26.8218 61.398 26.3437C61.1667 25.8656 61.0358 25.3452 61.0132 24.8146C60.9725 23.7131 61.1628 22.6153 61.572 21.5919C62.5914 18.8089 64.9364 15.495 67.8453 12.7271C69.1434 11.4674 70.5835 10.3628 72.1364 9.4353C73.4317 8.60685 74.9193 8.1277 76.4546 8.04445C77.4448 8.01862 78.4093 8.36173 79.1607 9.00714C79.2036 9.04455 79.8465 9.67328 80.3341 10.1509C80.4564 10.0993 80.5445 10.0621 80.547 10.0612C81.9895 9.43284 83.5398 9.08882 85.1126 9.04796C88.027 9.04796 89.9124 10.6108 89.9161 13.0295C89.9184 14.5219 89.1857 16.195 87.8348 17.8146C88.2023 18.3829 88.4804 19.0042 88.6592 19.6569C88.8511 20.3251 88.9561 21.0152 88.9718 21.7102C88.985 22.0092 88.9983 22.489 89.0092 22.9125C90.0058 23.1647 90.9268 23.6538 91.6939 24.3382C92.214 24.8542 92.555 25.5232 92.6671 26.2472C92.7797 26.9619 92.6693 27.6939 92.3509 28.3435C92.3792 28.4249 92.4087 28.5132 92.4381 28.6068C92.4636 28.6885 92.4876 28.7671 92.5101 28.8418C92.7907 28.9936 93.0384 29.1994 93.2393 29.4472Z" fill="white"/>
<path d="M89.7697 28.0321C89.9553 27.8576 90.1001 27.6443 90.1937 27.4073C90.2872 27.1704 90.3273 26.9157 90.311 26.6615C90.2738 26.4052 90.1543 26.168 89.9704 25.9858C89.4308 25.5379 88.7889 25.2305 88.1017 25.091C87.7879 25.0019 87.5749 24.9449 87.3455 24.8686C86.9374 24.7328 86.7358 24.6234 86.6902 23.8478C86.6702 23.5086 86.6117 22.3269 86.5906 21.8386C86.5535 20.983 86.4515 19.8134 85.7339 19.3306C85.5513 19.2095 85.339 19.1409 85.1201 19.1323C84.9976 19.1248 84.8746 19.1369 84.7559 19.1683C84.3917 19.2534 84.0601 19.4429 83.8019 19.7135C83.4676 20.0188 83.0734 20.2512 82.6445 20.396C82.2155 20.5408 81.7611 20.5948 81.3102 20.5546C80.8079 20.5333 80.2756 20.4542 79.6654 20.4176C79.5466 20.4106 79.4275 20.4032 79.3087 20.3969C78.5202 20.4202 77.7663 20.7261 77.1846 21.2589C76.6028 21.7917 76.232 22.5159 76.1397 23.2993C75.7904 25.7293 77.5309 26.985 78.0334 27.7219C78.1111 27.8159 78.1592 27.9309 78.1717 28.0522C78.1586 28.1868 78.0947 28.3113 77.9928 28.4003L77.993 28.401C77.2971 29.1843 76.8086 30.1294 76.572 31.1501C76.3353 32.1708 76.3582 33.2344 76.6384 34.244C76.7048 34.4865 76.7899 34.7234 76.893 34.9527C78.163 37.9533 82.1029 39.3507 85.952 38.0798C86.4563 37.9133 86.9454 37.7043 87.4144 37.4552C88.2583 37.0333 89.0173 36.4598 89.6537 35.7633C90.6465 34.7563 91.2985 33.4634 91.5181 32.0665C91.634 31.2932 91.4642 30.9939 91.2331 30.8499C91.0698 30.7581 90.8806 30.7232 90.6954 30.7508C90.5974 30.1437 90.4254 29.5509 90.1833 28.9856L89.7697 28.0321Z" fill="white"/>
<path d="M83.4616 16.443C83.5237 16.4573 83.5632 16.35 83.5076 16.3189C82.588 15.8424 81.5738 15.5769 80.5387 15.5419C80.5287 15.5418 80.519 15.5389 80.5106 15.5335C80.5022 15.5282 80.4954 15.5207 80.491 15.5117C80.4866 15.5028 80.4848 15.4928 80.4857 15.4829C80.4866 15.473 80.4903 15.4636 80.4962 15.4556C80.6571 15.2453 80.845 15.057 81.0549 14.8957C81.0643 14.8884 81.0712 14.8783 81.0744 14.8668C81.0776 14.8554 81.0771 14.8432 81.0729 14.832C81.0687 14.8209 81.0611 14.8114 81.0511 14.8049C81.0411 14.7984 81.0293 14.7953 81.0175 14.796C79.7501 14.9205 78.5316 15.35 77.4664 16.0479C77.4573 16.054 77.4466 16.0573 77.4356 16.0573C77.4247 16.0572 77.414 16.0539 77.4049 16.0477C77.3959 16.0416 77.3889 16.0328 77.3849 16.0226C77.3808 16.0124 77.38 16.0013 77.3823 15.9906C77.4682 15.6706 77.5944 15.3628 77.7581 15.0748C77.7635 15.0649 77.7656 15.0536 77.7641 15.0424C77.7625 15.0313 77.7574 15.0209 77.7495 15.0128C77.7417 15.0048 77.7314 14.9995 77.7203 14.9977C77.7091 14.9959 77.6978 14.9978 77.6878 15.003C76.1495 15.8479 74.7785 16.9666 73.6422 18.3042C73.6333 18.3144 73.6285 18.3274 73.6287 18.341C73.6288 18.3545 73.6339 18.3674 73.643 18.3774C73.6521 18.3874 73.6645 18.3937 73.678 18.3951C73.6914 18.3966 73.7049 18.393 73.7159 18.3851C75.0326 17.465 76.516 16.8102 78.0832 16.4574C79.8522 16.0493 81.6904 16.0444 83.4616 16.443Z" fill="white"/>
<path d="M78.931 12.1027C78.931 12.1027 77.5984 10.5599 77.1961 10.4461C74.7212 9.77824 69.3752 13.4599 65.9617 18.3241C64.5805 20.2922 62.6033 23.7775 63.5488 25.57C63.8848 25.9725 64.2636 26.3372 64.6785 26.6578C65.312 25.7699 66.2653 25.1625 67.3377 24.9637C68.6836 21.2009 71.0462 17.8849 74.163 15.3839C75.6586 14.1599 77.2534 13.0623 78.931 12.1027Z" fill="white"/>
<path d="M70.2043 31.0161C70.2235 31.0394 70.2352 31.0679 70.2378 31.0979C70.2405 31.1279 70.2341 31.158 70.2193 31.1843C70.1474 31.3009 70.0445 31.3951 69.922 31.4563C69.7995 31.5175 69.6623 31.5433 69.5259 31.5307C69.2829 31.5045 69.0589 31.387 68.8992 31.202C68.7394 31.017 68.6559 30.7783 68.6654 30.534C68.6613 30.2012 68.722 29.8707 68.8443 29.5611C68.9215 29.3671 68.9295 29.1525 68.8671 28.9533C68.8047 28.754 68.6756 28.5823 68.5015 28.4671C68.3985 28.3989 68.2828 28.3521 68.1614 28.3293C68.04 28.3066 67.9152 28.3084 67.7945 28.3347C67.6763 28.3596 67.5642 28.4078 67.4648 28.4767C67.3655 28.5455 67.281 28.6335 67.2161 28.7355C67.1244 28.8925 67.0532 29.0605 67.004 29.2355C66.9945 29.2664 66.9869 29.2905 66.9811 29.3062C66.9005 29.5234 66.7721 29.5868 66.6851 29.5752C66.6439 29.5695 66.5874 29.542 66.5511 29.4425C66.5056 29.155 66.5263 28.8609 66.6115 28.5826C66.6967 28.3043 66.8443 28.0491 67.043 27.8364C67.2099 27.6572 67.417 27.5203 67.6473 27.437C67.8776 27.3538 68.1244 27.3265 68.3673 27.3575C68.6246 27.3929 68.8691 27.4915 69.079 27.6446C69.2888 27.7976 69.4574 28.0004 69.5697 28.2346C69.6834 28.5224 69.7293 28.8326 69.7038 29.1411C69.6783 29.4495 69.5821 29.748 69.4227 30.0133C69.4025 30.0584 69.384 30.0998 69.3685 30.1372C69.3112 30.2408 69.2797 30.3567 69.2767 30.4751C69.2738 30.5935 69.2994 30.7108 69.3515 30.8172C69.3955 30.8806 69.4546 30.9321 69.5234 30.9671C69.5922 31.0021 69.6686 31.0195 69.7458 31.0177C69.8186 31.0166 69.8909 31.0064 69.9611 30.9873C70.0525 30.9658 70.1469 30.9439 70.2043 31.0161ZM92.7269 31.5784C92.6759 32.6272 92.4543 33.6606 92.0709 34.6381C90.1582 39.2354 85.5937 41.7947 80.156 41.6327C75.0868 41.4817 70.7634 38.7986 68.8712 34.4249C67.6766 34.3914 66.5339 33.9299 65.6511 33.1244C64.7393 32.347 64.1534 31.2549 64.0101 30.0653C63.9175 29.2468 64.0188 28.4181 64.3056 27.646L63.2429 26.743C58.3805 22.6249 73.5888 5.66899 78.4531 9.92464C78.4776 9.94606 80.1077 11.5505 80.1118 11.5544C80.1183 11.5511 81.0112 11.1713 81.0158 11.1695C85.2821 9.39738 88.7441 10.253 88.7484 13.0804C88.7507 14.5508 87.8166 16.2647 86.3203 17.8205C86.9183 18.4291 87.3417 19.1873 87.5461 20.0157C87.7111 20.5937 87.8003 21.1906 87.8114 21.7915C87.8374 22.3907 87.8661 23.7867 87.869 23.8116C87.907 23.8231 88.3389 23.9419 88.4698 23.9788C89.3403 24.1698 90.1503 24.5722 90.8283 25.1505C91.1862 25.5005 91.4205 25.9573 91.4961 26.4521C91.5883 27.0941 91.4281 27.7469 91.0491 28.2732C91.1477 28.4981 91.2333 28.7285 91.3054 28.9633C91.4313 29.3682 91.523 29.7043 91.5371 29.7541C91.9999 29.7541 92.7269 30.2886 92.7269 31.5784ZM71.2387 29.0557C70.908 26.909 69.4603 26.1524 68.4779 26.0985C68.2313 26.0854 67.984 26.103 67.7418 26.1509C65.9884 26.5058 64.9981 28.0018 65.193 29.9458C65.3349 30.8178 65.7667 31.6165 66.4186 32.2128C67.0705 32.809 67.9044 33.1681 68.7856 33.2318C68.9542 33.2363 69.1229 33.2245 69.2893 33.1964C71.0664 32.8924 71.5317 30.9569 71.2387 29.0557ZM74.2357 15.4283C75.7209 14.2072 77.3053 13.112 78.9724 12.1539C78.9724 12.1539 77.6487 10.6144 77.2489 10.501C74.7903 9.83431 69.4791 13.5083 66.0881 18.3623C64.716 20.3262 62.7518 23.8043 63.6909 25.593C64.0245 25.9945 64.4009 26.3585 64.8133 26.6785C65.4411 25.7935 66.3885 25.1873 67.4552 24.988C68.7896 21.2367 71.1364 17.9279 74.2357 15.4283ZM79.5793 32.4163C79.6444 32.7016 79.7855 32.964 79.9874 33.1758C80.1894 33.3876 80.4448 33.5409 80.7267 33.6195C81.02 33.7288 81.3225 33.8112 81.6307 33.8657C85.5198 34.5367 89.1557 32.3063 89.9743 31.7445C90.0358 31.7023 90.0764 31.7435 90.0271 31.8179C90.0024 31.8575 89.9757 31.8958 89.9469 31.9326C88.945 33.2288 86.2516 34.7299 82.7473 34.7294C81.219 34.7292 79.6914 34.1891 79.1306 33.3592C78.2604 32.0716 79.0874 30.1921 80.5374 30.3879C80.5391 30.3882 81.0335 30.4444 81.1725 30.4599C83.4263 30.6766 85.6981 30.312 87.7709 29.4007C89.7491 28.4797 90.4964 27.466 90.3843 26.6454C90.3468 26.3906 90.2271 26.155 90.0432 25.9746C89.5023 25.5293 88.8599 25.2241 88.173 25.086C87.8588 24.9975 87.6457 24.9411 87.416 24.8652C87.0077 24.7303 86.8058 24.6217 86.7601 23.8515C86.7401 23.5147 86.6816 22.3413 86.6604 21.8563C86.6231 21.0066 86.5213 19.8453 85.8027 19.3657C85.6198 19.2454 85.4074 19.1773 85.1886 19.1688C85.0659 19.1614 84.9428 19.1735 84.8239 19.2047C84.46 19.2889 84.1283 19.477 83.8691 19.7461C83.5333 20.0496 83.1384 20.2804 82.7092 20.4241C82.28 20.5679 81.8257 20.6213 81.3749 20.5812C80.8722 20.5602 80.3394 20.4816 79.7287 20.4453C79.6099 20.4382 79.4906 20.4308 79.3715 20.4248C78.5852 20.4454 77.8324 20.7477 77.2502 21.2767C76.6681 21.8057 76.2952 22.5261 76.1996 23.3069C75.8499 25.72 77.5921 26.9669 78.0951 27.6986C78.1728 27.7918 78.221 27.906 78.2336 28.0267C78.2203 28.1606 78.1562 28.2842 78.0545 28.3723V28.3731C77.3588 29.1481 76.8698 30.0862 76.6329 31.1004C76.3959 32.1146 76.4185 33.1722 76.6988 34.1753C76.7653 34.4162 76.8505 34.6515 76.9536 34.8791C78.2249 37.8589 82.1684 39.2464 86.0212 37.9842C86.5257 37.8191 87.0153 37.6117 87.4849 37.3643C88.3286 36.946 89.0884 36.3765 89.7264 35.684C90.7187 34.6867 91.3716 33.4023 91.5925 32.013C91.7085 31.2449 91.5388 30.9479 91.3072 30.8049C91.1436 30.7137 90.9544 30.679 90.769 30.7063C90.6709 30.1031 90.4988 29.5144 90.2566 28.9534C89.1562 29.7837 87.9123 30.4042 86.5872 30.7839C84.9929 31.2344 83.3342 31.4143 81.6804 31.3161C80.6164 31.2298 79.9125 30.9183 79.6477 31.7813C81.2572 32.3195 82.966 32.4939 84.651 32.2918C84.6628 32.2906 84.6748 32.2917 84.6862 32.2951C84.6976 32.2986 84.7082 32.3042 84.7175 32.3118C84.7267 32.3193 84.7343 32.3286 84.74 32.3391C84.7456 32.3496 84.7491 32.3611 84.7502 32.373C84.752 32.3929 84.7476 32.4129 84.7375 32.4302C84.7274 32.4475 84.7123 32.4612 84.6941 32.4695C84.6941 32.4695 82.7178 33.3899 79.5793 32.4163ZM73.7915 18.4231C75.0986 17.5054 76.5725 16.852 78.1302 16.4996C79.8875 16.0924 81.714 16.0874 83.4734 16.4852C83.535 16.4993 83.5743 16.3923 83.5192 16.3614C82.6062 15.886 81.5983 15.621 80.5696 15.5859C80.5597 15.5857 80.55 15.5828 80.5416 15.5775C80.5333 15.5722 80.5265 15.5647 80.5222 15.5558C80.5178 15.5469 80.516 15.5369 80.5169 15.5271C80.5178 15.5172 80.5215 15.5078 80.5274 15.4998C80.6872 15.2901 80.8738 15.1022 81.0826 14.9411C81.0919 14.9338 81.0987 14.9237 81.1019 14.9123C81.1052 14.9009 81.1046 14.8887 81.1005 14.8776C81.0963 14.8665 81.0887 14.857 81.0788 14.8505C81.0689 14.844 81.0571 14.8409 81.0453 14.8415C79.7855 14.9661 78.5748 15.3948 77.5174 16.0909C77.5083 16.097 77.4977 16.1002 77.4868 16.1002C77.4759 16.1002 77.4652 16.0969 77.4562 16.0907C77.4472 16.0845 77.4403 16.0758 77.4363 16.0657C77.4323 16.0555 77.4315 16.0444 77.4339 16.0337C77.5191 15.7145 77.6445 15.4075 77.8072 15.1199C77.8126 15.1101 77.8147 15.0988 77.8132 15.0877C77.8116 15.0766 77.8066 15.0662 77.7988 15.0582C77.791 15.0501 77.7808 15.0448 77.7697 15.043C77.7586 15.0412 77.7473 15.043 77.7373 15.0481C76.2081 15.8922 74.846 17.0087 73.7183 18.3426C73.7095 18.3527 73.7046 18.3657 73.7048 18.3792C73.7049 18.3926 73.71 18.4055 73.719 18.4154C73.7281 18.4254 73.7404 18.4317 73.7538 18.4331C73.7671 18.4345 73.7806 18.4309 73.7915 18.4231ZM84.033 26.6142C84.1395 26.6816 84.267 26.7074 84.3913 26.6868C84.5156 26.6661 84.6279 26.6004 84.7068 26.5022C84.8049 26.3123 84.6625 26.0548 84.3885 25.9269C84.2821 25.8595 84.1545 25.8337 84.0302 25.8544C83.9059 25.8751 83.7936 25.9409 83.7148 26.0391C83.6165 26.2289 83.7591 26.4864 84.033 26.6142ZM84.8732 23.5353C84.939 23.8771 85.0807 24.1998 85.2881 24.4794C85.5023 24.4531 85.719 24.4531 85.9332 24.4794C86.0585 24.1042 86.0695 23.7002 85.9648 23.3187C85.8099 22.6149 85.6004 22.1889 85.1674 22.2551C84.7345 22.3214 84.7185 22.8314 84.8732 23.5353ZM85.7944 25.1522C85.6852 25.1208 85.5689 25.1245 85.4619 25.1626C85.3549 25.2008 85.2625 25.2715 85.1978 25.3649C85.133 25.4582 85.0992 25.5695 85.1009 25.6831C85.1027 25.7967 85.14 25.9068 85.2076 25.9981C85.2752 26.0894 85.3697 26.1573 85.4779 26.1921C85.586 26.2269 85.7023 26.2269 85.8105 26.1922C85.9187 26.1575 86.0132 26.0898 86.0809 25.9986C86.1486 25.9074 86.1861 25.7972 86.1879 25.6837C86.2036 25.5614 86.1714 25.4378 86.0981 25.3387C86.0247 25.2397 85.9159 25.1728 85.7944 25.1522Z" fill="black"/>
<path d="M78.6059 25.0893C78.5368 25.0795 78.5074 25.05 78.4987 25.0108C78.4718 24.8894 78.6586 24.6896 78.8555 24.5453C79.1428 24.3353 79.4793 24.2027 79.8326 24.1602C80.186 24.1178 80.5443 24.167 80.8732 24.3031C81.1805 24.4298 81.4447 24.6425 81.6342 24.9156C81.7046 25.0304 81.7182 25.1194 81.6727 25.1661C81.6018 25.2409 81.421 25.1552 81.1267 25.0261C80.7731 24.8527 80.3824 24.7685 79.9888 24.7811C79.5224 24.8578 79.0607 24.9607 78.6059 25.0893ZM81.5393 25.6932C81.4122 25.5595 81.2538 25.4594 81.0785 25.402C80.9032 25.3445 80.7163 25.3314 80.5347 25.3639C80.2668 25.3924 80.0131 25.4981 79.8043 25.6683C79.707 25.7381 79.6401 25.8426 79.6174 25.9602C79.6168 25.9732 79.6192 25.9863 79.6243 25.9983C79.6293 26.0104 79.637 26.0212 79.6467 26.03C79.6639 26.0457 79.6865 26.0543 79.7098 26.054C79.8061 26.0399 79.9004 26.0137 79.9902 25.9762C80.3837 25.8279 80.8089 25.7838 81.2244 25.8481C81.417 25.8697 81.508 25.8818 81.5502 25.8157C81.5611 25.7966 81.5658 25.7746 81.5639 25.7527C81.562 25.7308 81.5534 25.7101 81.5393 25.6932Z" fill="black"/>
<path d="M80.9939 25.8696C81.1154 25.4372 81.1224 24.9805 81.0141 24.5445C80.8575 23.8395 80.6206 23.4367 80.1815 23.5031C79.7425 23.5694 79.7311 24.1375 79.8726 24.8454C79.9377 25.1698 80.0644 25.4787 80.246 25.7553C80.5953 26.2429 80.8328 26.1167 80.9939 25.8696Z" fill="black"/>
<path d="M114.114 23.7078C111.994 23.7078 110.945 25.3734 110.467 26.453C110.197 27.0544 110.12 27.5248 109.904 27.5248C109.596 27.5248 109.819 27.1161 109.565 26.1985C109.233 24.9956 108.238 23.7078 106.118 23.7078C103.889 23.7078 102.941 25.5893 102.486 26.6226C102.177 27.332 102.177 27.5248 101.938 27.5248C101.591 27.5248 101.877 26.9619 102.031 26.3065C102.339 25.011 102.1 24.0162 102.1 24.0162H98.584V37.2795H103.403V30.6787C103.403 29.3755 103.951 27.7253 104.884 27.7253C105.964 27.7253 106.18 28.5504 106.18 30.0849V37.2795H111.014V30.671C111.014 29.5143 111.485 27.7176 112.503 27.7176C113.598 27.7176 113.79 28.882 113.79 30.0772V37.2718H118.541V29.4681C118.541 26.0057 117.322 23.7001 114.122 23.7001L114.114 23.7078Z" fill="black"/>
<path d="M195.869 23.7078C193.748 23.7078 192.699 25.3734 192.221 26.453C191.951 27.0544 191.874 27.5248 191.658 27.5248C191.35 27.5248 191.558 27.0005 191.319 26.1985C190.964 25.0033 190.085 23.7078 187.872 23.7078C185.659 23.7078 184.695 25.5893 184.24 26.6226C183.932 27.332 183.932 27.5248 183.693 27.5248C183.346 27.5248 183.631 26.9619 183.785 26.3065C184.094 25.011 183.854 24.0162 183.854 24.0162H180.323V37.2795H185.142V30.6787C185.142 29.3755 185.69 27.7253 186.623 27.7253C187.702 27.7253 187.918 28.5504 187.918 30.0849V37.2795H192.753V30.671C192.753 29.5143 193.224 27.7176 194.241 27.7176C195.336 27.7176 195.529 28.882 195.529 30.0772V37.2718H200.279V29.4681C200.279 26.0057 199.061 23.7001 195.861 23.7001L195.869 23.7078Z" fill="black"/>
<path d="M126.761 23.7078C123.067 23.7078 120.422 25.065 120.422 25.065V29.0516C120.422 29.0516 123.345 27.3706 125.72 27.3706C127.617 27.3706 127.848 28.3885 127.755 29.2367C127.755 29.2367 127.208 29.0902 125.542 29.0902C121.617 29.0902 119.635 30.8715 119.635 33.7323C119.635 36.4467 121.864 37.5802 123.738 37.5802C126.475 37.5802 127.678 35.7373 128.048 34.8659C128.303 34.2567 128.349 33.8557 128.58 33.8557C128.843 33.8557 128.758 34.1488 128.742 34.7502C128.719 35.8067 128.773 36.6009 128.935 37.2795H132.567V30.7481C132.567 26.6689 131.125 23.7001 126.753 23.7001L126.761 23.7078ZM125.589 34.1796C124.44 34.4418 123.838 34.0871 123.838 33.3237C123.838 32.2749 124.918 31.8585 126.46 31.8585C127.138 31.8585 127.779 31.9202 127.779 31.9202C127.779 32.3675 126.807 33.8943 125.581 34.1796H125.589Z" fill="black"/>
<path d="M145.322 19.991H140.502V37.2795H145.322V19.991Z" fill="black"/>
<path d="M150.627 30.6478C150.627 29.4526 151.737 28.373 153.773 28.373C155.994 28.373 157.775 29.4372 158.176 29.6839V25.0726C158.176 25.0726 156.765 23.7155 153.303 23.7155C149.655 23.7155 146.609 25.8515 146.609 30.4473C146.609 35.0432 149.37 37.5956 153.287 37.5956C156.349 37.5956 158.176 35.9146 158.176 35.9146V31.5346C157.598 31.8585 155.986 32.9766 153.789 32.9766C151.46 32.9766 150.619 31.9047 150.619 30.6632L150.627 30.6478Z" fill="black"/>
<path d="M167.923 23.7077C165.132 23.7077 164.075 26.3527 163.859 26.8076C163.643 27.2626 163.543 27.5325 163.366 27.5248C163.065 27.5171 163.273 26.9619 163.389 26.6072C163.613 25.9286 164.091 24.155 164.091 21.9727C164.091 20.4922 163.89 19.9987 163.89 19.9987H159.734V37.2795H164.553V30.6787C164.553 29.6068 164.985 27.7253 166.196 27.7253C167.198 27.7253 167.514 28.4733 167.514 29.9692V37.2795H172.334V30.2546C172.334 26.8462 171.771 23.7 167.931 23.7L167.923 23.7077Z" fill="black"/>
<path d="M173.899 24.0316V37.2795H178.719V24.0316C178.719 24.0316 177.909 24.502 176.313 24.502C174.717 24.502 173.899 24.0316 173.899 24.0316Z" fill="black"/>
<path d="M176.29 23.7078C177.917 23.7078 179.236 22.8447 179.236 21.78C179.236 20.7153 177.917 19.8522 176.29 19.8522C174.663 19.8522 173.344 20.7153 173.344 21.78C173.344 22.8447 174.663 23.7078 176.29 23.7078Z" fill="black"/>
<path d="M134.133 24.0316V37.2795H138.952V24.0316C138.952 24.0316 138.142 24.502 136.546 24.502C134.95 24.502 134.133 24.0316 134.133 24.0316Z" fill="black"/>
<path d="M136.523 23.7078C138.15 23.7078 139.469 22.8447 139.469 21.78C139.469 20.7153 138.15 19.8522 136.523 19.8522C134.896 19.8522 133.577 20.7153 133.577 21.78C133.577 22.8447 134.896 23.7078 136.523 23.7078Z" fill="black"/>
<path d="M209.857 23.7078C207.381 23.7078 206.248 25.5662 205.754 26.6226C205.43 27.3243 205.446 27.5248 205.207 27.5248C204.86 27.5248 205.145 26.9619 205.299 26.3064C205.608 25.011 205.369 24.0162 205.369 24.0162H201.837V40.95H206.656V35.583C207.227 36.5469 208.283 37.5802 209.911 37.5802C213.396 37.5802 215.146 34.6345 215.146 30.6478C215.146 26.1368 213.049 23.7078 209.849 23.7078H209.857ZM208.538 34.434C207.435 34.434 206.618 33.0306 206.618 31.0797C206.618 29.1287 207.451 27.7253 208.499 27.7253C209.841 27.7253 210.412 28.9514 210.412 31.0797C210.412 33.208 209.887 34.434 208.538 34.434Z" fill="black"/>
<path d="M115.857 17.1841C115.857 18.8882 117.222 20.1375 118.957 20.1375C120.692 20.1375 122.057 18.896 122.057 17.1841V13.2668H120.376V16.9836C120.376 17.9012 119.759 18.5181 118.949 18.5181C118.139 18.5181 117.523 17.9012 117.523 16.9836V13.2668H115.842V17.1841H115.857Z" fill="black"/>
<path d="M126.552 14.8322H128.557V19.991H130.238V14.8322H132.243V13.2591H126.552V14.8322Z" fill="black"/>
<path d="M125.465 13.2591H123.784V19.991H125.465V13.2591Z" fill="black"/>
<path d="M109.071 14.8322H111.076V19.991H112.757V14.8322H114.762V13.2591H109.071V14.8322Z" fill="black"/>
<path d="M100.265 13.2591H98.584V19.991H100.265V13.2591Z" fill="black"/>
<path d="M108.192 16.0814C108.192 14.3772 106.827 13.128 105.085 13.128C103.342 13.128 101.985 14.3695 101.985 16.0814V19.9987H103.666V16.2819C103.666 15.3642 104.283 14.7473 105.092 14.7473C105.902 14.7473 106.519 15.3642 106.519 16.2819V19.9987H108.2V16.0814H108.192Z" fill="black"/>
</svg>
