<svg width="284" height="50" viewBox="0 0 284 50" fill="none" xmlns="http://www.w3.org/2000/svg">
<path d="M68.4839 26.0752C68.2274 26.0623 67.9703 26.0797 67.7179 26.1271C67.2969 26.195 66.8936 26.346 66.5315 26.5714C66.1694 26.7968 65.8558 27.0919 65.6089 27.4397C65.362 27.7875 65.1868 28.1809 65.0935 28.5971C65.0002 29.0132 64.9906 29.4438 65.0654 29.8637C65.2489 31.5954 67.0951 33.0556 68.8042 33.0991C68.9796 33.1035 69.1551 33.0919 69.3283 33.0643C71.1778 32.7649 71.662 30.8591 71.3572 28.9871C71.0128 26.8734 69.5064 26.1283 68.4839 26.0752ZM70.296 31.083C70.218 31.1998 70.1096 31.2933 69.9825 31.3534C69.8554 31.4134 69.7144 31.4379 69.5746 31.424C69.3287 31.4045 69.0994 31.2923 68.9331 31.1101C68.7669 30.9279 68.6761 30.6894 68.6791 30.4427C68.6749 30.1141 68.7382 29.788 68.8653 29.4849C68.9446 29.2923 68.9523 29.0777 68.8868 28.88C68.8213 28.6823 68.6871 28.5146 68.5085 28.4075C68.289 28.2714 68.0257 28.2248 67.7728 28.2772C67.5279 28.3242 67.3115 28.4661 67.1708 28.6719C67.0757 28.8255 67.0016 28.9911 66.9502 29.1643C66.9401 29.1946 66.9322 29.2184 66.9262 29.2339C66.8424 29.4476 66.7086 29.5101 66.6182 29.4985C66.5849 29.4924 66.5541 29.4768 66.5294 29.4537C66.5047 29.4305 66.4871 29.4008 66.4789 29.3679C66.432 29.0827 66.454 28.7903 66.543 28.5152C66.632 28.2402 66.7855 27.9904 66.9907 27.7866C67.1693 27.6083 67.3864 27.4731 67.6252 27.3914C67.864 27.3096 68.1184 27.2835 68.3688 27.3149C68.6319 27.3465 68.8832 27.4417 69.1013 27.5922C69.3193 27.7427 69.4974 27.944 69.6202 28.1787C69.7384 28.4612 69.7862 28.7681 69.7595 29.0732C69.7328 29.3782 69.6325 29.6722 69.467 29.9299C69.4461 29.9745 69.427 30.0153 69.4106 30.0518C69.3511 30.1528 69.3183 30.2672 69.3152 30.3843C69.3121 30.5015 69.3389 30.6175 69.393 30.7214C69.4406 30.7848 69.5027 30.8358 69.5741 30.8702C69.6455 30.9046 69.7242 30.9213 69.8034 30.9189C69.8791 30.9179 69.9543 30.9079 70.0276 30.889C70.1226 30.868 70.2208 30.8464 70.2806 30.9175C70.3004 30.9399 70.3126 30.968 70.3154 30.9977C70.3182 31.0275 70.3114 31.0573 70.296 31.083Z" fill="black"/>
<path d="M92.1158 34.634C92.5017 33.6548 92.7247 32.6191 92.7762 31.5679C92.7762 30.2755 92.0444 29.7398 91.5785 29.7398C91.5642 29.6899 91.4721 29.3529 91.3452 28.9472C91.2726 28.712 91.1864 28.4811 91.0872 28.2558C91.4685 27.729 91.6299 27.0745 91.5372 26.4308C91.4609 25.9345 91.2249 25.4766 90.865 25.1264C90.1818 24.5465 89.3666 24.1433 88.4911 23.9524C88.3592 23.9155 87.9244 23.7963 87.8862 23.7847C87.8832 23.7598 87.8545 22.3609 87.8282 21.7604C87.817 21.1582 87.7272 20.56 87.5613 19.981C87.355 19.1502 86.9287 18.3902 86.3271 17.7811C87.8333 16.222 88.7736 14.5045 88.7714 13.0311C88.7671 10.1976 85.2822 9.34017 80.9878 11.116C80.9831 11.118 80.0843 11.4985 80.0779 11.5017C80.0739 11.4977 78.4329 9.89009 78.4082 9.86847C73.5121 5.60396 58.2033 22.5956 63.0978 26.7224L64.1675 27.6272C63.8788 28.4006 63.7769 29.2313 63.87 30.0516C64.015 31.245 64.6049 32.3397 65.5219 33.1171C66.4119 33.9249 67.5618 34.3872 68.7633 34.4203C70.668 38.8033 75.0198 41.492 80.1224 41.6433C85.596 41.8056 90.1906 39.241 92.1158 34.634ZM93.2393 29.4471C93.7082 30.0522 93.9494 30.8029 93.9209 31.5679C93.8716 32.7612 93.6221 33.9377 93.1827 35.0482L93.1724 35.0742C92.1791 37.4626 90.445 39.4688 88.2256 40.7973C85.9155 42.1409 83.2835 42.831 80.6113 42.7938C80.4383 42.7938 80.2621 42.7911 80.0885 42.786C77.4512 42.7309 74.8767 41.9709 72.6322 40.585C70.6565 39.347 69.0577 37.5913 68.0093 35.5088C66.8015 35.3212 65.6738 34.7877 64.7628 33.9728C63.63 33.0051 62.9044 31.6454 62.731 30.1657C62.6538 29.4467 62.6954 28.7199 62.8544 28.0145L62.3578 27.5946C61.9559 27.2475 61.6292 26.8217 61.398 26.3436C61.1667 25.8655 61.0358 25.3451 61.0132 24.8145C60.9725 23.713 61.1628 22.6152 61.572 21.5918C62.5914 18.8088 64.9364 15.4949 67.8453 12.727C69.1434 11.4673 70.5835 10.3627 72.1364 9.43518C73.4317 8.60673 74.9193 8.12758 76.4546 8.04433C77.4448 8.0185 78.4093 8.36161 79.1607 9.00702C79.2036 9.04443 79.8465 9.67316 80.3341 10.1508C80.4564 10.0992 80.5445 10.062 80.547 10.0611C81.9895 9.43272 83.5398 9.0887 85.1126 9.04784C88.027 9.04784 89.9124 10.6107 89.9161 13.0294C89.9184 14.5218 89.1857 16.1949 87.8348 17.8145C88.2023 18.3828 88.4804 19.0041 88.6592 19.6568C88.8511 20.325 88.9561 21.0151 88.9718 21.7101C88.985 22.0091 88.9983 22.4889 89.0092 22.9124C90.0058 23.1646 90.9268 23.6537 91.6939 24.3381C92.214 24.8541 92.555 25.5231 92.6671 26.2471C92.7797 26.9618 92.6693 27.6938 92.3509 28.3434C92.3792 28.4248 92.4087 28.5131 92.4381 28.6067C92.4636 28.6884 92.4876 28.767 92.5101 28.8417C92.7907 28.9935 93.0384 29.1993 93.2393 29.4471Z" fill="black"/>
<path d="M89.7697 28.0321C89.9553 27.8576 90.1001 27.6443 90.1937 27.4073C90.2872 27.1704 90.3273 26.9157 90.311 26.6615C90.2738 26.4052 90.1543 26.168 89.9704 25.9858C89.4308 25.5379 88.7889 25.2305 88.1017 25.091C87.7879 25.0019 87.5749 24.9449 87.3455 24.8686C86.9374 24.7328 86.7358 24.6234 86.6902 23.8478C86.6702 23.5086 86.6117 22.3269 86.5906 21.8386C86.5535 20.983 86.4515 19.8134 85.7339 19.3306C85.5513 19.2095 85.339 19.1409 85.1201 19.1323C84.9976 19.1248 84.8746 19.1369 84.7559 19.1683C84.3917 19.2534 84.0601 19.4429 83.8019 19.7135C83.4676 20.0188 83.0734 20.2512 82.6445 20.396C82.2155 20.5408 81.7611 20.5948 81.3102 20.5546C80.8079 20.5333 80.2756 20.4542 79.6654 20.4176C79.5466 20.4106 79.4275 20.4032 79.3087 20.3969C78.5202 20.4202 77.7663 20.7261 77.1846 21.2589C76.6028 21.7917 76.232 22.5159 76.1397 23.2993C75.7904 25.7293 77.5309 26.985 78.0334 27.7219C78.1111 27.8159 78.1592 27.9309 78.1717 28.0522C78.1586 28.1868 78.0947 28.3113 77.9928 28.4003C77.2969 29.1836 76.8086 30.1294 76.572 31.1501C76.3353 32.1708 76.3582 33.2344 76.6384 34.244C76.7048 34.4865 76.7899 34.7234 76.893 34.9527C78.163 37.9533 82.1029 39.3507 85.952 38.0798C86.4563 37.9133 86.9454 37.7043 87.4144 37.4552C88.2583 37.0333 89.0173 36.4598 89.6537 35.7633C90.6465 34.7563 91.2985 33.4634 91.5181 32.0665C91.634 31.2932 91.4642 30.9939 91.2331 30.8499C91.0698 30.7581 90.8806 30.7232 90.6954 30.7508C90.5974 30.1437 90.4254 29.5509 90.1833 28.9856L89.7697 28.0321Z" fill="black"/>
<path d="M83.4579 16.443C83.52 16.4573 83.5595 16.35 83.5039 16.3189C82.5843 15.8424 81.5701 15.5769 80.535 15.5419C80.525 15.5418 80.5153 15.5389 80.5069 15.5335C80.4985 15.5282 80.4917 15.5207 80.4873 15.5117C80.4829 15.5028 80.4811 15.4928 80.482 15.4829C80.4829 15.473 80.4866 15.4636 80.4925 15.4556C80.6534 15.2453 80.8413 15.057 81.0512 14.8957C81.0606 14.8884 81.0675 14.8783 81.0707 14.8668C81.0739 14.8554 81.0734 14.8432 81.0692 14.832C81.065 14.8209 81.0574 14.8114 81.0474 14.8049C81.0374 14.7984 81.0256 14.7953 81.0138 14.796C79.7464 14.9205 78.5279 15.35 77.4627 16.0479C77.4536 16.054 77.4429 16.0573 77.4319 16.0573C77.421 16.0572 77.4103 16.0539 77.4012 16.0477C77.3922 16.0416 77.3852 16.0328 77.3812 16.0226C77.3771 16.0124 77.3763 16.0013 77.3786 15.9906C77.4645 15.6706 77.5907 15.3628 77.7544 15.0748C77.7598 15.0649 77.7619 15.0536 77.7604 15.0424C77.7588 15.0313 77.7537 15.0209 77.7458 15.0128C77.738 15.0048 77.7277 14.9995 77.7166 14.9977C77.7054 14.9959 77.6941 14.9978 77.6841 15.003C76.1458 15.8479 74.7748 16.9666 73.6385 18.3042C73.6296 18.3144 73.6248 18.3274 73.625 18.341C73.6251 18.3545 73.6302 18.3674 73.6393 18.3774C73.6484 18.3874 73.6608 18.3937 73.6743 18.3951C73.6877 18.3966 73.7012 18.393 73.7122 18.3851C75.0289 17.465 76.5123 16.8102 78.0795 16.4574C79.8485 16.0493 81.6867 16.0444 83.4579 16.443Z" fill="black"/>
<path d="M78.9339 12.1027C78.9339 12.1027 77.6013 10.5599 77.199 10.4461C74.7241 9.77822 69.3781 13.4599 65.9646 18.3241C64.5834 20.2922 62.6062 23.7775 63.5517 25.57C63.8877 25.9725 64.2665 26.3372 64.6814 26.6578C65.3149 25.7699 66.2682 25.1625 67.3406 24.9637C68.6865 21.2009 71.0491 17.8849 74.1659 15.3839C75.6615 14.1599 77.2563 13.0623 78.9339 12.1027Z" fill="black"/>
<path d="M70.205 31.016C70.2242 31.0393 70.2359 31.0678 70.2385 31.0978C70.2412 31.1278 70.2348 31.1579 70.22 31.1842C70.1481 31.3008 70.0452 31.395 69.9227 31.4562C69.8002 31.5174 69.663 31.5432 69.5266 31.5306C69.2836 31.5044 69.0596 31.3869 68.8999 31.2019C68.7401 31.0169 68.6566 30.7782 68.6661 30.5339C68.662 30.2011 68.7227 29.8706 68.845 29.561C68.9222 29.367 68.9302 29.1524 68.8678 28.9532C68.8054 28.7539 68.6763 28.5822 68.5022 28.467C68.3992 28.3988 68.2835 28.352 68.1621 28.3292C68.0407 28.3065 67.9159 28.3083 67.7952 28.3346C67.677 28.3595 67.5649 28.4077 67.4655 28.4766C67.3662 28.5454 67.2817 28.6334 67.2168 28.7354C67.1251 28.8924 67.0539 29.0604 67.0047 29.2354C66.9952 29.2663 66.9876 29.2904 66.9818 29.3061C66.9012 29.5233 66.7728 29.5867 66.6858 29.5751C66.6446 29.5694 66.5881 29.5419 66.5518 29.4424C66.5063 29.1549 66.527 28.8608 66.6122 28.5825C66.6974 28.3042 66.845 28.049 67.0437 27.8363C67.2106 27.6571 67.4177 27.5202 67.648 27.4369C67.8783 27.3537 68.1251 27.3264 68.368 27.3574C68.6253 27.3928 68.8698 27.4914 69.0797 27.6445C69.2895 27.7975 69.4581 28.0003 69.5704 28.2345C69.6841 28.5223 69.73 28.8325 69.7045 29.141C69.679 29.4494 69.5828 29.7479 69.4234 30.0132C69.4032 30.0583 69.3847 30.0997 69.3692 30.1371C69.3119 30.2407 69.2804 30.3566 69.2774 30.475C69.2745 30.5934 69.3001 30.7107 69.3522 30.8171C69.3962 30.8805 69.4553 30.932 69.5241 30.967C69.5929 31.002 69.6693 31.0194 69.7465 31.0176C69.8193 31.0165 69.8916 31.0063 69.9618 30.9872C70.0532 30.9657 70.1476 30.9438 70.205 31.016ZM92.7276 31.5783C92.6766 32.6271 92.455 33.6605 92.0716 34.638C90.1589 39.2353 85.5944 41.7946 80.1567 41.6326C75.0875 41.4816 70.7641 38.7985 68.8719 34.4248C67.6773 34.3913 66.5346 33.9298 65.6518 33.1243C64.74 32.3469 64.1541 31.2548 64.0108 30.0652C63.9182 29.2467 64.0195 28.418 64.3063 27.6459L63.2436 26.7429C58.3812 22.6248 73.5895 5.66893 78.4538 9.92458C78.4783 9.946 80.1084 11.5504 80.1125 11.5543C80.119 11.551 81.0119 11.1712 81.0165 11.1694C85.2828 9.39732 88.7448 10.2529 88.7491 13.0803C88.7514 14.5507 87.8173 16.2646 86.321 17.8204C86.919 18.429 87.3424 19.1872 87.5468 20.0156C87.7118 20.5936 87.801 21.1905 87.8121 21.7914C87.8381 22.3906 87.8668 23.7866 87.8697 23.8115C87.9077 23.823 88.3396 23.9418 88.4705 23.9787C89.341 24.1697 90.151 24.5721 90.829 25.1504C91.1869 25.5004 91.4212 25.9572 91.4968 26.452C91.589 27.094 91.4288 27.7468 91.0498 28.2731C91.1484 28.498 91.234 28.7284 91.3061 28.9632C91.432 29.3681 91.5237 29.7042 91.5378 29.754C92.0006 29.754 92.7276 30.2885 92.7276 31.5783ZM71.2394 29.0556C70.9087 26.9089 69.461 26.1523 68.4786 26.0984C68.232 26.0853 67.9847 26.1029 67.7425 26.1508C65.9891 26.5057 64.9988 28.0017 65.1937 29.9457C65.3356 30.8177 65.7674 31.6164 66.4193 32.2127C67.0712 32.8089 67.9051 33.168 68.7863 33.2317C68.9549 33.2362 69.1236 33.2244 69.29 33.1963C71.0671 32.8923 71.5324 30.9568 71.2394 29.0556ZM74.2364 15.4282C75.7216 14.2071 77.306 13.1119 78.9731 12.1538C78.9731 12.1538 77.6494 10.6143 77.2496 10.5009C74.791 9.83425 69.4798 13.5082 66.0888 18.3622C64.7167 20.3261 62.7525 23.8042 63.6916 25.5929C64.0252 25.9944 64.4016 26.3584 64.814 26.6784C65.4418 25.7934 66.3892 25.1872 67.4559 24.9879C68.7903 21.2366 71.1371 17.9278 74.2364 15.4282ZM79.58 32.4162C79.6451 32.7015 79.7862 32.9639 79.9881 33.1757C80.1901 33.3875 80.4455 33.5408 80.7274 33.6194C81.0207 33.7287 81.3232 33.8111 81.6314 33.8656C85.5205 34.5366 89.1564 32.3062 89.975 31.7444C90.0365 31.7022 90.0771 31.7434 90.0278 31.8178C90.0031 31.8574 89.9764 31.8957 89.9476 31.9325C88.9457 33.2287 86.2523 34.7298 82.748 34.7293C81.2197 34.7291 79.6921 34.189 79.1313 33.3591C78.2611 32.0715 79.0881 30.192 80.5381 30.3878C80.5398 30.3881 81.0342 30.4443 81.1732 30.4598C83.427 30.6765 85.6988 30.3119 87.7716 29.4006C89.7498 28.4796 90.4971 27.4659 90.385 26.6453C90.3475 26.3905 90.2278 26.1549 90.0439 25.9745C89.503 25.5292 88.8606 25.224 88.1737 25.0859C87.8595 24.9974 87.6464 24.941 87.4167 24.8651C87.0084 24.7302 86.8065 24.6216 86.7608 23.8514C86.7408 23.5146 86.6823 22.3412 86.6611 21.8562C86.6238 21.0065 86.522 19.8452 85.8034 19.3656C85.6205 19.2453 85.4081 19.1772 85.1893 19.1687C85.0666 19.1613 84.9435 19.1734 84.8246 19.2046C84.4607 19.2888 84.129 19.4769 83.8698 19.746C83.534 20.0495 83.1391 20.2803 82.7099 20.424C82.2807 20.5678 81.8264 20.6212 81.3756 20.5811C80.8729 20.5601 80.3401 20.4815 79.7294 20.4452C79.6106 20.4381 79.4913 20.4307 79.3722 20.4247C78.5859 20.4453 77.8331 20.7476 77.2509 21.2766C76.6688 21.8056 76.2959 22.526 76.2003 23.3068C75.8506 25.7199 77.5928 26.9668 78.0958 27.6985C78.1735 27.7917 78.2217 27.9059 78.2343 28.0266C78.221 28.1605 78.1569 28.2841 78.0552 28.3722C77.3595 29.1472 76.8705 30.0861 76.6336 31.1003C76.3966 32.1145 76.4192 33.1721 76.6995 34.1752C76.766 34.4161 76.8512 34.6514 76.9543 34.879C78.2256 37.8588 82.1691 39.2463 86.0219 37.9841C86.5264 37.819 87.016 37.6116 87.4856 37.3642C88.3293 36.9459 89.0891 36.3764 89.7271 35.6839C90.7194 34.6866 91.3723 33.4022 91.5932 32.0129C91.7092 31.2448 91.5395 30.9478 91.3079 30.8048C91.1443 30.7136 90.9551 30.6789 90.7697 30.7062C90.6716 30.103 90.4995 29.5143 90.2573 28.9533C89.1569 29.7836 87.913 30.4041 86.5879 30.7838C84.9936 31.2343 83.3349 31.4142 81.6811 31.316C80.6171 31.2297 79.9132 30.9182 79.6484 31.7812C81.2579 32.3194 82.9667 32.4938 84.6517 32.2917C84.6635 32.2905 84.6755 32.2916 84.6869 32.295C84.6983 32.2985 84.7089 32.3041 84.7182 32.3117C84.7274 32.3192 84.735 32.3285 84.7407 32.339C84.7463 32.3495 84.7498 32.361 84.7509 32.3729C84.7527 32.3928 84.7483 32.4128 84.7382 32.4301C84.7281 32.4474 84.713 32.4611 84.6948 32.4694C84.6948 32.4694 82.7185 33.3898 79.58 32.4162ZM73.7922 18.423C75.0993 17.5053 76.5732 16.8519 78.1309 16.4995C79.8882 16.0923 81.7147 16.0873 83.4741 16.4851C83.5357 16.4992 83.575 16.3922 83.5199 16.3613C82.6069 15.8859 81.599 15.6209 80.5703 15.5858C80.5604 15.5856 80.5507 15.5827 80.5423 15.5774C80.534 15.5721 80.5272 15.5646 80.5229 15.5557C80.5185 15.5468 80.5167 15.5368 80.5176 15.527C80.5185 15.5171 80.5222 15.5077 80.5281 15.4997C80.6879 15.29 80.8745 15.1021 81.0833 14.941C81.0926 14.9337 81.0994 14.9236 81.1026 14.9122C81.1059 14.9008 81.1053 14.8886 81.1012 14.8775C81.097 14.8664 81.0894 14.8569 81.0795 14.8504C81.0696 14.8439 81.0578 14.8408 81.046 14.8414C79.7862 14.966 78.5755 15.3947 77.5181 16.0908C77.509 16.0969 77.4984 16.1001 77.4875 16.1001C77.4766 16.1001 77.4659 16.0968 77.4569 16.0906C77.4479 16.0844 77.441 16.0757 77.437 16.0656C77.433 16.0554 77.4322 16.0443 77.4346 16.0336C77.5198 15.7144 77.6452 15.4074 77.8079 15.1198C77.8133 15.11 77.8154 15.0987 77.8139 15.0876C77.8123 15.0765 77.8073 15.0661 77.7995 15.0581C77.7917 15.05 77.7815 15.0447 77.7704 15.0429C77.7593 15.0411 77.748 15.0429 77.738 15.048C76.2088 15.8921 74.8467 17.0086 73.719 18.3425C73.7102 18.3526 73.7053 18.3656 73.7055 18.3791C73.7056 18.3925 73.7107 18.4054 73.7197 18.4153C73.7288 18.4253 73.7411 18.4316 73.7545 18.433C73.7678 18.4344 73.7813 18.4308 73.7922 18.423ZM84.0337 26.6141C84.1402 26.6815 84.2677 26.7073 84.392 26.6867C84.5163 26.666 84.6286 26.6003 84.7075 26.5021C84.8056 26.3122 84.6632 26.0547 84.3892 25.9268C84.2828 25.8594 84.1552 25.8336 84.0309 25.8543C83.9066 25.875 83.7943 25.9408 83.7155 26.039C83.6172 26.2288 83.7598 26.4863 84.0337 26.6141ZM84.8739 23.5352C84.9397 23.877 85.0814 24.1997 85.2888 24.4793C85.503 24.453 85.7197 24.453 85.9339 24.4793C86.0592 24.1041 86.0702 23.7001 85.9655 23.3186C85.8106 22.6148 85.6011 22.1888 85.1681 22.255C84.7352 22.3213 84.7192 22.8313 84.8739 23.5352ZM85.7951 25.1521C85.6859 25.1207 85.5696 25.1244 85.4626 25.1625C85.3556 25.2007 85.2632 25.2714 85.1985 25.3648C85.1337 25.4581 85.0999 25.5694 85.1016 25.683C85.1034 25.7966 85.1407 25.9067 85.2083 25.998C85.2759 26.0893 85.3704 26.1572 85.4786 26.192C85.5867 26.2268 85.703 26.2268 85.8112 26.1921C85.9194 26.1574 86.0139 26.0897 86.0816 25.9985C86.1493 25.9073 86.1868 25.7971 86.1886 25.6836C86.2043 25.5613 86.1721 25.4377 86.0988 25.3386C86.0254 25.2396 85.9166 25.1727 85.7951 25.1521Z" fill="white"/>
<path d="M78.6098 25.0894C78.5407 25.0796 78.5113 25.0501 78.5026 25.0109C78.4757 24.8895 78.6625 24.6897 78.8594 24.5454C79.1467 24.3354 79.4832 24.2028 79.8365 24.1603C80.1899 24.1179 80.5482 24.1671 80.8771 24.3032C81.1844 24.4299 81.4486 24.6426 81.6381 24.9157C81.7085 25.0305 81.7221 25.1195 81.6766 25.1662C81.6057 25.241 81.4249 25.1553 81.1306 25.0262C80.777 24.8528 80.3863 24.7686 79.9927 24.7812C79.5263 24.8579 79.0646 24.9608 78.6098 25.0894ZM81.5432 25.6933C81.4161 25.5596 81.2577 25.4595 81.0824 25.4021C80.9071 25.3446 80.7202 25.3315 80.5386 25.364C80.2707 25.3925 80.017 25.4982 79.8082 25.6684C79.7109 25.7382 79.644 25.8427 79.6213 25.9603C79.6207 25.9733 79.6231 25.9864 79.6282 25.9984C79.6332 26.0105 79.6409 26.0213 79.6506 26.0301C79.6678 26.0458 79.6904 26.0544 79.7137 26.0541C79.81 26.04 79.9043 26.0138 79.9941 25.9763C80.3876 25.828 80.8128 25.7839 81.2283 25.8482C81.4209 25.8698 81.5119 25.8819 81.5541 25.8158C81.565 25.7967 81.5697 25.7747 81.5678 25.7528C81.5659 25.7309 81.5573 25.7102 81.5432 25.6933Z" fill="white"/>
<path d="M80.991 25.8697C81.1125 25.4373 81.1195 24.9806 81.0112 24.5446C80.8546 23.8396 80.6177 23.4368 80.1786 23.5032C79.7396 23.5695 79.7282 24.1376 79.8697 24.8455C79.9348 25.1699 80.0615 25.4788 80.2431 25.7554C80.5924 26.243 80.8299 26.1168 80.991 25.8697Z" fill="white"/>
<path d="M114.116 23.7079C111.996 23.7079 110.947 25.3735 110.469 26.4531C110.199 27.0545 110.122 27.5249 109.906 27.5249C109.598 27.5249 109.821 27.1162 109.567 26.1986C109.235 24.9957 108.24 23.7079 106.12 23.7079C103.891 23.7079 102.943 25.5894 102.488 26.6227C102.179 27.3321 102.179 27.5249 101.94 27.5249C101.593 27.5249 101.879 26.962 102.033 26.3066C102.341 25.0111 102.102 24.0163 102.102 24.0163H98.5859V37.2796H103.405V30.6788C103.405 29.3756 103.953 27.7254 104.886 27.7254C105.966 27.7254 106.182 28.5505 106.182 30.085V37.2796H111.016V30.6711C111.016 29.5144 111.487 27.7177 112.505 27.7177C113.6 27.7177 113.792 28.8821 113.792 30.0773V37.2719H118.543V29.4682C118.543 26.0058 117.324 23.7002 114.124 23.7002L114.116 23.7079Z" fill="white"/>
<path d="M195.866 23.7079C193.745 23.7079 192.696 25.3735 192.218 26.4531C191.948 27.0545 191.871 27.5249 191.655 27.5249C191.347 27.5249 191.555 27.0006 191.316 26.1986C190.961 25.0034 190.082 23.7079 187.869 23.7079C185.656 23.7079 184.692 25.5894 184.237 26.6227C183.929 27.3321 183.929 27.5249 183.69 27.5249C183.343 27.5249 183.628 26.962 183.782 26.3066C184.091 25.0111 183.851 24.0163 183.851 24.0163H180.32V37.2796H185.139V30.6788C185.139 29.3756 185.687 27.7254 186.62 27.7254C187.699 27.7254 187.915 28.5505 187.915 30.085V37.2796H192.75V30.6711C192.75 29.5144 193.221 27.7177 194.238 27.7177C195.333 27.7177 195.526 28.8821 195.526 30.0773V37.2719H200.276V29.4682C200.276 26.0058 199.058 23.7002 195.858 23.7002L195.866 23.7079Z" fill="white"/>
<path d="M126.759 23.7079C123.065 23.7079 120.42 25.0651 120.42 25.0651V29.0517C120.42 29.0517 123.343 27.3707 125.718 27.3707C127.615 27.3707 127.846 28.3886 127.753 29.2368C127.753 29.2368 127.206 29.0903 125.54 29.0903C121.615 29.0903 119.633 30.8716 119.633 33.7324C119.633 36.4468 121.862 37.5803 123.736 37.5803C126.473 37.5803 127.676 35.7374 128.046 34.866C128.301 34.2568 128.347 33.8558 128.578 33.8558C128.841 33.8558 128.756 34.1489 128.74 34.7503C128.717 35.8068 128.771 36.601 128.933 37.2796H132.565V30.7482C132.565 26.669 131.123 23.7002 126.751 23.7002L126.759 23.7079ZM125.587 34.1797C124.438 34.4419 123.836 34.0872 123.836 33.3238C123.836 32.275 124.916 31.8586 126.458 31.8586C127.136 31.8586 127.777 31.9203 127.777 31.9203C127.777 32.3676 126.805 33.8944 125.579 34.1797H125.587Z" fill="white"/>
<path d="M145.32 19.991H140.5V37.2795H145.32V19.991Z" fill="white"/>
<path d="M150.627 30.6479C150.627 29.4527 151.737 28.3731 153.773 28.3731C155.994 28.3731 157.775 29.4373 158.176 29.684V25.0727C158.176 25.0727 156.765 23.7156 153.303 23.7156C149.655 23.7156 146.609 25.8516 146.609 30.4474C146.609 35.0433 149.37 37.5957 153.287 37.5957C156.349 37.5957 158.176 35.9147 158.176 35.9147V31.5347C157.598 31.8586 155.986 32.9767 153.789 32.9767C151.46 32.9767 150.619 31.9048 150.619 30.6633L150.627 30.6479Z" fill="white"/>
<path d="M167.923 23.7078C165.132 23.7078 164.075 26.3528 163.859 26.8077C163.643 27.2627 163.543 27.5326 163.366 27.5249C163.065 27.5172 163.273 26.962 163.389 26.6073C163.613 25.9287 164.091 24.1551 164.091 21.9728C164.091 20.4923 163.89 19.9988 163.89 19.9988H159.734V37.2796H164.553V30.6788C164.553 29.6069 164.985 27.7254 166.196 27.7254C167.198 27.7254 167.514 28.4734 167.514 29.9693V37.2796H172.334V30.2547C172.334 26.8463 171.771 23.7001 167.931 23.7001L167.923 23.7078Z" fill="white"/>
<path d="M173.898 24.0315V37.2794H178.718V24.0315C178.718 24.0315 177.908 24.5019 176.312 24.5019C174.716 24.5019 173.898 24.0315 173.898 24.0315Z" fill="white"/>
<path d="M176.29 23.7079C177.917 23.7079 179.236 22.8448 179.236 21.7801C179.236 20.7154 177.917 19.8523 176.29 19.8523C174.663 19.8523 173.344 20.7154 173.344 21.7801C173.344 22.8448 174.663 23.7079 176.29 23.7079Z" fill="white"/>
<path d="M134.133 24.0315V37.2794H138.952V24.0315C138.952 24.0315 138.142 24.5019 136.546 24.5019C134.95 24.5019 134.133 24.0315 134.133 24.0315Z" fill="white"/>
<path d="M136.524 23.7079C138.151 23.7079 139.47 22.8448 139.47 21.7801C139.47 20.7154 138.151 19.8523 136.524 19.8523C134.897 19.8523 133.578 20.7154 133.578 21.7801C133.578 22.8448 134.897 23.7079 136.524 23.7079Z" fill="white"/>
<path d="M209.856 23.7078C207.38 23.7078 206.247 25.5662 205.753 26.6226C205.429 27.3243 205.445 27.5248 205.206 27.5248C204.859 27.5248 205.144 26.9619 205.298 26.3064C205.607 25.011 205.368 24.0162 205.368 24.0162H201.836V40.95H206.655V35.583C207.226 36.5469 208.282 37.5802 209.91 37.5802C213.395 37.5802 215.145 34.6345 215.145 30.6478C215.145 26.1368 213.048 23.7078 209.848 23.7078H209.856ZM208.537 34.434C207.434 34.434 206.617 33.0306 206.617 31.0797C206.617 29.1287 207.45 27.7253 208.498 27.7253C209.84 27.7253 210.411 28.9514 210.411 31.0797C210.411 33.208 209.886 34.434 208.537 34.434Z" fill="white"/>
<path d="M115.859 17.1841C115.859 18.8882 117.224 20.1375 118.959 20.1375C120.694 20.1375 122.059 18.896 122.059 17.1841V13.2668H120.378V16.9836C120.378 17.9012 119.761 18.5181 118.951 18.5181C118.141 18.5181 117.525 17.9012 117.525 16.9836V13.2668H115.844V17.1841H115.859Z" fill="white"/>
<path d="M126.555 14.8321H128.56V19.9909H130.241V14.8321H132.246V13.259H126.555V14.8321Z" fill="white"/>
<path d="M125.462 13.259H123.781V19.9909H125.462V13.259Z" fill="white"/>
<path d="M109.07 14.8321H111.075V19.9909H112.756V14.8321H114.761V13.259H109.07V14.8321Z" fill="white"/>
<path d="M100.267 13.259H98.5859V19.9909H100.267V13.259Z" fill="white"/>
<path d="M108.191 16.0813C108.191 14.3771 106.826 13.1279 105.084 13.1279C103.341 13.1279 101.984 14.3694 101.984 16.0813V19.9986H103.665V16.2818C103.665 15.3641 104.282 14.7472 105.091 14.7472C105.901 14.7472 106.518 15.3641 106.518 16.2818V19.9986H108.199V16.0813H108.191Z" fill="white"/>
</svg>
