<svg width="284" height="50" viewBox="0 0 284 50" fill="none" xmlns="http://www.w3.org/2000/svg">
<g clip-path="url(#clip0_968_21653)">
<path fill-rule="evenodd" clip-rule="evenodd" d="M103.221 33.8896C100.685 33.8896 98.9382 31.7752 98.9382 29.0227C98.9382 26.2702 100.685 24.1557 103.221 24.1557C105.757 24.1557 107.504 26.2702 107.504 29.0227C107.504 31.7752 105.784 33.8896 103.221 33.8896ZM103.221 21.825C99.6953 21.825 96.4561 24.8425 96.4561 29.0118C96.4561 33.1812 99.7007 36.1987 103.221 36.1987C106.741 36.1987 109.986 33.1866 109.986 29.0118C109.986 24.8371 106.741 21.825 103.221 21.825Z" fill="#1E2423"/>
<path fill-rule="evenodd" clip-rule="evenodd" d="M128.307 21.8248C127.458 21.8224 126.621 22.0258 125.868 22.4176C125.114 22.8094 124.467 23.3778 123.981 24.0744H123.505C123.125 23.4326 122.595 22.8926 121.96 22.5004C121.326 22.1082 120.605 21.8756 119.861 21.8225C119.117 21.7693 118.371 21.8972 117.687 22.1952C117.004 22.4932 116.402 22.9525 115.934 23.5336H115.54L115.058 21.96H113.436V36.02H115.918V28.0112C115.918 25.4263 117.497 23.9608 119.325 23.9608C121.753 23.9608 122.088 26.5241 122.088 29.2496V36.02H124.571V27.8165C124.652 25.3398 126.193 23.9608 127.977 23.9608C130.405 23.9608 130.741 26.5241 130.741 29.2496V36.02H133.223V28.3952C133.223 24.5124 131.53 21.814 128.291 21.814" fill="#1E2423"/>
<path fill-rule="evenodd" clip-rule="evenodd" d="M143.914 21.8247C143.141 21.7927 142.37 21.9323 141.657 22.2333C140.943 22.5344 140.305 22.9894 139.788 23.566H139.453L138.95 21.9436H137.328V36.0036H139.794V28.011C139.794 25.5398 141.481 23.9607 143.579 23.9607C146.353 23.9607 146.775 26.7456 146.775 29.2494V36.0198H149.241V28.395C149.241 24.4852 147.478 21.8138 143.914 21.8138" fill="#1E2423"/>
<path d="M156.152 21.9658H153.686V36.0313H156.152V21.9658Z" fill="#1E2423"/>
<path d="M154.919 19.1158C155.835 19.1158 156.579 18.3725 156.579 17.4556C156.579 16.5388 155.835 15.7955 154.919 15.7955C154.002 15.7955 153.259 16.5388 153.259 17.4556C153.259 18.3725 154.002 19.1158 154.919 19.1158Z" fill="#1E2423"/>
<path fill-rule="evenodd" clip-rule="evenodd" d="M165.377 27.7465C163.998 27.3787 162.673 26.9245 162.673 25.632C162.673 24.4748 163.685 23.7393 164.983 23.7393C166.475 23.7393 167.578 24.7019 167.578 25.7402H169.871C169.871 23.7988 168.151 21.7385 165.004 21.7385C162.414 21.7385 160.353 23.1499 160.353 25.6591C160.353 28.4765 162.976 29.2389 164.89 29.7473C166.443 30.1691 167.822 30.6179 167.822 32.0563C167.822 33.4949 166.583 34.0843 165.258 34.0843C163.707 34.0843 162.214 33.1811 162.214 31.4345H159.932C159.932 34.0031 162.046 36.1175 165.285 36.1175C168.049 36.1175 170.152 34.5655 170.152 31.9428C170.152 29.0389 167.529 28.3089 165.388 27.7465" fill="#1E2423"/>
<path fill-rule="evenodd" clip-rule="evenodd" d="M175.641 27.5193C176.09 25.2643 177.669 23.8259 179.756 23.8259C181.844 23.8259 183.288 25.3508 183.623 27.5193H175.641ZM179.788 21.7385C176.263 21.7385 173.099 24.4423 173.099 28.8171C173.099 33.192 176.263 36.1175 179.815 36.1175C181.118 36.113 182.39 35.722 183.47 34.9942C184.55 34.2665 185.389 33.2347 185.883 32.0293H183.288C182.919 32.609 182.403 33.081 181.794 33.3972C181.184 33.7135 180.502 33.8629 179.815 33.8301C177.387 33.8301 175.754 32.2078 175.527 29.5742H186.192C186.473 24.2476 183.174 21.7385 179.788 21.7385Z" fill="#1E2423"/>
<path fill-rule="evenodd" clip-rule="evenodd" d="M196.266 21.8247C195.494 21.7924 194.724 21.9319 194.011 22.2329C193.298 22.534 192.661 22.9893 192.145 23.566H191.805L191.302 21.9436H189.68V36.0036H192.151V28.011C192.151 25.5398 193.833 23.9607 195.936 23.9607C198.716 23.9607 199.132 26.7456 199.132 29.2494V36.0198H201.604V28.395C201.604 24.4852 199.836 21.8138 196.271 21.8138" fill="#1E2423"/>
<path fill-rule="evenodd" clip-rule="evenodd" d="M211.576 33.8577C209.472 33.8577 207.369 32.0299 207.369 28.9908C207.369 25.9516 209.472 24.1238 211.576 24.1238C213.431 24.1238 215.615 25.5352 215.615 28.9908C215.615 32.4462 213.452 33.8577 211.576 33.8577ZM215.615 16.0123V24.0373C215.164 23.3287 214.536 22.7491 213.795 22.3549C213.053 21.9607 212.221 21.7653 211.381 21.7877C207.818 21.7877 204.892 24.7944 204.892 28.9638C204.892 33.133 207.812 36.1398 211.381 36.1398C212.157 36.1627 212.927 35.9983 213.625 35.6604C214.323 35.3223 214.931 34.8208 215.393 34.1984H215.837L216.378 35.9992H218V16.0123H215.615Z" fill="#1E2423"/>
<path d="M82.6449 16.077H69.488C69.0302 16.0763 68.5767 16.1659 68.1536 16.3406C67.7304 16.5153 67.3459 16.7717 67.0219 17.0951C66.698 17.4186 66.441 17.8027 66.2656 18.2256C66.0903 18.6485 66 19.1018 66 19.5596V32.7165C66 33.1743 66.0903 33.6276 66.2656 34.0505C66.441 34.4734 66.698 34.8575 67.0219 35.181C67.3459 35.5045 67.7304 35.7608 68.1536 35.9356C68.5767 36.1103 69.0302 36.1998 69.488 36.1991H75.4797V33.3168C75.4797 30.5372 75.1336 28.4066 73.0679 27.7901V25.5135C76.426 25.8163 78.0916 28.3146 78.0916 32.4191V36.2045H82.6449C83.5686 36.2045 84.4543 35.8376 85.1074 35.1845C85.7606 34.5313 86.1275 33.6456 86.1275 32.7219V19.5596C86.1275 18.636 85.7606 17.7502 85.1074 17.097C84.4543 16.4439 83.5686 16.077 82.6449 16.077ZM76.1556 23.345C75.7736 23.3461 75.3998 23.2337 75.0817 23.0223C74.7635 22.8108 74.5151 22.5096 74.3682 22.157C74.2213 21.8043 74.1823 21.416 74.2561 21.0411C74.33 20.6663 74.5134 20.3218 74.7832 20.0512C75.053 19.7807 75.397 19.5963 75.7717 19.5214C76.1463 19.4465 76.5347 19.4844 76.8878 19.6303C77.2409 19.7763 77.5427 20.0237 77.7551 20.3413C77.9675 20.6589 78.0808 21.0324 78.0808 21.4144C78.0808 21.9255 77.8781 22.4157 77.5173 22.7776C77.1564 23.1395 76.6668 23.3436 76.1556 23.345Z" fill="#1E2423"/>
</g>
<defs>
<clipPath id="clip0_968_21653">
<rect width="152" height="21.9556" fill="white" transform="translate(66 15.0222)"/>
</clipPath>
</defs>
</svg>
