<svg width="284" height="50" viewBox="0 0 284 50" fill="none" xmlns="http://www.w3.org/2000/svg">
<mask id="mask0_11824_16102" style="mask-type:luminance" maskUnits="userSpaceOnUse" x="66" y="15" width="152" height="22">
<path d="M218 15.0222H66V36.9778H218V15.0222Z" fill="white"/>
</mask>
<g mask="url(#mask0_11824_16102)">
<path fill-rule="evenodd" clip-rule="evenodd" d="M103.218 33.8895C100.682 33.8895 98.9352 31.7751 98.9352 29.0226C98.9352 26.2701 100.682 24.1557 103.218 24.1557C105.754 24.1557 107.501 26.2701 107.501 29.0226C107.501 31.7751 105.781 33.8895 103.218 33.8895ZM103.218 21.825C99.6923 21.825 96.4531 24.8425 96.4531 29.0118C96.4531 33.1812 99.6977 36.1987 103.218 36.1987C106.738 36.1987 109.983 33.1866 109.983 29.0118C109.983 24.8371 106.738 21.825 103.218 21.825Z" fill="white"/>
<path fill-rule="evenodd" clip-rule="evenodd" d="M128.309 21.8246C127.46 21.8222 126.622 22.0256 125.869 22.4174C125.115 22.8092 124.469 23.3776 123.983 24.0742H123.507C123.127 23.4324 122.597 22.8924 121.962 22.5002C121.328 22.108 120.607 21.8754 119.863 21.8223C119.119 21.7691 118.372 21.897 117.688 22.195C117.005 22.493 116.404 22.9523 115.936 23.5334H115.542L115.06 21.9598H113.438V36.0198H115.92V28.011C115.92 25.4261 117.498 23.9606 119.326 23.9606C121.754 23.9606 122.09 26.5239 122.09 29.2494V36.0198H124.573V27.8163C124.654 25.3396 126.195 23.9606 127.979 23.9606C130.407 23.9606 130.743 26.5239 130.743 29.2494V36.0198H133.225V28.395C133.225 24.5122 131.532 21.8138 128.293 21.8138" fill="white"/>
<path fill-rule="evenodd" clip-rule="evenodd" d="M143.914 21.8246C143.141 21.7926 142.37 21.9322 141.657 22.2332C140.943 22.5343 140.305 22.9893 139.788 23.5659H139.453L138.95 21.9435H137.328V36.0035H139.794V28.0109C139.794 25.5397 141.481 23.9606 143.579 23.9606C146.353 23.9606 146.775 26.7455 146.775 29.2493V36.0197H149.241V28.3949C149.241 24.4851 147.478 21.8137 143.914 21.8137" fill="white"/>
<path d="M156.153 21.9658H153.688V36.0313H156.153V21.9658Z" fill="white"/>
<path d="M154.918 19.1157C155.834 19.1157 156.578 18.3724 156.578 17.4555C156.578 16.5387 155.834 15.7954 154.918 15.7954C154.001 15.7954 153.258 16.5387 153.258 17.4555C153.258 18.3724 154.001 19.1157 154.918 19.1157Z" fill="white"/>
<path fill-rule="evenodd" clip-rule="evenodd" d="M165.375 27.7465C163.996 27.3787 162.671 26.9245 162.671 25.632C162.671 24.4748 163.683 23.7393 164.981 23.7393C166.473 23.7393 167.576 24.7019 167.576 25.7402H169.869C169.869 23.7988 168.149 21.7385 165.002 21.7385C162.412 21.7385 160.351 23.1499 160.351 25.6591C160.351 28.4765 162.974 29.2389 164.888 29.7473C166.441 30.1691 167.82 30.6179 167.82 32.0563C167.82 33.4949 166.581 34.0843 165.256 34.0843C163.705 34.0843 162.212 33.1811 162.212 31.4345H159.93C159.93 34.0031 162.044 36.1175 165.283 36.1175C168.047 36.1175 170.15 34.5655 170.15 31.9428C170.15 29.0389 167.527 28.3089 165.386 27.7465" fill="white"/>
<path fill-rule="evenodd" clip-rule="evenodd" d="M175.644 27.5193C176.093 25.2643 177.672 23.8259 179.759 23.8259C181.847 23.8259 183.291 25.3508 183.626 27.5193H175.644ZM179.791 21.7385C176.266 21.7385 173.102 24.4423 173.102 28.8171C173.102 33.192 176.266 36.1175 179.818 36.1175C181.121 36.113 182.393 35.722 183.473 34.9942C184.553 34.2665 185.392 33.2347 185.886 32.0293H183.291C182.922 32.609 182.406 33.081 181.797 33.3972C181.187 33.7135 180.505 33.8629 179.818 33.8301C177.39 33.8301 175.757 32.2078 175.53 29.5742H186.195C186.476 24.2476 183.177 21.7385 179.791 21.7385Z" fill="white"/>
<path fill-rule="evenodd" clip-rule="evenodd" d="M196.266 21.8246C195.494 21.7923 194.724 21.9318 194.011 22.2328C193.298 22.5339 192.661 22.9892 192.145 23.5659H191.805L191.302 21.9435H189.68V36.0035H192.151V28.0109C192.151 25.5397 193.833 23.9606 195.936 23.9606C198.716 23.9606 199.132 26.7455 199.132 29.2493V36.0197H201.604V28.3949C201.604 24.4851 199.836 21.8137 196.271 21.8137" fill="white"/>
<path fill-rule="evenodd" clip-rule="evenodd" d="M211.575 33.8576C209.471 33.8576 207.368 32.0298 207.368 28.9907C207.368 25.9515 209.471 24.1237 211.575 24.1237C213.43 24.1237 215.614 25.5351 215.614 28.9907C215.614 32.4461 213.451 33.8576 211.575 33.8576ZM215.614 16.0122V24.0372C215.163 23.3286 214.535 22.749 213.794 22.3548C213.052 21.9606 212.22 21.7652 211.38 21.7876C207.817 21.7876 204.891 24.7943 204.891 28.9637C204.891 33.1329 207.811 36.1397 211.38 36.1397C212.156 36.1626 212.926 35.9982 213.624 35.6603C214.322 35.3222 214.93 34.8207 215.392 34.1983H215.836L216.377 35.9991H217.999V16.0122H215.614Z" fill="white"/>
<path d="M82.6449 16.0769H69.488C69.0302 16.0762 68.5767 16.1658 68.1536 16.3405C67.7304 16.5152 67.3459 16.7716 67.0219 17.095C66.698 17.4185 66.441 17.8026 66.2656 18.2255C66.0903 18.6484 66 19.1017 66 19.5595V32.7164C66 33.1742 66.0903 33.6275 66.2656 34.0504C66.441 34.4733 66.698 34.8574 67.0219 35.1809C67.3459 35.5044 67.7304 35.7607 68.1536 35.9355C68.5767 36.1102 69.0302 36.1997 69.488 36.199H75.4797V33.3167C75.4797 30.5371 75.1336 28.4065 73.0679 27.79V25.5134C76.426 25.8162 78.0916 28.3145 78.0916 32.419V36.2044H82.6449C83.5686 36.2044 84.4543 35.8375 85.1074 35.1844C85.7606 34.5312 86.1275 33.6455 86.1275 32.7218V19.5595C86.1275 18.6359 85.7606 17.7501 85.1074 17.0969C84.4543 16.4438 83.5686 16.0769 82.6449 16.0769ZM76.1556 23.3449C75.7736 23.346 75.3998 23.2336 75.0817 23.0222C74.7635 22.8107 74.5151 22.5095 74.3682 22.1569C74.2213 21.8042 74.1823 21.4159 74.2561 21.041C74.33 20.6662 74.5134 20.3217 74.7832 20.0511C75.053 19.7806 75.397 19.5962 75.7717 19.5213C76.1463 19.4464 76.5347 19.4843 76.8878 19.6302C77.2409 19.7762 77.5427 20.0236 77.7551 20.3412C77.9675 20.6588 78.0808 21.0323 78.0808 21.4143C78.0808 21.9254 77.8781 22.4156 77.5173 22.7775C77.1564 23.1394 76.6668 23.3435 76.1556 23.3449Z" fill="white"/>
</g>
</svg>
