<svg width="110" height="110" viewBox="0 0 110 110" fill="none" xmlns="http://www.w3.org/2000/svg">
<g clip-path="url(#clip0_12129_21727)">
<path d="M105.411 87.1922L82.0357 48.2281C81.0732 46.6265 79.7126 45.3011 78.0862 44.381C76.4599 43.4609 74.6231 42.9774 72.7545 42.9774C70.8858 42.9774 69.049 43.4609 67.4227 44.381C65.7963 45.3011 64.4357 46.6265 63.4732 48.2281L40.081 87.1922C38.8139 89.3126 38.1331 91.7317 38.1081 94.2017C38.0832 96.6717 38.7151 99.104 39.9391 101.25C41.1632 103.395 42.9354 105.177 45.0743 106.412C47.2133 107.648 49.6421 108.293 52.1123 108.281H93.4826C95.9461 108.28 98.3651 107.625 100.493 106.383C102.62 105.142 104.38 103.358 105.593 101.213C106.806 99.0691 107.428 96.6414 107.396 94.1781C107.364 91.7148 106.679 89.3042 105.411 87.1922ZM72.7545 93.8266C72.4145 93.8266 72.0822 93.7258 71.7996 93.5369C71.5169 93.3481 71.2966 93.0796 71.1665 92.7656C71.0364 92.4515 71.0024 92.1059 71.0687 91.7725C71.135 91.4391 71.2987 91.1329 71.5391 90.8925C71.7795 90.6521 72.0857 90.4884 72.4191 90.4221C72.7525 90.3558 73.0981 90.3898 73.4122 90.5199C73.7262 90.65 73.9947 90.8703 74.1835 91.1529C74.3724 91.4356 74.4732 91.7679 74.4732 92.1078C74.4732 92.5637 74.2921 93.0008 73.9698 93.3232C73.6475 93.6455 73.2103 93.8266 72.7545 93.8266ZM74.4732 84.1328C74.4732 84.5887 74.2921 85.0258 73.9698 85.3482C73.6475 85.6705 73.2103 85.8516 72.7545 85.8516C72.2986 85.8516 71.8614 85.6705 71.5391 85.3482C71.2168 85.0258 71.0357 84.5887 71.0357 84.1328V64.4188C71.0357 63.9629 71.2168 63.5258 71.5391 63.2034C71.8614 62.8811 72.2986 62.7 72.7545 62.7C73.2103 62.7 73.6475 62.8811 73.9698 63.2034C74.2921 63.5258 74.4732 63.9629 74.4732 64.4188V84.1328Z" fill="#C4A2FC"/>
<g clip-path="url(#clip1_12129_21727)">
<path d="M87.4575 12.5925H6.1675C4.69754 12.5925 3.28778 13.1765 2.24836 14.2159C1.20894 15.2553 0.625 16.6651 0.625 18.135V69.865C0.625 71.335 1.20894 72.7447 2.24836 73.7842C3.28778 74.8236 4.69754 75.4075 6.1675 75.4075H87.4575C88.9275 75.4075 90.3372 74.8236 91.3766 73.7842C92.4161 72.7447 93 71.335 93 69.865V18.135C93 16.6651 92.4161 15.2553 91.3766 14.2159C90.3372 13.1765 88.9275 12.5925 87.4575 12.5925ZM6.1675 16.2875H87.4575C87.9475 16.2875 88.4174 16.4822 88.7639 16.8286C89.1104 17.1751 89.305 17.645 89.305 18.135V23.6775H4.32V18.135C4.32 17.645 4.51465 17.1751 4.86112 16.8286C5.20759 16.4822 5.67751 16.2875 6.1675 16.2875ZM89.305 36.61H4.32V27.3725H89.305V36.61ZM87.4575 71.7125H6.1675C5.67751 71.7125 5.20759 71.5179 4.86112 71.1714C4.51465 70.8249 4.32 70.355 4.32 69.865V40.305H89.305V69.865C89.305 70.355 89.1104 70.8249 88.7639 71.1714C88.4174 71.5179 87.9475 71.7125 87.4575 71.7125Z" fill="#151A6A"/>
<path d="M39.4231 64.3225H9.86313C9.37314 64.3225 8.90322 64.5171 8.55675 64.8636C8.21027 65.2101 8.01562 65.68 8.01562 66.17C8.01562 66.66 8.21027 67.1299 8.55675 67.4764C8.90322 67.8228 9.37314 68.0175 9.86313 68.0175H39.4231C39.9131 68.0175 40.383 67.8228 40.7295 67.4764C41.076 67.1299 41.2706 66.66 41.2706 66.17C41.2706 65.68 41.076 65.2101 40.7295 64.8636C40.383 64.5171 39.9131 64.3225 39.4231 64.3225ZM9.86313 60.6275H24.6431C25.1331 60.6275 25.603 60.4328 25.9495 60.0864C26.296 59.7399 26.4906 59.27 26.4906 58.78C26.4906 58.29 26.296 57.8201 25.9495 57.4736C25.603 57.1271 25.1331 56.9325 24.6431 56.9325H9.86313C9.37314 56.9325 8.90322 57.1271 8.55675 57.4736C8.21027 57.8201 8.01562 58.29 8.01562 58.78C8.01562 59.27 8.21027 59.7399 8.55675 60.0864C8.90322 60.4328 9.37314 60.6275 9.86313 60.6275Z" fill="#151A6A"/>
</g>
</g>
<defs>
<clipPath id="clip0_12129_21727">
<rect width="110" height="110" fill="white"/>
</clipPath>
<clipPath id="clip1_12129_21727">
<rect width="104" height="104" fill="white" transform="translate(-1 1)"/>
</clipPath>
</defs>
</svg>
