<svg width="110" height="110" viewBox="0 0 110 110" fill="none" xmlns="http://www.w3.org/2000/svg">
<path d="M103.06 71.3281H91.5063V51.9234C91.4837 50.6052 91.0594 49.3252 90.2901 48.2545C89.5208 47.1838 88.4431 46.3733 87.201 45.9313C85.9589 45.4893 84.6114 45.4369 83.3387 45.7809C82.066 46.125 80.9285 46.8492 80.0783 47.8568L60.1563 70.4653V107.422H96.0506C98.1036 107.436 100.095 106.719 101.668 105.4C103.241 104.08 104.293 102.244 104.636 100.22L108.211 77.3317C108.331 76.5881 108.288 75.8273 108.084 75.1023C107.88 74.3772 107.52 73.7054 107.029 73.1338C106.539 72.5622 105.93 72.1044 105.244 71.7926C104.558 71.4807 103.813 71.3222 103.06 71.3281ZM51.5625 67.8906H44.6875C43.32 67.8906 42.0085 68.4338 41.0415 69.4008C40.0745 70.3678 39.5313 71.6793 39.5312 73.0468V102.266C39.5313 103.633 40.0745 104.945 41.0415 105.912C42.0085 106.879 43.32 107.422 44.6875 107.422H56.7188V73.0468C56.7188 71.6793 56.1755 70.3678 55.2085 69.4008C54.2415 68.4338 52.93 67.8906 51.5625 67.8906ZM49.8438 97.1093C49.8438 97.5652 49.6627 98.0024 49.3403 98.3247C49.018 98.647 48.5808 98.8281 48.125 98.8281C47.6692 98.8281 47.232 98.647 46.9097 98.3247C46.5873 98.0024 46.4063 97.5652 46.4063 97.1093V93.6718C46.4063 93.216 46.5873 92.7788 46.9097 92.4565C47.232 92.1342 47.6692 91.9531 48.125 91.9531C48.5808 91.9531 49.018 92.1342 49.3403 92.4565C49.6627 92.7788 49.8438 93.216 49.8438 93.6718V97.1093Z" fill="#C4A2FC"/>
<path d="M80.6229 49.5C79.9809 49.0602 79.4558 48.4707 79.0929 47.7823C78.7301 47.094 78.5405 46.3276 78.5405 45.5494C78.5405 44.7713 78.7301 44.0049 79.0929 43.3165C79.4558 42.6282 79.9809 42.0386 80.6229 41.5989C82.0874 40.5951 83.1878 39.1445 83.7598 37.4637C84.3318 35.7829 84.3446 33.9622 83.7963 32.2735C83.2481 30.5848 82.1682 29.1189 80.7179 28.0946C79.2677 27.0704 77.5251 26.5428 75.7503 26.5908C74.9723 26.6131 74.2007 26.4453 73.5024 26.1018C72.804 25.7583 72.2001 25.2495 71.743 24.6196C71.2859 23.9898 70.9894 23.2579 70.8793 22.4875C70.7693 21.717 70.8489 20.9314 71.1114 20.1987C71.7084 18.5266 71.748 16.7061 71.2241 15.0097C70.7002 13.3132 69.6411 11.832 68.2051 10.7877C66.7692 9.7434 65.0337 9.19217 63.2584 9.2165C61.483 9.24082 59.7633 9.83939 58.3565 10.9226C57.7409 11.3979 57.0185 11.7157 56.2522 11.8485C55.4859 11.9812 54.6987 11.9249 53.9591 11.6844C53.2195 11.4439 52.5498 11.0265 52.0081 10.4684C51.4664 9.91032 51.0691 9.22846 50.8507 8.482C50.3508 6.77865 49.3125 5.28307 47.8914 4.21917C46.4703 3.15526 44.7429 2.58026 42.9677 2.58026C41.1925 2.58026 39.465 3.15526 38.0439 4.21917C36.6229 5.28307 35.5846 6.77865 35.0846 8.482C34.8663 9.22846 34.469 9.91032 33.9273 10.4684C33.3856 11.0265 32.7159 11.4439 31.9762 11.6844C31.2366 11.9249 30.4495 11.9812 29.6832 11.8485C28.9168 11.7157 28.1945 11.3979 27.5789 10.9226C26.1721 9.83939 24.4523 9.24082 22.677 9.2165C20.9017 9.19217 19.1662 9.7434 17.7302 10.7877C16.2943 11.832 15.2352 13.3132 14.7113 15.0097C14.1874 16.7061 14.2269 18.5266 14.824 20.1987C15.0939 20.9518 15.1708 21.7605 15.0476 22.551C14.9245 23.3414 14.6053 24.0884 14.1192 24.7238C13.6331 25.3591 12.9955 25.8625 12.2648 26.1881C11.534 26.5136 10.7333 26.6509 9.93589 26.5873C8.18163 26.5929 6.47511 27.1592 5.06552 28.2035C3.65594 29.2478 2.61711 30.7154 2.10075 32.3919C1.58439 34.0685 1.61752 35.8662 2.19533 37.5226C2.77313 39.179 3.86534 40.6073 5.31245 41.5989C5.95443 42.0386 6.47957 42.6282 6.84242 43.3165C7.20528 44.0049 7.39491 44.7713 7.39491 45.5494C7.39491 46.3276 7.20528 47.094 6.84242 47.7823C6.47957 48.4707 5.95443 49.0602 5.31245 49.5C3.84811 50.5036 2.74777 51.9541 2.17577 53.6347C1.60378 55.3153 1.59083 57.1359 2.13886 58.8245C2.6869 60.513 3.7665 61.979 5.21641 63.0034C6.66633 64.0278 8.40874 64.5557 10.1834 64.5081C10.9611 64.486 11.7325 64.6539 12.4307 64.9973C13.1288 65.3407 13.7327 65.8492 14.1899 66.4788C14.647 67.1083 14.9437 67.8399 15.0542 68.6101C15.1648 69.3802 15.0857 70.1657 14.824 70.8984C14.2269 72.5705 14.1874 74.391 14.7113 76.0875C15.2352 77.7839 16.2943 79.2651 17.7302 80.3094C19.1662 81.3537 20.9017 81.905 22.677 81.8806C24.4523 81.8563 26.1721 81.2577 27.5789 80.1745C28.1946 79.6993 28.9171 79.3815 29.6835 79.2489C30.4499 79.1162 31.2371 79.1727 31.9768 79.4134C32.7164 79.654 33.3861 80.0717 33.9277 80.6299C34.4693 81.1882 34.8665 81.8703 35.0846 82.6168C35.5846 84.3202 36.6229 85.8158 38.0439 86.8797C39.465 87.9436 41.1925 88.5186 42.9677 88.5186C44.7429 88.5186 46.4703 87.9436 47.8914 86.8797C49.3125 85.8158 50.3508 84.3202 50.8507 82.6168C51.0691 81.8704 51.4664 81.1885 52.0081 80.6304C52.5498 80.0724 53.2195 79.655 53.9591 79.4145C54.6987 79.174 55.4859 79.1176 56.2522 79.2504C57.0185 79.3831 57.7409 79.701 58.3565 80.1762C59.7633 81.2595 61.483 81.858 63.2584 81.8823C65.0337 81.9067 66.7692 81.3554 68.2051 80.3112C69.6411 79.2669 70.7002 77.7857 71.2241 76.0892C71.748 74.3927 71.7084 72.5722 71.1114 70.9001C70.8486 70.1674 70.7686 69.3815 70.8785 68.6109C70.9885 67.8402 71.2848 67.108 71.742 66.478C72.1992 65.8479 72.8032 65.3389 73.5018 64.9953C74.2003 64.6518 74.9721 64.4839 75.7503 64.5064C77.5246 64.5537 79.2666 64.0259 80.7163 63.0018C82.166 61.9776 83.2455 60.512 83.7936 58.8238C84.3418 57.1356 84.3292 55.3154 83.7577 53.635C83.1863 51.9545 82.0866 50.504 80.6229 49.5ZM75.8448 61.0723C74.5096 61.0372 73.1858 61.3277 71.9879 61.9185C70.7901 62.5094 69.754 63.383 68.9692 64.4639C68.1845 65.5448 67.6746 66.8004 67.4837 68.1224C67.2927 69.4443 67.4264 70.7929 67.8732 72.0517C68.2212 73.0245 68.2447 74.0839 67.9402 75.0712C67.6357 76.0585 67.0196 76.9206 66.1842 77.5285C65.3487 78.1363 64.3389 78.4572 63.3058 78.4431C62.2727 78.429 61.2719 78.0807 60.4534 77.4503C59.3949 76.6357 58.1537 76.0913 56.8375 75.8643C55.5212 75.6374 54.1695 75.7346 52.8992 76.1476C51.629 76.5606 50.4786 77.277 49.5475 78.2347C48.6165 79.1925 47.9329 80.3627 47.5559 81.644C47.2657 82.6363 46.6617 83.5078 45.8345 84.1279C45.0072 84.7479 44.0013 85.0832 42.9675 85.0834C41.9336 85.0836 40.9276 84.7487 40.1001 84.1289C39.2726 83.5092 38.6683 82.6379 38.3778 81.6458C37.9996 80.3654 37.3155 79.1964 36.3844 78.2396C35.4533 77.2829 34.3034 76.5671 33.0338 76.1543C31.7642 75.7414 30.4133 75.6438 29.0975 75.8699C27.7818 76.096 26.5409 76.639 25.482 77.452C24.6633 78.0828 23.6623 78.4314 22.6289 78.4455C21.5955 78.4596 20.5854 78.1386 19.7498 77.5304C18.9142 76.9222 18.2981 76.0597 17.9939 75.072C17.6896 74.0843 17.7136 73.0246 18.0621 72.0517C18.5094 70.7929 18.6434 69.4442 18.4526 68.1221C18.2619 66.7999 17.752 65.5441 16.9672 64.4631C16.1823 63.3821 15.1461 62.5085 13.948 61.9177C12.7499 61.327 11.4259 61.0368 10.0906 61.0723C9.0575 61.1001 8.04315 60.7929 7.19906 60.1966C6.35498 59.6004 5.72645 58.747 5.40737 57.764C5.08829 56.7811 5.09578 55.7213 5.42873 54.7429C5.76167 53.7646 6.4022 52.9202 7.25464 52.3359C8.3557 51.5794 9.25614 50.5664 9.87824 49.3842C10.5003 48.202 10.8254 46.8862 10.8254 45.5503C10.8254 44.2144 10.5003 42.8986 9.87824 41.7164C9.25614 40.5342 8.3557 39.5211 7.25464 38.7647C6.40141 38.1807 5.76013 37.3362 5.42667 36.3575C5.09321 35.3788 5.08549 34.3184 5.40467 33.335C5.72384 32.3515 6.35277 31.4978 7.19741 30.9015C8.04204 30.3051 9.05702 29.9982 10.0906 30.0265C11.4262 30.0621 12.7503 29.772 13.9486 29.1811C15.1469 28.5902 16.1833 27.7164 16.9682 26.6352C17.753 25.554 18.2628 24.298 18.4534 22.9756C18.644 21.6532 18.5097 20.3043 18.0621 19.0454C17.7148 18.0727 17.6918 17.0137 17.9965 16.0268C18.3012 15.0399 18.9173 14.1782 19.7526 13.5706C20.5879 12.9631 21.5975 12.6423 22.6303 12.6564C23.6631 12.6704 24.6635 13.0185 25.482 13.6486C26.5408 14.4631 27.7821 15.0074 29.0986 15.2342C30.4151 15.4611 31.767 15.3637 33.0373 14.9505C34.3077 14.5373 35.4582 13.8208 36.3894 12.8629C37.3205 11.905 38.0042 10.7347 38.3812 9.45309C38.6716 8.46088 39.2757 7.58951 40.1031 6.96959C40.9304 6.34968 41.9364 6.01461 42.9703 6.01461C44.0041 6.01461 45.0101 6.34968 45.8374 6.96959C46.6648 7.58951 47.2689 8.46088 47.5593 9.45309C47.9364 10.7342 48.62 11.9041 49.5509 12.8616C50.4819 13.8191 51.6321 14.5353 52.9021 14.9483C54.172 15.3613 55.5235 15.4587 56.8396 15.2319C58.1556 15.0051 59.3966 14.4611 60.4551 13.6468C61.2738 13.016 62.2748 12.6675 63.3082 12.6533C64.3416 12.6392 65.3517 12.9603 66.1873 13.5684C67.0229 14.1766 67.639 15.0391 67.9432 16.0268C68.2475 17.0145 68.2235 18.0742 67.875 19.0472C67.4282 20.3058 67.2945 21.6542 67.4853 22.976C67.6762 24.2979 68.1859 25.5534 68.9705 26.6342C69.755 27.715 70.7909 28.5887 71.9885 29.1797C73.1862 29.7707 74.5097 30.0613 75.8448 30.0265C76.8779 29.9987 77.8922 30.3059 78.7363 30.9022C79.5804 31.4985 80.2089 32.3518 80.528 33.3348C80.8471 34.3178 80.8396 35.3776 80.5066 36.3559C80.1737 37.3343 79.5332 38.1787 78.6807 38.7629C77.5797 39.5194 76.6792 40.5325 76.0571 41.7147C75.435 42.8969 75.1099 44.2127 75.1099 45.5486C75.1099 46.8844 75.435 48.2003 76.0571 49.3825C76.6792 50.5647 77.5797 51.5777 78.6807 52.3342C79.5327 52.9189 80.1728 53.7634 80.5055 54.7417C80.8382 55.72 80.8455 56.7797 80.5266 57.7625C80.2076 58.7454 79.5793 59.5987 78.7356 60.1952C77.8918 60.7917 76.8778 61.0994 75.8448 61.0723Z" fill="#14166C"/>
<path d="M62.9329 35.3547C62.7245 35.4417 62.5353 35.569 62.3761 35.7292C62.2169 35.8894 62.0908 36.0794 62.0051 36.2883C61.9194 36.4973 61.8757 36.721 61.8765 36.9469C61.8773 37.1727 61.9227 37.3962 62.0099 37.6045C63.9067 42.1524 64.1119 47.2293 62.5882 51.9154C61.0645 56.6015 57.9128 60.5869 53.7041 63.1495C49.4953 65.7122 44.5078 66.6827 39.6452 65.8851C34.7826 65.0875 30.3665 62.5747 27.1968 58.8018C24.0272 55.0289 22.3138 50.2455 22.3669 45.3182C22.4201 40.3909 24.2363 35.6456 27.4865 31.9419C30.7367 28.2383 35.206 25.8213 40.0847 25.1287C44.9634 24.4362 49.9288 25.514 54.0813 28.1669C54.4652 28.4045 54.9273 28.4815 55.3675 28.3812C55.8077 28.2809 56.1908 28.0114 56.434 27.631C56.6772 27.2506 56.7609 26.7897 56.667 26.3481C56.5731 25.9064 56.3093 25.5194 55.9324 25.2708C51.0915 22.18 45.3036 20.9253 39.6174 21.7338C33.9311 22.5423 28.7224 25.3606 24.9349 29.6782C21.1473 33.9958 19.0313 39.5271 18.9701 45.2702C18.909 51.0134 20.9067 56.5885 24.6016 60.9857C28.2964 65.383 33.4438 68.3115 39.1116 69.2409C44.7794 70.1703 50.5926 69.039 55.4982 66.0521C60.4039 63.0651 64.0775 58.42 65.8538 52.9581C67.63 47.4962 67.3913 41.5787 65.181 36.2776C65.0049 35.8575 64.6691 35.5245 64.2476 35.3517C63.8261 35.179 63.3532 35.1789 62.9329 35.3547Z" fill="#14166C"/>
<path d="M30.457 42.6147C30.2984 42.4505 30.1088 42.3196 29.8991 42.2295C29.6894 42.1394 29.4639 42.092 29.2356 42.09C29.0074 42.088 28.7811 42.1315 28.5699 42.2179C28.3586 42.3044 28.1667 42.432 28.0054 42.5934C27.844 42.7547 27.7164 42.9466 27.6299 43.1579C27.5435 43.3691 27.5 43.5954 27.502 43.8236C27.504 44.0519 27.5514 44.2774 27.6415 44.4871C27.7316 44.6968 27.8625 44.8864 28.0267 45.045L38.3323 55.3575C38.499 55.5244 38.6984 55.6552 38.9179 55.7416C39.1374 55.8281 39.3724 55.8684 39.6082 55.86C39.8439 55.8516 40.0755 55.7947 40.2883 55.6929C40.5011 55.5911 40.6907 55.4465 40.8451 55.2681L63.1768 29.4869C63.3284 29.3169 63.4447 29.1185 63.5189 28.9032C63.5931 28.6879 63.6238 28.46 63.6092 28.2328C63.5946 28.0055 63.535 27.7834 63.4338 27.5794C63.3327 27.3754 63.192 27.1935 63.0199 27.0443C62.8478 26.8951 62.6478 26.7816 62.4315 26.7104C62.2152 26.6392 61.9869 26.6117 61.7599 26.6294C61.5329 26.6472 61.3116 26.7099 61.109 26.8139C60.9065 26.9179 60.7265 27.0612 60.5798 27.2353L39.4564 51.6244L30.457 42.6147Z" fill="#14166C"/>
</svg>
