<svg width="110" height="110" viewBox="0 0 110 110" fill="none" xmlns="http://www.w3.org/2000/svg">
<g clip-path="url(#clip0_12129_21727)">
<path d="M105.411 87.1922L82.0357 48.2281C81.0732 46.6265 79.7126 45.3011 78.0862 44.381C76.4599 43.4609 74.6231 42.9774 72.7545 42.9774C70.8858 42.9774 69.049 43.4609 67.4227 44.381C65.7963 45.3011 64.4357 46.6265 63.4732 48.2281L40.081 87.1922C38.8139 89.3126 38.1331 91.7317 38.1081 94.2017C38.0832 96.6717 38.7151 99.104 39.9391 101.25C41.1632 103.395 42.9354 105.177 45.0743 106.412C47.2133 107.648 49.6421 108.293 52.1123 108.281H93.4826C95.9461 108.28 98.3651 107.625 100.493 106.383C102.62 105.142 104.38 103.358 105.593 101.213C106.806 99.0691 107.428 96.6414 107.396 94.1781C107.364 91.7148 106.679 89.3042 105.411 87.1922ZM72.7545 93.8266C72.4145 93.8266 72.0822 93.7258 71.7996 93.5369C71.5169 93.3481 71.2966 93.0796 71.1665 92.7656C71.0364 92.4515 71.0024 92.1059 71.0687 91.7725C71.135 91.4391 71.2987 91.1329 71.5391 90.8925C71.7795 90.6521 72.0857 90.4884 72.4191 90.4221C72.7525 90.3558 73.0981 90.3898 73.4122 90.5199C73.7262 90.65 73.9947 90.8703 74.1835 91.1529C74.3724 91.4356 74.4732 91.7679 74.4732 92.1078C74.4732 92.5637 74.2921 93.0008 73.9698 93.3232C73.6475 93.6455 73.2103 93.8266 72.7545 93.8266ZM74.4732 84.1328C74.4732 84.5887 74.2921 85.0258 73.9698 85.3482C73.6475 85.6705 73.2103 85.8516 72.7545 85.8516C72.2986 85.8516 71.8614 85.6705 71.5391 85.3482C71.2168 85.0258 71.0357 84.5887 71.0357 84.1328V64.4188C71.0357 63.9629 71.2168 63.5258 71.5391 63.2034C71.8614 62.8811 72.2986 62.7 72.7545 62.7C73.2103 62.7 73.6475 62.8811 73.9698 63.2034C74.2921 63.5258 74.4732 63.9629 74.4732 64.4188V84.1328Z" fill="#C4A2FC"/>
<path d="M56.8594 67.8898H62.7679C62.7955 63.4601 62.8101 59.162 62.7923 57.2282C61.5881 59.2188 58.9816 63.9606 56.8594 67.8898Z" fill="#C4A2FC"/>
<path d="M55.6625 58.6874C55.8761 58.3133 55.9324 57.8697 55.8191 57.454C55.7057 57.0384 55.4319 56.6848 55.058 56.4709L44.502 50.4324V28.6249C44.502 28.194 44.3307 27.7806 44.026 27.4759C43.7213 27.1711 43.3079 26.9999 42.877 26.9999C42.446 26.9999 42.0326 27.1711 41.7279 27.4759C41.4232 27.7806 41.252 28.194 41.252 28.6249V51.3749C41.2742 51.6556 41.3586 51.9278 41.4992 52.1718C41.6397 52.4158 41.8328 52.6254 42.0645 52.7854L53.4395 59.2854C53.6246 59.3925 53.829 59.462 54.0411 59.4899C54.2531 59.5178 54.4686 59.5035 54.6751 59.448C54.8816 59.3924 55.0752 59.2966 55.2446 59.1661C55.414 59.0356 55.556 58.8729 55.6625 58.6874Z" fill="#14166C"/>
<path d="M77.0288 21.241C76.9141 21.0595 76.7645 20.9025 76.5887 20.7792C76.413 20.6558 76.2145 20.5685 76.0048 20.5223C75.7951 20.4762 75.5783 20.472 75.367 20.5101C75.1557 20.5482 74.954 20.6277 74.7737 20.7442C74.5933 20.8607 74.4378 21.0118 74.3162 21.1888C74.1945 21.3657 74.1092 21.565 74.065 21.7751C74.0208 21.9853 74.0188 22.2021 74.0589 22.413C74.099 22.624 74.1806 22.8248 74.2988 23.0041C79.4644 30.9968 81.3946 40.6557 79.6977 50.0198C78.0008 59.3839 72.8038 67.7513 65.1621 73.4231C57.5203 79.0949 48.0064 81.646 38.5522 80.5584C29.0979 79.4708 20.4118 74.8261 14.2576 67.5672C8.10329 60.3084 4.94208 50.9795 5.41578 41.4747C5.88947 31.9698 9.96256 23.0015 16.8081 16.3905C23.6536 9.77955 32.7584 6.02146 42.274 5.87928C51.7895 5.73709 61.0026 9.22147 68.0426 15.625H65.6262C65.1952 15.625 64.7819 15.7962 64.4771 16.1009C64.1724 16.4057 64.0012 16.819 64.0012 17.25C64.0012 17.6809 64.1724 18.0943 64.4771 18.399C64.7819 18.7038 65.1952 18.875 65.6262 18.875H72.1262C72.5572 18.875 72.9705 18.7038 73.2752 18.399C73.58 18.0943 73.7512 17.6809 73.7512 17.25V10.75C73.7512 10.319 73.58 9.90566 73.2752 9.60091C72.9705 9.29616 72.5572 9.12496 72.1262 9.12496C71.6952 9.12496 71.2819 9.29616 70.9771 9.60091C70.6724 9.90566 70.5012 10.319 70.5012 10.75V13.48C62.9453 6.50004 53.0137 2.66153 42.7277 2.74562C32.4416 2.8297 22.5741 6.83008 15.1334 13.9326C7.69265 21.0351 3.23789 30.706 2.67572 40.977C2.11356 51.248 5.48624 61.3473 12.1074 69.2195C18.7285 77.0916 28.1004 82.1451 38.3159 83.3512C48.5313 84.5574 58.8225 81.8258 67.095 75.7122C75.3675 69.5986 80.9996 60.5626 82.8451 50.4431C84.6906 40.3236 82.6107 29.8811 77.0288 21.241Z" fill="#14166C"/>
<path d="M42.877 15.6249C43.3079 15.6249 43.7213 15.4537 44.026 15.149C44.3307 14.8442 44.502 14.4309 44.502 13.9999V10.7499C44.502 10.319 44.3307 9.90564 44.026 9.60089C43.7213 9.29614 43.3079 9.12494 42.877 9.12494C42.446 9.12494 42.0326 9.29614 41.7279 9.60089C41.4232 9.90564 41.252 10.319 41.252 10.7499V13.9999C41.252 14.4309 41.4232 14.8442 41.7279 15.149C42.0326 15.4537 42.446 15.6249 42.877 15.6249ZM41.252 72.4999V75.7499C41.252 76.1809 41.4232 76.5942 41.7279 76.899C42.0326 77.2037 42.446 77.3749 42.877 77.3749C43.3079 77.3749 43.7213 77.2037 44.026 76.899C44.3307 76.5942 44.502 76.1809 44.502 75.7499V72.4999C44.502 72.069 44.3307 71.6556 44.026 71.3509C43.7213 71.0461 43.3079 70.8749 42.877 70.8749C42.446 70.8749 42.0326 71.0461 41.7279 71.3509C41.4232 71.6556 41.252 72.069 41.252 72.4999ZM70.502 43.2499C70.502 43.6809 70.6732 44.0942 70.9779 44.399C71.2826 44.7037 71.696 44.8749 72.127 44.8749H75.377C75.8079 44.8749 76.2213 44.7037 76.526 44.399C76.8307 44.0942 77.002 43.6809 77.002 43.2499C77.002 42.819 76.8307 42.4056 76.526 42.1009C76.2213 41.7961 75.8079 41.6249 75.377 41.6249H72.127C71.696 41.6249 71.2826 41.7961 70.9779 42.1009C70.6732 42.4056 70.502 42.819 70.502 43.2499ZM10.377 41.6249C9.94598 41.6249 9.53265 41.7961 9.2279 42.1009C8.92316 42.4056 8.75195 42.819 8.75195 43.2499C8.75195 43.6809 8.92316 44.0942 9.2279 44.399C9.53265 44.7037 9.94598 44.8749 10.377 44.8749H13.627C14.0579 44.8749 14.4713 44.7037 14.776 44.399C15.0807 44.0942 15.252 43.6809 15.252 43.2499C15.252 42.819 15.0807 42.4056 14.776 42.1009C14.4713 41.7961 14.0579 41.6249 13.627 41.6249H10.377Z" fill="#14166C"/>
</g>
<defs>
<clipPath id="clip0_12129_21727">
<rect width="110" height="110" fill="white"/>
</clipPath>
</defs>
</svg>
