<svg width="142" height="114" viewBox="0 0 142 114" fill="none" xmlns="http://www.w3.org/2000/svg">
<circle cx="108.5" cy="80.5" r="33.5" fill="#92A2F1"/>
<path d="M108.5 79.443C113.593 79.443 117.721 75.3145 117.721 70.2217C117.721 65.1289 113.593 61.0004 108.5 61.0004C103.964 61.0004 100.193 64.2756 99.4226 68.5902C99.2634 69.4815 98.5447 70.2217 97.6393 70.2217C96.734 70.2217 95.9887 69.4838 96.106 68.5861C96.9073 62.4554 102.151 57.7217 108.5 57.7217C115.404 57.7217 121 63.3181 121 70.2217C121 76.4986 116.373 81.695 110.344 82.5866V92.1479C110.344 93.0533 109.61 93.7873 108.705 93.7873C107.8 93.7873 107.066 93.0533 107.066 92.1479V80.8774C107.066 80.0852 107.708 79.443 108.5 79.443Z" fill="white"/>
<path d="M107.065 99.1149C107.065 98.2095 107.799 97.4756 108.705 97.4756C109.61 97.4756 110.344 98.2095 110.344 99.1149V101.574C110.344 102.479 109.61 103.213 108.705 103.213C107.799 103.213 107.065 102.479 107.065 101.574V99.1149Z" fill="white"/>
<rect x="1.5" y="1.5" width="92" height="93" rx="3.75" stroke="#14166C" stroke-width="3"/>
<path d="M11.5 15C11.5 13.067 13.067 11.5 15 11.5H80C81.933 11.5 83.5 13.067 83.5 15V31C83.5 32.933 81.933 34.5 80 34.5H15C13.067 34.5 11.5 32.933 11.5 31V15Z" stroke="#14166C" stroke-width="3"/>
<path d="M11.5 63C11.5 61.067 13.067 59.5 15 59.5H28C29.933 59.5 31.5 61.067 31.5 63V76C31.5 77.933 29.933 79.5 28 79.5H15C13.067 79.5 11.5 77.933 11.5 76V63Z" stroke="#14166C" stroke-width="3"/>
<path d="M37.5 63C37.5 61.067 39.067 59.5 41 59.5H54C55.933 59.5 57.5 61.067 57.5 63V76C57.5 77.933 55.933 79.5 54 79.5H41C39.067 79.5 37.5 77.933 37.5 76V63Z" stroke="#14166C" stroke-width="3"/>
<path d="M63.5 63C63.5 61.067 65.067 59.5 67 59.5H80C81.933 59.5 83.5 61.067 83.5 63V76C83.5 77.933 81.933 79.5 80 79.5H67C65.067 79.5 63.5 77.933 63.5 76V63Z" stroke="#14166C" stroke-width="3"/>
<rect x="20" y="40" width="56" height="3" rx="1.5" fill="#14166C"/>
<path d="M15 48.5C15 47.6716 15.6716 47 16.5 47H79.5C80.3284 47 81 47.6716 81 48.5C81 49.3284 80.3284 50 79.5 50H16.5C15.6716 50 15 49.3284 15 48.5Z" fill="#14166C"/>
</svg>
