<svg xmlns="http://www.w3.org/2000/svg" width="121" height="105" viewBox="0 0 121 105" fill="none">
<circle cx="74.5" cy="71.5" r="33.5" fill="#92A2F1" />
<path fillRule="evenodd" clipRule="evenodd" d="M75.3648 81.002C68.5718 81.002 62.3735 83.5385 57.6619 87.7183C57.145 88.1768 56.3549 88.1688 55.8728 87.6738C55.3908 87.1789 55.3995 86.3847 55.9145 85.9242C61.0766 81.3082 67.8939 78.5 75.3648 78.5C82.8357 78.5 89.6529 81.3082 94.8151 85.9242C95.3301 86.3847 95.3388 87.1789 94.8567 87.6738C94.3747 88.1688 93.5846 88.1768 93.0677 87.7183C88.3561 83.5385 82.1578 81.002 75.3648 81.002Z" fill="white" />
<path fillRule="evenodd" clipRule="evenodd" d="M63.9316 55.5473C70.4716 51.0616 74.716 44.4827 76.3845 37.3222C76.5123 36.7736 76.9949 36.3754 77.5583 36.3754C78.304 36.3754 78.8642 37.0581 78.6867 37.7824C76.8035 45.4668 72.194 52.5171 65.1551 57.345C58.1198 62.1705 49.8875 63.9324 42.044 62.9253C41.2992 62.8296 40.8622 62.0545 41.1351 61.3549C41.3403 60.8292 41.8868 60.523 42.4456 60.6015C49.7263 61.6234 57.3919 60.0329 63.9316 55.5473Z" fill="white" />
<path fillRule="evenodd" clipRule="evenodd" d="M89.9305 51.408C95.652 55.0698 102.24 56.2746 108.462 55.294C109.144 55.1864 109.805 55.6191 109.944 56.2958C110.084 56.9725 109.648 57.6368 108.966 57.747C102.13 58.8523 94.8743 57.5426 88.5818 53.5153C82.2893 49.488 78.0611 43.4479 76.2016 36.7772C76.016 36.1117 76.4368 35.4381 77.1097 35.2811C77.7825 35.1241 78.4523 35.5433 78.6405 36.208C80.3557 42.2684 84.209 47.7461 89.9305 51.408Z" fill="white" />
<path d="M111.5 39.5085C115.371 39.5085 118.508 36.3708 118.508 32.5002C118.508 28.6296 115.371 25.4918 111.5 25.4918C108.053 25.4918 105.187 27.981 104.601 31.2602C104.48 31.9376 103.934 32.5002 103.246 32.5002C102.558 32.5002 101.991 31.9394 102.081 31.2571C102.69 26.5977 106.675 23 111.5 23C116.747 23 121 27.2534 121 32.5002C121 37.2707 117.484 41.22 112.902 41.8977V49.1644C112.902 49.8525 112.344 50.4103 111.656 50.4103C110.968 50.4103 110.41 49.8525 110.41 49.1644V40.5987C110.41 39.9966 110.898 39.5085 111.5 39.5085Z" fill="#14166C" />
<path d="M110.41 54.4595C110.41 53.7714 110.968 53.2136 111.656 53.2136C112.344 53.2136 112.902 53.7714 112.902 54.4595V56.3284C112.902 57.0165 112.344 57.5744 111.656 57.5744C110.968 57.5744 110.41 57.0165 110.41 56.3284V54.4595Z" fill="#14166C" />
<rect x="1.5" y="1.5" width="62" height="93" rx="3.75" stroke="#14166C" strokeWidth="3" />
<path d="M9.5 62C9.5 60.067 11.067 58.5 13 58.5H26C27.933 58.5 29.5 60.067 29.5 62V75C29.5 76.933 27.933 78.5 26 78.5H13C11.067 78.5 9.5 76.933 9.5 75V62Z" stroke="#14166C" strokeWidth="3" />
<path d="M9.5 36C9.5 34.067 11.067 32.5 13 32.5H26C27.933 32.5 29.5 34.067 29.5 36V49C29.5 50.933 27.933 52.5 26 52.5H13C11.067 52.5 9.5 50.933 9.5 49V36Z" stroke="#14166C" strokeWidth="3" />
<path d="M35.5 62C35.5 60.067 37.067 58.5 39 58.5H52C53.933 58.5 55.5 60.067 55.5 62V75C55.5 76.933 53.933 78.5 52 78.5H39C37.067 78.5 35.5 76.933 35.5 75V62Z" stroke="#14166C" strokeWidth="3" />
<path d="M35.5 36C35.5 34.067 37.067 32.5 39 32.5H52C53.933 32.5 55.5 34.067 55.5 36V49C55.5 50.933 53.933 52.5 52 52.5H39C37.067 52.5 35.5 50.933 35.5 49V36Z" stroke="#14166C" strokeWidth="3" />
<path d="M9.5 16.5C9.5 13.7386 11.7386 11.5 14.5 11.5C17.2614 11.5 19.5 13.7386 19.5 16.5C19.5 19.2614 17.2614 21.5 14.5 21.5C11.7386 21.5 9.5 19.2614 9.5 16.5Z" stroke="#14166C" strokeWidth="3" />
<rect x="25" y="13" width="29" height="3" rx="1.5" fill="#14166C" />
<rect x="25" y="18" width="18" height="3" rx="1.5" fill="#14166C" />
</svg>