<svg width="110" height="107" viewBox="0 0 110 107" fill="none" xmlns="http://www.w3.org/2000/svg">
<circle cx="76.4844" cy="73.0469" r="33.5156" fill="#C4A2FC"/>
<path d="M74.0449 54.2696C74.0449 52.9223 75.1371 51.8301 76.4844 51.8301C77.8317 51.8301 78.924 52.9223 78.924 54.2696V93.0431C78.924 94.3904 77.8317 95.4826 76.4844 95.4826C75.1371 95.4826 74.0449 94.3904 74.0449 93.0431V54.2696Z" fill="white"/>
<path d="M95.871 71.2168C97.2183 71.2168 98.3105 72.309 98.3105 73.6563C98.3105 75.0036 97.2183 76.0958 95.871 76.0958L57.0975 76.0958C55.7502 76.0958 54.658 75.0036 54.658 73.6563C54.658 72.309 55.7502 71.2168 57.0975 71.2168L95.871 71.2168Z" fill="white"/>
<path d="M55 74.0625L41.2888 64.3551C41.0123 64.1594 40.6389 64.1733 40.3778 64.389L31.4495 71.7645C31.1572 72.006 30.7307 71.9913 30.4557 71.7304L14.5996 56.6874C14.3522 56.4527 13.9776 56.4145 13.6879 56.5943L1.71875 64.0234" stroke="#14166C" stroke-width="3"/>
<rect x="3" y="43.0625" width="30" height="3" fill="#14166C"/>
<rect x="31.5781" y="1.5" width="53.7188" height="54.5781" rx="3.75" stroke="#14166C" stroke-width="3"/>
<path d="M48.125 40.0332V17.5449C48.125 15.836 49.9552 14.7509 51.4546 15.5709L72.0152 26.815C73.5758 27.6684 73.5758 29.9097 72.0152 30.7631L51.4546 42.0073C49.9552 42.8272 48.125 41.7421 48.125 40.0332Z" stroke="#14166C" stroke-width="3"/>
<path fill-rule="evenodd" clip-rule="evenodd" d="M30 29.0625H6.04545C2.70664 29.0625 0 31.7755 0 35.1222V81.0028C0 84.3495 2.70664 87.0625 6.04546 87.0625H50.9545C54.2934 87.0625 57 84.3495 57 81.0028V58.0625H54V81.5625C54 82.9968 52.84 84.1595 51.4091 84.1595H5.59091C4.15999 84.1595 3 82.9968 3 81.5625V34.6595C3 33.2252 4.15999 32.0625 5.59091 32.0625H30V29.0625Z" fill="#14166C"/>
</svg>
