<svg width="106" height="106" viewBox="0 0 106 106" fill="none" xmlns="http://www.w3.org/2000/svg">
<path d="M66.25 28.1562C58.7158 28.1562 51.3507 30.3904 45.0863 34.5762C38.8218 38.762 33.9392 44.7114 31.056 51.6721C28.1728 58.6329 27.4184 66.2923 28.8882 73.6817C30.3581 81.0712 33.9862 87.8588 39.3137 93.1863C44.6412 98.5138 51.4288 102.142 58.8183 103.612C66.2078 105.082 73.8671 104.327 80.8279 101.444C87.7886 98.5608 93.738 93.6782 97.9238 87.4137C102.11 81.1493 104.344 73.7842 104.344 66.25C104.332 56.1504 100.315 46.4677 93.1738 39.3262C86.0323 32.1847 76.3496 28.1676 66.25 28.1562ZM83.4618 69.1186L58.9758 83.2564C58.4722 83.5471 57.901 83.7002 57.3195 83.7002C56.7381 83.7002 56.1669 83.5471 55.6633 83.2564C55.1597 82.9657 54.7416 82.5475 54.4508 82.044C54.1601 81.5404 54.007 80.9692 54.007 80.3877V52.1122C54.007 51.5308 54.1601 50.9596 54.4508 50.456C54.7416 49.9525 55.1597 49.5343 55.6633 49.2436C56.1669 48.9529 56.7381 48.7998 57.3195 48.7998C57.901 48.7998 58.4722 48.9529 58.9758 49.2436L83.4618 63.3814C83.9653 63.6721 84.3834 64.0903 84.6741 64.5938C84.9648 65.0974 85.1179 65.6686 85.1179 66.25C85.1179 66.8314 84.9648 67.4026 84.6741 67.9062C84.3834 68.4097 83.9653 68.8279 83.4618 69.1186Z" fill="#C4A2FC"/>
<path d="M51.3438 1.65625H6.625C5.30761 1.65757 4.04455 2.18148 3.11302 3.11302C2.18148 4.04455 1.65757 5.30761 1.65625 6.625V79.5C1.65757 80.8174 2.18148 82.0804 3.11302 83.012C4.04455 83.9435 5.30761 84.4674 6.625 84.4688H51.3438C52.6611 84.4674 53.9242 83.9435 54.8557 83.012C55.7873 82.0804 56.3112 80.8174 56.3125 79.5V6.625C56.3112 5.30761 55.7873 4.04455 54.8557 3.11302C53.9242 2.18148 52.6611 1.65757 51.3438 1.65625ZM32.8434 4.96875C32.5013 5.93854 31.8667 6.77831 31.0272 7.37232C30.1877 7.96632 29.1846 8.28531 28.1562 8.28531C27.1279 8.28531 26.1248 7.96632 25.2853 7.37232C24.4458 6.77831 23.8112 5.93854 23.4691 4.96875H32.8434ZM53 79.5C52.9996 79.9391 52.8249 80.3601 52.5144 80.6707C52.2039 80.9812 51.7829 81.1558 51.3438 81.1562H6.625C6.18587 81.1558 5.76485 80.9812 5.45434 80.6707C5.14383 80.3601 4.96919 79.9391 4.96875 79.5V6.625C4.96919 6.18587 5.14383 5.76485 5.45434 5.45434C5.76485 5.14383 6.18587 4.96919 6.625 4.96875H20.0423C20.4232 6.8399 21.4391 8.52191 22.9179 9.72999C24.3967 10.9381 26.2475 11.598 28.1571 11.598C30.0666 11.598 31.9175 10.9381 33.3963 9.72999C34.8751 8.52191 35.8909 6.8399 36.2719 4.96875H51.3438C51.7829 4.96919 52.2039 5.14383 52.5144 5.45434C52.8249 5.76485 52.9996 6.18587 53 6.625V79.5Z" fill="#14166C"/>
<path d="M44.7188 16.5625H13.25C11.9326 16.5638 10.6696 17.0877 9.73802 18.0193C8.80648 18.9508 8.28257 20.2139 8.28125 21.5312V44.7188C8.28257 46.0361 8.80648 47.2992 9.73802 48.2307C10.6696 49.1623 11.9326 49.6862 13.25 49.6875H44.7188C46.0361 49.6862 47.2992 49.1623 48.2307 48.2307C49.1623 47.2992 49.6862 46.0361 49.6875 44.7188V21.5312C49.6862 20.2139 49.1623 18.9508 48.2307 18.0193C47.2992 17.0877 46.0361 16.5638 44.7188 16.5625ZM46.375 44.7188C46.3746 45.1579 46.1999 45.5789 45.8894 45.8894C45.5789 46.1999 45.1579 46.3746 44.7188 46.375H13.25C12.8109 46.3746 12.3899 46.1999 12.0793 45.8894C11.7688 45.5789 11.5942 45.1579 11.5938 44.7188V21.5312C11.5942 21.0921 11.7688 20.6711 12.0793 20.3606C12.3899 20.0501 12.8109 19.8754 13.25 19.875H44.7188C45.1579 19.8754 45.5789 20.0501 45.8894 20.3606C46.1999 20.6711 46.3746 21.0921 46.375 21.5312V44.7188Z" fill="#14166C"/>
<path d="M36.045 30.2568L25.2363 24.0161C24.7327 23.7253 24.1615 23.5723 23.5801 23.5723C22.9986 23.5723 22.4274 23.7253 21.9238 24.016C21.4203 24.3068 21.0021 24.7249 20.7114 25.2285C20.4206 25.732 20.2675 26.3032 20.2675 26.8847V39.3662C20.2675 39.9476 20.4206 40.5189 20.7114 41.0224C21.0021 41.526 21.4203 41.9441 21.9238 42.2348C22.4274 42.5256 22.9986 42.6786 23.5801 42.6786C24.1615 42.6786 24.7327 42.5255 25.2363 42.2348L36.045 35.9941C36.5485 35.7033 36.9666 35.2852 37.2573 34.7816C37.548 34.2781 37.7011 33.7069 37.7011 33.1254C37.7011 32.544 37.548 31.9728 37.2573 31.4693C36.9666 30.9657 36.5485 30.5475 36.045 30.2568ZM23.58 39.3662V26.8847L34.3887 33.1254L23.58 39.3662ZM48.0312 56.3129H38.0938C38.0938 55.8737 37.9193 55.4524 37.6086 55.1418C37.298 54.8312 36.8768 54.6567 36.4375 54.6567C35.9982 54.6567 35.577 54.8312 35.2664 55.1418C34.9557 55.4524 34.7812 55.8737 34.7812 56.3129H9.9375C9.49824 56.3129 9.07696 56.4874 8.76635 56.798C8.45575 57.1086 8.28125 57.5299 8.28125 57.9692C8.28125 58.4084 8.45575 58.8297 8.76635 59.1403C9.07696 59.4509 9.49824 59.6254 9.9375 59.6254H34.7812C34.7812 60.0647 34.9557 60.486 35.2664 60.7966C35.577 61.1072 35.9982 61.2817 36.4375 61.2817C36.8768 61.2817 37.298 61.1072 37.6086 60.7966C37.9193 60.486 38.0938 60.0647 38.0938 59.6254H48.0312C48.4705 59.6254 48.8918 59.4509 49.2024 59.1403C49.513 58.8297 49.6875 58.4084 49.6875 57.9692C49.6875 57.5299 49.513 57.1086 49.2024 56.798C48.8918 56.4874 48.4705 56.3129 48.0312 56.3129ZM35.6094 74.5317H22.3594C21.9201 74.5317 21.4988 74.7062 21.1882 75.0168C20.8776 75.3274 20.7031 75.7487 20.7031 76.1879C20.7031 76.6272 20.8776 77.0485 21.1882 77.3591C21.4988 77.6697 21.9201 77.8442 22.3594 77.8442H35.6094C36.0486 77.8442 36.4699 77.6697 36.7805 77.3591C37.0911 77.0485 37.2656 76.6272 37.2656 76.1879C37.2656 75.7487 37.0911 75.3274 36.7805 75.0168C36.4699 74.7062 36.0486 74.5317 35.6094 74.5317Z" fill="#14166C"/>
</svg>
