<svg width="110" height="110" viewBox="0 0 110 110" fill="none" xmlns="http://www.w3.org/2000/svg">
<path d="M94.7392 87.5836L89.0897 81.9341C86.4365 85.7129 83.1473 89.0022 79.3685 91.6554L85.018 97.3049L94.7392 87.5836ZM97.1695 90.014L87.4483 99.7352L94.8269 107.116C95.7885 108.077 97.0135 108.731 98.3471 108.996C99.6807 109.262 101.063 109.125 102.319 108.605C103.575 108.084 104.649 107.203 105.404 106.073C106.159 104.942 106.563 103.613 106.563 102.253C106.565 101.35 106.388 100.455 106.042 99.6211C105.697 98.7867 105.189 98.0293 104.548 97.3925L97.1695 90.014ZM56.7188 33.5032C51.6197 33.5032 46.6352 35.0152 42.3955 37.8481C38.1558 40.681 34.8513 44.7075 32.9 49.4184C30.9487 54.1293 30.4381 59.313 31.4329 64.3141C32.4277 69.3152 34.8831 73.9089 38.4887 77.5145C42.0942 81.1201 46.688 83.5755 51.6891 84.5703C56.6902 85.5651 61.8739 85.0545 66.5848 83.1032C71.2957 81.1519 75.3222 77.8474 78.1551 73.6077C80.988 69.368 82.5 64.3835 82.5 59.2844C82.4923 52.4492 79.7736 45.8961 74.9403 41.0629C70.1071 36.2296 63.554 33.5109 56.7188 33.5032ZM75.625 61.0032C75.1692 61.0032 74.732 60.8221 74.4097 60.4998C74.0873 60.1774 73.9063 59.7403 73.9063 59.2844C73.9013 54.7276 72.0888 50.3587 68.8666 47.1366C65.6444 43.9144 61.2756 42.1019 56.7188 42.0969C56.2629 42.0969 55.8257 41.9158 55.5034 41.5935C55.1811 41.2712 55 40.834 55 40.3782C55 39.9223 55.1811 39.4852 55.5034 39.1628C55.8257 38.8405 56.2629 38.6594 56.7188 38.6594C62.187 38.6653 67.4296 40.8402 71.2963 44.7069C75.163 48.5735 77.3378 53.8161 77.3438 59.2844C77.3438 59.7403 77.1627 60.1774 76.8404 60.4998C76.518 60.8221 76.0809 61.0032 75.625 61.0032Z" fill="#C4A2FC"/>
<path d="M56.7188 23.1907C49.5801 23.1907 42.6017 25.3075 36.6662 29.2736C30.7306 33.2396 26.1043 38.8767 23.3725 45.4719C20.6406 52.0672 19.9259 59.3245 21.3185 66.326C22.7112 73.3275 26.1488 79.7588 31.1966 84.8066C36.2444 89.8544 42.6757 93.292 49.6772 94.6847C56.6787 96.0773 63.936 95.3626 70.5312 92.6307C77.1265 89.8989 82.7636 85.2726 86.7296 79.337C90.6956 73.4015 92.8125 66.4231 92.8125 59.2844C92.802 49.715 88.996 40.5405 82.2293 33.7738C75.4627 27.0072 66.2882 23.2011 56.7188 23.1907ZM56.7188 88.5032C50.9398 88.5032 45.2907 86.7895 40.4857 83.5789C35.6807 80.3683 31.9357 75.805 29.7242 70.466C27.5127 65.1269 26.934 59.252 28.0614 53.5841C29.1889 47.9162 31.9717 42.71 36.058 38.6236C40.1443 34.5373 45.3506 31.7545 51.0185 30.6271C56.6864 29.4997 62.5613 30.0783 67.9003 32.2898C73.2393 34.5013 77.8027 38.2464 81.0133 43.0514C84.2239 47.8564 85.9375 53.5055 85.9375 59.2844C85.9289 67.0311 82.8477 74.458 77.37 79.9357C71.8923 85.4134 64.4654 88.4945 56.7188 88.5032Z" fill="#C4A2FC"/>
<path d="M63.5497 29.4614L53.2381 8.84094C52.8852 8.1294 52.3399 7.53094 51.6643 7.1134C50.9886 6.69586 50.2095 6.47593 49.4152 6.47854H18.741C17.9468 6.47593 17.1676 6.69586 16.492 7.1134C15.8163 7.53094 15.2711 8.1294 14.9182 8.84094L4.6065 29.4628C4.31111 30.0565 4.15701 30.7104 4.15625 31.3735V67.7471C4.15738 68.8805 4.6081 69.9671 5.40949 70.7685C6.21088 71.5698 7.29747 72.0206 8.4308 72.0217H59.7254C60.8588 72.0206 61.9454 71.5698 62.7468 70.7685C63.5481 69.9671 63.9989 68.8805 64 67.7471V31.3735C63.9993 30.71 63.8452 30.0555 63.5497 29.4614ZM50.689 10.1162L60.2697 29.2762H46.5883L41.6013 9.32824H49.4152C49.6799 9.32773 49.9395 9.40124 50.1646 9.54048C50.3896 9.67971 50.5713 9.87913 50.689 10.1162ZM24.1042 32.1259H44.0521V46.6536L34.8333 40.8915C34.6067 40.7503 34.3451 40.6755 34.0781 40.6755C33.8111 40.6755 33.5495 40.7503 33.323 40.8915L24.1042 46.6536V32.1259ZM38.6647 9.32824L43.6517 29.2762H24.5031L29.4901 9.32824H38.6647ZM17.4672 10.1162C17.5849 9.87913 17.7666 9.67971 17.9917 9.54048C18.2168 9.40124 18.4763 9.32773 18.741 9.32824H26.5549L21.5679 29.2762H7.88651L17.4672 10.1162ZM59.7254 69.172H8.4308C8.05291 69.172 7.69049 69.0219 7.42328 68.7547C7.15607 68.4875 7.00595 68.125 7.00595 67.7471V32.1259H21.2545V49.2241C21.2549 49.4782 21.3233 49.7277 21.4525 49.9465C21.5817 50.1654 21.767 50.3458 21.9893 50.469C22.2116 50.5922 22.4628 50.6538 22.7169 50.6473C22.971 50.6409 23.2187 50.5667 23.4345 50.4324L34.0781 43.7811L44.7218 50.4352C44.9376 50.5701 45.1857 50.6448 45.4402 50.6513C45.6947 50.6579 45.9464 50.5961 46.1689 50.4725C46.3915 50.3488 46.5768 50.1678 46.7057 49.9483C46.8346 49.7287 46.9023 49.4787 46.9018 49.2241V32.1259H61.1503V67.7471C61.1503 68.125 61.0002 68.4875 60.733 68.7547C60.4658 69.0219 60.1033 69.172 59.7254 69.172Z" fill="#14166C"/>
</svg>
