<svg width="496" height="456" viewBox="0 0 496 456" fill="none" xmlns="http://www.w3.org/2000/svg">
<path d="M440.968 355.72L414.672 329.424C402.323 347.013 387.013 362.323 369.424 374.672L395.72 400.968L440.968 355.72ZM452.28 367.032L407.032 412.28L441.376 446.632C445.852 451.106 451.554 454.153 457.761 455.387C463.968 456.621 470.402 455.987 476.249 453.564C482.095 451.142 487.092 447.04 490.608 441.778C494.124 436.515 496 430.329 496 424C496.011 419.796 495.188 415.632 493.578 411.749C491.969 407.865 489.605 404.34 486.624 401.376L452.28 367.032ZM264 104C240.266 104 217.065 111.038 197.332 124.224C177.598 137.409 162.217 156.151 153.134 178.078C144.052 200.005 141.675 224.133 146.306 247.411C150.936 270.689 162.365 292.071 179.147 308.853C195.929 325.635 217.311 337.064 240.589 341.694C263.867 346.324 287.995 343.948 309.922 334.866C331.849 325.783 350.591 310.402 363.776 290.668C376.962 270.935 384 247.734 384 224C383.964 192.185 371.31 161.684 348.813 139.187C326.316 116.69 295.815 104.036 264 104ZM352 232C349.878 232 347.843 231.157 346.343 229.657C344.843 228.157 344 226.122 344 224C343.977 202.79 335.541 182.455 320.543 167.457C305.545 152.459 285.21 144.023 264 144C261.878 144 259.843 143.157 258.343 141.657C256.843 140.157 256 138.122 256 136C256 133.878 256.843 131.843 258.343 130.343C259.843 128.843 261.878 128 264 128C289.452 128.028 313.854 138.151 331.852 156.148C349.849 174.146 359.972 198.548 360 224C360 226.122 359.157 228.157 357.657 229.657C356.156 231.157 354.122 232 352 232Z" fill="#C4A2FC"/>
<path d="M264 56C230.773 56 198.292 65.853 170.664 84.3131C143.037 102.773 121.504 129.011 108.788 159.709C96.0727 190.407 92.7457 224.186 99.228 256.775C105.71 289.364 121.711 319.299 145.206 342.794C168.701 366.289 198.636 382.29 231.225 388.772C263.814 395.254 297.593 391.927 328.291 379.212C358.989 366.496 385.227 344.963 403.687 317.336C422.147 289.708 432 257.227 432 224C431.951 179.459 414.236 136.755 382.74 105.26C351.245 73.7643 308.541 56.0487 264 56ZM264 360C237.102 360 210.807 352.024 188.442 337.08C166.077 322.136 148.646 300.896 138.352 276.045C128.059 251.194 125.366 223.849 130.613 197.468C135.861 171.086 148.813 146.853 167.833 127.833C186.853 108.814 211.086 95.8608 237.468 90.6132C263.849 85.3656 291.194 88.0589 316.045 98.3524C340.896 108.646 362.136 126.077 377.08 148.442C392.024 170.808 400 197.102 400 224C399.96 260.057 385.618 294.626 360.122 320.122C334.626 345.618 300.057 359.96 264 360Z" fill="#C4A2FC"/>
<path d="M376 0H24C17.6348 0 11.5303 2.52856 7.02944 7.02944C2.52856 11.5303 0 17.6348 0 24V280C0 286.365 2.52856 292.47 7.02944 296.971C11.5303 301.471 17.6348 304 24 304H376C382.365 304 388.47 301.471 392.971 296.971C397.471 292.47 400 286.365 400 280V24C400 17.6348 397.471 11.5303 392.971 7.02944C388.47 2.52856 382.365 0 376 0ZM372.144 16L205.392 168.24C203.923 169.595 201.998 170.347 200 170.347C198.002 170.347 196.077 169.595 194.608 168.24L27.864 16H372.144ZM384 280C384 282.122 383.157 284.157 381.657 285.657C380.157 287.157 378.122 288 376 288H24C21.8783 288 19.8434 287.157 18.3431 285.657C16.8429 284.157 16 282.122 16 280V26.832L183.816 180.056C188.225 184.122 194.003 186.379 200 186.379C205.997 186.379 211.775 184.122 216.184 180.056L384 26.832V280Z" fill="#151A6A"/>
</svg>
