<svg width="110" height="110" viewBox="0 0 110 110" fill="none" xmlns="http://www.w3.org/2000/svg">
<path d="M70.3906 37.4219C63.5455 37.4219 56.8542 39.4517 51.1627 43.2546C45.4712 47.0575 41.0352 52.4628 38.4157 58.7868C35.7962 65.1108 35.1109 72.0696 36.4463 78.7832C37.7817 85.4967 41.0779 91.6636 45.9181 96.5038C50.7583 101.344 56.9251 104.64 63.6387 105.976C70.3522 107.311 77.311 106.626 83.6351 104.006C89.9591 101.387 95.3643 96.9507 99.1673 91.2592C102.97 85.5677 105 78.8763 105 72.0312C104.989 62.8555 101.34 54.0587 94.8513 47.5705C88.3631 41.0823 79.5663 37.4326 70.3906 37.4219ZM92.0215 74.9154H73.2747V93.6621C73.2747 94.427 72.9709 95.1606 72.43 95.7015C71.8891 96.2423 71.1555 96.5462 70.3906 96.5462C69.6257 96.5462 68.8921 96.2423 68.3513 95.7015C67.8104 95.1606 67.5065 94.427 67.5065 93.6621V74.9154H48.7598C47.9949 74.9154 47.2613 74.6115 46.7204 74.0706C46.1795 73.5297 45.8757 72.7962 45.8757 72.0312C45.8757 71.2663 46.1795 70.5327 46.7204 69.9919C47.2613 69.451 47.9949 69.1471 48.7598 69.1471H67.5065V50.4004C67.5065 49.6355 67.8104 48.9019 68.3513 48.361C68.8921 47.8201 69.6257 47.5163 70.3906 47.5163C71.1555 47.5163 71.8891 47.8201 72.43 48.361C72.9709 48.9019 73.2747 49.6355 73.2747 50.4004V69.1471H92.0215C92.7864 69.1471 93.52 69.451 94.0609 69.9919C94.6017 70.5327 94.9056 71.2663 94.9056 72.0312C94.9056 72.7962 94.6017 73.5297 94.0609 74.0706C93.52 74.6115 92.7864 74.9154 92.0215 74.9154Z" fill="#C4A2FC"/>
<path d="M46.4062 51.5625H18.9062C14.8052 51.5675 10.8736 53.1989 7.97372 56.0987C5.07385 58.9986 3.4425 62.9302 3.4375 67.0312V82.5C3.4375 83.8675 3.98075 85.179 4.94773 86.146C5.91472 87.113 7.22623 87.6562 8.59375 87.6562H56.7188C58.0863 87.6562 59.3978 87.113 60.3648 86.146C61.3318 85.179 61.875 83.8675 61.875 82.5V67.0312C61.87 62.9302 60.2386 58.9986 57.3388 56.0987C54.4389 53.1989 50.5073 51.5675 46.4062 51.5625ZM58.4375 82.5C58.4375 82.9558 58.2564 83.393 57.9341 83.7153C57.6118 84.0377 57.1746 84.2188 56.7188 84.2188H8.59375C8.13791 84.2188 7.70074 84.0377 7.37841 83.7153C7.05608 83.393 6.875 82.9558 6.875 82.5V67.0312C6.87864 63.8415 8.14738 60.7834 10.4029 58.5279C12.6584 56.2724 15.7165 55.0036 18.9062 55H46.4062C49.596 55.0036 52.6541 56.2724 54.9096 58.5279C57.1651 60.7834 58.4339 63.8415 58.4375 67.0312V82.5ZM32.6562 46.4062C37.4865 46.4008 42.1173 44.4796 45.5328 41.0641C48.9483 37.6486 50.8695 33.0177 50.875 28.1875V19.9375C50.875 15.1056 48.9555 10.4716 45.5389 7.0549C42.1222 3.63822 37.4882 1.71875 32.6562 1.71875C27.8243 1.71875 23.1903 3.63822 19.7736 7.0549C16.357 10.4716 14.4375 15.1056 14.4375 19.9375V28.1875C14.443 33.0177 16.3642 37.6486 19.7797 41.0641C23.1952 44.4796 27.826 46.4008 32.6562 46.4062ZM17.875 19.9375C17.875 16.0173 19.4323 12.2576 22.2043 9.48558C24.9763 6.71356 28.736 5.15625 32.6562 5.15625C36.5765 5.15625 40.3361 6.71356 43.1082 9.48558C45.8802 12.2576 47.4375 16.0173 47.4375 19.9375V28.1875C47.4375 32.1077 45.8802 35.8674 43.1082 38.6394C40.3361 41.4114 36.5765 42.9688 32.6562 42.9688C28.736 42.9688 24.9763 41.4114 22.2043 38.6394C19.4323 35.8674 17.875 32.1077 17.875 28.1875V19.9375Z" fill="#151A6A"/>
<path d="M32.6562 37.8125C35.3905 37.8098 38.0119 36.7224 39.9453 34.789C41.8787 32.8556 42.966 30.2342 42.9688 27.5C42.9688 27.0442 42.7877 26.607 42.4653 26.2847C42.143 25.9623 41.7058 25.7812 41.25 25.7812C40.7942 25.7812 40.357 25.9623 40.0347 26.2847C39.7123 26.607 39.5312 27.0442 39.5312 27.5C39.5312 29.3234 38.8069 31.072 37.5176 32.3614C36.2283 33.6507 34.4796 34.375 32.6562 34.375C30.8329 34.375 29.0842 33.6507 27.7949 32.3614C26.5056 31.072 25.7812 29.3234 25.7812 27.5C25.7812 27.0442 25.6002 26.607 25.2778 26.2847C24.9555 25.9623 24.5183 25.7812 24.0625 25.7812C23.6067 25.7812 23.1695 25.9623 22.8472 26.2847C22.5248 26.607 22.3438 27.0442 22.3438 27.5C22.3465 30.2342 23.4338 32.8556 25.3672 34.789C27.3006 36.7224 29.922 37.8098 32.6562 37.8125Z" fill="#151A6A"/>
</svg>
