<svg width="101" height="106" viewBox="0 0 101 106" fill="none" xmlns="http://www.w3.org/2000/svg">
<path d="M67 38C60.2754 38 53.7019 39.9941 48.1106 43.73C42.5193 47.466 38.1614 52.7761 35.5881 58.9888C33.0147 65.2015 32.3414 72.0377 33.6533 78.6331C34.9652 85.2285 38.2033 91.2867 42.9583 96.0417C47.7133 100.797 53.7715 104.035 60.3669 105.347C66.9623 106.659 73.7985 105.985 80.0112 103.412C86.2239 100.839 91.534 96.4807 95.27 90.8894C99.0059 85.2981 101 78.7246 101 72C101 62.9827 97.4179 54.3346 91.0416 47.9584C84.6654 41.5821 76.0173 38 67 38ZM48.0247 81.0505C39.4762 63.2086 58.1762 44.4762 76.0505 53.0248C76.2848 53.1357 76.4891 53.3014 76.6461 53.5077C76.8031 53.7141 76.9082 53.9552 76.9526 54.2106C76.9971 54.4661 76.9795 54.7285 76.9014 54.9757C76.8233 55.223 76.6869 55.4479 76.5038 55.6314L50.599 81.5362C50.4131 81.7115 50.1884 81.8403 49.9431 81.9121C49.6979 81.9839 49.4392 81.9966 49.1881 81.9492C48.937 81.9018 48.7008 81.7957 48.4985 81.6395C48.2963 81.4833 48.134 81.2815 48.0247 81.0505ZM57.9495 90.9753C57.7152 90.8643 57.5109 90.6987 57.3539 90.4923C57.1969 90.2859 57.0918 90.0449 57.0473 89.7894C57.0029 89.534 57.0205 89.2716 57.0986 89.0243C57.1767 88.7771 57.313 88.5522 57.4962 88.3686L83.4009 62.4638C83.5845 62.2807 83.8094 62.1444 84.0567 62.0663C84.3039 61.9881 84.5663 61.9706 84.8218 62.015C85.0772 62.0594 85.3183 62.1646 85.5246 62.3216C85.731 62.4785 85.8966 62.6828 86.0076 62.9172C94.5238 80.7915 75.8076 99.5238 57.9495 90.9753Z" fill="#C4A2FC"/>
<path d="M43.4062 50.5625H15.9062C11.8052 50.5675 7.87359 52.1989 4.97372 55.0987C2.07385 57.9986 0.442503 61.9302 0.4375 66.0312V81.5C0.4375 82.8675 0.980746 84.179 1.94773 85.146C2.91472 86.113 4.22623 86.6562 5.59375 86.6562H53.7188C55.0863 86.6562 56.3978 86.113 57.3648 85.146C58.3318 84.179 58.875 82.8675 58.875 81.5V66.0312C58.87 61.9302 57.2386 57.9986 54.3388 55.0987C51.4389 52.1989 47.5073 50.5675 43.4062 50.5625ZM55.4375 81.5C55.4375 81.9558 55.2564 82.393 54.9341 82.7153C54.6118 83.0377 54.1746 83.2188 53.7188 83.2188H5.59375C5.13791 83.2188 4.70074 83.0377 4.37841 82.7153C4.05608 82.393 3.875 81.9558 3.875 81.5V66.0312C3.87864 62.8415 5.14738 59.7834 7.40289 57.5279C9.6584 55.2724 12.7165 54.0036 15.9062 54H43.4062C46.596 54.0036 49.6541 55.2724 51.9096 57.5279C54.1651 59.7834 55.4339 62.8415 55.4375 66.0312V81.5ZM29.6562 45.4062C34.4865 45.4008 39.1173 43.4796 42.5328 40.0641C45.9483 36.6486 47.8695 32.0177 47.875 27.1875V18.9375C47.875 14.1056 45.9555 9.47158 42.5389 6.0549C39.1222 2.63822 34.4882 0.71875 29.6562 0.71875C24.8243 0.71875 20.1903 2.63822 16.7736 6.0549C13.357 9.47158 11.4375 14.1056 11.4375 18.9375V27.1875C11.443 32.0177 13.3642 36.6486 16.7797 40.0641C20.1952 43.4796 24.826 45.4008 29.6562 45.4062ZM14.875 18.9375C14.875 15.0173 16.4323 11.2576 19.2043 8.48558C21.9763 5.71356 25.736 4.15625 29.6562 4.15625C33.5765 4.15625 37.3361 5.71356 40.1082 8.48558C42.8802 11.2576 44.4375 15.0173 44.4375 18.9375V27.1875C44.4375 31.1077 42.8802 34.8674 40.1082 37.6394C37.3361 40.4114 33.5765 41.9688 29.6562 41.9688C25.736 41.9688 21.9763 40.4114 19.2043 37.6394C16.4323 34.8674 14.875 31.1077 14.875 27.1875V18.9375Z" fill="#B5B7C8"/>
<path d="M29.6562 36.8125C32.3905 36.8098 35.0119 35.7224 36.9453 33.789C38.8787 31.8556 39.966 29.2342 39.9688 26.5C39.9688 26.0442 39.7877 25.607 39.4653 25.2847C39.143 24.9623 38.7058 24.7812 38.25 24.7812C37.7942 24.7812 37.357 24.9623 37.0347 25.2847C36.7123 25.607 36.5312 26.0442 36.5312 26.5C36.5312 28.3234 35.8069 30.072 34.5176 31.3614C33.2283 32.6507 31.4796 33.375 29.6562 33.375C27.8329 33.375 26.0842 32.6507 24.7949 31.3614C23.5056 30.072 22.7812 28.3234 22.7812 26.5C22.7812 26.0442 22.6002 25.607 22.2778 25.2847C21.9555 24.9623 21.5183 24.7812 21.0625 24.7812C20.6067 24.7812 20.1695 24.9623 19.8472 25.2847C19.5248 25.607 19.3438 26.0442 19.3438 26.5C19.3465 29.2342 20.4338 31.8556 22.3672 33.789C24.3006 35.7224 26.922 36.8098 29.6562 36.8125Z" fill="#B5B7C8"/>
</svg>
