<svg width="481" height="109" viewBox="0 0 481 109" fill="none" xmlns="http://www.w3.org/2000/svg">
<g clip-path="url(#clip0_11825_16503)">
<path d="M132.087 52.3811C139.387 52.3811 144.287 55.681 147.287 59.781V1.38105C147.285 1.12631 147.213 0.87696 147.079 0.660648C146.944 0.444335 146.752 0.269515 146.524 0.155589C146.296 0.0416638 146.042 -0.00691429 145.788 0.0152315C145.534 0.0373772 145.291 0.129386 145.087 0.281055L72.9866 52.9811H74.8866C82.3866 52.9811 86.1866 57.7811 86.1866 62.9811C86.2744 64.7182 85.8466 66.4426 84.9569 67.9372C84.0672 69.4319 82.7555 70.63 81.1866 71.3811C81.0761 71.4245 80.9813 71.5002 80.9144 71.5983C80.8476 71.6964 80.8119 71.8123 80.8119 71.9311C80.8119 72.0498 80.8476 72.1657 80.9144 72.2638C80.9813 72.3619 81.0761 72.4376 81.1866 72.4811C82.9222 73.2747 84.3871 74.5596 85.4001 76.1769C86.4132 77.7943 86.93 79.6731 86.8866 81.581C86.8866 87.581 82.9866 92.281 75.4866 92.281H54.9866C54.8811 92.2825 54.7764 92.2628 54.6787 92.2232C54.5809 92.1835 54.4922 92.1246 54.4176 92.05C54.343 91.9755 54.2841 91.8867 54.2444 91.7889C54.2048 91.6912 54.1851 91.5865 54.1866 91.4811V66.6811L0.486568 105.981C0.277169 106.13 0.120455 106.341 0.0390426 106.585C-0.0423694 106.829 -0.0442667 107.092 0.0336181 107.337C0.111503 107.581 0.265142 107.795 0.472369 107.947C0.679597 108.099 0.929692 108.181 1.18656 108.181H145.987C146.146 108.187 146.305 108.161 146.453 108.103C146.602 108.045 146.736 107.956 146.849 107.844C146.962 107.731 147.05 107.596 147.108 107.448C147.166 107.299 147.193 107.14 147.187 106.981V87.081C143.067 90.9296 137.624 93.0427 131.987 92.9811C120.387 92.9811 110.987 84.9811 110.987 72.6811C111.087 60.2811 120.587 52.3811 132.087 52.3811ZM103.387 91.581C103.389 91.6736 103.372 91.7656 103.338 91.8515C103.303 91.9374 103.252 92.0155 103.186 92.0809C103.121 92.1464 103.043 92.1978 102.957 92.2322C102.871 92.2666 102.779 92.2832 102.687 92.281H95.7866C95.694 92.2832 95.602 92.2666 95.5161 92.2322C95.4302 92.1978 95.3521 92.1464 95.2867 92.0809C95.2213 92.0155 95.1698 91.9374 95.1354 91.8515C95.101 91.7656 95.0844 91.6736 95.0866 91.581V53.6811C95.0844 53.5885 95.101 53.4965 95.1354 53.4106C95.1698 53.3247 95.2213 53.2466 95.2867 53.1812C95.3521 53.1158 95.4302 53.0643 95.5161 53.0299C95.602 52.9955 95.694 52.9789 95.7866 52.9811H102.687C102.779 52.9789 102.871 52.9955 102.957 53.0299C103.043 53.0643 103.121 53.1158 103.186 53.1812C103.252 53.2466 103.303 53.3247 103.338 53.4106C103.372 53.4965 103.389 53.5885 103.387 53.6811V91.581Z" fill="white"/>
<path d="M63.3859 68.5811H73.0859C75.8859 68.5811 77.6859 66.9811 77.6859 64.4811C77.6859 62.0811 75.8859 60.3811 73.0859 60.3811H62.9859C62.8822 60.3881 62.7844 60.4325 62.7109 60.5061C62.6373 60.5796 62.593 60.6773 62.5859 60.7811V67.8811C62.6045 68.078 62.6977 68.2602 62.8465 68.3904C62.9953 68.5206 63.1884 68.5889 63.3859 68.5811Z" fill="white"/>
<path d="M63.386 84.981H73.486C76.586 84.981 78.486 83.281 78.486 80.481C78.486 77.981 76.686 75.981 73.486 75.981H63.386C63.2805 75.9796 63.1759 75.9992 63.0781 76.0389C62.9804 76.0786 62.8916 76.1375 62.817 76.212C62.7424 76.2866 62.6836 76.3754 62.6439 76.4731C62.6042 76.5709 62.5845 76.6756 62.586 76.781V84.181C62.6001 84.3886 62.6888 84.584 62.8359 84.7311C62.983 84.8782 63.1785 84.967 63.386 84.981Z" fill="white"/>
<path d="M140.988 64.281C139.947 62.9 138.604 61.7762 137.061 60.996C135.518 60.2159 133.816 59.8002 132.088 59.781C124.888 59.781 119.688 65.281 119.688 72.681C119.688 80.081 124.888 85.581 132.088 85.581C135.02 85.5522 137.863 84.5693 140.188 82.781C140.313 82.6441 140.384 82.4664 140.387 82.281V78.481C140.377 78.3254 140.31 78.1788 140.2 78.0685C140.09 77.9581 139.943 77.8915 139.788 77.881H130.887C130.782 77.8825 130.677 77.8628 130.58 77.8231C130.482 77.7835 130.393 77.7246 130.319 77.65C130.244 77.5754 130.185 77.4866 130.145 77.3889C130.106 77.2912 130.086 77.1865 130.088 77.081V71.481C130.086 71.3756 130.106 71.2709 130.145 71.1731C130.185 71.0754 130.244 70.9866 130.319 70.912C130.393 70.8374 130.482 70.7786 130.58 70.7389C130.677 70.6992 130.782 70.6795 130.887 70.681H147.387V61.781L142.088 64.681C141.885 64.7234 141.675 64.7085 141.48 64.6378C141.286 64.5671 141.115 64.4435 140.988 64.281Z" fill="white"/>
<path d="M153.484 72.6811C153.484 60.5811 162.184 52.3811 173.384 52.3811C176.359 52.3023 179.3 53.0212 181.902 54.4631C184.505 55.9051 186.674 58.0176 188.184 60.5811C188.237 60.6568 188.271 60.7436 188.284 60.8347C188.297 60.9259 188.288 61.0188 188.259 61.1061C188.23 61.1934 188.181 61.2727 188.116 61.3378C188.051 61.4029 187.972 61.452 187.884 61.4811L183.384 63.8811C183.322 63.9298 183.249 63.9637 183.171 63.9801C183.093 63.9965 183.013 63.995 182.936 63.9757C182.859 63.9565 182.787 63.9199 182.726 63.8689C182.665 63.8178 182.617 63.7536 182.584 63.6811C181.6 62.1217 180.244 60.8305 178.639 59.9231C177.033 59.0157 175.228 58.5202 173.384 58.4811C165.884 58.4811 160.284 64.3811 160.284 72.6811C160.284 80.8811 165.884 86.8811 173.384 86.8811C175.228 86.842 177.033 86.3465 178.639 85.4391C180.244 84.5317 181.6 83.2405 182.584 81.6811C182.619 81.6107 182.669 81.5486 182.73 81.4993C182.791 81.45 182.862 81.4146 182.938 81.3955C183.014 81.3765 183.094 81.3743 183.171 81.3891C183.248 81.4038 183.321 81.4352 183.384 81.4811L187.884 83.7811C187.974 83.822 188.055 83.8817 188.12 83.9562C188.185 84.0307 188.233 84.1182 188.262 84.2129C188.29 84.3077 188.298 84.4074 188.284 84.5054C188.271 84.6034 188.237 84.6974 188.184 84.7811C185.284 89.2811 180.584 93.0811 173.384 93.0811C162.184 92.9811 153.484 84.6811 153.484 72.6811Z" fill="white"/>
<path d="M192.086 72.6811C192.086 62.8811 197.686 55.2811 206.086 53.0811C220.386 49.2811 233.486 62.6811 230.386 77.5811C228.486 86.7811 221.186 93.0811 211.486 93.0811C200.086 92.9811 192.086 84.3811 192.086 72.6811ZM223.986 72.6811C223.986 64.5811 218.986 58.4811 211.386 58.4811C203.686 58.4811 198.786 64.5811 198.786 72.6811C198.786 80.7811 203.686 86.8811 211.386 86.8811C219.086 86.8811 223.986 80.6811 223.986 72.6811Z" fill="white"/>
<path d="M271.587 91.7811V61.8811L259.687 91.9811C259.687 92.0811 259.487 92.1811 259.387 92.1811H256.887C256.787 92.1811 256.587 92.0811 256.587 91.9811L244.587 61.8811V91.7811C244.591 91.8478 244.581 91.9147 244.557 91.9772C244.533 92.0397 244.497 92.0965 244.449 92.1437C244.402 92.191 244.345 92.2277 244.283 92.2514C244.22 92.2751 244.154 92.2852 244.087 92.2811H238.087C238.02 92.2852 237.953 92.2751 237.891 92.2514C237.828 92.2277 237.771 92.191 237.724 92.1437C237.677 92.0965 237.64 92.0397 237.617 91.9772C237.593 91.9147 237.583 91.8478 237.587 91.7811V53.3811C237.583 53.3144 237.593 53.2475 237.617 53.185C237.64 53.1225 237.677 53.0657 237.724 53.0185C237.771 52.9712 237.828 52.9345 237.891 52.9108C237.953 52.8871 238.02 52.877 238.087 52.8811H246.687C246.88 52.8792 247.069 52.9354 247.229 53.0424C247.39 53.1495 247.514 53.3023 247.587 53.4811L258.087 80.4811L268.487 53.4811C268.548 53.2947 268.67 53.1342 268.833 53.0254C268.996 52.9166 269.191 52.8658 269.387 52.8811H277.987C278.054 52.877 278.12 52.8871 278.183 52.9108C278.245 52.9345 278.302 52.9712 278.349 53.0185C278.397 53.0657 278.433 53.1225 278.457 53.185C278.481 53.2475 278.491 53.3144 278.487 53.3811V91.7811C278.491 91.8478 278.481 91.9147 278.457 91.9772C278.433 92.0397 278.397 92.0965 278.349 92.1437C278.302 92.191 278.245 92.2277 278.183 92.2514C278.12 92.2751 278.054 92.2852 277.987 92.2811H271.987C271.876 92.2503 271.778 92.1855 271.706 92.0957C271.634 92.006 271.593 91.8959 271.587 91.7811Z" fill="white"/>
<path d="M339.586 91.5811V53.6811C339.584 53.5886 339.601 53.4966 339.635 53.4107C339.669 53.3248 339.721 53.2467 339.786 53.1813C339.852 53.1158 339.93 53.0644 340.016 53.03C340.102 52.9956 340.194 52.979 340.286 52.9811H365.786C365.879 52.979 365.971 52.9956 366.057 53.03C366.142 53.0644 366.221 53.1158 366.286 53.1813C366.351 53.2467 366.403 53.3248 366.437 53.4107C366.472 53.4966 366.488 53.5886 366.486 53.6811V58.2811C366.488 58.3737 366.472 58.4657 366.437 58.5516C366.403 58.6375 366.351 58.7156 366.286 58.781C366.221 58.8464 366.142 58.8979 366.057 58.9323C365.971 58.9667 365.879 58.9833 365.786 58.9811H347.186C347.094 58.979 347.002 58.9956 346.916 59.03C346.83 59.0644 346.752 59.1158 346.686 59.1813C346.621 59.2467 346.569 59.3248 346.535 59.4107C346.501 59.4966 346.484 59.5886 346.486 59.6811V68.3811C346.484 68.4737 346.501 68.5657 346.535 68.6516C346.569 68.7375 346.621 68.8155 346.686 68.881C346.752 68.9464 346.83 68.9979 346.916 69.0323C347.002 69.0667 347.094 69.0833 347.186 69.0811H365.386C365.479 69.0789 365.571 69.0956 365.657 69.13C365.742 69.1644 365.821 69.2158 365.886 69.2813C365.951 69.3467 366.003 69.4248 366.037 69.5107C366.072 69.5966 366.088 69.6886 366.086 69.7811V74.3811C366.088 74.4737 366.072 74.5657 366.037 74.6516C366.003 74.7375 365.951 74.8155 365.886 74.881C365.821 74.9464 365.742 74.9979 365.657 75.0323C365.571 75.0667 365.479 75.0833 365.386 75.0811H347.186C347.094 75.0789 347.002 75.0956 346.916 75.13C346.83 75.1644 346.752 75.2158 346.686 75.2813C346.621 75.3467 346.569 75.4248 346.535 75.5107C346.501 75.5966 346.484 75.6886 346.486 75.7811V85.2811C346.484 85.3737 346.501 85.4657 346.535 85.5516C346.569 85.6375 346.621 85.7156 346.686 85.781C346.752 85.8464 346.83 85.8979 346.916 85.9323C347.002 85.9667 347.094 85.9833 347.186 85.9811H365.786C365.879 85.979 365.971 85.9956 366.057 86.03C366.142 86.0644 366.221 86.1158 366.286 86.1813C366.351 86.2467 366.403 86.3248 366.437 86.4107C366.472 86.4966 366.488 86.5886 366.486 86.6811V91.2811C366.488 91.3737 366.472 91.4657 366.437 91.5516C366.403 91.6375 366.351 91.7156 366.286 91.781C366.221 91.8464 366.142 91.8979 366.057 91.9323C365.971 91.9667 365.879 91.9833 365.786 91.9811H340.286C339.886 92.2811 339.586 91.9811 339.586 91.5811Z" fill="white"/>
<path d="M398.489 91.8811L390.189 77.8811C390.122 77.7858 390.031 77.7085 389.927 77.6562C389.822 77.6038 389.706 77.5781 389.589 77.5811H383.789C383.697 77.5789 383.605 77.5956 383.519 77.63C383.433 77.6644 383.355 77.7158 383.289 77.7813C383.224 77.8467 383.173 77.9248 383.138 78.0107C383.104 78.0966 383.087 78.1886 383.089 78.2811V91.5811C383.091 91.6737 383.075 91.7657 383.04 91.8516C383.006 91.9375 382.955 92.0156 382.889 92.081C382.824 92.1464 382.746 92.1979 382.66 92.2323C382.574 92.2667 382.482 92.2833 382.389 92.2811H376.989C376.897 92.2833 376.805 92.2667 376.719 92.2323C376.633 92.1979 376.555 92.1464 376.489 92.081C376.424 92.0156 376.372 91.9375 376.338 91.8516C376.304 91.7657 376.287 91.6737 376.289 91.5811V53.6811C376.287 53.5886 376.304 53.4966 376.338 53.4107C376.372 53.3248 376.424 53.2467 376.489 53.1813C376.555 53.1158 376.633 53.0644 376.719 53.03C376.805 52.9956 376.897 52.979 376.989 52.9811H393.589C401.389 52.9811 406.489 57.9811 406.489 65.2811C406.489 71.7811 402.489 75.4811 398.089 76.5811C397.975 76.6065 397.868 76.6581 397.777 76.7319C397.686 76.8057 397.613 76.8997 397.565 77.0064C397.516 77.1131 397.493 77.2295 397.498 77.3466C397.502 77.4637 397.533 77.5783 397.589 77.6811C399.189 80.2811 404.189 88.2811 406.089 91.1811C406.164 91.2879 406.207 91.4133 406.214 91.5432C406.221 91.6732 406.192 91.8026 406.13 91.9168C406.067 92.0311 405.974 92.1257 405.861 92.1901C405.748 92.2544 405.619 92.2859 405.489 92.2811H399.189C399.047 92.2874 398.905 92.2532 398.781 92.1824C398.658 92.1116 398.556 92.0071 398.489 91.8811ZM399.389 65.1811C399.389 61.3811 396.589 58.9811 392.689 58.9811H383.889C383.797 58.979 383.705 58.9956 383.619 59.03C383.533 59.0644 383.455 59.1158 383.389 59.1813C383.324 59.2467 383.272 59.3248 383.238 59.4107C383.204 59.4966 383.187 59.5886 383.189 59.6811V70.7811C383.187 70.8737 383.204 70.9657 383.238 71.0516C383.272 71.1375 383.324 71.2156 383.389 71.281C383.455 71.3464 383.533 71.3979 383.619 71.4323C383.705 71.4667 383.797 71.4833 383.889 71.4811H392.689C396.589 71.4811 399.389 69.0811 399.389 65.1811Z" fill="white"/>
<path d="M453.086 91.5811V53.6811C453.084 53.5886 453.101 53.4966 453.135 53.4107C453.169 53.3248 453.221 53.2467 453.286 53.1813C453.352 53.1158 453.43 53.0644 453.516 53.03C453.602 52.9956 453.694 52.979 453.786 52.9811H479.386C479.479 52.979 479.571 52.9956 479.657 53.03C479.743 53.0644 479.821 53.1158 479.886 53.1813C479.951 53.2467 480.003 53.3248 480.037 53.4107C480.072 53.4966 480.088 53.5886 480.086 53.6811V58.3811C480.088 58.4737 480.072 58.5657 480.037 58.6516C480.003 58.7375 479.951 58.8155 479.886 58.881C479.821 58.9464 479.743 58.9979 479.657 59.0323C479.571 59.0667 479.479 59.0833 479.386 59.0811H460.686C460.594 59.0789 460.502 59.0956 460.416 59.13C460.33 59.1644 460.252 59.2158 460.186 59.2813C460.121 59.3467 460.069 59.4248 460.035 59.5107C460.001 59.5966 459.984 59.6886 459.986 59.7811V68.5811C459.984 68.6737 460.001 68.7657 460.035 68.8516C460.069 68.9375 460.121 69.0156 460.186 69.081C460.252 69.1464 460.33 69.1979 460.416 69.2323C460.502 69.2667 460.594 69.2833 460.686 69.2811H478.886C478.979 69.2789 479.071 69.2956 479.157 69.33C479.243 69.3644 479.321 69.4158 479.386 69.4813C479.451 69.5467 479.503 69.6248 479.537 69.7107C479.572 69.7966 479.588 69.8886 479.586 69.9811V74.6811C479.588 74.7737 479.572 74.8657 479.537 74.9516C479.503 75.0375 479.451 75.1156 479.386 75.181C479.321 75.2464 479.243 75.2979 479.157 75.3323C479.071 75.3667 478.979 75.3833 478.886 75.3811H460.686C460.594 75.379 460.502 75.3956 460.416 75.43C460.33 75.4644 460.252 75.5159 460.186 75.5813C460.121 75.6467 460.069 75.7248 460.035 75.8107C460.001 75.8966 459.984 75.9886 459.986 76.0811V85.6811C459.984 85.7737 460.001 85.8657 460.035 85.9516C460.069 86.0375 460.121 86.1155 460.186 86.181C460.252 86.2464 460.33 86.2979 460.416 86.3323C460.502 86.3667 460.594 86.3833 460.686 86.3811H479.386C479.479 86.379 479.571 86.3956 479.657 86.43C479.743 86.4644 479.821 86.5158 479.886 86.5813C479.951 86.6467 480.003 86.7248 480.037 86.8107C480.072 86.8966 480.088 86.9886 480.086 87.0811V91.7811C480.088 91.8737 480.072 91.9657 480.037 92.0516C480.003 92.1375 479.951 92.2156 479.886 92.281C479.821 92.3464 479.743 92.3979 479.657 92.4323C479.571 92.4667 479.479 92.4833 479.386 92.4811H453.786C453.596 92.4126 453.43 92.2916 453.306 92.1324C453.182 91.9731 453.106 91.782 453.086 91.5811Z" fill="white"/>
<path d="M411.484 72.4811C411.484 60.3811 420.184 52.1811 431.384 52.1811C434.359 52.1024 437.3 52.8213 439.902 54.2633C442.505 55.7053 444.674 57.8177 446.184 60.3811C446.237 60.4568 446.271 60.5437 446.284 60.6348C446.297 60.7259 446.288 60.8188 446.259 60.9061C446.23 60.9934 446.181 61.0728 446.116 61.1379C446.051 61.203 445.972 61.252 445.884 61.2811L441.384 63.6811C441.322 63.7299 441.249 63.7637 441.171 63.7801C441.093 63.7965 441.013 63.795 440.936 63.7757C440.859 63.7565 440.787 63.7199 440.726 63.6689C440.665 63.6179 440.617 63.5537 440.584 63.4811C439.6 61.9217 438.244 60.6306 436.639 59.7231C435.033 58.8157 433.228 58.3203 431.384 58.2811C423.884 58.2811 418.284 64.1811 418.284 72.4811C418.284 80.6811 423.884 86.6811 431.384 86.6811C433.228 86.642 435.033 86.1466 436.639 85.2391C438.244 84.3317 439.6 83.0405 440.584 81.4811C440.619 81.4107 440.669 81.3486 440.73 81.2993C440.791 81.25 440.862 81.2146 440.938 81.1955C441.014 81.1765 441.094 81.1743 441.171 81.1891C441.248 81.2039 441.321 81.2353 441.384 81.2811L445.884 83.5811C445.974 83.622 446.055 83.6817 446.12 83.7562C446.185 83.8307 446.233 83.9182 446.262 84.013C446.29 84.1077 446.298 84.2074 446.284 84.3054C446.271 84.4034 446.237 84.4974 446.184 84.5811C443.284 89.0811 438.584 92.8811 431.384 92.8811C420.184 92.7811 411.484 84.5811 411.484 72.4811Z" fill="white"/>
<path d="M322.587 91.7811V61.8811L310.687 91.9811C310.687 92.0811 310.487 92.1811 310.387 92.1811H307.887C307.787 92.1811 307.587 92.0811 307.587 91.9811L295.587 61.8811V91.7811C295.591 91.8478 295.581 91.9147 295.557 91.9772C295.533 92.0397 295.497 92.0965 295.449 92.1437C295.402 92.191 295.345 92.2277 295.283 92.2514C295.22 92.2751 295.154 92.2852 295.087 92.2811H289.087C289.02 92.2852 288.953 92.2751 288.891 92.2514C288.828 92.2277 288.771 92.191 288.724 92.1437C288.677 92.0965 288.64 92.0397 288.617 91.9772C288.593 91.9147 288.583 91.8478 288.587 91.7811V53.3811C288.583 53.3144 288.593 53.2475 288.617 53.185C288.64 53.1225 288.677 53.0657 288.724 53.0185C288.771 52.9712 288.828 52.9345 288.891 52.9108C288.953 52.8871 289.02 52.877 289.087 52.8811H297.687C297.88 52.8792 298.069 52.9354 298.229 53.0424C298.39 53.1495 298.514 53.3023 298.587 53.4811L309.087 80.4811L319.487 53.4811C319.548 53.2947 319.67 53.1342 319.833 53.0254C319.996 52.9166 320.191 52.8658 320.387 52.8811H328.987C329.054 52.877 329.12 52.8871 329.183 52.9108C329.245 52.9345 329.302 52.9712 329.349 53.0185C329.397 53.0657 329.433 53.1225 329.457 53.185C329.481 53.2475 329.491 53.3144 329.487 53.3811V91.7811C329.491 91.8478 329.481 91.9147 329.457 91.9772C329.433 92.0397 329.397 92.0965 329.349 92.1437C329.302 92.191 329.245 92.2277 329.183 92.2514C329.12 92.2751 329.054 92.2852 328.987 92.2811H322.987C322.868 92.2668 322.759 92.2064 322.685 92.1129C322.61 92.0194 322.575 91.9002 322.587 91.7811Z" fill="white"/>
</g>
<defs>
<clipPath id="clip0_11825_16503">
<rect width="480.09" height="108.181" fill="white"/>
</clipPath>
</defs>
</svg>
