<svg viewBox="0 0 480.09 108.181" height="108.181" width="480.09" xmlns="http://www.w3.org/2000/svg">
<g id="bigcommerce-seeklogo.com" transform="translate(-69.01 -122.119)">
<g id="Group_6297" data-name="Group 6297">
<path id="Path_6480" data-name="Path 6480" d="M201.1,174.5c7.3,0,12.2,3.3,15.2,7.4V123.5a1.379,1.379,0,0,0-2.2-1.1L142,175.1h1.9c7.5,0,11.3,4.8,11.3,10a8.819,8.819,0,0,1-5,8.4.591.591,0,0,0,0,1.1,9.762,9.762,0,0,1,5.7,9.1c0,6-3.9,10.7-11.4,10.7H124a.789.789,0,0,1-.8-.8V188.8L69.5,228.1a1.212,1.212,0,0,0,.7,2.2H215a1.155,1.155,0,0,0,1.2-1.2V209.2a21.914,21.914,0,0,1-15.2,5.9c-11.6,0-21-8-21-20.3C180.1,182.4,189.6,174.5,201.1,174.5Zm-28.7,39.2a.684.684,0,0,1-.7.7h-6.9a.684.684,0,0,1-.7-.7V175.8a.684.684,0,0,1,.7-.7h6.9a.684.684,0,0,1,.7.7Z" fill="#34313f"></path>
</g>
<path id="Path_6481" data-name="Path 6481" d="M132.4,190.7h9.7c2.8,0,4.6-1.6,4.6-4.1,0-2.4-1.8-4.1-4.6-4.1H132a.43.43,0,0,0-.4.4V190A.773.773,0,0,0,132.4,190.7Z" fill="#34313f"></path>
<path id="Path_6482" data-name="Path 6482" d="M132.4,207.1h10.1c3.1,0,5-1.7,5-4.5,0-2.5-1.8-4.5-5-4.5H132.4a.789.789,0,0,0-.8.8v7.4A.86.86,0,0,0,132.4,207.1Z" fill="#34313f"></path>
<path id="Path_6483" data-name="Path 6483" d="M210,186.4a11.3,11.3,0,0,0-8.9-4.5c-7.2,0-12.4,5.5-12.4,12.9s5.2,12.9,12.4,12.9a13.5,13.5,0,0,0,8.1-2.8.764.764,0,0,0,.2-.5v-3.8a.645.645,0,0,0-.6-.6h-8.9a.789.789,0,0,1-.8-.8v-5.6a.789.789,0,0,1,.8-.8h16.5v-8.9l-5.3,2.9A1.11,1.11,0,0,1,210,186.4Z" fill="#34313f"></path>
<path id="Path_6484" data-name="Path 6484" d="M222.5,194.8c0-12.1,8.7-20.3,19.9-20.3a16.665,16.665,0,0,1,14.8,8.2.593.593,0,0,1-.3.9l-4.5,2.4a.524.524,0,0,1-.8-.2,11.16,11.16,0,0,0-9.2-5.2c-7.5,0-13.1,5.9-13.1,14.2,0,8.2,5.6,14.2,13.1,14.2a11.16,11.16,0,0,0,9.2-5.2.54.54,0,0,1,.8-.2l4.5,2.3a.693.693,0,0,1,.3,1c-2.9,4.5-7.6,8.3-14.8,8.3C231.2,215.1,222.5,206.8,222.5,194.8Z" fill="#34313f"></path>
<path id="Path_6485" data-name="Path 6485" d="M261.1,194.8c0-9.8,5.6-17.4,14-19.6,14.3-3.8,27.4,9.6,24.3,24.5-1.9,9.2-9.2,15.5-18.9,15.5C269.1,215.1,261.1,206.5,261.1,194.8Zm31.9,0c0-8.1-5-14.2-12.6-14.2-7.7,0-12.6,6.1-12.6,14.2s4.9,14.2,12.6,14.2S293,202.8,293,194.8Z" fill="#34313f"></path>
<path id="Path_6486" data-name="Path 6486" d="M340.6,213.9V184l-11.9,30.1c0,.1-.2.2-.3.2h-2.5c-.1,0-.3-.1-.3-.2l-12-30.1v29.9a.472.472,0,0,1-.5.5h-6a.472.472,0,0,1-.5-.5V175.5a.472.472,0,0,1,.5-.5h8.6a.961.961,0,0,1,.9.6l10.5,27,10.4-27a.875.875,0,0,1,.9-.6H347a.472.472,0,0,1,.5.5v38.4a.472.472,0,0,1-.5.5h-6A.547.547,0,0,1,340.6,213.9Z" fill="#34313f"></path>
<path id="Path_6487" data-name="Path 6487" d="M408.6,213.7V175.8a.684.684,0,0,1,.7-.7h25.5a.684.684,0,0,1,.7.7v4.6a.684.684,0,0,1-.7.7H416.2a.684.684,0,0,0-.7.7v8.7a.684.684,0,0,0,.7.7h18.2a.684.684,0,0,1,.7.7v4.6a.684.684,0,0,1-.7.7H416.2a.684.684,0,0,0-.7.7v9.5a.684.684,0,0,0,.7.7h18.6a.684.684,0,0,1,.7.7v4.6a.684.684,0,0,1-.7.7H409.3C408.9,214.4,408.6,214.1,408.6,213.7Z" fill="#34313f"></path>
<path id="Path_6488" data-name="Path 6488" d="M467.5,214l-8.3-14a.713.713,0,0,0-.6-.3h-5.8a.684.684,0,0,0-.7.7v13.3a.684.684,0,0,1-.7.7H446a.684.684,0,0,1-.7-.7V175.8a.684.684,0,0,1,.7-.7h16.6c7.8,0,12.9,5,12.9,12.3,0,6.5-4,10.2-8.4,11.3a.756.756,0,0,0-.5,1.1c1.6,2.6,6.6,10.6,8.5,13.5a.7.7,0,0,1-.6,1.1h-6.3A.755.755,0,0,1,467.5,214Zm.9-26.7c0-3.8-2.8-6.2-6.7-6.2h-8.8a.684.684,0,0,0-.7.7v11.1a.684.684,0,0,0,.7.7h8.8C465.6,193.6,468.4,191.2,468.4,187.3Z" fill="#34313f"></path>
<path id="Path_6489" data-name="Path 6489" d="M522.1,213.7V175.8a.684.684,0,0,1,.7-.7h25.6a.684.684,0,0,1,.7.7v4.7a.684.684,0,0,1-.7.7H529.7a.684.684,0,0,0-.7.7v8.8a.684.684,0,0,0,.7.7h18.2a.684.684,0,0,1,.7.7v4.7a.684.684,0,0,1-.7.7H529.7a.684.684,0,0,0-.7.7v9.6a.684.684,0,0,0,.7.7h18.7a.684.684,0,0,1,.7.7v4.7a.684.684,0,0,1-.7.7H522.8A1.068,1.068,0,0,1,522.1,213.7Z" fill="#34313f"></path>
<path id="Path_6490" data-name="Path 6490" d="M480.5,194.6c0-12.1,8.7-20.3,19.9-20.3a16.666,16.666,0,0,1,14.8,8.2.593.593,0,0,1-.3.9l-4.5,2.4a.524.524,0,0,1-.8-.2,11.16,11.16,0,0,0-9.2-5.2c-7.5,0-13.1,5.9-13.1,14.2,0,8.2,5.6,14.2,13.1,14.2a11.16,11.16,0,0,0,9.2-5.2.54.54,0,0,1,.8-.2l4.5,2.3a.693.693,0,0,1,.3,1c-2.9,4.5-7.6,8.3-14.8,8.3C489.2,214.9,480.5,206.7,480.5,194.6Z" fill="#34313f"></path>
<path id="Path_6491" data-name="Path 6491" d="M391.6,213.9V184l-11.9,30.1c0,.1-.2.2-.3.2h-2.5c-.1,0-.3-.1-.3-.2l-12-30.1v29.9a.472.472,0,0,1-.5.5h-6a.472.472,0,0,1-.5-.5V175.5a.472.472,0,0,1,.5-.5h8.6a.961.961,0,0,1,.9.6l10.5,27,10.4-27a.875.875,0,0,1,.9-.6H398a.472.472,0,0,1,.5.5v38.4a.472.472,0,0,1-.5.5h-6A.457.457,0,0,1,391.6,213.9Z" fill="#34313f"></path>
</g>
</svg>