<svg width="392" height="101" viewBox="0 0 392 101" fill="none" xmlns="http://www.w3.org/2000/svg">
<g clip-path="url(#clip0_11825_16213)">
<path d="M108.562 17.5H130.562V39.28H150.812V17.5H172.812V83.41H150.812V61.41H130.723V83.41H108.562M201.792 39.47H182.402V17.47H243.253V39.47H223.762V83.41H201.762M252.863 17.5H275.862L289.992 40.71L304.133 17.5H327.133V83.41H305.133V50.74L289.753 74.43L274.372 50.74V83.41H252.893M338.103 17.5H360.103V61.63H391.253V83.41H338.103" fill="white"/>
<path d="M0.429688 0.560059L8.42968 90.8501L44.5297 100.85L80.7797 90.8501L88.7797 0.610062L0.429688 0.560059ZM71.3097 30.0801H28.9997L29.9997 41.4101H70.2897L67.2897 75.4101L44.6697 81.6901V81.7501L21.9597 75.4101L20.3697 58.0001H31.4797L32.2597 66.8501L44.6197 70.1601L56.9997 66.8601L58.2997 52.4801H44.5897H19.8797L16.8797 19.0301H72.3497L71.3097 30.0801Z" fill="#E44D26"/>
<path d="M44.6437 70.1799L44.6237 70.1699L44.5938 70.1799H44.6437Z" fill="#E44D26"/>
<path d="M58.2506 52.48H44.6406V70.16L56.9506 66.86L58.2506 52.48Z" fill="#F16529"/>
<path d="M44.6406 7.96997V19.01H72.3306L71.3106 30.08H44.6406V41.41H70.3106L67.2606 75.39L44.6406 81.67V93.16L73.8906 85L80.7906 7.96997H44.6406Z" fill="#F16529"/>
</g>
<defs>
<clipPath id="clip0_11825_16213">
<rect width="392" height="101" fill="white"/>
</clipPath>
</defs>
</svg>
