<svg width="392" height="101" viewBox="0 0 392 101" fill="none" xmlns="http://www.w3.org/2000/svg">
<path d="M108.56 17.5H130.56V39.28H150.81V17.5H172.81V83.41H150.81V61.41H130.72V83.41H108.56M201.79 39.47H182.4V17.47H243.25V39.47H223.76V83.41H201.76M252.86 17.5H275.86L289.99 40.71L304.13 17.5H327.13V83.41H305.13V50.74L289.75 74.43L274.37 50.74V83.41H252.89M338.1 17.5H360.1V61.63H391.25V83.41H338.1" fill="black"/>
<path d="M0.429993 0.559998L8.42999 90.85L44.53 100.85L80.78 90.85L88.78 0.610001L0.429993 0.559998ZM71.31 30.08H29L30 41.41H70.29L67.29 75.41L44.67 81.69V81.75L21.96 75.41L20.37 58H31.48L32.26 66.85L44.62 70.16L57 66.86L58.3 52.48H44.59H19.88L16.88 19.03H72.35L71.31 30.08Z" fill="#E44D26"/>
<path d="M44.64 70.18L44.62 70.17L44.59 70.18H44.64Z" fill="#E44D26"/>
<path d="M58.25 52.48H44.64V70.16L56.95 66.86L58.25 52.48Z" fill="#F16529"/>
<path d="M44.64 7.97V19.01H72.33L71.31 30.08H44.64V41.41H70.31L67.26 75.39L44.64 81.67V93.16L73.89 85L80.79 7.97H44.64Z" fill="#F16529"/>
</svg>
