<svg width="164" height="27" viewBox="0 0 164 27" fill="none" xmlns="http://www.w3.org/2000/svg">
<g clip-path="url(#clip0_11825_16381)">
<path d="M60.1821 15.3769C60.1573 15.2778 60.1573 15.1292 60.1573 14.931C60.1573 13.6674 60.5785 12.6763 61.4209 11.9826C62.2633 11.2641 63.18 10.9172 64.1958 10.9172C65.5337 10.9172 66.4752 11.4127 66.9955 12.4286L60.1821 15.3769ZM69.9439 13.5931C69.9191 12.1065 69.3741 10.8924 68.2591 9.95095C67.1442 9.00945 65.7567 8.56348 64.072 8.56348C63.0066 8.56348 61.9907 8.78647 61.0493 9.25721C60.083 9.72796 59.2901 10.4465 58.646 11.4623C58.0018 12.4533 57.6797 13.593 57.6797 14.9062C57.6797 16.7892 58.2991 18.3253 59.5379 19.465C60.7767 20.6295 62.2881 21.1993 64.0224 21.1993C66.0045 21.1993 67.7388 20.4561 69.2006 18.9447L67.6893 17.2599C66.7973 18.3253 65.6576 18.8704 64.2949 18.8704C62.9075 18.8704 61.8173 18.3749 61.0245 17.3838L69.9687 13.6178L69.9439 13.5931Z" fill="white"/>
<path d="M54.7082 9.30676C53.9896 9.80229 53.4198 10.4217 53.0234 11.1898V8.71214H50.4219V21.0011H52.9986V15.7486C52.9986 14.3611 53.3207 13.2214 53.9649 12.4038C54.6091 11.5614 55.5753 11.165 56.8389 11.165H56.9876L56.9628 8.56348C56.1947 8.56348 55.4267 8.81124 54.7082 9.30676Z" fill="white"/>
<path d="M79.1833 14.7572C78.7621 14.4846 78.3904 14.2616 78.0188 14.113C77.6472 13.9643 77.2755 13.8157 76.9039 13.6918C76.5075 13.5679 76.0863 13.444 75.566 13.3201C75.0704 13.1963 74.674 13.0724 74.4015 12.9237C74.0051 12.7503 73.8068 12.453 73.8068 12.0566C73.8068 11.6106 74.0051 11.2637 74.3767 11.0407C74.7731 10.8177 75.2686 10.6939 75.888 10.6939C77.0525 10.6939 78.1427 11.016 79.1337 11.6849L80.1 9.77714C78.8364 8.93475 77.4985 8.53833 76.0863 8.53833C74.674 8.53833 73.5095 8.8852 72.6424 9.55416C71.7504 10.2479 71.3044 11.1398 71.3044 12.2795C71.3044 13.89 72.5928 15.0545 75.1448 15.7482C75.1943 15.773 75.2934 15.7978 75.4173 15.8473C77.0525 16.3428 77.8701 16.8879 77.8701 17.5073C77.8701 17.9285 77.6967 18.2754 77.3746 18.5231C77.0278 18.7957 76.5818 18.9196 75.9872 18.9196C74.6492 18.9196 73.2618 18.3745 71.8247 17.3091L70.5859 19.316C71.3292 19.9106 72.1716 20.3566 73.1379 20.6787C74.1042 21.0008 75.0209 21.1742 75.9128 21.1742C77.226 21.1742 78.3161 20.8273 79.1585 20.1336C80.0009 19.4399 80.4221 18.4984 80.4221 17.3339C80.4469 16.1694 80.0257 15.327 79.1833 14.7572Z" fill="white"/>
<path d="M44.9924 12.9486C44.4473 13.5185 43.4067 13.8158 41.9202 13.8158H38.7488V7.3492H41.5238C43.0103 7.3492 44.0757 7.57219 44.7694 8.04293C45.4632 8.51368 45.81 9.28174 45.81 10.3967C45.81 11.5364 45.5375 12.3788 44.9924 12.9486ZM46.925 6.28383C45.81 5.34233 44.0262 4.87158 41.5733 4.87158H36.0234V21.0009H38.7488V16.2686H41.6229C44.0014 16.2686 45.7605 15.8227 46.9002 14.9059C48.0399 13.9892 48.6098 12.577 48.6098 10.6197C48.6098 8.68712 48.0399 7.22532 46.925 6.28383Z" fill="white"/>
<path d="M86.4843 18.9692C85.9392 18.9692 85.4932 18.7958 85.1959 18.4489C84.8986 18.1021 84.7252 17.6313 84.7252 17.0615V10.8179H87.9461V8.73667H84.7252V4.87158H82.1484V16.9624C82.1484 18.2507 82.5449 19.2913 83.3129 20.0346C84.081 20.8027 85.0225 21.1743 86.1374 21.1743C87.2276 21.1743 88.2434 20.7779 89.1601 19.9603L88.0947 18.1269C87.5744 18.6967 87.0294 18.9692 86.4843 18.9692Z" fill="white"/>
<path d="M98.3206 17.805C97.602 18.5483 96.7596 18.9199 95.7438 18.9199C94.728 18.9199 93.8361 18.5483 93.0928 17.805C92.3495 17.0617 91.9531 16.1202 91.9531 14.931C91.9531 13.7417 92.3247 12.7754 93.068 11.9826C93.8113 11.1898 94.6784 10.7933 95.719 10.7933C96.7596 10.7933 97.6268 11.1898 98.3206 11.9826C99.0391 12.7754 99.3859 13.7417 99.3859 14.9062C99.3859 16.0954 99.0391 17.0617 98.3206 17.805ZM99.3364 10.8677C98.2958 9.33154 96.9579 8.56348 95.3474 8.56348C93.737 8.56348 92.3247 9.13333 91.1354 10.273C89.9462 11.4127 89.3516 12.9241 89.3516 14.8319C89.3516 16.7396 89.9214 18.2757 91.0859 19.4402C92.2504 20.6047 93.5883 21.1993 95.1492 21.1993C95.9173 21.1993 96.6853 21.0011 97.4534 20.6295C98.2214 20.2578 98.8408 19.7128 99.3364 18.9943V21.0011H101.913V8.71214H99.3364V10.8677Z" fill="white"/>
<path d="M140.249 17.7802C139.506 18.5235 138.589 18.8952 137.474 18.8952C136.359 18.8952 135.418 18.5235 134.699 17.7802C133.956 17.0369 133.609 16.0707 133.609 14.8814C133.609 13.6922 133.981 12.7259 134.699 11.9826C135.418 11.2393 136.359 10.8677 137.474 10.8677C138.589 10.8677 139.531 11.2393 140.249 11.9826C140.968 12.7259 141.339 13.6922 141.339 14.8814C141.339 16.0707 140.993 17.0369 140.249 17.7802ZM137.474 8.56348C135.616 8.56348 134.08 9.18288 132.866 10.3969C131.627 11.6109 131.008 13.1223 131.008 14.8814C131.008 16.6405 131.627 18.1519 132.866 19.3659C134.105 20.5799 135.641 21.1993 137.474 21.1993C139.308 21.1993 140.869 20.5799 142.083 19.3659C143.322 18.1519 143.941 16.6405 143.941 14.8814C143.941 13.1223 143.322 11.6109 142.083 10.3969C140.844 9.1581 139.308 8.56348 137.474 8.56348Z" fill="white"/>
<path d="M154.289 17.7802C153.546 18.5235 152.654 18.8952 151.638 18.8952C150.622 18.8952 149.755 18.5235 149.061 17.7802C148.343 17.0369 147.996 16.0707 147.996 14.9062C147.996 13.7417 148.343 12.7754 149.061 11.9826C149.78 11.2145 150.647 10.8181 151.663 10.8181C152.703 10.8181 153.571 11.2145 154.314 11.9826C155.057 12.7507 155.429 13.7417 155.429 14.9062C155.404 16.0954 155.032 17.0369 154.289 17.7802ZM156.246 10.273C155.082 9.13333 153.67 8.56348 152.034 8.56348C150.399 8.56348 149.061 9.33154 148.045 10.8924V8.73691H145.469V25.4856H148.045V19.1677C149.284 20.5304 150.672 21.1993 152.208 21.1993C153.744 21.1993 155.107 20.6047 156.271 19.4155C157.436 18.2262 158.006 16.6901 158.006 14.8071C158.006 12.9241 157.411 11.388 156.246 10.273Z" fill="white"/>
<path d="M124.977 8.56357C124.11 8.56357 123.317 8.78655 122.574 9.20775C121.831 9.62894 121.261 10.2236 120.889 10.9916V3.93042H118.312V21.026H120.889V14.386C120.889 13.2463 121.211 12.3791 121.88 11.7845C122.549 11.1898 123.317 10.8925 124.209 10.8925C126.092 10.8925 127.034 12.0322 127.034 14.2869V21.026H129.61V13.494C129.61 11.8836 129.189 10.6695 128.322 9.82715C127.48 8.98476 126.365 8.56357 124.977 8.56357Z" fill="white"/>
<path d="M115.225 13.271C114.383 12.5525 113.144 11.9827 111.484 11.5862C109.824 11.1898 108.758 10.8182 108.238 10.4713C107.743 10.1244 107.47 9.62892 107.47 8.95996C107.47 8.31578 107.718 7.82026 108.238 7.49817C108.734 7.17608 109.403 7.00264 110.195 7.00264C110.988 7.00264 111.781 7.1513 112.599 7.42383C113.416 7.69637 114.06 8.04324 114.531 8.48922L115.993 6.43279C115.25 5.81338 114.383 5.34264 113.367 4.99577C112.351 4.6489 111.335 4.50024 110.294 4.50024C108.684 4.50024 107.346 4.89666 106.256 5.71428C105.166 6.53189 104.621 7.6716 104.621 9.15817C104.621 10.6447 105.091 11.7597 106.058 12.4782C106.529 12.8746 107.074 13.1719 107.693 13.4197C108.312 13.6674 109.204 13.9152 110.394 14.2125C111.583 14.4851 112.4 14.8071 112.896 15.154C113.392 15.5009 113.615 15.9964 113.615 16.6158C113.615 17.2352 113.367 17.7307 112.846 18.1272C112.326 18.4988 111.632 18.697 110.765 18.697C109.006 18.697 107.321 17.9785 105.686 16.5663L103.977 18.6227C105.934 20.357 108.164 21.2242 110.691 21.2242C112.425 21.2242 113.813 20.7782 114.878 19.911C115.943 19.0439 116.464 17.9042 116.464 16.4919C116.464 15.0797 116.067 13.9895 115.225 13.271Z" fill="white"/>
<path d="M13.3695 20.1327C13.5767 20.0377 13.7839 19.96 13.9997 19.8737C14.2415 19.7873 14.4832 19.701 14.725 19.6233C15.0272 19.5283 15.338 19.4506 15.6488 19.3815C16.0719 19.2952 16.4949 19.2261 16.918 19.183C16.6762 19.9341 16.4172 20.6853 16.1237 21.4278C16.1323 21.5745 16.1409 21.7127 16.1496 21.8595C16.728 21.7472 17.3238 21.6868 17.9368 21.6868C18.5498 21.6868 19.1455 21.7472 19.724 21.8595C19.724 21.7127 19.7326 21.5659 19.7499 21.4278C19.465 20.6853 19.1973 19.9341 18.9556 19.183C19.3786 19.2261 19.8103 19.2866 20.2247 19.3815C20.5356 19.4506 20.8377 19.5283 21.1486 19.6233C21.3903 19.701 21.6321 19.7787 21.8738 19.8737C22.0897 19.9514 22.2969 20.0377 22.5041 20.1327C23.9718 20.7889 25.3101 21.7558 26.4066 23.0164C29.1608 20.6421 30.9048 17.1281 30.9048 13.1997C30.9048 6.04226 25.1029 0.231689 17.9368 0.231689C10.7793 0.231689 4.96875 6.03363 4.96875 13.1997C4.96875 17.1195 6.71278 20.6334 9.46698 23.0164C10.5635 21.7558 11.9017 20.7889 13.3695 20.1327Z" fill="#A0DBE8"/>
<path d="M14.2175 22.4811C14.8219 22.2134 15.4694 22.0062 16.1342 21.8767C16.1342 21.7299 16.1256 21.5831 16.1083 21.445C16.3932 20.7025 16.6609 19.9513 16.9026 19.2002C16.4796 19.2434 16.0479 19.3038 15.6334 19.3988C15.3226 19.4678 15.0204 19.5455 14.7096 19.6405C14.4679 19.7182 14.2261 19.7959 13.9844 19.8909L14.9255 20.124L14.2175 22.4811Z" fill="#525353"/>
<path d="M11.9993 23.8711C12.0252 23.6294 12.0338 23.3876 12.0338 23.1372C12.0338 22.9905 12.1547 22.8696 12.3015 22.8696H12.5346L13.3634 20.124C11.8957 20.7802 10.5574 21.7472 9.46094 23.0077C10.0653 23.5344 10.7215 24.0006 11.4122 24.4064C11.6108 24.2251 11.8007 24.0438 11.9993 23.8711Z" fill="#525353"/>
<path d="M22.4922 20.1326L23.321 22.8781H23.5542C23.7009 22.8781 23.8218 22.999 23.8218 23.1458C23.8218 23.3962 23.8391 23.6379 23.8563 23.8797C24.0549 24.0523 24.2535 24.225 24.4348 24.415C25.1341 24.0092 25.7817 23.5429 26.386 23.0163C25.2982 21.7557 23.9599 20.7887 22.4922 20.1326Z" fill="#525353"/>
<path d="M20.9225 20.1067L21.8635 19.8736C21.6218 19.7872 21.3801 19.7009 21.1383 19.6232C20.8361 19.5282 20.5253 19.4505 20.2145 19.3814C19.7914 19.2951 19.3684 19.226 18.9453 19.1829C19.1871 19.934 19.4461 20.6852 19.7396 21.4277C19.731 21.5744 19.7224 21.7126 19.7137 21.8594C20.3872 21.9889 21.0261 22.1961 21.6304 22.4637L20.9225 20.1067Z" fill="#525353"/>
<path d="M17.9241 22.8781H19.7545C19.72 22.5413 19.7027 22.2046 19.7113 21.8765C19.1329 21.7643 18.5371 21.7039 17.9241 21.7039C17.3111 21.7039 16.7154 21.7643 16.1369 21.8765C16.1456 22.2133 16.1283 22.5413 16.0938 22.8781H17.9241Z" fill="black"/>
<path d="M11.4219 24.4066C11.5687 24.493 11.7241 24.5793 11.8795 24.6657C11.9313 24.4066 11.9744 24.139 12.0003 23.8713C11.8018 24.044 11.6118 24.2253 11.4219 24.4066Z" fill="black"/>
<path d="M14.1016 22.8782H16.1046C16.1391 22.5415 16.1564 22.2048 16.1478 21.8767C15.4743 22.0062 14.8354 22.2134 14.2311 22.4811L14.1016 22.8782Z" fill="black"/>
<path d="M23.8672 23.8713C23.8931 24.139 23.9363 24.4066 23.9881 24.6657C24.1435 24.5879 24.2902 24.5016 24.4457 24.4066C24.2557 24.2253 24.0658 24.044 23.8672 23.8713Z" fill="black"/>
<path d="M21.7663 22.8782L21.6455 22.4811C21.0411 22.2134 20.3936 22.0062 19.7288 21.8767C19.7201 22.2134 19.7374 22.5415 19.7719 22.8782H21.7663Z" fill="black"/>
<path d="M14.1096 22.8784L14.2305 22.4812L14.9471 20.1069L14.006 19.8738C13.7901 19.9515 13.5829 20.0378 13.3757 20.1328L12.5469 22.8784H13.4362H14.1096Z" fill="#AA9678"/>
<path d="M21.6463 22.4812L21.7672 22.8784H22.4406H23.3299L22.501 20.1328C22.2938 20.0378 22.0866 19.9601 21.8708 19.8738L20.9297 20.1069L21.6463 22.4812Z" fill="#AA9678"/>
<path d="M12.5625 23.4299C12.5707 23.4218 12.5789 23.4218 12.5871 23.4136H12.5625C12.5625 23.4136 12.5625 23.4218 12.5625 23.4299Z" fill="#C0B098"/>
<path d="M17.9352 23.4136H16.0271H13.9464H12.5995C12.5908 23.4222 12.5822 23.4222 12.5736 23.4308C12.5563 23.9402 12.4872 24.4324 12.375 24.9159C14.0586 25.7188 15.9408 26.1678 17.9352 26.1678V23.4136Z" fill="#C0B098"/>
<path d="M23.298 23.4136H23.2734C23.2816 23.4218 23.2898 23.4218 23.298 23.4299C23.298 23.4218 23.298 23.4136 23.298 23.4136Z" fill="#AA9678"/>
<path d="M23.274 23.4136H21.9272H19.8378H17.9297V26.1678C19.9155 26.1678 21.8063 25.7188 23.4899 24.9159C23.3776 24.4324 23.3086 23.9316 23.2913 23.4308C23.2913 23.4222 23.2827 23.4136 23.274 23.4136Z" fill="#AA9678"/>
<path d="M23.8682 23.8709C23.8423 23.6292 23.8337 23.3874 23.8337 23.137C23.8337 22.9903 23.7128 22.8694 23.566 22.8694H23.3329H22.4264H21.7529H19.7499H17.9195H16.0891H14.0861H13.4126H12.5234H12.2902C12.1435 22.8694 12.0226 22.9903 12.0226 23.137C12.0226 23.3874 12.0053 23.6292 11.9881 23.8709C11.9622 24.1386 11.919 24.4062 11.8672 24.6652C12.0312 24.7516 12.1953 24.8379 12.3593 24.9156C12.4716 24.4321 12.5406 23.9313 12.5579 23.4306C12.5579 23.422 12.5579 23.422 12.5579 23.4133H12.5838H13.9307H16.0114H17.9195H19.8362H21.917H23.2639H23.2898C23.2898 23.422 23.2898 23.422 23.2898 23.4306C23.307 23.94 23.3761 24.4321 23.4883 24.9156C23.6524 24.8379 23.8164 24.7516 23.9805 24.6652C23.9287 24.4062 23.8941 24.1386 23.8682 23.8709Z" fill="#8B7460"/>
<path d="M21.6443 21.022C21.6011 20.9788 21.5666 20.927 21.5234 20.8752C21.5666 20.9357 21.6098 20.9788 21.6443 21.022Z" fill="#525353"/>
<path d="M26.5546 10.3162C26.4424 10.1608 26.3301 10.0227 26.2179 9.90179C26.1661 9.84136 26.1143 9.78955 26.0625 9.73775C26.0452 9.72048 26.0193 9.70322 26.002 9.68595C25.9675 9.65141 25.933 9.62551 25.8984 9.59961V10.8083L26.356 12.9236C26.3647 12.9409 26.3647 12.9582 26.3733 12.9754L26.6928 13.3381H27.0295C27.0295 13.3035 27.0295 13.2776 27.0295 13.2431C27.0295 12.2416 26.8654 11.2832 26.5719 10.3853C26.5632 10.3508 26.5632 10.3335 26.5546 10.3162Z" fill="#BBBCBD"/>
<path d="M26.4087 13.1224V13.131C26.4087 13.131 26.4087 13.131 26.4087 13.1397C26.4173 13.1915 26.4173 13.2433 26.4173 13.2951C26.4173 13.3037 26.4173 13.3123 26.4173 13.321C26.4173 13.3296 26.4173 13.3382 26.4173 13.3469C26.4173 13.3987 26.4173 13.4505 26.4087 13.4936V13.5023V13.5109C26.4001 13.5627 26.3914 13.6145 26.3828 13.6663L26.7023 13.3123L26.3828 12.9497C26.3914 13.0101 26.4001 13.0619 26.4087 13.1224Z" fill="#676A6A"/>
<path d="M26.4016 13.5279C26.4016 13.5193 26.4016 13.5193 26.4016 13.5106C26.4102 13.4588 26.4102 13.407 26.4102 13.3639C26.4102 13.3552 26.4102 13.3379 26.4102 13.3293C26.4102 13.3207 26.4102 13.312 26.4102 13.2948C26.4102 13.243 26.4102 13.1912 26.4016 13.1394C26.4016 13.1307 26.4016 13.1307 26.4016 13.1221C26.393 13.0703 26.3843 13.0185 26.3757 12.9667C26.3671 12.9494 26.3671 12.9322 26.3584 12.9149C26.3239 12.8113 26.2894 12.7249 26.2376 12.6472C26.2289 12.6386 26.2203 12.63 26.2203 12.6213C26.203 12.6041 26.1944 12.5868 26.1771 12.5695C26.1599 12.5436 26.134 12.5264 26.1081 12.5091C26.0994 12.5005 26.0908 12.5005 26.0822 12.4918C26.0649 12.4746 26.039 12.4659 26.0217 12.4573C26.0131 12.4573 26.0044 12.4487 25.9958 12.4487C25.9699 12.44 25.9354 12.4314 25.9008 12.4314C25.8663 12.4314 25.8404 12.44 25.8059 12.4487C25.7972 12.4487 25.7886 12.4573 25.78 12.4573C25.7627 12.4659 25.7368 12.4746 25.7195 12.4918C25.7109 12.5005 25.7023 12.5005 25.6936 12.5091C25.6677 12.5264 25.6505 12.5523 25.6246 12.5695C25.6073 12.5868 25.5987 12.6041 25.5814 12.6213C25.5728 12.63 25.5641 12.6386 25.5641 12.6472C25.5123 12.7249 25.4692 12.8113 25.4433 12.9149V12.9235C25.426 12.9667 25.4173 13.0185 25.4087 13.0703C25.4087 13.0876 25.4001 13.0962 25.4001 13.1135C25.3914 13.1739 25.3914 13.2257 25.3828 13.2861C25.3828 13.2948 25.3828 13.3034 25.3828 13.312C25.3828 13.8042 25.6159 14.21 25.9008 14.21C25.9526 14.21 25.9958 14.1927 26.0476 14.1754C26.0563 14.1754 26.0649 14.1668 26.0735 14.1668C26.0908 14.1582 26.1081 14.1409 26.1253 14.1323C26.134 14.1236 26.1426 14.115 26.1512 14.1064C26.1771 14.0891 26.1944 14.0632 26.2203 14.0373C26.2376 14.02 26.2462 14.0028 26.2635 13.9769C26.2721 13.9596 26.2807 13.951 26.2894 13.9337C26.3066 13.9078 26.3153 13.8819 26.3325 13.8473C26.3412 13.8387 26.3412 13.8301 26.3498 13.8128C26.3671 13.7696 26.3757 13.7265 26.393 13.6833C26.393 13.6315 26.4016 13.5797 26.4016 13.5279ZM25.9181 13.1998C25.8059 13.1998 25.7195 13.053 25.7195 12.8631C25.7195 12.6818 25.8059 12.5264 25.9181 12.5264C26.0304 12.5264 26.1167 12.6731 26.1167 12.8631C26.1167 13.053 26.0217 13.1998 25.9181 13.1998Z" fill="black"/>
<path d="M25.9173 13.1998C26.027 13.1998 26.1159 13.0491 26.1159 12.8631C26.1159 12.6771 26.027 12.5264 25.9173 12.5264C25.8077 12.5264 25.7188 12.6771 25.7188 12.8631C25.7188 13.0491 25.8077 13.1998 25.9173 13.1998Z" fill="white"/>
<path d="M25.4297 12.9151C25.4642 12.8115 25.4988 12.7252 25.5506 12.6474C25.5592 12.6388 25.5678 12.6302 25.5678 12.6215C25.5851 12.6043 25.5937 12.587 25.611 12.5697C25.6283 12.5438 25.6542 12.5266 25.6801 12.5093C25.6887 12.5007 25.6973 12.5007 25.706 12.492C25.7232 12.4748 25.7491 12.4661 25.7664 12.4575C25.775 12.4575 25.7837 12.4489 25.7923 12.4489C25.8182 12.4402 25.8527 12.4316 25.8873 12.4316C25.9218 12.4316 25.9477 12.4402 25.9823 12.4489C25.9909 12.4489 25.9995 12.4575 26.0082 12.4575C26.0254 12.4661 26.0513 12.4748 26.0686 12.492C26.0772 12.5007 26.0859 12.5007 26.0945 12.5093C26.1204 12.5266 26.1377 12.5525 26.1636 12.5697C26.1808 12.587 26.1895 12.6043 26.2067 12.6215C26.2154 12.6302 26.224 12.6388 26.224 12.6474C26.2758 12.7252 26.319 12.8115 26.3449 12.9151L25.8873 10.7998L25.4297 12.9151Z" fill="#909393"/>
<path d="M19.7723 13.3034C19.7723 13.2602 19.7723 13.217 19.7637 13.1739C19.7551 13.1307 19.7551 13.0962 19.7464 13.053C19.7378 13.0098 19.7292 12.9753 19.7119 12.9408C19.7033 12.9062 19.686 12.8631 19.6687 12.8285C19.6514 12.794 19.6342 12.7594 19.6169 12.7249C19.5565 12.6213 19.4874 12.5263 19.4011 12.4486C19.2888 12.345 19.1593 12.2587 19.0212 12.1982C18.9521 12.1723 18.8744 12.1464 18.8053 12.1292C18.8053 12.1292 18.8053 12.1292 18.7967 12.1292C18.719 12.1119 18.6413 12.1033 18.5636 12.1033C18.4859 12.1033 18.4082 12.1119 18.3305 12.1292H18.3218C18.2441 12.1464 18.1751 12.1637 18.106 12.1896C18.106 12.1896 18.106 12.1896 18.0974 12.1896C18.0283 12.2155 17.9592 12.25 17.8988 12.2932C17.8383 12.3364 17.7779 12.3796 17.7261 12.4314H17.7175C17.6311 12.5177 17.5534 12.6127 17.493 12.7163C17.4757 12.7508 17.4585 12.7853 17.4412 12.8199C17.4412 12.8199 17.4412 12.8285 17.4326 12.8285C17.4153 12.8631 17.4067 12.889 17.398 12.9235C17.398 12.9321 17.3894 12.9321 17.3894 12.9408C17.3807 12.9753 17.3721 13.0012 17.3635 13.0357C17.3635 13.0444 17.3548 13.053 17.3548 13.0616C17.3462 13.0962 17.3462 13.1221 17.3376 13.1566C17.3376 13.1652 17.3376 13.1739 17.3289 13.1825C17.3289 13.2257 17.3203 13.2688 17.3203 13.312C17.3203 13.3897 17.3289 13.4674 17.3462 13.5451C17.3462 13.5451 17.3462 13.5451 17.3462 13.5538C17.3635 13.6315 17.3807 13.7005 17.4153 13.7782C17.4757 13.9164 17.5621 14.0459 17.6657 14.1581C17.752 14.2445 17.847 14.3222 17.9506 14.3826C17.9851 14.3999 18.0197 14.4171 18.0542 14.4344H18.0628C18.0974 14.4517 18.1319 14.4603 18.1578 14.4689C18.1664 14.4689 18.1664 14.4689 18.1751 14.4776C18.2096 14.4862 18.2355 14.4948 18.27 14.5035C18.2787 14.5035 18.2873 14.5121 18.2959 14.5121C18.3305 14.5207 18.3564 14.5207 18.3909 14.5294C18.3995 14.5294 18.4082 14.5294 18.4168 14.538C18.46 14.538 18.5031 14.5466 18.5463 14.5466C18.719 14.5466 18.8744 14.5121 19.0212 14.4517C19.0903 14.4171 19.1593 14.3826 19.2284 14.3394C19.3579 14.2531 19.4701 14.1409 19.5565 14.0114C19.5996 13.9423 19.6342 13.8732 19.6687 13.8041C19.7292 13.6574 19.7637 13.4933 19.7637 13.3293V13.3206C19.7723 13.3034 19.7723 13.3034 19.7723 13.3034ZM18.555 13.1566C18.3046 13.1566 18.0974 12.9494 18.0974 12.699C18.0974 12.4486 18.3046 12.2414 18.555 12.2414C18.8053 12.2414 19.0125 12.4486 19.0125 12.699C19.0125 12.9494 18.8053 13.1566 18.555 13.1566Z" fill="black"/>
<path d="M18.5592 13.1566C18.8119 13.1566 19.0167 12.9518 19.0167 12.699C19.0167 12.4463 18.8119 12.2415 18.5592 12.2415C18.3064 12.2415 18.1016 12.4463 18.1016 12.699C18.1016 12.9518 18.3064 13.1566 18.5592 13.1566Z" fill="white"/>
<path d="M17.7162 12.4315L18.5623 9.85002C18.5623 9.85002 18.5623 9.69461 18.5623 9.54784C18.5623 9.50467 18.5623 9.4615 18.5623 9.42696C18.5623 9.40969 18.5623 9.40106 18.5623 9.39243C18.5623 9.37516 18.5623 9.35789 18.5623 9.34062C18.5623 9.33199 18.5623 9.31472 18.5623 9.30609C18.5623 9.29746 18.5623 9.28019 18.5623 9.27155C18.5623 9.26292 18.5623 9.25429 18.5623 9.25429C18.5623 9.24565 18.5623 9.24565 18.5623 9.24565C18.0961 9.15068 17.6126 9.09888 17.1205 9.09888C16.9564 9.09888 16.7924 9.10751 16.6284 9.11614C16.6025 9.11614 16.5852 9.11614 16.5593 9.12478C15.7132 9.18521 14.8843 9.40969 14.1159 9.76368C13.4597 10.0659 12.8381 10.463 12.2942 10.9293C12.1474 11.0588 12.0006 11.1883 11.8625 11.3264C11.8366 11.3523 11.8107 11.3782 11.7848 11.4041C11.6553 11.5336 11.5258 11.6718 11.4049 11.8099C11.379 11.8444 11.3531 11.8703 11.3272 11.9049C11.2063 12.0516 11.0854 12.1984 10.9732 12.3452C10.9646 12.3538 10.9559 12.3711 10.9473 12.3797C10.8437 12.5265 10.7401 12.6733 10.6365 12.8287C10.6192 12.8546 10.5933 12.8891 10.576 12.915C10.4983 13.0445 10.4206 13.174 10.3516 13.3036H14.1764H14.185L17.7162 12.4315Z" fill="#BBBCBD"/>
<path d="M20.9524 12.1467C20.9611 12.0431 20.9697 11.9481 20.9697 11.8445C20.9783 11.7063 20.9783 11.5768 20.987 11.4387C20.987 11.3351 20.987 11.2315 20.987 11.1192C20.987 11.0847 20.987 11.0588 20.987 11.0243C20.987 10.748 20.9697 10.4803 20.9611 10.2041C20.9611 10.2041 20.9524 10.2041 20.9524 10.1954C20.9524 10.1954 20.9438 10.1954 20.9438 10.1868C20.892 10.1609 20.7711 10.0918 20.6589 10.0227H20.6502C20.6243 10.0055 20.5984 9.9882 20.5725 9.97957C20.5553 9.97094 20.538 9.95367 20.5207 9.94503L20.5121 9.9364C20.4948 9.92777 20.4776 9.91913 20.4689 9.9105C20.2963 9.81553 20.1149 9.73782 19.9336 9.66012C19.5019 9.47881 18.9148 9.31477 18.5781 9.23706V9.47017V9.52198V9.53924C18.5781 9.69465 18.5781 9.84143 18.5781 9.84143L19.4156 12.4143C19.5019 12.492 19.5797 12.587 19.6315 12.6906C19.6487 12.7251 19.666 12.7597 19.6833 12.7942C19.7005 12.8287 19.7178 12.8633 19.7264 12.9064C19.7351 12.941 19.7523 12.9841 19.761 13.0187C19.7696 13.0619 19.7782 13.0964 19.7782 13.1396C19.7869 13.1827 19.7869 13.2259 19.7869 13.2691V13.2777H20.8057C20.8747 12.9064 20.9265 12.5266 20.9524 12.1467C20.9524 12.1553 20.9524 12.1639 20.9524 12.1467Z" fill="#E2DDDB"/>
<path d="M19.7865 16.9813C20.0196 16.7482 20.2355 16.5324 20.4427 16.3165C20.5636 16.187 20.6844 16.0575 20.8053 15.9366C21.6601 15.0128 22.2817 14.1408 22.6616 13.027C22.6702 13.0011 22.6789 12.9666 22.6875 12.9234C22.6875 12.9148 22.6875 12.9148 22.6875 12.9062C22.6961 12.863 22.7048 12.8198 22.7134 12.768C22.7134 12.7335 22.722 12.6989 22.722 12.6644C22.6271 12.1809 22.4457 11.7061 22.2817 11.2398C22.2817 11.2398 22.2817 11.2398 22.2817 11.2485C22.2817 11.2485 22.2817 11.2485 22.2731 11.2398C22.2385 11.2139 22.2126 11.1794 22.1781 11.1535C22.0831 11.0672 21.9881 10.9808 21.8845 10.8945C21.5824 10.6441 21.2715 10.411 20.9435 10.2124C20.9607 10.4887 20.9694 10.7563 20.9694 11.0326C20.9694 11.0672 20.9694 11.0931 20.9694 11.1276C20.9694 11.2312 20.9694 11.3348 20.9694 11.447C20.9694 11.5852 20.9607 11.7233 20.9521 11.8528C20.9435 11.9564 20.9435 12.0514 20.9348 12.155C20.9348 12.1636 20.9348 12.1723 20.9348 12.1896C20.9003 12.5694 20.8571 12.9493 20.788 13.3206L20.6672 13.8904C20.4168 14.9092 19.9074 15.8244 19.493 16.7741C19.3807 17.0245 19.2771 17.2835 19.1822 17.5425C19.1735 17.5684 19.1649 17.5943 19.1562 17.6202C19.2858 17.4821 19.4066 17.3612 19.493 17.2749C19.6052 17.1626 19.6915 17.0677 19.7865 16.9813Z" fill="#FBB040"/>
<path d="M17.7344 12.4318C17.7862 12.38 17.8466 12.3369 17.9071 12.2937C17.9675 12.2505 18.0366 12.216 18.1056 12.1901C18.1056 12.1901 18.1056 12.1901 18.1143 12.1901C18.1833 12.1642 18.2524 12.1383 18.3301 12.1297H18.3387C18.4164 12.1124 18.4942 12.1038 18.5719 12.1038C18.6496 12.1038 18.7273 12.1124 18.805 12.1297C18.805 12.1297 18.805 12.1297 18.8136 12.1297C18.8913 12.1469 18.9604 12.1642 19.0295 12.1987C19.1676 12.2592 19.2971 12.3369 19.4093 12.4491L18.5719 9.87622L17.7344 12.4318Z" fill="#909393"/>
<path d="M17.4416 13.7783C17.4157 13.7092 17.3898 13.6315 17.3726 13.5538C17.3726 13.5538 17.3726 13.5538 17.3726 13.5452C17.3553 13.4675 17.3467 13.3898 17.3467 13.312C17.3467 13.2689 17.3467 13.2257 17.3553 13.1825C17.3553 13.1739 17.3553 13.1653 17.3639 13.1566C17.3639 13.1221 17.3726 13.0962 17.3812 13.0617C17.3812 13.053 17.3898 13.0444 17.3898 13.0358C17.3985 13.0012 17.4071 12.9753 17.4157 12.9408C17.4157 12.9322 17.4244 12.9322 17.4244 12.9235C17.433 12.889 17.4503 12.8545 17.4589 12.8286C17.4589 12.8286 17.4589 12.8199 17.4675 12.8199C17.4848 12.7854 17.5021 12.7508 17.5193 12.7163C17.5798 12.6127 17.6575 12.5177 17.7438 12.4314L14.2039 13.3034H14.1953L17.7007 14.1582C17.5884 14.0546 17.5021 13.9251 17.4416 13.7783Z" fill="#676A6A"/>
<path d="M25.3894 13.1136C25.3894 13.0963 25.3981 13.0791 25.3981 13.0704C25.4067 13.0186 25.4153 12.9668 25.4326 12.9237C25.4326 12.915 25.4326 12.915 25.4326 12.9064L25.8902 10.7911V9.58237C25.5103 9.27155 25.1131 9.09888 24.6901 9.09888C24.1548 9.09888 23.6627 9.39243 23.2914 9.75505C22.8856 10.1522 22.5748 10.653 22.3158 11.1537C22.3072 11.1796 22.2899 11.1969 22.2812 11.2228C22.359 11.2919 22.4367 11.3609 22.5144 11.43C22.687 11.5854 22.8597 11.7495 23.0238 11.9135C23.1015 11.9912 23.1792 12.0689 23.2569 12.1466C23.3346 12.233 23.4209 12.3107 23.4986 12.397C23.6022 12.5092 23.7058 12.6128 23.8008 12.7251C23.844 12.7683 23.8871 12.8201 23.9303 12.8632C24.0512 13.0014 24.1721 13.1309 24.2929 13.269C24.3102 13.2863 24.3275 13.3036 24.3361 13.3122H25.3808C25.3808 13.3036 25.3808 13.2949 25.3808 13.2863C25.3808 13.2345 25.3808 13.174 25.3894 13.1136Z" fill="#E2DDDB"/>
<path d="M9.72358 14.642C9.72358 14.6334 9.73221 14.6247 9.73221 14.6161C9.80128 14.4434 9.87036 14.2707 9.94806 14.0981C9.96533 14.0463 9.99123 14.0031 10.0171 13.9599C10.0776 13.8218 10.1466 13.6923 10.2157 13.5628C10.2416 13.511 10.2675 13.4592 10.302 13.3987C10.3193 13.3728 10.3366 13.3383 10.3538 13.3124C10.4316 13.1829 10.5006 13.0534 10.5783 12.9239C10.5956 12.898 10.6215 12.8634 10.6388 12.8375C10.7337 12.6821 10.8373 12.5353 10.9496 12.3886C10.9582 12.3799 10.9669 12.3627 10.9755 12.354C11.0877 12.1986 11.2086 12.0518 11.3295 11.9137C11.3554 11.8792 11.3813 11.8533 11.4072 11.8187C11.5281 11.6806 11.6576 11.5424 11.7871 11.4129C11.813 11.387 11.8389 11.3611 11.8648 11.3352C12.0029 11.1971 12.1411 11.0676 12.2965 10.9381C12.8749 8.98683 14.6621 7.56224 16.7688 7.56224C17.6149 7.56224 18.461 7.80399 19.1863 8.25295C19.9288 8.71054 20.5331 9.37535 20.9217 10.1438C20.9217 10.1438 20.9217 10.1524 20.9303 10.1524C20.9389 10.1697 20.9476 10.1869 20.9648 10.2128C21.2929 10.4114 21.6037 10.6445 21.9059 10.8949C22.0095 10.9812 22.1045 11.0676 22.1995 11.1539C22.234 11.1798 22.2599 11.2144 22.2944 11.2403C22.3031 11.2144 22.3117 11.1971 22.329 11.1712C22.6225 9.29765 23.4514 7.94213 24.427 7.94213C25.1609 7.94213 25.8171 8.71055 26.2142 9.89338V9.90201C26.3265 10.0229 26.4387 10.161 26.5509 10.3078C26.5509 10.3078 26.5509 10.3164 26.5596 10.3164C26.5682 10.3337 26.5682 10.351 26.5768 10.3682L26.5596 10.3078C25.3422 6.71613 21.9491 4.12598 17.943 4.12598C12.9181 4.12598 8.85156 8.19251 8.85156 13.2174C8.85156 14.2103 9.00697 15.16 9.30052 16.0493C9.30052 16.0493 9.30052 16.0493 9.30052 16.0407C9.36096 15.773 9.43003 15.5054 9.50773 15.2464C9.5768 15.0391 9.64587 14.8406 9.72358 14.642Z" fill="#525353"/>
<path d="M26.6946 13.3208L26.3752 13.6748C26.3665 13.718 26.3493 13.7611 26.332 13.8043C26.332 13.813 26.3234 13.8216 26.3147 13.8389C26.3061 13.8648 26.2888 13.8993 26.2716 13.9252C26.2629 13.9425 26.2543 13.9511 26.2457 13.9684C26.2284 13.9856 26.2198 14.0115 26.2025 14.0288C26.1852 14.0547 26.1593 14.0806 26.1334 14.0979C26.1248 14.1065 26.1162 14.1151 26.1075 14.1238C26.0903 14.141 26.073 14.1497 26.0557 14.1583C26.0471 14.1583 26.0384 14.1669 26.0298 14.1669C25.9866 14.1928 25.9348 14.2015 25.883 14.2015C25.5981 14.2015 25.365 13.8043 25.365 13.3036H24.3203C24.5189 13.528 24.7088 13.7525 24.8901 13.9856L24.8988 13.9943C25.0801 14.2187 25.2614 14.4432 25.4427 14.6677C25.4513 14.6763 25.46 14.6936 25.4686 14.7022C25.6413 14.9181 25.8053 15.1339 25.9694 15.3498C25.9866 15.367 26.0039 15.3929 26.0212 15.4102C26.1939 15.6433 26.3665 15.8764 26.5392 16.1009C26.5392 16.1009 26.5392 16.1009 26.5392 16.1096C26.8414 15.2203 27.0054 14.2792 27.0141 13.2949L26.6946 13.3208Z" fill="white"/>
<path d="M16.5636 9.11595C16.5895 9.11595 16.6068 9.11595 16.6327 9.10731C16.7967 9.09868 16.9608 9.09005 17.1248 9.09005C17.617 9.09005 18.1005 9.14185 18.5667 9.23682C18.5667 9.23682 18.5667 9.23682 18.5667 9.24545C18.5667 9.24545 18.5667 9.25409 18.5667 9.26272C18.5667 9.27136 18.5667 9.27999 18.5667 9.29726C18.5667 9.30589 18.5667 9.31453 18.5667 9.33179C18.5667 9.34906 18.5667 9.36633 18.5667 9.3836C18.5667 9.39223 18.5667 9.4095 18.5667 9.41813C18.5667 9.4354 18.5667 9.45267 18.5667 9.46993V9.23682C18.8948 9.31453 19.4819 9.47857 19.9222 9.65988C20.1035 9.73758 20.2848 9.82392 20.4575 9.91026C20.4661 9.91026 20.4834 9.91889 20.5007 9.93616C20.5007 9.93616 20.5093 9.93616 20.5093 9.9448C20.5266 9.95343 20.5438 9.96206 20.5611 9.97933C20.587 9.9966 20.6129 10.0052 20.6388 10.0225H20.6474C20.7597 10.0829 20.8806 10.1606 20.9324 10.1865C20.941 10.1865 20.941 10.1952 20.941 10.1952L20.9496 10.2038C20.941 10.1865 20.9324 10.1693 20.9151 10.1434C20.9151 10.1434 20.9151 10.1347 20.9065 10.1347C20.5179 9.3577 19.9049 8.69289 19.1711 8.24393C18.4458 7.8036 17.5997 7.55322 16.7536 7.55322C14.6469 7.55322 12.8597 8.97781 12.2812 10.9291C12.8338 10.4542 13.4468 10.057 14.103 9.76349C14.8887 9.40086 15.7262 9.18502 16.5636 9.11595Z" fill="black"/>
<path d="M23.3029 9.76397C23.6742 9.40135 24.1663 9.1078 24.7016 9.1078C25.1247 9.1078 25.5305 9.28047 25.9017 9.59129C25.9362 9.61719 25.9708 9.65173 26.0053 9.67763C26.0226 9.6949 26.0485 9.71216 26.0658 9.72943C26.1176 9.78123 26.1694 9.83304 26.2212 9.89347V9.88484C25.8154 8.70201 25.1678 7.93359 24.434 7.93359C23.4583 7.93359 22.6295 9.28047 22.3359 11.1626C22.5777 10.6619 22.8971 10.1611 23.3029 9.76397Z" fill="black"/>
<path d="M14.6914 21.7044C14.7777 21.7389 14.8554 21.7648 14.9418 21.7907C15.8829 22.1188 16.893 22.3001 17.9463 22.3001C19.1464 22.3001 20.2947 22.067 21.3394 21.6439C21.3912 21.618 21.4517 21.6008 21.5035 21.5749C21.5898 21.5403 21.6848 21.4972 21.7711 21.454C21.8488 21.4195 21.9265 21.3849 22.0042 21.3417C21.987 21.3417 21.9697 21.3504 21.9524 21.3504C21.6244 21.3849 21.3049 21.3936 20.9854 21.3417C19.1119 21.0741 18.6975 20.1675 18.7579 19.2351C18.6198 19.1574 18.4903 19.071 18.3435 18.9674C16.9016 17.9227 16.0469 16.809 16.0469 16.809C16.0469 16.809 17.1607 17.6637 18.8184 18.3113C18.8529 18.3285 18.8874 18.3372 18.922 18.3544C18.9997 18.0868 19.0946 17.8278 19.1723 17.6033C19.181 17.5774 19.1896 17.5515 19.1982 17.5256C19.2932 17.2666 19.3968 17.0076 19.5091 16.7572C19.9235 15.8075 20.4329 14.8836 20.6833 13.8735L20.8041 13.3036H19.7853V13.3123C19.7853 13.485 19.7508 13.6404 19.6904 13.7871C19.6558 13.8562 19.6213 13.9339 19.5781 13.9944C19.4918 14.1239 19.3796 14.2361 19.25 14.3224C19.181 14.3656 19.1119 14.4001 19.0428 14.4347C18.8961 14.4951 18.732 14.5297 18.568 14.5297C18.5248 14.5297 18.4816 14.5296 18.4385 14.521C18.4298 14.521 18.4212 14.521 18.4126 14.5124C18.378 14.5124 18.3521 14.5037 18.3176 14.4951C18.309 14.4951 18.3003 14.4865 18.2917 14.4865C18.2572 14.4778 18.2313 14.4692 18.1967 14.4606C18.1881 14.4606 18.1881 14.4606 18.1794 14.4519C18.1449 14.4433 18.1104 14.426 18.0845 14.4174H18.0758C18.0413 14.4001 18.0068 14.3829 17.9722 14.3656C17.8686 14.3052 17.7737 14.2361 17.6873 14.1411L14.182 13.2864H10.3572C10.3399 13.3123 10.3227 13.3468 10.3054 13.3727C10.2795 13.4245 10.245 13.4763 10.2191 13.5368C10.15 13.6663 10.0809 13.8044 10.0205 13.9339C9.99457 13.9771 9.9773 14.0289 9.9514 14.0721C9.8737 14.2447 9.80463 14.4174 9.73556 14.5901C9.73556 14.5987 9.72692 14.6074 9.72692 14.616C9.64922 14.8146 9.58015 15.0218 9.51971 15.229C9.44201 15.488 9.37294 15.7557 9.3125 16.0233C9.91687 17.8623 11.0824 19.4423 12.6193 20.5474C12.6624 20.582 12.7142 20.6079 12.7574 20.6424C13.0164 20.8237 13.2841 20.9964 13.5603 21.1432C13.923 21.3676 14.3029 21.549 14.6914 21.7044Z" fill="white"/>
<path d="M20.9656 18.8724C20.9484 18.9674 20.9397 19.0624 20.9397 19.1573C20.9311 19.3214 20.9484 19.4854 20.9743 19.6322C20.9916 19.7358 21.0088 19.8308 21.0347 19.9257C21.0779 20.0639 21.1211 20.1934 21.1815 20.3143C21.2419 20.4351 21.3024 20.5474 21.3628 20.6424C21.3801 20.6769 21.406 20.7114 21.4232 20.7373C21.4578 20.7805 21.4837 20.8237 21.5182 20.8668C21.5614 20.9186 21.6046 20.9704 21.6391 21.0136C21.8031 21.2036 21.9413 21.3072 21.9413 21.3072C21.9413 21.3072 21.9413 21.3072 21.9413 21.3158C21.9413 21.3244 21.9413 21.3331 21.9499 21.3417C21.9672 21.3417 21.9844 21.3331 22.0017 21.3331C22.4075 21.2813 22.8133 21.169 23.2191 21.0309C23.4263 20.9532 23.6335 20.8755 23.8321 20.7891C23.8925 20.7632 23.953 20.7287 24.0134 20.7028C26.0941 19.6926 27.8382 17.9141 27.8382 17.9141C25.2308 19.2005 22.6665 19.1487 20.9656 18.8724Z" fill="#9F2255"/>
<path d="M25.9772 15.3671C25.8132 15.1512 25.6405 14.9354 25.4764 14.7195C25.4678 14.7109 25.4592 14.6936 25.4505 14.685C25.2692 14.4605 25.0879 14.236 24.9066 14.0115L24.898 14.0029C24.708 13.7698 24.5181 13.5453 24.3281 13.3208C24.3195 13.3036 24.3022 13.2949 24.2936 13.2777C24.1727 13.1395 24.0519 13.01 23.931 12.8719C23.8878 12.8287 23.8446 12.7769 23.8015 12.7337C23.6979 12.6215 23.6029 12.5179 23.4993 12.4056C23.4216 12.3193 23.3352 12.2416 23.2575 12.1553C23.1798 12.0776 23.1021 11.9999 23.0244 11.9222C22.8604 11.7581 22.6877 11.5941 22.515 11.4387C22.4373 11.3696 22.3596 11.3005 22.2819 11.2314C22.446 11.7063 22.6359 12.1812 22.7309 12.6733C22.7568 12.8028 22.774 12.9237 22.7913 13.0446C23.0244 14.7454 22.4719 15.8592 21.6085 17.3269C21.548 17.4305 21.479 17.5428 21.4185 17.6464C21.22 17.9745 21.0904 18.2939 21.0214 18.5875C20.9955 18.6824 20.9782 18.7774 20.9609 18.8724C22.6618 19.1487 25.2174 19.2005 27.8335 17.914C27.8335 17.914 27.3241 17.1629 26.547 16.1268C26.3744 15.8937 26.2017 15.6606 26.029 15.4361C26.0117 15.4102 25.9945 15.3843 25.9772 15.3671Z" fill="#E2066F"/>
<path d="M21.936 21.3243C21.936 21.3243 21.8065 21.2207 21.6338 21.0307C21.5906 20.9875 21.5561 20.9357 21.5129 20.8839C21.4784 20.8408 21.4525 20.7976 21.4179 20.7544C21.4007 20.7199 21.3748 20.694 21.3575 20.6595C21.2971 20.5559 21.2366 20.4523 21.1762 20.3314C21.1244 20.2105 21.0726 20.081 21.0294 19.9429C21.0035 19.8479 20.9776 19.7529 20.969 19.6493C20.9431 19.5025 20.9344 19.3385 20.9344 19.1744C20.9344 19.0795 20.9431 18.9845 20.9604 18.8895C20.9776 18.7946 20.9949 18.6996 21.0208 18.6046C21.0985 18.3111 21.2194 18.0002 21.4179 17.6635C21.4784 17.5513 21.5475 17.4477 21.6079 17.3441C22.4713 15.8763 23.0238 14.7712 22.7907 13.0617C22.7735 12.9408 22.7562 12.8113 22.7303 12.6904C22.7217 12.7768 22.7044 12.8545 22.6871 12.9149C22.6871 12.9235 22.6871 12.9235 22.6871 12.9322C22.6785 12.9753 22.6698 13.0099 22.6612 13.0358C22.2813 14.1495 21.6597 15.0216 20.8049 15.9454C20.6927 16.0749 20.5718 16.1958 20.4423 16.3253C20.2351 16.5411 20.0106 16.7656 19.7861 16.9901C19.6912 17.0851 19.5962 17.1714 19.5012 17.2664C19.4149 17.3527 19.294 17.4736 19.1645 17.6117C19.0868 17.8362 18.9918 18.0952 18.9141 18.3629C18.8796 18.3456 18.8451 18.337 18.8105 18.3197C17.1528 17.6808 16.0391 16.8174 16.0391 16.8174C16.0391 16.8174 16.8938 17.9312 18.3357 18.9759C18.4738 19.0795 18.6119 19.1658 18.7501 19.2435C18.6897 20.1846 19.1041 21.0825 20.9776 21.3502C21.2971 21.3933 21.6165 21.3933 21.9446 21.3588C21.9446 21.3415 21.936 21.3329 21.936 21.3243Z" fill="black"/>
</g>
<defs>
<clipPath id="clip0_11825_16381">
<rect width="164" height="27" fill="white"/>
</clipPath>
</defs>
</svg>
