<svg width="410" height="118" viewBox="0 0 410 118" fill="none" xmlns="http://www.w3.org/2000/svg">
<path d="M88.11 22.86C88.0783 22.6179 87.9591 22.3958 87.7749 22.2355C87.5906 22.0752 87.3542 21.9879 87.11 21.99C86.71 21.99 77.95 21.32 77.95 21.32C77.95 21.32 71.86 15.24 71.12 14.63C70.7614 14.3887 70.352 14.2335 69.9236 14.1762C69.4952 14.119 69.0594 14.1613 68.65 14.3C68.58 14.3 67.31 14.7 65.24 15.37C63.16 9.37 59.62 3.99999 53.24 3.99999H52.64C51.9755 3.03253 51.1002 2.2284 50.08 1.64814C49.0597 1.06788 47.9212 0.726601 46.75 0.649994C32.04 0.649994 24.95 19.05 22.75 28.41C17 30.22 12.92 31.41 12.45 31.62C9.24001 32.62 9.17001 32.69 8.77001 35.7C8.44001 37.98 0.0700073 102.7 0.0700073 102.7L65.16 114.88L100.48 107.25C100.56 107.08 88.18 23.46 88.11 22.86ZM52.19 18.58V19.25C48.58 20.39 44.77 21.52 40.82 22.79C43.03 14.37 47.24 10.22 50.72 8.67999C51.8006 11.8649 52.2986 15.2185 52.19 18.58ZM46.44 4.57999C47.1189 4.59792 47.7742 4.83271 48.31 5.24999C43.56 7.45999 38.55 13.01 36.47 24.25C33.33 25.25 30.32 26.12 27.47 27.06C29.85 18.45 35.87 4.52999 46.44 4.52999V4.57999ZM49 54.3C46.3556 52.9969 43.4574 52.2903 40.51 52.23C33.62 52.23 33.28 56.57 33.28 57.64C33.28 63.53 48.67 65.81 48.67 79.64C48.67 90.55 41.78 97.57 32.48 97.57C21.24 97.57 15.62 90.57 15.62 90.57L18.62 80.67C18.62 80.67 24.51 85.76 29.46 85.76C30.0578 85.7899 30.6553 85.6976 31.2162 85.4887C31.777 85.2797 32.2893 84.9586 32.7218 84.5448C33.1542 84.1311 33.4977 83.6335 33.7313 83.0824C33.9648 82.5314 34.0835 81.9385 34.08 81.34C34.08 73.65 21.5 73.34 21.5 60.6C21.5 49.97 29.13 39.67 44.58 39.67C50.33 39.6 53.27 41.34 53.27 41.34L49 54.3ZM56.16 18.05V16.84C56.2395 13.8176 55.7859 10.8049 54.82 7.93999C58.17 8.34999 60.24 12.02 61.64 16.31C60 16.77 58.08 17.38 56.14 18.05H56.16Z" fill="#95BF47"/>
<path d="M87.11 21.86C86.71 21.86 77.95 21.19 77.95 21.19C77.95 21.19 71.86 15.1 71.12 14.5C70.8939 14.2574 70.5813 14.1137 70.25 14.1L65.37 114.84L100.69 107.21C100.69 107.21 88.31 23.46 88.25 22.86C88.1436 22.6208 87.9866 22.4075 87.7898 22.2349C87.5929 22.0622 87.361 21.9343 87.11 21.86Z" fill="#5E8E3E"/>
<path d="M141.69 65.67C138.15 63.8 136.34 62.13 136.34 59.92C136.34 57.11 138.88 55.3 142.83 55.3C145.824 55.364 148.777 56.0022 151.53 57.18L154.74 47.34C154.74 47.34 151.74 45.07 143.1 45.07C130.99 45.07 122.56 52.07 122.56 61.79C122.56 67.34 126.51 71.56 131.73 74.57C136.01 76.91 137.48 78.65 137.48 81.19C137.48 83.73 135.34 85.94 131.39 85.94C127.427 85.7765 123.548 84.7529 120.02 82.94L116.61 92.77C116.61 92.77 121.69 96.18 130.26 96.18C142.7 96.18 151.73 90.03 151.73 78.99C151.59 73 147.11 68.82 141.69 65.67ZM191.33 44.94C185.17 44.94 180.33 47.88 176.68 52.29L176.54 52.23L181.9 24.4H168.05L154.54 95.3H168.38L173 71.09C174.81 61.93 179.55 56.24 184 56.24C187.14 56.24 188.35 58.38 188.35 61.39C188.378 63.4559 188.177 65.5186 187.75 67.54L182.5 95.3H196.34L201.76 66.68C202.36 63.682 202.695 60.6368 202.76 57.58C202.69 49.58 198.61 44.94 191.32 44.94H191.33ZM234.07 44.94C217.35 44.94 206.31 59.99 206.31 76.78C206.31 87.48 212.93 96.17 225.38 96.17C241.76 96.17 252.8 81.53 252.8 64.33C252.87 54.37 247.11 44.94 234.07 44.94ZM227.25 85.61C222.5 85.61 220.56 81.61 220.56 76.51C220.56 68.51 224.64 55.64 232.2 55.64C237.08 55.64 238.75 59.92 238.75 64C238.75 72.49 234.54 85.61 227.25 85.61ZM288.32 44.94C278.96 44.94 273.67 53.23 273.67 53.23H273.54L274.34 45.81H262C261.4 50.81 260.26 58.51 259.19 64.2L249.66 115H263.5L267.38 94.47H267.72C270.215 95.76 273.003 96.3803 275.81 96.27C292.13 96.27 302.81 79.55 302.81 62.69C302.7 53.3 298.49 44.94 288.32 44.94ZM275.08 85.74C272.973 85.7659 270.928 85.0309 269.32 83.67L271.6 70.76C273.2 62.06 277.75 56.37 282.6 56.37C286.88 56.37 288.15 60.32 288.15 64C288.22 73 282.86 85.74 275.15 85.74H275.08ZM322.5 25.07C320.378 25.07 318.343 25.9129 316.843 27.4132C315.343 28.9134 314.5 30.9483 314.5 33.07C314.5 37.15 317.11 40.07 321.06 40.07H321.19C322.257 40.116 323.322 39.9412 324.318 39.5566C325.315 39.172 326.221 38.5859 326.98 37.835C327.74 37.084 328.336 36.1844 328.732 35.1924C329.127 34.2004 329.314 33.1375 329.28 32.07C329.353 31.1509 329.23 30.2266 328.919 29.3588C328.607 28.491 328.114 27.6996 327.472 27.0373C326.831 26.375 326.056 25.8569 325.198 25.5177C324.341 25.1785 323.421 25.0259 322.5 25.07ZM303.1 95.24H317L326.31 46H312.4M361.63 45.93H352L352.47 43.65C353.27 38.91 356.08 34.76 360.76 34.76C362.263 34.7624 363.756 35.0089 365.18 35.49L367.85 24.59C367.85 24.59 365.51 23.39 360.3 23.39C355.369 23.2638 350.555 24.8982 346.72 28C341.97 32 339.72 37.83 338.72 43.72L338.32 46H331.8L329.73 56.5H336.21L328.86 95.29H342.7L350.06 56.5H359.63L361.63 45.93ZM395 46C395 46 386.31 67.87 382.49 79.84H382.36C382.1 76 379 46 379 46H364.38L372.74 91.08C372.917 91.8525 372.796 92.6634 372.4 93.35C370.595 96.711 368 99.5832 364.84 101.72C362.411 103.403 359.754 104.729 356.95 105.66L360.83 117.44C365.912 116.082 370.578 113.484 374.41 109.88C380.7 103.99 386.58 94.88 392.6 82.38L409.53 45.93H395V46Z" fill="black"/>
</svg>
