<svg width="410" height="118" viewBox="0 0 410 118" fill="none" xmlns="http://www.w3.org/2000/svg">
<g clip-path="url(#clip0_11825_16226)">
<path d="M88.1103 22.8599C88.0786 22.6178 87.9594 22.3957 87.7752 22.2354C87.5909 22.0751 87.3545 21.9878 87.1103 21.9899C86.7103 21.9899 77.9503 21.3199 77.9503 21.3199C77.9503 21.3199 71.8603 15.2399 71.1203 14.6299C70.7617 14.3886 70.3523 14.2334 69.9239 14.1761C69.4955 14.1189 69.0597 14.1612 68.6503 14.2999C68.5803 14.2999 67.3103 14.6999 65.2403 15.3699C63.1603 9.36991 59.6203 3.9999 53.2403 3.9999H52.6403C51.9758 3.03244 51.1005 2.22831 50.0803 1.64805C49.06 1.06779 47.9215 0.726509 46.7503 0.649902C32.0403 0.649902 24.9503 19.0499 22.7503 28.4099C17.0003 30.2199 12.9203 31.4099 12.4503 31.6199C9.24031 32.6199 9.17032 32.6899 8.77032 35.6999C8.44032 37.9799 0.0703125 102.7 0.0703125 102.7L65.1603 114.88L100.48 107.25C100.56 107.08 88.1803 23.4599 88.1103 22.8599ZM52.1903 18.5799V19.2499C48.5803 20.3899 44.7703 21.5199 40.8203 22.7899C43.0303 14.3699 47.2403 10.2199 50.7203 8.6799C51.8009 11.8648 52.2989 15.2184 52.1903 18.5799ZM46.4403 4.5799C47.1192 4.59783 47.7745 4.83262 48.3103 5.2499C43.5603 7.4599 38.5503 13.0099 36.4703 24.2499C33.3303 25.2499 30.3203 26.1199 27.4703 27.0599C29.8503 18.4499 35.8703 4.5299 46.4403 4.5299V4.5799ZM49.0003 54.2999C46.3559 52.9968 43.4577 52.2902 40.5103 52.2299C33.6203 52.2299 33.2803 56.5699 33.2803 57.6399C33.2803 63.5299 48.6703 65.8099 48.6703 79.6399C48.6703 90.5499 41.7803 97.5699 32.4803 97.5699C21.2403 97.5699 15.6203 90.5699 15.6203 90.5699L18.6203 80.6699C18.6203 80.6699 24.5103 85.7599 29.4603 85.7599C30.0581 85.7898 30.6556 85.6975 31.2165 85.4886C31.7773 85.2796 32.2896 84.9585 32.7221 84.5447C33.1545 84.131 33.498 83.6334 33.7316 83.0823C33.9651 82.5313 34.0838 81.9384 34.0803 81.3399C34.0803 73.6499 21.5003 73.3399 21.5003 60.5999C21.5003 49.9699 29.1303 39.6699 44.5803 39.6699C50.3303 39.5999 53.2703 41.3399 53.2703 41.3399L49.0003 54.2999ZM56.1603 18.0499V16.8399C56.2398 13.8175 55.7862 10.8048 54.8203 7.9399C58.1703 8.3499 60.2403 12.0199 61.6403 16.3099C60.0003 16.7699 58.0803 17.3799 56.1403 18.0499H56.1603Z" fill="#95BF47"/>
<path d="M87.1072 21.8601C86.7072 21.8601 77.9472 21.1901 77.9472 21.1901C77.9472 21.1901 71.8572 15.1001 71.1172 14.5001C70.8911 14.2575 70.5785 14.1138 70.2472 14.1001L65.3672 114.84L100.687 107.21C100.687 107.21 88.3072 23.4601 88.2472 22.8601C88.1408 22.6209 87.9838 22.4076 87.787 22.235C87.5901 22.0623 87.3582 21.9344 87.1072 21.8601Z" fill="#5E8E3E"/>
<path d="M141.689 65.6701C138.149 63.8001 136.339 62.1301 136.339 59.9201C136.339 57.1101 138.879 55.3001 142.829 55.3001C145.823 55.3641 148.776 56.0023 151.529 57.1801L154.739 47.3401C154.739 47.3401 151.739 45.0701 143.099 45.0701C130.989 45.0701 122.559 52.0701 122.559 61.7901C122.559 67.3401 126.509 71.5601 131.729 74.5701C136.009 76.9101 137.479 78.6501 137.479 81.1901C137.479 83.7301 135.339 85.9401 131.389 85.9401C127.426 85.7766 123.547 84.753 120.019 82.9401L116.609 92.7701C116.609 92.7701 121.689 96.1801 130.259 96.1801C142.699 96.1801 151.729 90.0301 151.729 78.9901C151.589 73.0001 147.109 68.8201 141.689 65.6701ZM191.329 44.9401C185.169 44.9401 180.329 47.8801 176.679 52.2901L176.539 52.2301L181.899 24.4001H168.049L154.539 95.3001H168.379L172.999 71.0901C174.809 61.9301 179.549 56.2401 183.999 56.2401C187.139 56.2401 188.349 58.3801 188.349 61.3901C188.377 63.456 188.176 65.5187 187.749 67.5401L182.499 95.3001H196.339L201.759 66.6801C202.359 63.6821 202.694 60.6369 202.759 57.5801C202.689 49.5801 198.609 44.9401 191.319 44.9401H191.329ZM234.069 44.9401C217.349 44.9401 206.309 59.9901 206.309 76.7801C206.309 87.4801 212.929 96.1701 225.379 96.1701C241.759 96.1701 252.799 81.5301 252.799 64.3301C252.869 54.3701 247.109 44.9401 234.069 44.9401ZM227.249 85.6101C222.499 85.6101 220.559 81.6101 220.559 76.5101C220.559 68.5101 224.639 55.6401 232.199 55.6401C237.079 55.6401 238.749 59.9201 238.749 64.0001C238.749 72.4901 234.539 85.6101 227.249 85.6101ZM288.319 44.9401C278.959 44.9401 273.669 53.2301 273.669 53.2301H273.539L274.339 45.8101H261.999C261.399 50.8101 260.259 58.5101 259.189 64.2001L249.659 115H263.499L267.379 94.4701H267.719C270.214 95.7601 273.002 96.3804 275.809 96.2701C292.129 96.2701 302.809 79.5501 302.809 62.6901C302.699 53.3001 298.489 44.9401 288.319 44.9401ZM275.079 85.7401C272.972 85.766 270.927 85.031 269.319 83.6701L271.599 70.7601C273.199 62.0601 277.749 56.3701 282.599 56.3701C286.879 56.3701 288.149 60.3201 288.149 64.0001C288.219 73.0001 282.859 85.7401 275.149 85.7401H275.079ZM322.499 25.0701C320.377 25.0701 318.342 25.913 316.842 27.4133C315.342 28.9135 314.499 30.9484 314.499 33.0701C314.499 37.1501 317.109 40.0701 321.059 40.0701H321.189C322.256 40.1161 323.321 39.9413 324.317 39.5567C325.314 39.1721 326.22 38.586 326.979 37.8351C327.739 37.0841 328.335 36.1845 328.731 35.1925C329.126 34.2005 329.313 33.1376 329.279 32.0701C329.352 31.151 329.229 30.2267 328.918 29.3589C328.606 28.4911 328.113 27.6997 327.471 27.0374C326.83 26.3751 326.055 25.857 325.197 25.5178C324.34 25.1786 323.42 25.026 322.499 25.0701ZM303.099 95.2401H316.999L326.309 46.0001H312.399M361.629 45.9301H351.999L352.469 43.6501C353.269 38.9101 356.079 34.7601 360.759 34.7601C362.262 34.7625 363.755 35.009 365.179 35.4901L367.849 24.5901C367.849 24.5901 365.509 23.3901 360.299 23.3901C355.368 23.2639 350.554 24.8983 346.719 28.0001C341.969 32.0001 339.719 37.8301 338.719 43.7201L338.319 46.0001H331.799L329.729 56.5001H336.209L328.859 95.2901H342.699L350.059 56.5001H359.629L361.629 45.9301ZM394.999 46.0001C394.999 46.0001 386.309 67.8701 382.489 79.8401H382.359C382.099 76.0001 378.999 46.0001 378.999 46.0001H364.379L372.739 91.0801C372.916 91.8526 372.795 92.6635 372.399 93.3501C370.594 96.7111 367.999 99.5833 364.839 101.72C362.41 103.403 359.753 104.729 356.949 105.66L360.829 117.44C365.911 116.082 370.577 113.484 374.409 109.88C380.699 103.99 386.579 94.8801 392.599 82.3801L409.529 45.9301H394.999V46.0001Z" fill="white"/>
</g>
<defs>
<clipPath id="clip0_11825_16226">
<rect width="410" height="118" fill="white"/>
</clipPath>
</defs>
</svg>
