<svg width="331" height="163" viewBox="0 0 331 163" fill="none" xmlns="http://www.w3.org/2000/svg">
<g clip-path="url(#clip0_11825_16235)">
<path d="M149 129.66H132V131.47C137.33 131.47 138.19 132.61 138.19 139.38V151.57C138.19 158.34 137.33 159.57 132 159.57C127.9 158.99 125.14 156.8 121.33 152.57L116.95 147.81C122.85 146.76 125.95 143.04 125.95 138.81C125.95 133.57 121.47 129.57 113.08 129.57H96.3203V131.38C101.65 131.38 102.51 132.52 102.51 139.29V151.48C102.51 158.25 101.65 159.48 96.3203 159.48V161.29H115.32V159.48C109.98 159.48 109.12 158.24 109.12 151.48V148.05H110.74L121.32 161.3H149C162.63 161.3 168.53 154.06 168.53 145.38C168.53 136.7 162.63 129.66 149 129.66ZM109.08 145.19V132.52H113C117.29 132.52 119.19 135.47 119.19 138.9C119.19 142.33 117.29 145.19 113 145.19H109.08ZM149.29 158.43H148.62C145.19 158.43 144.72 157.58 144.72 153.19V132.52H149.29C159.2 132.52 161.01 139.76 161.01 145.38C161 151.19 159.2 158.43 149.29 158.43Z" fill="#00749A"/>
<path d="M43.25 148.71L49.83 129.28C51.73 123.66 50.83 122.04 44.83 122.04V120.13H62.74V122C56.74 122 55.31 123.43 52.93 130.38L42 163H40.77L31.05 133.17L21.15 163H19.91L9.34 130.42C7.05 123.47 5.53 122 0 122V120.09H21.15V122C15.53 122 14 123.33 16 129.24L22.39 148.67L32 120.13H33.81L43.25 148.71Z" fill="#00749A"/>
<path d="M75.6406 162.62C65.1606 162.62 56.6406 154.91 56.6406 145.47C56.6406 136.03 65.2206 128.42 75.6406 128.42C86.0606 128.42 94.7006 136.14 94.7006 145.47C94.7006 154.8 86.1206 162.62 75.6406 162.62ZM75.6406 131.38C66.8806 131.38 63.8306 139.28 63.8306 145.47C63.8306 151.66 66.8306 159.58 75.6406 159.58C84.4506 159.58 87.5506 151.76 87.5506 145.47C87.5506 139.18 84.5006 131.38 75.6406 131.38Z" fill="#00749A"/>
<path d="M192.06 159.48V161.39H170.25V159.48C176.63 159.48 177.77 157.86 177.77 148.33V133.09C177.77 123.56 176.63 122.04 170.25 122.04V120.13H190C199.81 120.13 205.24 125.18 205.24 131.95C205.24 138.52 199.81 143.66 190 143.66H184.57V148.33C184.54 157.86 185.68 159.48 192.06 159.48ZM190 123.56H184.57V140.14H190C195.33 140.14 197.81 136.42 197.81 131.95C197.81 127.48 195.3 123.56 190 123.56Z" fill="white"/>
<path d="M270.658 152.43L270.188 154.14C269.328 157.29 268.278 158.43 261.518 158.43H260.178C255.228 158.43 254.368 157.29 254.368 150.52V146.14C261.798 146.14 262.368 146.81 262.368 151.76H264.178V137.57H262.368C262.368 142.57 261.798 143.19 254.368 143.19V132.52H259.608C266.378 132.52 267.418 133.66 268.278 136.81L268.758 138.61H270.278L269.618 129.61H241.618V131.42C246.958 131.42 247.818 132.56 247.818 139.33V151.52C247.818 157.71 247.088 159.27 242.878 159.52C238.878 158.91 236.138 156.73 232.378 152.6L227.998 147.86C233.908 146.81 236.998 143.09 236.998 138.86C236.998 133.62 232.528 129.62 224.138 129.62H207.398V131.43C212.738 131.43 213.598 132.57 213.598 139.34V151.53C213.598 158.3 212.738 159.53 207.398 159.53V161.34H226.398V159.53C221.068 159.53 220.208 158.29 220.208 151.53V148.1H221.828L232.408 161.35H271.558L272.128 152.35L270.658 152.43ZM220.168 145.19V132.52H224.078C228.358 132.52 230.268 135.47 230.268 138.9C230.268 142.33 228.358 145.19 224.078 145.19H220.168Z" fill="white"/>
<path d="M290.004 162.62C286.866 162.526 283.849 161.386 281.434 159.38C280.645 160.305 280.117 161.423 279.904 162.62H278.094V149.48H280.004C280.764 155.76 285.144 159.48 290.764 159.48C293.814 159.48 296.294 157.77 296.294 154.91C296.294 152.43 294.104 150.52 290.194 148.71L284.764 146.14C280.954 144.33 278.094 141.19 278.094 137C278.094 132.42 282.384 128.52 288.294 128.52C290.977 128.489 293.593 129.359 295.724 130.99C296.361 130.261 296.789 129.373 296.964 128.42H298.774V139.66H296.774C296.104 135.19 293.624 131.47 288.574 131.47C285.914 131.47 283.434 132.99 283.434 135.38C283.434 137.77 285.434 139.19 290.004 141.28L295.244 143.86C299.824 146.05 301.634 149.57 301.634 152.43C301.634 158.43 296.394 162.62 290.004 162.62Z" fill="white"/>
<path d="M319.348 162.62C316.206 162.528 313.185 161.387 310.767 159.38C309.982 160.306 309.457 161.424 309.247 162.62H307.438V149.48H309.337C310.097 155.76 314.487 159.48 320.107 159.48C323.157 159.48 325.628 157.77 325.628 154.91C325.628 152.43 323.438 150.52 319.538 148.71L314.107 146.14C310.287 144.33 307.438 141.19 307.438 137C307.438 132.42 311.718 128.52 317.628 128.52C320.311 128.489 322.926 129.359 325.057 130.99C325.694 130.261 326.122 129.373 326.297 128.42H328.107V139.66H326.107C325.437 135.19 322.968 131.47 317.918 131.47C315.248 131.47 312.767 132.99 312.767 135.38C312.767 137.77 314.768 139.19 319.348 141.28L324.577 143.86C329.157 146.05 330.967 149.57 330.967 152.43C330.997 158.43 325.728 162.62 319.348 162.62Z" fill="white"/>
<path d="M123.32 49.7C123.319 57.6169 125.547 65.3742 129.749 72.084C133.951 78.7938 139.957 84.1848 147.08 87.64L127 32.54C124.579 37.937 123.325 43.7847 123.32 49.7Z" fill="white"/>
<path d="M193.997 47.5701C193.937 43.4459 192.732 39.4195 190.517 35.9401C188.377 32.4701 186.377 29.5301 186.377 26.0501C186.329 24.1206 187.046 22.2504 188.373 20.8487C189.7 19.4469 191.528 18.6277 193.457 18.5701C193.637 18.5701 193.817 18.5701 193.997 18.5701C189.494 14.4499 184.15 11.3563 178.335 9.50297C172.519 7.64967 166.371 7.08084 160.314 7.83579C154.257 8.59074 148.437 10.6515 143.254 13.8756C138.072 17.0998 133.651 21.4105 130.297 26.5101C131.297 26.5101 132.227 26.5101 133.017 26.5101C137.427 26.5101 144.247 25.9801 144.247 25.9801C144.707 25.9443 145.163 26.0927 145.513 26.3928C145.864 26.6929 146.081 27.1199 146.117 27.5801C146.153 28.0403 146.004 28.4958 145.704 28.8465C145.404 29.1972 144.977 29.4143 144.517 29.4501C144.517 29.4501 142.237 29.7201 139.697 29.8501L154.997 75.6001L164.227 47.9301L157.657 29.9301C155.387 29.8001 153.237 29.5301 153.237 29.5301C150.967 29.3901 151.237 25.9201 153.507 26.0501C153.507 26.0501 160.507 26.5901 164.607 26.5901C169.017 26.5901 175.847 26.0501 175.847 26.0501C176.289 26.0485 176.715 26.2141 177.04 26.5136C177.364 26.813 177.564 27.2243 177.598 27.6647C177.632 28.1052 177.499 28.5422 177.224 28.8882C176.949 29.2342 176.554 29.4635 176.117 29.5301C176.117 29.5301 173.827 29.8001 171.287 29.9301L186.527 75.2501L190.737 61.2501C192.557 55.3701 193.997 51.1801 193.997 47.5701Z" fill="white"/>
<path d="M166.22 53.3799L153.57 90.1399C162.063 92.6434 171.128 92.409 179.48 89.4699C179.366 89.2841 179.266 89.0902 179.18 88.8899L166.22 53.3799Z" fill="white"/>
<path d="M202.48 29.47C202.67 30.9055 202.763 32.352 202.76 33.8C202.687 38.9969 201.6 44.1295 199.56 48.91L186.68 86.14C196.176 80.6125 203.14 71.598 206.091 61.0143C209.041 50.4306 207.746 39.1132 202.48 29.47Z" fill="white"/>
<path d="M165.478 0.550049C155.757 0.550049 146.254 3.43265 138.172 8.83332C130.089 14.2339 123.789 21.9101 120.069 30.8911C116.349 39.8721 115.376 49.7545 117.272 59.2887C119.169 68.8229 123.85 77.5805 130.724 84.4543C137.597 91.3281 146.355 96.0091 155.889 97.9056C165.423 99.8021 175.306 98.8287 184.287 95.1087C193.268 91.3886 200.944 85.0889 206.345 77.0063C211.745 68.9236 214.628 59.421 214.628 49.7C214.612 36.6695 209.429 24.1772 200.215 14.9632C191.001 5.74932 178.508 0.565927 165.478 0.550049ZM165.478 96.55C156.202 96.55 147.134 93.7991 139.421 88.6452C131.708 83.4914 125.697 76.166 122.147 67.5956C118.598 59.0251 117.669 49.5946 119.48 40.4966C121.29 31.3986 125.758 23.0418 132.318 16.4832C138.878 9.92452 147.236 5.45852 156.334 3.65001C165.433 1.84149 174.863 2.77169 183.433 6.32298C192.002 9.87426 199.327 15.8871 204.479 23.601C209.631 31.315 212.38 40.3836 212.378 49.66C212.375 62.1006 207.434 74.0313 198.64 82.831C189.846 91.6306 177.919 96.5794 165.478 96.59V96.55Z" fill="white"/>
</g>
<defs>
<clipPath id="clip0_11825_16235">
<rect width="331" height="163" fill="white"/>
</clipPath>
</defs>
</svg>
