<svg width="331" height="163" viewBox="0 0 331 163" fill="none" xmlns="http://www.w3.org/2000/svg">
<path d="M149 129.66H132V131.47C137.33 131.47 138.19 132.61 138.19 139.38V151.57C138.19 158.34 137.33 159.57 132 159.57C127.9 158.99 125.14 156.8 121.33 152.57L116.95 147.81C122.85 146.76 125.95 143.04 125.95 138.81C125.95 133.57 121.47 129.57 113.08 129.57H96.3201V131.38C101.65 131.38 102.51 132.52 102.51 139.29V151.48C102.51 158.25 101.65 159.48 96.3201 159.48V161.29H115.32V159.48C109.98 159.48 109.12 158.24 109.12 151.48V148.05H110.74L121.32 161.3H149C162.63 161.3 168.53 154.06 168.53 145.38C168.53 136.7 162.63 129.66 149 129.66ZM109.08 145.19V132.52H113C117.29 132.52 119.19 135.47 119.19 138.9C119.19 142.33 117.29 145.19 113 145.19H109.08ZM149.29 158.43H148.62C145.19 158.43 144.72 157.58 144.72 153.19V132.52H149.29C159.2 132.52 161.01 139.76 161.01 145.38C161 151.19 159.2 158.43 149.29 158.43Z" fill="#00749A"/>
<path d="M43.25 148.71L49.83 129.28C51.73 123.66 50.83 122.04 44.83 122.04V120.13H62.74V122C56.74 122 55.31 123.43 52.93 130.38L42 163H40.77L31.05 133.17L21.15 163H19.91L9.34 130.42C7.05 123.47 5.53 122 0 122V120.09H21.15V122C15.53 122 14 123.33 16 129.24L22.39 148.67L32 120.13H33.81L43.25 148.71Z" fill="#00749A"/>
<path d="M75.64 162.62C65.16 162.62 56.64 154.91 56.64 145.47C56.64 136.03 65.22 128.42 75.64 128.42C86.06 128.42 94.7 136.14 94.7 145.47C94.7 154.8 86.12 162.62 75.64 162.62ZM75.64 131.38C66.88 131.38 63.83 139.28 63.83 145.47C63.83 151.66 66.83 159.58 75.64 159.58C84.45 159.58 87.55 151.76 87.55 145.47C87.55 139.18 84.5 131.38 75.64 131.38Z" fill="#00749A"/>
<path d="M192.06 159.48V161.39H170.25V159.48C176.63 159.48 177.77 157.86 177.77 148.33V133.09C177.77 123.56 176.63 122.04 170.25 122.04V120.13H190C199.81 120.13 205.24 125.18 205.24 131.95C205.24 138.52 199.81 143.66 190 143.66H184.57V148.33C184.54 157.86 185.68 159.48 192.06 159.48ZM190 123.56H184.57V140.14H190C195.33 140.14 197.81 136.42 197.81 131.95C197.81 127.48 195.3 123.56 190 123.56Z" fill="#464342"/>
<path d="M270.66 152.43L270.19 154.14C269.33 157.29 268.28 158.43 261.52 158.43H260.18C255.23 158.43 254.37 157.29 254.37 150.52V146.14C261.8 146.14 262.37 146.81 262.37 151.76H264.18V137.57H262.37C262.37 142.57 261.8 143.19 254.37 143.19V132.52H259.61C266.38 132.52 267.42 133.66 268.28 136.81L268.76 138.61H270.28L269.62 129.61H241.62V131.42C246.96 131.42 247.82 132.56 247.82 139.33V151.52C247.82 157.71 247.09 159.27 242.88 159.52C238.88 158.91 236.14 156.73 232.38 152.6L228 147.86C233.91 146.81 237 143.09 237 138.86C237 133.62 232.53 129.62 224.14 129.62H207.4V131.43C212.74 131.43 213.6 132.57 213.6 139.34V151.53C213.6 158.3 212.74 159.53 207.4 159.53V161.34H226.4V159.53C221.07 159.53 220.21 158.29 220.21 151.53V148.1H221.83L232.41 161.35H271.56L272.13 152.35L270.66 152.43ZM220.17 145.19V132.52H224.08C228.36 132.52 230.27 135.47 230.27 138.9C230.27 142.33 228.36 145.19 224.08 145.19H220.17Z" fill="#464342"/>
<path d="M290 162.62C286.862 162.526 283.845 161.386 281.43 159.38C280.641 160.305 280.113 161.423 279.9 162.62H278.09V149.48H280C280.76 155.76 285.14 159.48 290.76 159.48C293.81 159.48 296.29 157.77 296.29 154.91C296.29 152.43 294.1 150.52 290.19 148.71L284.76 146.14C280.95 144.33 278.09 141.19 278.09 137C278.09 132.42 282.38 128.52 288.29 128.52C290.973 128.489 293.589 129.359 295.72 130.99C296.357 130.261 296.785 129.373 296.96 128.42H298.77V139.66H296.77C296.1 135.19 293.62 131.47 288.57 131.47C285.91 131.47 283.43 132.99 283.43 135.38C283.43 137.77 285.43 139.19 290 141.28L295.24 143.86C299.82 146.05 301.63 149.57 301.63 152.43C301.63 158.43 296.39 162.62 290 162.62Z" fill="#464342"/>
<path d="M319.35 162.62C316.208 162.528 313.188 161.387 310.77 159.38C309.985 160.306 309.46 161.424 309.25 162.62H307.44V149.48H309.34C310.1 155.76 314.49 159.48 320.11 159.48C323.16 159.48 325.63 157.77 325.63 154.91C325.63 152.43 323.44 150.52 319.54 148.71L314.11 146.14C310.29 144.33 307.44 141.19 307.44 137C307.44 132.42 311.72 128.52 317.63 128.52C320.313 128.489 322.929 129.359 325.06 130.99C325.697 130.261 326.125 129.373 326.3 128.42H328.11V139.66H326.11C325.44 135.19 322.97 131.47 317.92 131.47C315.25 131.47 312.77 132.99 312.77 135.38C312.77 137.77 314.77 139.19 319.35 141.28L324.58 143.86C329.16 146.05 330.97 149.57 330.97 152.43C331 158.43 325.73 162.62 319.35 162.62Z" fill="#464342"/>
<path d="M123.32 49.7C123.319 57.6169 125.547 65.3742 129.749 72.084C133.951 78.7938 139.957 84.1848 147.08 87.64L127 32.54C124.579 37.937 123.325 43.7847 123.32 49.7Z" fill="#464342"/>
<path d="M194 47.57C193.94 43.4458 192.735 39.4194 190.52 35.94C188.38 32.47 186.38 29.53 186.38 26.05C186.332 24.1205 187.049 22.2503 188.376 20.8486C189.703 19.4468 191.531 18.6276 193.46 18.57C193.64 18.57 193.82 18.57 194 18.57C189.497 14.4498 184.153 11.3562 178.338 9.50285C172.522 7.64955 166.374 7.08072 160.317 7.83567C154.26 8.59062 148.44 10.6514 143.257 13.8755C138.075 17.0997 133.654 21.4104 130.3 26.51C131.3 26.51 132.23 26.51 133.02 26.51C137.43 26.51 144.25 25.98 144.25 25.98C144.71 25.9442 145.166 26.0926 145.516 26.3927C145.867 26.6928 146.084 27.1198 146.12 27.58C146.156 28.0402 146.007 28.4957 145.707 28.8464C145.407 29.1971 144.98 29.4142 144.52 29.45C144.52 29.45 142.24 29.72 139.7 29.85L155 75.6L164.23 47.93L157.66 29.93C155.39 29.8 153.24 29.53 153.24 29.53C150.97 29.39 151.24 25.92 153.51 26.05C153.51 26.05 160.51 26.59 164.61 26.59C169.02 26.59 175.85 26.05 175.85 26.05C176.292 26.0484 176.718 26.214 177.043 26.5135C177.367 26.8129 177.567 27.2242 177.601 27.6646C177.635 28.1051 177.502 28.5421 177.227 28.8881C176.952 29.2341 176.557 29.4634 176.12 29.53C176.12 29.53 173.83 29.8 171.29 29.93L186.53 75.25L190.74 61.25C192.56 55.37 194 51.18 194 47.57Z" fill="#464342"/>
<path d="M166.22 53.38L153.57 90.14C162.063 92.6435 171.128 92.4091 179.48 89.47C179.366 89.2842 179.266 89.0903 179.18 88.89L166.22 53.38Z" fill="#464342"/>
<path d="M202.48 29.47C202.67 30.9055 202.763 32.352 202.76 33.8C202.687 38.9969 201.6 44.1295 199.56 48.91L186.68 86.14C196.176 80.6125 203.14 71.598 206.091 61.0143C209.041 50.4306 207.746 39.1132 202.48 29.47Z" fill="#464342"/>
<path d="M165.48 0.550003C155.759 0.550003 146.256 3.4326 138.174 8.83327C130.091 14.2339 123.791 21.9101 120.071 30.8911C116.351 39.8721 115.378 49.7545 117.274 59.2887C119.171 68.8229 123.852 77.5805 130.726 84.4543C137.599 91.3281 146.357 96.0091 155.891 97.9056C165.425 99.8021 175.308 98.8287 184.289 95.1087C193.27 91.3886 200.946 85.0889 206.347 77.0063C211.747 68.9236 214.63 59.421 214.63 49.7C214.614 36.6695 209.431 24.1772 200.217 14.9632C191.003 5.74927 178.51 0.565881 165.48 0.550003ZM165.48 96.55C156.204 96.55 147.136 93.7991 139.423 88.6452C131.71 83.4914 125.699 76.166 122.149 67.5956C118.6 59.0251 117.671 49.5946 119.482 40.4966C121.292 31.3986 125.76 23.0418 132.32 16.4832C138.88 9.92447 147.238 5.45847 156.336 3.64996C165.435 1.84144 174.865 2.77164 183.435 6.32293C192.004 9.87421 199.329 15.8871 204.481 23.601C209.633 31.315 212.382 40.3836 212.38 49.66C212.377 62.1006 207.436 74.0313 198.642 82.831C189.848 91.6306 177.921 96.5794 165.48 96.59V96.55Z" fill="#464342"/>
</svg>
