<svg width="28" height="28" viewBox="0 0 28 28" fill="none" xmlns="http://www.w3.org/2000/svg">
<g clip-path="url(#clip0_818_12200)">
<path d="M4.71875 3C4.26291 3 3.82574 3.18108 3.50341 3.50341C3.18108 3.82574 3 4.26291 3 4.71875L3 23.2812C3 23.7371 3.18108 24.1743 3.50341 24.4966C3.82574 24.8189 4.26291 25 4.71875 25H23.2812C23.7371 25 24.1743 24.8189 24.4966 24.4966C24.8189 24.1743 25 23.7371 25 23.2812V4.71875C25 4.26291 24.8189 3.82574 24.4966 3.50341C24.1743 3.18108 23.7371 3 23.2812 3H4.71875Z" fill="#E62E04"/>
<path d="M9.05006 10.3743C9.13428 10.718 9.08684 11.0893 9.16968 11.4389C9.45843 11.2274 9.65093 10.8785 9.6114 10.5152C9.60556 9.86482 8.87406 9.35504 8.26184 9.57401C7.87684 9.68401 7.59221 10.0295 7.52759 10.4196C7.45059 10.8665 7.71906 11.3237 8.11815 11.5279C8.07862 11.1429 7.98615 10.7373 8.08962 10.3605C8.24775 9.95007 8.90397 9.95832 9.05006 10.3743ZM20.4412 10.8404C20.5815 10.3358 20.2762 9.75069 19.7757 9.58913C19.2945 9.40007 18.6988 9.64069 18.4867 10.1096C18.2502 10.5437 18.3932 11.1614 18.8256 11.4158C18.9109 11.0673 18.848 10.6939 18.9494 10.3554C19.1109 9.95076 19.7589 9.96245 19.9064 10.3725C20.0002 10.739 19.9153 11.124 19.8799 11.4939C20.1735 11.4031 20.3567 11.1226 20.4409 10.8414L20.4412 10.8404Z" fill="#B32100"/>
<path d="M18.9498 10.3548C18.8481 10.6968 18.911 11.067 18.8261 11.4153C18.5745 12.9278 17.5618 14.2794 16.1905 14.9569C15.508 15.3004 14.7543 15.4788 13.9902 15.4779C13.2261 15.4769 12.4729 15.2966 11.7912 14.9514C10.4327 14.2756 9.42795 12.9353 9.16979 11.439C9.08729 11.089 9.13404 10.7216 9.05017 10.3744C8.90442 9.96189 8.24786 9.94986 8.08973 10.3606C7.98661 10.7408 8.07942 11.1434 8.11826 11.528C8.40701 13.398 9.65826 15.0772 11.3536 15.9108C12.1328 16.2963 12.9868 16.5067 13.8559 16.5272C14.7249 16.5478 15.5879 16.378 16.3844 16.0298C18.2176 15.2381 19.5882 13.4702 19.8814 11.4923C19.9168 11.1224 20.0017 10.737 19.9075 10.371C19.7597 9.96086 19.1121 9.94951 18.9502 10.3538L18.9498 10.3548Z" fill="white"/>
<path d="M4.71875 3C4.26291 3 3.82574 3.18108 3.50341 3.50341C3.18108 3.82574 3 4.26291 3 4.71875L3 7.98438C3 7.52853 3.18108 7.09136 3.50341 6.76904C3.82574 6.44671 4.26291 6.26562 4.71875 6.26562H23.2812C23.7371 6.26562 24.1743 6.44671 24.4966 6.76904C24.8189 7.09136 25 7.52853 25 7.98438V4.71875C25 4.26291 24.8189 3.82574 24.4966 3.50341C24.1743 3.18108 23.7371 3 23.2812 3H4.71875Z" fill="#FF9900"/>
</g>
<defs>
<clipPath id="clip0_818_12200">
<rect width="22" height="22" fill="white" transform="translate(3 3)"/>
</clipPath>
</defs>
</svg>
