<svg width="28" height="28" viewBox="0 0 28 28" fill="none" xmlns="http://www.w3.org/2000/svg">
<g clip-path="url(#clip0_818_12187)">
<path d="M21.9394 20.7617C13.0338 25 7.50694 21.4539 3.969 19.3001C3.75007 19.1644 3.37797 19.3319 3.70082 19.7027C4.87948 21.1318 8.74221 24.5765 13.7842 24.5765C18.8297 24.5765 21.8312 21.8235 22.2067 21.3432C22.5797 20.8671 22.3162 20.6044 21.9393 20.7617H21.9394ZM24.4405 19.3804C24.2013 19.069 22.9863 19.011 22.2216 19.1049C21.4558 19.1961 20.3062 19.6642 20.4061 19.9452C20.4574 20.0505 20.5621 20.0033 21.0882 19.956C21.6158 19.9033 23.0937 19.7168 23.4016 20.1194C23.711 20.5247 22.9303 22.4557 22.7877 22.7672C22.6499 23.0786 22.8403 23.1589 23.0991 22.9515C23.3543 22.7441 23.8164 22.2072 24.1264 21.4473C24.4344 20.6833 24.6223 19.6176 24.4405 19.3804Z" fill="#FF9900"/>
<path fill-rule="evenodd" clip-rule="evenodd" d="M15.9514 12.1135C15.9514 13.2255 15.9795 14.153 15.4174 15.1405C14.9637 15.9436 14.2451 16.4373 13.4422 16.4373C12.3461 16.4373 11.7078 15.6023 11.7078 14.3698C11.7078 11.9368 13.8877 11.4952 15.9514 11.4952V12.1135ZM18.8299 19.0711C18.6412 19.2396 18.3682 19.2517 18.1555 19.1393C17.208 18.3524 17.0393 17.9871 16.5175 17.2363C14.9517 18.8342 13.8436 19.3119 11.8122 19.3119C9.41137 19.3119 7.54047 17.8304 7.54047 14.8636C7.54047 12.5471 8.79715 10.9693 10.5836 10.1985C12.1333 9.51591 14.2973 9.39549 15.9514 9.20685V8.83746C15.9514 8.15894 16.0035 7.35601 15.6061 6.7699C15.2568 6.24395 14.5904 6.02714 14.0042 6.02714C12.9162 6.02714 11.9446 6.58516 11.7078 7.7414C11.6595 7.9984 11.4709 8.25135 11.214 8.26337L8.44376 7.96633C8.21095 7.91403 7.95403 7.7254 8.01826 7.36803C8.65659 4.01178 11.6876 3 14.4016 3C15.7907 3 17.6053 3.36939 18.7014 4.42128C20.0905 5.718 19.958 7.44834 19.958 9.33125V13.7796C19.958 15.1165 20.512 15.7026 21.0339 16.4253C21.2186 16.6822 21.2588 16.9915 21.0259 17.1841C20.4437 17.6698 19.4079 18.5732 18.8379 19.0791L18.8298 19.0711" fill="black"/>
<path d="M21.9394 20.7617C13.0338 25 7.50694 21.4539 3.969 19.3001C3.75007 19.1644 3.37797 19.3319 3.70082 19.7027C4.87948 21.1318 8.74221 24.5765 13.7842 24.5765C18.8297 24.5765 21.8312 21.8235 22.2067 21.3432C22.5797 20.8671 22.3162 20.6044 21.9393 20.7617H21.9394ZM24.4405 19.3804C24.2013 19.069 22.9863 19.011 22.2216 19.1049C21.4558 19.1961 20.3062 19.6642 20.4061 19.9452C20.4574 20.0505 20.5621 20.0033 21.0882 19.956C21.6158 19.9033 23.0937 19.7168 23.4016 20.1194C23.711 20.5247 22.9303 22.4557 22.7877 22.7672C22.6499 23.0786 22.8403 23.1589 23.0991 22.9515C23.3543 22.7441 23.8164 22.2072 24.1264 21.4473C24.4344 20.6833 24.6223 19.6176 24.4405 19.3804Z" fill="#FF9900"/>
<path fill-rule="evenodd" clip-rule="evenodd" d="M15.9514 12.1135C15.9514 13.2255 15.9795 14.153 15.4174 15.1405C14.9637 15.9436 14.2451 16.4373 13.4422 16.4373C12.3461 16.4373 11.7078 15.6023 11.7078 14.3698C11.7078 11.9368 13.8877 11.4952 15.9514 11.4952V12.1135ZM18.8299 19.0711C18.6412 19.2396 18.3682 19.2517 18.1555 19.1393C17.208 18.3524 17.0393 17.9871 16.5175 17.2363C14.9517 18.8342 13.8436 19.3119 11.8122 19.3119C9.41137 19.3119 7.54047 17.8304 7.54047 14.8636C7.54047 12.5471 8.79715 10.9693 10.5836 10.1985C12.1333 9.51591 14.2973 9.39549 15.9514 9.20685V8.83746C15.9514 8.15894 16.0035 7.35601 15.6061 6.7699C15.2568 6.24395 14.5904 6.02714 14.0042 6.02714C12.9162 6.02714 11.9446 6.58516 11.7078 7.7414C11.6595 7.9984 11.4709 8.25135 11.214 8.26337L8.44376 7.96633C8.21095 7.91403 7.95403 7.7254 8.01826 7.36803C8.65659 4.01178 11.6876 3 14.4016 3C15.7907 3 17.6053 3.36939 18.7014 4.42128C20.0905 5.718 19.958 7.44834 19.958 9.33125V13.7796C19.958 15.1165 20.512 15.7026 21.0339 16.4253C21.2186 16.6822 21.2588 16.9915 21.0259 17.1841C20.4437 17.6698 19.4079 18.5732 18.8379 19.0791L18.8298 19.0711" fill="black"/>
</g>
<defs>
<clipPath id="clip0_818_12187">
<rect width="22" height="22" fill="white" transform="translate(3 3)"/>
</clipPath>
</defs>
</svg>
