<svg width="50" height="50" viewBox="0 0 50 50" fill="none" xmlns="http://www.w3.org/2000/svg">
<path d="M17.5625 9.03125C15.3535 9.03125 13.373 10.25 12.2305 12.0781C11.1641 13.9824 11.1641 16.3438 12.2305 18.1719C13.373 20.0762 15.3535 21.2188 17.5625 21.2188C19.6953 21.2188 21.6758 20.0762 22.8184 18.1719C23.8848 16.3438 23.8848 13.9824 22.8184 12.0781C21.6758 10.25 19.6953 9.03125 17.5625 9.03125ZM17.5625 24.875C14.0586 24.875 10.8594 23.0469 9.10742 20C7.35547 17.0293 7.35547 13.2969 9.10742 10.25C10.8594 7.2793 14.0586 5.375 17.5625 5.375C20.9902 5.375 24.1895 7.2793 25.9414 10.25C27.6934 13.2969 27.6934 17.0293 25.9414 20C24.1895 23.0469 20.9902 24.875 17.5625 24.875ZM14.0586 32.1875C9.03125 32.1875 4.91797 35.9199 4.23242 40.7188H30.8164C30.1309 35.9199 26.0176 32.1875 20.9902 32.1875H14.0586ZM14.0586 28.5312H20.9902C28.5312 28.5312 34.625 34.625 34.625 42.166C34.625 43.3848 33.5586 44.375 32.3398 44.375H2.70898C1.49023 44.375 0.5 43.3848 0.5 42.166C0.5 34.625 6.51758 28.5312 14.0586 28.5312ZM46.8887 44.375H36.4531C36.834 43.7656 37.0625 43.0039 37.0625 42.166C37.0625 37.2148 34.7773 32.7969 31.2734 29.8262C31.5781 29.8262 31.8828 29.75 32.2637 29.75H36.9102C43.6895 29.75 49.25 35.3105 49.25 42.0898C49.25 43.3848 48.1836 44.375 46.8887 44.375ZM33.4062 24.875C31.0449 24.875 28.9121 23.9609 27.3125 22.4375C28.8359 20.3809 29.75 17.8672 29.75 15.125C29.75 13.1445 29.2168 11.1641 28.3027 9.48828C29.75 8.49805 31.502 7.8125 33.4062 7.8125C38.0527 7.8125 41.9375 11.6973 41.9375 16.3438C41.9375 21.0664 38.0527 24.875 33.4062 24.875Z" fill="#202223"/>
</svg>
