<svg width="50" height="50" viewBox="0 0 50 50" fill="none" xmlns="http://www.w3.org/2000/svg">
<mask id="mask0_1_3" style="mask-type:luminance" maskUnits="userSpaceOnUse" x="0" y="0" width="50" height="50">
<path d="M50 0H0V50H50V0Z" fill="white"/>
</mask>
<g mask="url(#mask0_1_3)">
<mask id="mask1_1_3" style="mask-type:luminance" maskUnits="userSpaceOnUse" x="3" y="3" width="44" height="44">
<path d="M47 3H3V47H47V3Z" fill="white"/>
</mask>
<g mask="url(#mask1_1_3)">
<path d="M39.3847 13.2574C39.3847 12.9103 39.3165 12.5667 39.1838 12.246C39.051 11.9254 38.8565 11.6341 38.6111 11.3886C38.3658 11.1432 38.0745 10.9485 37.7539 10.8157C37.4333 10.6829 37.0897 10.6146 36.7426 10.6146C36.0417 10.6146 35.3693 10.8929 34.8736 11.3885C34.3779 11.8841 34.0992 12.5563 34.099 13.2574C34.1001 13.9576 34.3792 14.6288 34.8749 15.1235C35.3706 15.6181 36.0424 15.8958 36.7426 15.8953C37.4427 15.8955 38.1142 15.6178 38.6096 15.1231C39.105 14.6284 39.3838 13.9574 39.3847 13.2574Z" fill="url(#paint0_linear_1_3)"/>
<path d="M42.9048 33.8884C42.8873 35.2829 42.6323 36.6642 42.1506 37.9729C41.7967 38.9287 41.2324 39.7927 40.4994 40.5008C39.7924 41.2326 38.9288 41.7945 37.9732 42.1439C36.6636 42.6301 35.2805 42.8886 33.8838 42.908C31.5647 43.0098 30.8772 43.0319 24.9955 43.0319C19.1137 43.0319 18.4272 43.0098 16.1073 42.908C14.7132 42.8884 13.3327 42.63 12.026 42.1439C11.0702 41.7949 10.2059 41.2336 9.49815 40.5024C8.76423 39.7958 8.20092 38.9313 7.85103 37.9746C7.3666 36.6665 7.11143 35.2848 7.09674 33.8901C6.9834 31.571 6.963 30.873 6.963 25.0018C6.963 19.1307 6.9834 18.4286 7.09674 16.1095C7.11238 14.713 7.36751 13.3295 7.85103 12.0193C8.20057 11.0623 8.76388 10.1978 9.49815 9.49144C10.2071 8.76045 11.0709 8.19784 12.026 7.84513C13.3338 7.36013 14.715 7.10307 16.1098 7.08511C18.4289 6.98318 19.1211 6.95709 24.998 6.95709C30.8748 6.95709 31.5663 6.98318 33.8862 7.08511C35.2827 7.10322 36.6659 7.36027 37.9755 7.84513C38.9309 8.1976 39.7948 8.76033 40.5035 9.49144C41.2367 10.1993 41.8012 11.0634 42.1547 12.0193C42.6354 13.3302 42.8905 14.7132 42.9089 16.1095C43.0167 18.4286 43.0427 19.1209 43.0427 25.0018C43.0427 30.8827 43.0167 31.5685 42.9089 33.8901L42.9048 33.8884ZM46.8654 15.9293C46.8313 14.1029 46.4843 12.2958 45.8397 10.5866C45.2905 9.11668 44.4252 7.78529 43.3053 6.68636C42.2061 5.56914 40.8773 4.70412 39.4108 4.15119C37.7007 3.51023 35.8939 3.16606 34.068 3.13352C31.7237 3.02018 30.9751 3.00305 24.9972 3.00305C19.0192 3.00305 18.2706 3.02344 15.9254 3.13678C14.1001 3.17041 12.2936 3.51426 10.5835 4.15363C9.11952 4.70811 7.79283 5.57297 6.69473 6.68881C5.57519 7.78835 4.70842 9.11832 4.15465 10.5866C3.51495 12.2972 3.16789 14.1033 3.12802 15.9293C3.02609 18.2745 3 19.0247 3 25.0027C3 30.9806 3.02609 31.7234 3.12802 34.0711C3.16955 35.8958 3.51656 37.7006 4.15465 39.4105C4.70828 40.8779 5.57509 42.2069 6.69473 43.305C7.79236 44.4226 9.11905 45.2892 10.5835 45.8452C12.2941 46.4834 14.1001 46.8284 15.9254 46.8661C18.2706 46.9737 19.0241 46.9997 24.9972 46.9997C30.9702 46.9997 31.7237 46.9737 34.068 46.8661C35.8936 46.8297 37.6997 46.4845 39.4099 45.8452C40.877 45.2908 42.2058 44.424 43.3045 43.305C44.4242 42.2081 45.2894 40.8787 45.8389 39.4105C46.4823 37.7021 46.8299 35.8964 46.8662 34.0711C46.974 31.7259 47 30.9765 47 25.0043C47 19.032 46.974 18.2762 46.8662 15.9309L46.8654 15.9293Z" fill="url(#paint1_linear_1_3)"/>
<path d="M24.9972 32.3296C23.0533 32.3302 21.1888 31.5587 19.8136 30.1846C18.4386 28.8106 17.6656 26.9467 17.6648 25.0028C17.6648 23.0575 18.4371 21.1919 19.812 19.8157C21.1869 18.4397 23.0519 17.6657 24.9972 17.664C26.9435 17.664 28.8102 18.4372 30.1865 19.8135C31.5628 21.1898 32.336 23.0565 32.336 25.0028C32.3342 26.9475 31.5599 28.8118 30.1837 30.1858C28.8073 31.5598 26.9419 32.3309 24.9972 32.3296ZM24.9972 13.6985C22.0007 13.7002 19.1277 14.892 17.01 17.0118C14.8922 19.1316 13.7031 22.0057 13.7042 25.002C13.7041 26.4851 13.9961 27.9538 14.5636 29.324C15.1311 30.6942 15.9629 31.9392 17.0116 32.9879C18.0602 34.0367 19.3051 34.8686 20.6753 35.4361C22.0455 36.0036 23.5141 36.2958 24.9972 36.2958C27.9929 36.296 30.8662 35.1064 32.985 32.9885C35.1038 30.8705 36.2947 27.9979 36.2958 25.002C36.2958 22.0049 35.1056 19.1306 32.9868 17.011C30.8681 14.8913 27.9942 13.6997 24.9972 13.6985Z" fill="url(#paint2_linear_1_3)"/>
</g>
</g>
<defs>
<linearGradient id="paint0_linear_1_3" x1="3.40528" y1="46.5553" x2="43.3277" y2="6.60112" gradientUnits="userSpaceOnUse">
<stop stop-color="#FFD521"/>
<stop offset="0.05" stop-color="#FFD521"/>
<stop offset="0.501" stop-color="#F50000"/>
<stop offset="0.95" stop-color="#B900B4"/>
<stop offset="1" stop-color="#B900B4"/>
</linearGradient>
<linearGradient id="paint1_linear_1_3" x1="3.396" y1="46.6039" x2="43.3451" y2="6.60783" gradientUnits="userSpaceOnUse">
<stop stop-color="#FFD521"/>
<stop offset="0.05" stop-color="#FFD521"/>
<stop offset="0.501" stop-color="#F50000"/>
<stop offset="0.95" stop-color="#B900B4"/>
<stop offset="1" stop-color="#B900B4"/>
</linearGradient>
<linearGradient id="paint2_linear_1_3" x1="3.40243" y1="46.6001" x2="43.3771" y2="6.63564" gradientUnits="userSpaceOnUse">
<stop stop-color="#FFD521"/>
<stop offset="0.05" stop-color="#FFD521"/>
<stop offset="0.501" stop-color="#F50000"/>
<stop offset="0.95" stop-color="#B900B4"/>
<stop offset="1" stop-color="#B900B4"/>
</linearGradient>
</defs>
</svg>
