<svg id="Group_1" data-name="Group 1" xmlns="http://www.w3.org/2000/svg" width="24" height="24" viewBox="0 0 24 24">
  <path id="Path_1" data-name="Path 1" d="M0,0H24V24H0Z" fill="none"/>
  <path id="Path_6" data-name="Path 6" d="M-940-516.5v-7l6,3.5-6,3.5Z" transform="translate(950 532)" fill="#fff"/>
  <path id="Path_5" data-name="Path 5" d="M-908.6-491.476a2.81,2.81,0,0,1-1.938-2.022A31.041,31.041,0,0,1-911-499a31.049,31.049,0,0,1,.457-5.5,2.809,2.809,0,0,1,1.938-2.021C-906.893-507-901-507-901-507s5.9,0,7.605.476a2.809,2.809,0,0,1,1.938,2.021A31.049,31.049,0,0,1-891-499a31.041,31.041,0,0,1-.457,5.5,2.814,2.814,0,0,1-1.938,2.022C-895.1-491-901-491-901-491S-906.893-491-908.6-491.476ZM-903-495.5l6-3.5-6-3.5Z" transform="translate(913 511)" fill="red"/>
</svg>
