<svg id="Group_40" data-name="Group 40" xmlns="http://www.w3.org/2000/svg" width="111.197" height="28.428" viewBox="0 0 111.197 28.428">
  <path id="Path_5181" data-name="Path 5181" d="M117.029,264.517V244.365h-8.379v20.152Z" transform="translate(-5.832 -236.757)" fill="#596677"/>
  <path id="Path_5182" data-name="Path 5182" d="M87.231,256.086V244.365H79.109v9a16.63,16.63,0,0,1-.258,3.958c-.566,1.851-2.519,2.674-4.525,2.674-2.777,0-4.062-1.08-4.575-2.777a9.925,9.925,0,0,1-.258-1.8c-.051-.667,0-1.387,0-2.159v-8.893H61.269v11.772a7.726,7.726,0,0,0,2.313,5.912c2.467,2.416,6.631,3.135,10.488,3.135,4.677,0,8.278-.668,10.847-3.186a7.53,7.53,0,0,0,2.314-5.912Z" transform="translate(-20.399 -236.757)" fill="#596677"/>
  <path id="Path_5183" data-name="Path 5183" d="M56.542,256.314H45.357l5.575-9.2,5.61,9.2Zm15.777,9.992-18.508-27.76H43.427l2.87,3.393L30.01,266.306h9.357l2.79-4.575H59.8l2.849,4.575Z" transform="translate(-30.01 -238.546)" fill="#596677"/>
  <path id="Path_5184" data-name="Path 5184" d="M114.354,255.871c0-2.263-.926-4.885-3.8-8.534l-6.94-8.791H93.945l5.5,6.169a19.25,19.25,0,0,0,2.106,1.952,9.159,9.159,0,0,0-4.37-1.079,19.152,19.152,0,0,0-9.3,2.262,9.233,9.233,0,0,0-5.142,8.277,9.562,9.562,0,0,0,2.931,6.786c3.7,3.7,10.435,4.061,12.9,4.061,3.65,0,9.357-.824,12.595-3.754a9.639,9.639,0,0,0,3.188-7.349Zm-8.019.256A5.2,5.2,0,0,1,103.2,260.7a9.878,9.878,0,0,1-4.627.977,10.832,10.832,0,0,1-4.678-1.028,5.231,5.231,0,0,1-3.084-4.422c0-2.21,1.7-3.958,3.7-4.832a9.783,9.783,0,0,1,3.907-.771,11.751,11.751,0,0,1,4.061.669c2.314.977,3.857,2.827,3.857,4.832Z" transform="translate(-13.799 -238.546)" fill="#596677"/>
</svg>
