<svg id="ikea" xmlns="http://www.w3.org/2000/svg" width="114.976" height="38.443" viewBox="0 0 114.976 38.443">
  <path id="Path_5175" data-name="Path 5175" d="M59.288,1.2C27.546,1.2,1.8,9.841,1.8,20.421S27.546,39.643,59.288,39.643,116.776,31,116.776,20.421,91.03,1.2,59.288,1.2Zm-42.5,26.628c.529-.353.529-1.234.529-1.411V13.368a.88.88,0,0,0-.529-.882H27.546a1.323,1.323,0,0,0-.529,1.058V26.593c0,.176,0,1.234.529,1.411Zm28.391,0s.353-.176,0-.882l-3.174-5.467v4.938c0,.176-.176,1.058.529,1.411h-10.4c.529-.353.529-1.234.529-1.411V13.368a1.323,1.323,0,0,0-.529-1.058h10.4a1.323,1.323,0,0,0-.529,1.058v5.114h0l3.527-4.938a.922.922,0,0,0,0-1.234H56.114a3.6,3.6,0,0,0-.882.882l-3.88,5.467,4.938,7.935c.529.529.705.882,1.058,1.058a.546.546,0,0,0,.353.176Zm32.271,0H59.464c.529-.353.529-1.234.529-1.411V13.368a1.323,1.323,0,0,0-.529-1.058H77.275v4.938a2.553,2.553,0,0,0-1.587-.705H69.163v1.234h5.114a2.12,2.12,0,0,0,1.411-.353v4.761c-.176-.353-1.058-.353-1.411-.353H69.163v1.234h6.525a2.553,2.553,0,0,0,1.587-.705v5.467Zm16.576,0a1.491,1.491,0,0,0,.353-1.058l-.705-1.94H89.09l-.705,1.94a.888.888,0,0,0,.176,1.058H79.215a5.342,5.342,0,0,0,.882-1.234l4.938-13.049c.353-.882-.176-1.234-.176-1.234H99.671a1.091,1.091,0,0,0-.176,1.234l5.114,12.873a4.049,4.049,0,0,0,1.058,1.234H94.028Z" transform="translate(-1.8 -1.2)" fill="#596677"/>
  <path id="Path_5176" data-name="Path 5176" d="M53.111,10.9s0,.529-.176.705L51.7,14.427h2.645l-1.234-2.821Z" transform="translate(36.295 6.205)" fill="#596677"/>
</svg>
