<svg id="Pricing-new" xmlns="http://www.w3.org/2000/svg" width="113.117" height="20.289" viewBox="0 0 113.117 20.289">
  <g id="Pricing-logué" transform="translate(0 0)">
    <g id="Group-7" transform="translate(0 0)">
      <g id="Group-17" transform="translate(0 0)">
        <path id="Fill-1" d="M0,3.2V19.738H15.042V17.332H2.707V3.2Z" transform="translate(0 -0.86)" fill="#596677" fill-rule="evenodd"/>
        <path id="Fill-2" d="M38.791,14.554a8.2,8.2,0,0,1-3.05,2.911,8.655,8.655,0,0,1-8.308,0,8.209,8.209,0,0,1-3.05-2.911,7.667,7.667,0,0,1,0-7.978,8.2,8.2,0,0,1,3.05-2.912,8.646,8.646,0,0,1,8.308,0,8.2,8.2,0,0,1,3.05,2.912,7.668,7.668,0,0,1,0,7.978M41.132,5.41a10.744,10.744,0,0,0-4.078-3.7,12.056,12.056,0,0,0-11.078,0A10.746,10.746,0,0,0,21.9,5.41a9.382,9.382,0,0,0,0,10.186,10.746,10.746,0,0,0,4.078,3.7,12.055,12.055,0,0,0,11.078,0,10.744,10.744,0,0,0,4.078-3.7,9.385,9.385,0,0,0,0-10.186" transform="translate(-3.602 -0.359)" fill="#596677" fill-rule="evenodd"/>
        <path id="Fill-4" d="M63.856,10.216a2.619,2.619,0,0,0,.878-2.061,2.883,2.883,0,0,0-.992-2.04A2.932,2.932,0,0,0,61.767,5.6H53.494v5.113h8.273a3.128,3.128,0,0,0,2.089-.5m3.028.113a4.539,4.539,0,0,1-2.14,2.077,3.435,3.435,0,0,1-1.773.489l5.264,6.843H65.227l-5.092-6.617H53.494v6.617H50.787V3.2h10.83a6.466,6.466,0,0,1,3.185.767,4.674,4.674,0,0,1,2.225,2.572,5.558,5.558,0,0,1-.142,3.795" transform="translate(-8.97 -0.86)" fill="#596677" fill-rule="evenodd"/>
        <path id="Fill-6" d="M86.784,10.264V12.52H77.609v4.812H89.943v2.407H74.9V3.2H89.943V5.6H77.609v4.662Z" transform="translate(-13.229 -0.86)" fill="#596677" fill-rule="evenodd"/>
        <path id="Fill-8" d="M103.495,5.854l-3.853,7.568h7.707ZM98.57,15.528l-2.144,4.211H93.718L102.141,3.2h2.707l8.424,16.543h-2.707l-2.144-4.211Z" transform="translate(-16.552 -0.859)" fill="#596677" fill-rule="evenodd"/>
        <path id="Fill-10" d="M134.153,17.332v2.407H119.111V3.2h2.707V17.332Z" transform="translate(-21.037 -0.859)" fill="#596677" fill-rule="evenodd"/>
      </g>
    </g>
  </g>
</svg>
