<svg id="Group_39" data-name="Group 39" xmlns="http://www.w3.org/2000/svg" width="88.073" height="23.459" viewBox="0 0 88.073 23.459">
  <path id="Path_5179" data-name="Path 5179" d="M321.2,385.134c2.875,0,5.527,1.559,5.164,5.446-.43,4.608-2.914,7.175-6.82,7.185h-3.408c-.491,0-.728.4-.856,1.221l-.658,4.194c-.1.633-.424.946-.9.946h-3.173c-.506,0-.683-.323-.57-1.047l2.623-16.812c.129-.827.445-1.134,1.006-1.134Zm-5.169,9h2.585c1.616-.061,2.691-1.18,2.8-3.2A1.951,1.951,0,0,0,319.3,388.8l-2.434.011-.834,5.321Zm18.96,8.7c.29-.263.586-.4.543-.075l-.1.779c-.054.406.108.623.487.623h2.819c.474,0,.706-.192.823-.926l1.737-10.9c.087-.548-.045-.817-.461-.817h-3.1c-.28,0-.415.157-.488.584l-.115.671c-.06.35-.22.411-.369.059-.526-1.246-1.868-1.8-3.749-1.765-4.349.09-7.28,3.391-7.594,7.622a5.24,5.24,0,0,0,5.194,5.844,5.6,5.6,0,0,0,4.376-1.694Zm-2.359-1.675a2.832,2.832,0,0,1-2.9-3.323,4.049,4.049,0,0,1,3.893-3.323,2.832,2.832,0,0,1,2.9,3.323,4.048,4.048,0,0,1-3.893,3.323Zm14.186-9.68h-2.848c-.59,0-.83.432-.642.981l3.549,10.395-3.5,4.944c-.292.413-.067.79.345.79h3.214a.984.984,0,0,0,.955-.469l10.916-15.66c.336-.483.178-.987-.373-.988l-3.038,0c-.521,0-.731.206-1.03.64l-4.554,6.606-2.026-6.618A.875.875,0,0,0,346.821,391.483Z" transform="translate(-309.944 -385.134)" fill="#596677" fill-rule="evenodd"/>
  <path id="Path_5180" data-name="Path 5180" d="M543.87,385.134c2.876,0,5.528,1.559,5.165,5.446-.43,4.608-2.914,7.175-6.82,7.185h-3.407c-.491,0-.727.4-.856,1.221l-.658,4.194c-.1.633-.424.946-.9.946h-3.173c-.506,0-.683-.323-.57-1.047l2.623-16.812c.129-.827.445-1.134,1.006-1.134Zm-5.169,9h2.585c1.616-.061,2.691-1.18,2.8-3.2a1.951,1.951,0,0,0-2.116-2.133l-2.433.011-.834,5.321Zm18.96,8.7c.29-.263.586-.4.543-.075l-.1.779c-.054.406.108.623.487.623h2.819c.474,0,.706-.192.823-.926l1.737-10.9c.087-.548-.045-.817-.462-.817h-3.1c-.28,0-.415.157-.488.584l-.115.671c-.06.35-.22.411-.369.059-.526-1.246-1.868-1.8-3.749-1.765-4.349.09-7.28,3.391-7.594,7.622a5.24,5.24,0,0,0,5.194,5.844,5.6,5.6,0,0,0,4.376-1.694Zm-2.359-1.675a2.832,2.832,0,0,1-2.9-3.323,4.049,4.049,0,0,1,3.893-3.323,2.832,2.832,0,0,1,2.9,3.323,4.048,4.048,0,0,1-3.893,3.323Zm13,3.022h-3.254a.384.384,0,0,1-.4-.45l2.861-18.112a.562.562,0,0,1,.541-.45h3.254a.384.384,0,0,1,.4.45l-2.861,18.112A.561.561,0,0,1,568.306,404.185Z" transform="translate(-483.641 -385.134)" fill="#596677" fill-rule="evenodd"/>
</svg>
