<svg id="Group_38" data-name="Group 38" xmlns="http://www.w3.org/2000/svg" width="77.364" height="33.429" viewBox="0 0 77.364 33.429">
  <path id="Path_5177" data-name="Path 5177" d="M897.215,342.978l-7.879,13.276v8.93c.907,2.149,3.2,2.435,5.4,2.531v1.242H879.307v-1.242c2.2-.1,4.871-.43,5.587-1.862v-9.217l-8.023-13.563a5.825,5.825,0,0,0-5.4-3.247v-1.242h13.419v1.242c-2.531.143-3.343.621-4.059,1.194l7.45,12.894,7.307-12.846c-.764-.573-1.767-1.1-4.3-1.242v-1.242h11.461v1.242A6.006,6.006,0,0,0,897.215,342.978Zm15.664,26.409a3.641,3.641,0,0,1-3.916-3.008c-1.624,1.719-3.725,3.008-5.731,3.008-2.579,0-4.776-1.576-4.776-4.3a7.484,7.484,0,0,1,1-3.821l9.5-3.439V354.3c0-2.149-1-4.2-3.152-4.2-1.29,0-2.531,1.575-2.627,4.011l-4.3.716v-.477c1.433-4.3,6.161-5.97,8.452-5.97,4.346,0,5.922,2.292,5.874,5.826l-.143,10.028c-.048,1.958,1,2.436,1.958,2.436a3.7,3.7,0,0,0,2.436-1.385v1.385C916.413,367.907,914.551,369.387,912.879,369.387Zm-9.551-7.784a9.179,9.179,0,0,0-.334,2.483c0,1.432.812,2.865,2.388,2.865a5.163,5.163,0,0,0,3.534-1.48l.048-6.447C907.722,359.6,904.665,360.934,903.328,361.6Zm14.565,7.354v-1.1c2.149-.144,2.77-.621,3.152-1.433V341.688c0-1.623-.239-2.292-3.534-2.578v-.955l8.739-2.2.287.812-1.385,1.719v27.937c.478.955,1.385,1.29,3.343,1.433v1.1Zm22.063.382c-5.014,0-8.882-3.964-8.882-9.5,0-6.781,4.155-11.414,10.029-11.414,4.727,0,7.354,2.675,7.354,6.925v.859l-12.894-.1a15.392,15.392,0,0,0-.144,2.436c0,4.871,3.057,8.07,7.116,8.07,2.435,0,3.677-.859,5.587-2.483l.716,1.1C946.117,367.715,943.872,369.339,939.956,369.339Zm.43-19.436c-2.388,0-4.059,1.91-4.633,4.918l8.405-.1C944.159,352.195,942.583,349.9,940.386,349.9Z" transform="translate(-871.475 -335.958)" fill="#596677"/>
</svg>
