<svg width="76" height="39" viewBox="0 0 76 39" fill="none" xmlns="http://www.w3.org/2000/svg">
<path d="M0 0H74.9711V21.0534L74.9081 24.1699L74.9711 26.7541V39H0V19.1531V17.7961V16.4385V0Z" fill="#1A232F"/>
<path d="M14.541 33.3957V21.6055H26.9936L28.3297 23.3515L29.7099 21.6055H74.9098V32.5825C74.9098 32.5825 73.7277 33.3839 72.3606 33.3957H47.3325L45.8262 31.5371V33.3957H40.8901V30.223C40.8901 30.223 40.2158 30.6659 38.7581 30.6659H37.0779V33.3957H29.6042L28.2701 31.6122L26.9155 33.3957H14.541Z" fill="white"/>
<path d="M0 12.7232L2.80811 6.16016H7.66445L9.25809 9.83648V6.16016H15.295L16.2437 8.81729L17.1634 6.16016H44.2627V7.49599C44.2627 7.49599 45.6873 6.16016 48.0285 6.16016L56.8213 6.19096L58.3874 9.81917V6.16016H63.4394L64.8298 8.24427V6.16016H69.9281V17.9503H64.8298L63.4973 15.8595V17.9503H56.0748L55.3284 16.0918H53.333L52.5987 17.9503H47.565C45.5505 17.9503 44.2627 16.6418 44.2627 16.6418V17.9503H36.6732L35.1668 16.0918V17.9503H6.94502L6.1991 16.0918H4.21005L3.4694 17.9503H0V12.7232Z" fill="white"/>
<path d="M3.80121 7.60938L0.0136719 16.4375H2.47955L3.1784 14.6697H7.24113L7.93635 16.4375H10.4565L6.67263 7.60938H3.80121ZM5.20252 9.66394L6.44089 12.7531H3.96053L5.20252 9.66394Z" fill="#1A232F"/>
<path d="M10.7168 16.4375V7.60938L14.2209 7.62242L16.2591 13.3142L18.2484 7.60938H21.7245V16.4375H19.523V9.93257L17.1893 16.4375H15.2585L12.9183 9.93257V16.4375H10.7168Z" fill="#1A232F"/>
<path d="M23.2324 16.4375V7.60938H30.4164V9.58409H25.4571V11.0942H30.3006V12.9527H25.4571V14.5209H30.4164V16.4375H23.2324Z" fill="#1A232F"/>
<path d="M31.6895 7.60938V16.4375H33.891V13.3012H34.818L37.4577 16.4375H40.148L37.2513 13.185C38.4401 13.0845 39.6664 12.0615 39.6664 10.4734C39.6664 8.61569 38.2119 7.60938 36.5886 7.60938H31.6895ZM33.891 9.58408H36.4076C37.0113 9.58408 37.4504 10.0575 37.4504 10.5134C37.4504 11.0999 36.8814 11.4426 36.4402 11.4426H33.891V9.58408Z" fill="#1A232F"/>
<path d="M42.8143 16.4375H40.5664V7.60938H42.8143V16.4375Z" fill="#1A232F"/>
<path d="M48.145 16.4375H47.6598C45.3121 16.4375 43.8867 14.5833 43.8867 12.0597C43.8867 9.47382 45.2961 7.60938 48.2608 7.60938H50.6941V9.70024H48.1719C46.9684 9.70024 46.1172 10.6418 46.1172 12.0815C46.1172 13.7912 47.0905 14.5092 48.4926 14.5092H49.0719L48.145 16.4375Z" fill="#1A232F"/>
<path d="M52.936 7.60938L49.1484 16.4375H51.6143L52.3132 14.6697H56.3759L57.0711 16.4375H59.5913L55.8074 7.60938H52.936ZM54.3373 9.66394L55.5757 12.7531H53.0953L54.3373 9.66394Z" fill="#1A232F"/>
<path d="M59.8477 16.4375V7.60938H62.6467L66.2206 13.156V7.60938H68.4221V16.4375H65.7136L62.0492 10.7457V16.4375H59.8477Z" fill="#1A232F"/>
<path d="M16.0488 31.8867V23.0586H23.2328V25.0333H18.2736V26.5434H23.117V28.4019H18.2736V29.9701H23.2328V31.8867H16.0488Z" fill="#1A232F"/>
<path d="M51.25 31.8867V23.0586H58.434V25.0333H53.4747V26.5434H58.295V28.4019H53.4747V29.9701H58.434V31.8867H51.25Z" fill="#1A232F"/>
<path d="M23.511 31.8867L27.0089 27.5271L23.4277 23.0586H26.2014L28.3341 25.821L30.4741 23.0586H33.1392L29.6051 27.4727L33.1094 31.8867H30.3362L28.2654 29.1678L26.2448 31.8867H23.511Z" fill="#1A232F"/>
<path d="M33.3711 23.0586V31.8867H35.6306V29.0989H37.948C39.9089 29.0989 41.3952 28.056 41.3952 26.0279C41.3952 24.3479 40.2295 23.0586 38.2341 23.0586H33.3711ZM35.6306 25.0551H38.0711C38.7046 25.0551 39.1574 25.4443 39.1574 26.0715C39.1574 26.6607 38.7069 27.0879 38.0639 27.0879H35.6306V25.0551Z" fill="#1A232F"/>
<path d="M42.3496 23.0586V31.8867H44.5512V28.7504H45.4781L48.1178 31.8867H50.8082L47.9114 28.6343C49.1003 28.5337 50.3266 27.5108 50.3266 25.9226C50.3266 24.0649 48.8721 23.0586 47.2488 23.0586H42.3496ZM44.5512 25.0333H47.0677C47.6714 25.0333 48.1106 25.5067 48.1106 25.9626C48.1106 26.5491 47.5416 26.8919 47.1003 26.8919H44.5512V25.0333Z" fill="#1A232F"/>
<path d="M59.4553 31.8867V29.9701H63.8613C64.5132 29.9701 64.7955 29.6169 64.7955 29.2296C64.7955 28.8584 64.5141 28.4832 63.8613 28.4832H61.8703C60.1396 28.4832 59.1758 27.4262 59.1758 25.8392C59.1758 24.4237 60.0584 23.0586 62.6302 23.0586H66.9174L65.9904 25.0449H62.2826C61.5738 25.0449 61.3556 25.4178 61.3556 25.7738C61.3556 26.1398 61.6252 26.5434 62.1667 26.5434H64.2524C66.1816 26.5434 67.0188 27.6404 67.0188 29.0771C67.0188 30.6217 66.0859 31.8867 64.1474 31.8867H59.4553Z" fill="#1A232F"/>
<path d="M67.5334 31.8867V29.9701H71.9394C72.5914 29.9701 72.8737 29.6169 72.8737 29.2296C72.8737 28.8584 72.5923 28.4832 71.9394 28.4832H69.9484C68.2178 28.4832 67.2539 27.4262 67.2539 25.8392C67.2539 24.4237 68.1366 23.0586 70.7083 23.0586H74.9955L74.0686 25.0449H70.3607C69.6519 25.0449 69.4337 25.4178 69.4337 25.7738C69.4337 26.1398 69.7034 26.5434 70.2448 26.5434H72.3305C74.2598 26.5434 75.0969 27.6404 75.0969 29.0771C75.0969 30.6217 74.1641 31.8867 72.2255 31.8867H67.5334Z" fill="#1A232F"/>
</svg>
