<svg width="103" height="43" viewBox="0 0 103 43" fill="none" xmlns="http://www.w3.org/2000/svg">
<path d="M33.0398 7.91812H2.20428V2.20567H33.0398V7.91812ZM35.243 0H0V10.1182H35.243V0Z" fill="#1A232F"/>
<path d="M2.20499 26.8477H0.00195312V16.7266H2.20499V20.7248H6.14112V16.7266H8.34416V26.8477H6.14112V22.6548H2.20499V26.8477Z" fill="#1A232F"/>
<path d="M11.7005 22.3788H14.3246C14.2758 21.6348 13.9685 21.1161 13.1097 21.1161C12.4617 21.1161 11.8947 21.3919 11.7005 22.3788ZM13.3687 26.9766C11.1336 26.9766 9.61133 25.568 9.61133 23.2541C9.61133 21.0031 11.1014 19.4493 13.0775 19.4493C15.2317 19.4493 16.3007 20.89 16.3007 23.0433V23.853H11.7005C11.9603 24.9691 12.8345 25.2602 13.7095 25.2602C14.4706 25.2602 15.0208 25.0989 15.7009 24.6773H15.7826V26.3449C15.1996 26.7665 14.3728 26.9766 13.3687 26.9766Z" fill="#1A232F"/>
<path d="M22.0357 22.6027L20.9017 26.8438H18.9745L16.7715 19.7241V19.6432H18.8775L20.0757 23.901L21.2097 19.6432H22.9267L24.0768 23.901L25.2917 19.6432H27.3167V19.7241L25.1137 26.8438H23.1858L22.0357 22.6027Z" fill="#1A232F"/>
<path d="M30.8605 26.9609C29.1114 26.9609 28.3984 26.265 28.3984 24.6303V16.6801H30.5365V24.4837C30.5365 24.9856 30.7307 25.1636 31.1517 25.1636C31.2976 25.1636 31.5085 25.1154 31.6377 25.0666H31.6705V26.8311C31.4925 26.8953 31.1845 26.9602 30.8605 26.9602" fill="#1A232F"/>
<path d="M34.3802 22.3788H37.0043C36.9554 21.6348 36.6482 21.1161 35.7893 21.1161C35.142 21.1161 34.5744 21.3919 34.3802 22.3788ZM36.0484 26.9766C33.8132 26.9766 32.291 25.568 32.291 23.2541C32.291 21.0031 33.7811 19.4493 35.7572 19.4493C37.9114 19.4493 38.9804 20.89 38.9804 23.0433V23.853H34.3802C34.6393 24.9691 35.5142 25.2602 36.3885 25.2602C37.1503 25.2602 37.7005 25.0989 38.3813 24.6773H38.4623V26.3449C37.8793 26.7665 37.0532 26.9766 36.0484 26.9766Z" fill="#1A232F"/>
<path d="M47.7871 19.6464H49.3743V21.3621H47.7871V24.2923C47.7871 24.924 48.0301 25.2158 48.6781 25.2158C48.8562 25.2158 49.0831 25.199 49.3261 25.118H49.3743V26.8016C49.0992 26.8993 48.6781 27.0117 48.063 27.0117C46.3292 27.0117 45.649 26.2188 45.649 24.3893V21.3621H42.9118V24.2923C42.9118 24.924 43.1548 25.2158 43.8021 25.2158C43.9809 25.2158 44.2078 25.199 44.4508 25.118H44.499V26.8016C44.2239 26.8993 43.8021 27.0117 43.1877 27.0117C41.4539 27.0117 40.7737 26.2188 40.7737 24.3893V21.3621H39.6719V19.6464H40.7737V17.6718H42.9118V19.6464H45.649V17.6718H47.7871V19.6464Z" fill="#1A232F"/>
<path d="M56.5576 21.653C57.6762 21.653 58.2097 21.022 58.2097 20.1153C58.2097 19.1758 57.6762 18.5448 56.5576 18.5448H55.1645V21.653H56.5576ZM60.4455 20.1153C60.4455 22.3175 58.9715 23.5146 56.7356 23.5146H55.1645V26.8008H52.9629V16.6798H56.7356C58.9715 16.6798 60.4455 17.8775 60.4455 20.1118" fill="#1A232F"/>
<path d="M65.16 24.5569V23.9419C64.836 23.7647 64.4156 23.6997 63.9778 23.6997C63.2816 23.6997 62.8606 23.958 62.8606 24.5408C62.8606 25.1404 63.2816 25.3994 63.9129 25.3994C64.512 25.3994 64.9659 25.0916 65.16 24.5569ZM65.2249 26.1113C64.755 26.6781 64.0595 26.9531 63.3131 26.9531C61.9047 26.9531 60.7539 26.096 60.7539 24.5729C60.7539 23.1651 61.9047 22.2263 63.5561 22.2263C64.0742 22.2263 64.6097 22.3072 65.16 22.4685V22.34C65.16 21.5625 64.7229 21.2232 63.5735 21.2232C62.8438 21.2232 62.1476 21.4326 61.5478 21.7733H61.4675V20.0569C62.0178 19.7337 62.9905 19.458 63.945 19.458C66.1159 19.458 67.2981 20.4938 67.2981 22.3072V26.8233H65.2249V26.1113Z" fill="#1A232F"/>
<path d="M68.3438 23.2174C68.3438 20.9021 69.9805 19.4454 72.1186 19.4454C72.8797 19.4454 73.5919 19.6073 74.1268 19.9954V21.8249H74.0451C73.5752 21.4689 73.0249 21.2581 72.3937 21.2581C71.3247 21.2581 70.5147 21.9875 70.5147 23.2174C70.5147 24.4473 71.3247 25.1599 72.3937 25.1599C73.0249 25.1599 73.5752 24.9492 74.0451 24.5925H74.1268V26.4219C73.5919 26.8107 72.8797 26.9727 72.1186 26.9727C69.9805 26.9727 68.3438 25.5327 68.3438 23.2174Z" fill="#1A232F"/>
<path d="M77.6179 23.5548V26.8242H75.4805V16.7032H77.6179V22.4659L79.7727 19.6167H82.202V19.6976L79.6107 22.9678L82.202 26.7398V26.8207H79.756L77.6179 23.5513" fill="#1A232F"/>
<path d="M87.0011 24.5569V23.9419C86.6778 23.7647 86.256 23.6997 85.8189 23.6997C85.1227 23.6997 84.7017 23.958 84.7017 24.5408C84.7017 25.1404 85.1227 25.3994 85.7533 25.3994C86.3538 25.3994 86.807 25.0916 87.0011 24.5569ZM87.066 26.1113C86.5961 26.6781 85.8992 26.9531 85.1549 26.9531C83.7451 26.9531 82.5957 26.096 82.5957 24.5729C82.5957 23.1651 83.7451 22.2263 85.3985 22.2263C85.9167 22.2263 86.4501 22.3072 87.0011 22.4685V22.34C87.0011 21.5625 86.564 21.2232 85.4139 21.2232C84.6856 21.2232 83.988 21.4326 83.3889 21.7733H83.3079V20.0569C83.8589 19.7337 84.8309 19.458 85.7861 19.458C87.9577 19.458 89.1399 20.4938 89.1399 22.3072V26.8233H87.066V26.1113Z" fill="#1A232F"/>
<path d="M92.7548 20.7624C93.143 19.9687 93.7107 19.5157 94.5047 19.5157C94.7958 19.5157 95.087 19.5807 95.1994 19.6456V21.6851H95.1191C94.8761 21.5874 94.585 21.5232 94.18 21.5232C93.5159 21.5232 92.9978 21.912 92.819 22.6561V26.8008H90.6816V19.5974H92.7548V20.7631" fill="#1A232F"/>
<path d="M100.856 24.3898V22.0745C100.5 21.5566 100.031 21.3304 99.4952 21.3304C98.5568 21.3304 97.9248 22.011 97.9248 23.2408C97.9248 24.4707 98.5568 25.1345 99.4952 25.1345C100.031 25.1345 100.5 24.9077 100.856 24.3898ZM100.92 26.0901C100.467 26.6729 99.7543 26.9961 98.783 26.9961C96.9361 26.9961 95.7539 25.3132 95.7539 23.2408C95.7539 21.1685 96.9361 19.4689 98.783 19.4689C99.7222 19.4689 100.402 19.7606 100.856 20.2946V16.7173H102.994V26.8314H100.92V26.0873" fill="#1A232F"/>
<path d="M0.0253906 30.141H6.27768V31.3709H1.4345V34.4623H5.82381V35.6608H1.4345V39.0279H6.27768V40.2578H0.0253906V30.1438" fill="#1A232F"/>
<path d="M11.4217 32.9895C13.0249 32.9895 13.9159 34.0421 13.9159 35.7732V40.2578H12.5718V35.806C12.5718 34.8832 12.1018 34.2194 11.0817 34.2194C10.2395 34.2194 9.52662 34.7541 9.28362 35.5142V40.2578H7.93945V33.1382H9.28362V34.174C9.70467 33.5102 10.4176 32.9923 11.4217 32.9923" fill="#1A232F"/>
<path d="M17.5108 33.1028H19.3409V34.2524H17.5108V38.0886C17.5108 38.8976 17.9318 39.1733 18.6929 39.1733C18.9031 39.1733 19.13 39.1412 19.292 39.0763H19.3409V40.2252C19.1468 40.3062 18.871 40.3711 18.4988 40.3711C16.8299 40.3711 16.1666 39.6096 16.1666 38.2185V34.2524H14.9355V33.1028H16.1666V31.2098H17.5108V33.1028Z" fill="#1A232F"/>
<path d="M21.5884 36.0065H25.1356C25.0874 34.9546 24.5686 34.1456 23.4674 34.1456C22.4472 34.1456 21.7825 34.9064 21.5884 36.0065ZM23.7104 40.4102C21.6205 40.4102 20.1953 39.0176 20.1953 36.784C20.1953 34.5497 21.5234 32.996 23.4513 32.996C25.4114 32.996 26.4315 34.4046 26.4315 36.4923V37.1079H21.5395C21.6854 38.5486 22.6092 39.2445 23.8885 39.2445C24.6824 39.2445 25.2487 39.0665 25.8806 38.5967H25.9295V39.7792C25.3464 40.2322 24.5846 40.4102 23.7104 40.4102Z" fill="#1A232F"/>
<path d="M29.4086 34.2205C29.7166 33.4597 30.3974 33.0067 31.1738 33.0067C31.4825 33.0067 31.7576 33.0549 31.8707 33.1198V34.4467H31.8225C31.6277 34.3504 31.3037 34.3015 30.9797 34.3015C30.2514 34.3015 29.6356 34.7866 29.4086 35.5963V40.2422H28.0645V33.1226H29.4086V34.2233" fill="#1A232F"/>
<path d="M36.1687 39.1874C37.4968 39.1874 38.2747 38.1355 38.2747 36.6941C38.2747 35.2702 37.4968 34.2023 36.1687 34.2023C35.4397 34.2023 34.7596 34.6392 34.4035 35.3344V38.0713C34.7596 38.7665 35.4397 39.1874 36.1687 39.1874ZM36.3956 32.9877C38.517 32.9877 39.6509 34.7202 39.6509 36.6941C39.6509 38.6702 38.517 40.4019 36.3956 40.4019C35.5207 40.4019 34.7756 39.9489 34.4035 39.4624V42.9922H33.0586V33.1364H34.4035V33.9454C34.7756 33.4435 35.5207 32.9905 36.3956 32.9905" fill="#1A232F"/>
<path d="M42.5922 34.2205C42.8995 33.4597 43.5803 33.0067 44.3574 33.0067C44.6654 33.0067 44.9405 33.0549 45.0536 33.1198V34.4467H45.0054C44.8113 34.3504 44.4873 34.3015 44.1633 34.3015C43.4343 34.3015 42.8191 34.7866 42.5922 35.5963V40.2422H41.248V33.1226H42.5922V34.2233" fill="#1A232F"/>
<path d="M47.0054 30.2539C47.4753 30.2539 47.8635 30.626 47.8635 31.0957C47.8635 31.5655 47.4753 31.9375 47.0054 31.9375C46.5522 31.9375 46.1465 31.5655 46.1465 31.0957C46.1465 30.626 46.5522 30.2539 47.0054 30.2539Z" fill="#1A232F"/>
<path d="M46.334 40.2502H47.6791V33.125H46.334V40.2502Z" fill="#1A232F"/>
<path d="M52.4794 36.0612C53.4996 36.3844 54.6328 36.8053 54.6328 38.165C54.6328 39.6224 53.4346 40.3672 51.8963 40.3672C50.9565 40.3672 50.0173 40.1403 49.4824 39.7194V38.4407H49.5474C50.1472 38.9907 51.0375 39.2336 51.8796 39.2336C52.6407 39.2336 53.3215 38.9419 53.3215 38.3269C53.3215 37.6959 52.7552 37.5501 51.6366 37.178C50.6325 36.8541 49.5152 36.4814 49.5152 35.1385C49.5152 33.762 50.6485 32.953 52.0905 32.953C52.9326 32.953 53.6776 33.131 54.2767 33.5359V34.8313H54.2285C53.6462 34.3616 52.9647 34.0859 52.1226 34.0859C51.2805 34.0859 50.8105 34.4586 50.8105 34.9605C50.8105 35.5272 51.3286 35.6885 52.4794 36.0612Z" fill="#1A232F"/>
<path d="M57.1723 36.0065H60.7188C60.6707 34.9546 60.1525 34.1456 59.0507 34.1456C58.0305 34.1456 57.3665 34.9064 57.1723 36.0065ZM59.2937 40.4102C57.2045 40.4102 55.7793 39.0176 55.7793 36.784C55.7793 34.5497 57.1074 32.996 59.0346 32.996C60.9954 32.996 62.0148 34.4046 62.0148 36.4923V37.1079H57.1235C57.2694 38.5486 58.1925 39.2445 59.4717 39.2445C60.2664 39.2445 60.8327 39.0665 61.4639 38.5967H61.5128V39.7792C60.9304 40.2322 60.1686 40.4102 59.2937 40.4102Z" fill="#1A232F"/>
</svg>
