<svg width="137" height="24" viewBox="0 0 137 24" fill="none" xmlns="http://www.w3.org/2000/svg">
<path d="M48.8076 24C43.84 24 39.2368 22.5273 36.168 19.7809C35.0706 18.7995 34.1963 17.5963 33.6033 16.2516C33.0103 14.907 32.7123 13.452 32.7293 11.9836C32.7259 10.5213 33.0301 9.07454 33.6223 7.73633C34.2146 6.39811 35.0817 5.19814 36.168 4.21364C39.0176 1.63636 44.0592 0 48.8076 0C54.0602 0 58.2661 1.31727 61.4801 4.21909C62.5621 5.20326 63.4235 6.40345 64.008 7.74135C64.5925 9.07926 64.8869 10.5248 64.8722 11.9836C64.8649 13.4439 64.5606 14.8876 63.9776 16.2277C63.3946 17.5678 62.5451 18.7765 61.4801 19.7809C58.4853 22.5436 53.7835 24 48.8076 24V20.8418C51.4408 20.8418 53.8848 19.9364 55.5919 18.2455C57.2989 16.5545 58.0743 14.5036 58.0743 11.9727C58.0743 9.55636 57.2222 7.29818 55.5919 5.7C53.9068 4.05 51.4052 3.12 48.8076 3.12C46.2101 3.12 43.6975 4.04182 42.0124 5.7C40.3876 7.30091 39.5464 9.56727 39.5464 11.9727C39.5221 13.1284 39.7274 14.2775 40.1506 15.354C40.5738 16.4305 41.2065 17.4131 42.0124 18.2455C43.6975 19.9173 46.1937 20.8418 48.8076 20.8418V24ZM12.5355 0C9.88046 0 6.86372 0.496364 4.31552 1.63636C1.9372 2.69455 1.68838e-05 4.39364 1.68838e-05 7.21091C-0.00355631 8.68624 0.560151 10.107 1.57552 11.1818C2.26326 11.8145 3.37296 12.8891 6.27188 13.5218C7.5679 13.7945 10.338 14.2336 13.0972 14.5227C15.8564 14.8118 18.5306 15.0682 19.6266 15.36C20.498 15.5809 21.9639 15.8809 21.9639 17.5173C21.9639 19.1536 20.4212 19.6445 20.1527 19.7509C19.8842 19.8573 18.032 20.7027 14.7056 20.7027C12.5017 20.6418 10.3178 20.2681 8.22002 19.5927C6.9788 19.1509 5.6773 18.57 4.46348 17.0945C3.97362 16.3997 3.70185 15.5759 3.68258 14.7273H0.668577V23.1273H4.01686V21.99C4.01633 21.9056 4.0384 21.8227 4.0808 21.7496C4.1232 21.6766 4.1844 21.6161 4.25808 21.5744C4.33177 21.5328 4.41529 21.5114 4.50003 21.5125C4.58478 21.5137 4.66768 21.5373 4.74022 21.5809C6.3177 22.2641 7.95855 22.7921 9.63934 23.1573C11.3984 23.5227 12.5355 23.7873 14.722 23.7873C17.0293 23.8309 19.3288 23.5078 21.5337 22.83C22.9978 22.4305 24.3716 21.7557 25.5807 20.8418C26.2607 20.3219 26.8104 19.652 27.1864 18.885C27.5625 18.1179 27.7547 17.2744 27.748 16.4209C27.7594 14.7994 27.1307 13.2383 25.9971 12.0736C25.3668 11.4648 24.6366 10.9676 23.838 10.6036C22.9795 10.2176 22.0883 9.90816 21.1747 9.67909C19.4376 9.25636 15.5358 8.72727 13.6699 8.54182C11.7135 8.34 8.31866 8.05909 6.96236 7.64182C6.55136 7.51364 5.71292 7.11818 5.71292 6.15C5.71292 5.46 6.09652 4.87636 6.85276 4.40455C8.05562 3.65455 10.4833 3.18818 13.015 3.18818C15.4656 3.15874 17.8961 3.63125 20.1555 4.57636C20.7625 4.83958 21.3333 5.17867 21.8543 5.58545C22.7034 6.30738 23.2915 7.28644 23.5284 8.37273H26.2328V1.06091H23.2188V1.90909C23.2188 2.18182 22.9448 2.54182 22.3968 2.24455C21.0377 1.54091 17.2182 0.0190909 12.5355 0ZM78.7038 1.34182L93.434 14.5718L93.2833 5.66455C93.2669 4.49455 93.0531 4.00636 91.7818 4.00636H89.0144V1.34182H101.618V4.00636H98.914C97.6207 4.00636 97.544 4.42091 97.5221 5.66455L97.7495 22.6855H93.434L76.4652 7.61455V18.3082C76.4789 19.4727 76.5337 20.0209 77.7365 20.0209H80.7505V22.6855H68.3959V20.0209H71.2893C72.3689 20.0209 72.3251 18.9955 72.3251 18.2482V5.76545C72.3251 4.94727 72.21 4.00909 70.5166 4.00909H68.1712V1.34182H78.7038ZM115.998 20.0155C116.247 20.0155 116.496 20 116.743 19.9691C116.872 19.9307 116.99 19.865 117.09 19.7764C117.191 19.6879 117.27 19.5787 117.324 19.4564C117.362 19.2669 117.381 19.0741 117.382 18.8809V14.6673C117.382 14.5255 117.382 14.5227 117.201 14.2991C117.02 14.0755 109.485 5.57182 109.142 5.19C108.715 4.72636 107.964 4.00909 106.822 4.00909H104.205V1.34182H118.974V4.00364H117.193C116.782 4.00364 116.508 4.39364 116.858 4.82182C116.858 4.82182 121.829 10.74 121.875 10.8027C121.922 10.8655 121.963 10.8791 122.026 10.8218C122.089 10.7645 127.12 4.87636 127.158 4.82182C127.217 4.74414 127.253 4.65111 127.261 4.55377C127.269 4.45643 127.249 4.35888 127.202 4.27271C127.156 4.18654 127.086 4.11538 127.001 4.06768C126.915 4.01999 126.817 3.99776 126.72 4.00364H124.892V1.34182H137V4.00909H134.296C133.315 4.00909 132.926 4.18909 132.178 5.01818L124.026 14.2745C123.946 14.3891 123.911 14.5288 123.927 14.6673V18.8782C123.929 19.0715 123.949 19.2642 123.988 19.4536C124.04 19.5761 124.12 19.6855 124.219 19.7741C124.319 19.8627 124.438 19.9283 124.566 19.9664C124.811 19.9986 125.058 20.0141 125.306 20.0127H128.07V22.68H113.378V20.0127L115.998 20.0155Z" fill="#1A232F"/>
</svg>
