<svg width="108" height="34" viewBox="0 0 108 34" fill="none" xmlns="http://www.w3.org/2000/svg">
<path d="M33.4168 0.209149C34.1802 0.563309 36.7378 2.25081 38.0042 3.62097L41.2398 2.32797L44.6679 1.18381L45.0854 1.15735C47.032 1.7517 49.0631 2.19174 50.9106 2.40256L52.9815 2.29505L53.9087 1.99642L54.1135 2.21303C53.8682 2.49391 50.8362 3.07858 50.6391 2.86292L48.9158 3.24194C48.809 3.12475 43.7148 2.89458 43.3737 2.57044C41.6906 3.66488 39.1495 3.97803 37.8818 5.7059C37.8818 5.7059 37.7508 5.93608 37.53 5.67941C37.6268 5.29232 36.7799 4.42259 36.3705 3.90507C35.7514 3.12153 33.786 2.39512 32.443 1.63708C31.4294 1.32166 27.2301 0.742802 24.5317 1.0721L24.509 0.993659C22.4349 1.10795 19.5754 1.3236 17.6077 0.52553C17.4864 0.452568 17.9601 0.292125 17.9996 0.290511C17.9996 0.290511 19.9093 0.521985 20.4922 0.4261C22.6346 0.167179 24.7854 0.168802 26.9705 0.0196476L27.065 0.0738754C29.4171 -0.0346003 31.654 -0.0542917 33.4168 0.209149Z" fill="#1A232F"/>
<path d="M15.2777 27.9886C15.4065 27.9886 15.5269 27.9973 15.6644 28.0057C15.7761 28.0144 15.9651 28.0228 15.9651 28.2627C15.9651 28.3228 15.9479 28.3915 15.9136 28.5116L15.0197 31.4011C14.8049 32.1126 14.7793 32.2924 14.7793 32.4984C14.7793 32.91 15.0026 33.2529 15.2689 33.4502C15.4495 33.5874 15.9825 33.8789 16.8764 33.8789C17.5382 33.8789 18.1139 33.6817 18.4835 33.373C18.9647 32.9701 19.1537 32.4297 19.3084 31.9754L20.4087 28.4942C20.5375 28.1171 20.6149 28.0057 21.1906 27.9886L21.2767 27.7055H19.3343L19.2482 27.9886C19.3858 27.9886 19.532 27.9886 19.678 27.9973C19.7553 27.9973 19.9961 28.0144 19.9961 28.2372C19.9961 28.3057 19.979 28.3744 19.91 28.5888L18.9133 31.761C18.6382 32.6353 18.2686 33.5186 16.9621 33.5186C16.0942 33.5186 15.6214 33.1073 15.6214 32.5669C15.6214 32.4042 15.6644 32.2414 15.7159 32.0868L16.7903 28.5972C16.8676 28.3315 16.9191 28.203 17.0738 28.1C17.2285 27.9973 17.366 27.9973 17.7272 27.9973L17.8217 27.7055H15.3638L15.2777 27.9886Z" fill="#1A232F"/>
<path d="M24.6688 27.9989C25.1245 28.0076 25.262 28.0673 25.494 28.3246L24.1704 32.6801C23.9727 33.2716 23.861 33.4517 23.2766 33.4775L23.1992 33.7604H25.1759L25.262 33.4517C24.7461 33.4688 24.4885 33.4259 24.4885 33.1776C24.4885 33.0914 24.5313 32.9545 24.5571 32.8599L25.7516 28.8906L27.883 33.9492H28.0293L29.6196 28.4531C29.7309 28.1015 29.8513 28.0076 30.3756 27.9902L30.4529 27.6986H28.5449L28.4591 28.016C28.906 28.016 29.1982 28.016 29.1982 28.273C29.1982 28.3417 29.1811 28.4192 29.1465 28.5645L28.2012 31.8743L28.0808 32.3799C28.0293 32.1742 28.0122 32.1229 27.952 31.9857L26.1643 27.6986H24.7461L24.6688 27.9989Z" fill="#1A232F"/>
<path d="M34.1054 28.0002C34.3633 28.009 34.4837 28.009 34.561 28.0173C34.7413 28.0429 34.8102 28.1458 34.8102 28.2488C34.8102 28.326 34.7843 28.4119 34.7585 28.4803L33.375 32.9301C33.3148 33.1102 33.2287 33.3417 32.928 33.436C32.7818 33.4789 32.6271 33.4702 32.4552 33.4618L32.3691 33.7617H34.8445L34.9303 33.4618C34.5352 33.4531 34.2086 33.4531 34.2086 33.1874C34.2086 33.136 34.2258 33.0757 34.2513 32.973L35.5666 28.746C35.7727 28.12 35.8585 28.0261 36.4258 28.0002L36.5119 27.7084H34.1915L34.1054 28.0002Z" fill="#1A232F"/>
<path d="M39.4492 27.9983C40.1282 27.9896 40.2745 28.0242 40.2657 28.4526L40.0081 34H40.5237L44.056 28.6327C44.4 28.0839 44.4774 28.0154 45.0787 27.9812L45.1735 27.7065H43.0162L42.9301 27.9983C43.2311 27.9983 43.3683 28.007 43.4544 28.007C43.5317 28.0154 43.7379 28.0242 43.7379 28.2127C43.7379 28.2895 43.7036 28.3583 43.6693 28.4442L41.1081 32.4739C40.9706 32.6967 40.9618 32.7138 40.8243 32.954C40.8673 32.6108 40.8761 32.5511 40.9016 32.225L41.091 28.6498C41.1253 28.0409 41.2457 27.9896 41.9418 27.9983L42.0363 27.7065H39.5437L39.4492 27.9983Z" fill="#1A232F"/>
<path d="M48.1207 27.9915C48.2925 27.9915 48.5505 28.0002 48.6278 28.0086C48.6796 28.0173 48.9116 28.0429 48.9116 28.2401C48.9116 28.3002 48.8941 28.3602 48.8686 28.4286L47.4074 33.0156C47.2786 33.4185 47.0462 33.4615 46.4705 33.4615L46.3848 33.7617H51.4641L51.9967 32.0897H51.6877C51.5932 32.3041 51.3867 32.7499 50.9139 33.1015C50.7508 33.2129 50.5874 33.2813 50.5103 33.3071C50.132 33.4356 49.3929 33.4444 49.3068 33.4444C49.2123 33.4444 48.5764 33.4444 48.4045 33.3246C48.3268 33.2642 48.3013 33.1958 48.3013 33.1015C48.3013 33.024 48.3184 32.9559 48.3615 32.7929L49.0404 30.6579C49.3754 30.6492 49.8482 30.6663 50.0029 30.7092C50.2524 30.7696 50.3298 30.9323 50.3298 31.1125C50.3298 31.2839 50.2437 31.5838 50.1922 31.7723H50.5013L51.2663 29.3888H50.9482C50.6647 30.2463 50.3469 30.3321 49.7107 30.3321C49.5217 30.3321 49.3327 30.3234 49.1437 30.3147L49.8741 28.0345C50.1835 28.0257 50.4841 28.0257 50.7935 28.0345C51.6016 28.0516 51.8938 28.1972 52.0657 29.1744H52.3149V27.6997H48.2152L48.1207 27.9915Z" fill="#1A232F"/>
<path fill-rule="evenodd" clip-rule="evenodd" d="M58.3504 27.9973C59.0294 27.9973 59.4074 27.9973 59.6481 28.3402C59.6996 28.409 59.8109 28.5975 59.8109 28.8974C59.8109 29.0692 59.7598 29.8233 59.2271 30.2007C58.8828 30.4493 58.3931 30.4577 58.1698 30.4577C57.9976 30.4577 57.8345 30.4493 57.6624 30.4406L58.3504 27.9973ZM56.6138 27.9973C56.8116 27.9973 56.9666 27.9973 57.1125 28.0144C57.3103 28.0399 57.3705 28.16 57.3705 28.2543C57.3705 28.3744 57.3103 28.5804 57.276 28.7002L56.1329 32.7302C56.0468 33.0302 55.9954 33.1845 55.8148 33.3217C55.6171 33.476 55.342 33.476 55.1184 33.476L55.041 33.7588H57.5854L57.6711 33.476C57.207 33.4673 56.9319 33.4589 56.9319 33.116C56.9319 33.0127 56.975 32.8584 57.0093 32.7302C57.0698 32.5243 57.1213 32.327 57.1815 32.1213C57.3103 31.6671 57.4475 31.2038 57.5766 30.7409C58.2297 30.7583 58.5478 30.8093 58.6941 31.2981C58.754 31.4954 58.754 31.6326 58.7627 31.7869C58.7799 31.9667 58.7973 32.1727 58.8145 32.3699C58.8659 32.9701 58.9002 33.3304 59.1407 33.6132C59.2873 33.7846 59.5106 33.8789 59.7769 33.8789C60.3786 33.8789 60.7054 33.5277 60.9287 33.2787L60.7737 33.0728C60.6362 33.2271 60.4818 33.3901 60.2323 33.3901C60.1465 33.3901 59.8714 33.373 59.7769 32.953C59.7426 32.7557 59.708 32.6185 59.6481 32.2502C59.562 31.7181 59.4847 31.3494 59.2184 31.0666C59.0378 30.8865 58.8747 30.8093 58.608 30.715C59.1407 30.6637 59.8455 30.6037 60.3442 30.0122C60.43 29.9005 60.6792 29.5747 60.6792 29.0863C60.6792 28.4687 60.353 28.16 60.1465 28.0061C59.7769 27.7313 59.2954 27.7055 58.9174 27.7055C58.7109 27.7055 57.7831 27.7226 57.5941 27.7226C57.3015 27.7226 57.0698 27.7142 56.6999 27.7055L56.6138 27.9973Z" fill="#1A232F"/>
<path d="M64.426 31.6749L63.9707 33.7237H64.3315L64.6581 33.2436C64.8646 33.4667 64.9332 33.5355 65.1911 33.6727C65.4658 33.827 65.7409 33.8867 66.1105 33.8867C67.2882 33.8867 67.9759 32.9866 67.9759 32.1292C67.9759 31.7776 67.8811 31.3317 67.3827 30.7748C67.2021 30.5689 66.5406 29.8228 66.4976 29.7627C66.3257 29.5655 66.1192 29.283 66.1192 28.8884C66.1192 28.6825 66.2137 28.4084 66.3257 28.2708C66.5578 28.0051 66.8584 27.8938 67.1678 27.8938C67.4943 27.8938 67.8296 28.0394 68.0361 28.3567C68.2937 28.7596 68.2849 29.2571 68.2849 29.5228H68.5772L68.9124 27.6794H68.6202L68.371 28.1165C68.1561 27.8938 67.8468 27.5422 67.1335 27.5422C66.0076 27.5422 65.3976 28.4168 65.3976 29.283C65.3976 29.66 65.526 30.0371 65.8011 30.4145C65.9044 30.5517 66.5917 31.3405 66.738 31.5206C66.9186 31.7346 67.1419 32.0436 67.1419 32.515C67.1419 32.678 67.0904 33.0551 66.7296 33.3211C66.4888 33.4925 66.205 33.5355 66.0419 33.5355C65.5603 33.5355 64.8044 33.2523 64.7099 32.1463V31.9919C64.7099 31.8893 64.7183 31.7863 64.7183 31.6749H64.426Z" fill="#1A232F"/>
<path d="M73.0035 28.0002C73.2614 28.009 73.3818 28.009 73.4588 28.0173C73.6397 28.0429 73.708 28.1458 73.708 28.2488C73.708 28.326 73.6825 28.4119 73.6566 28.4803L72.2731 32.9301C72.2126 33.1102 72.1268 33.3417 71.8261 33.436C71.6799 33.4789 71.5252 33.4702 71.3533 33.4618L71.2676 33.7617H73.7427L73.8287 33.4618C73.4333 33.4531 73.1067 33.4531 73.1067 33.1874C73.1067 33.136 73.1239 33.0757 73.1498 32.973L74.4647 28.746C74.6708 28.12 74.7566 28.0261 75.3239 28.0002L75.41 27.7084H73.0896L73.0035 28.0002Z" fill="#1A232F"/>
<path d="M78.1669 29.1147H78.4766C78.6054 28.8144 78.7171 28.5487 78.975 28.3173C79.2931 28.0257 79.6365 28.0173 79.9462 28.0173H80.5566L79.121 32.6899C79.0523 32.9214 79.0006 33.0757 78.8634 33.2213C78.6485 33.436 78.4164 33.4531 77.9695 33.4702L77.875 33.7617H80.7368L80.8313 33.4702C80.307 33.4615 80.1782 33.4615 80.0407 33.3585C79.9291 33.2642 79.9206 33.1703 79.9206 33.1102C79.9206 33.0069 79.9549 32.9042 80.0148 32.6986L81.4417 28.0257H82.1892C82.576 28.0257 82.9714 28.0173 82.9714 28.48C82.9714 28.6517 82.9284 28.9345 82.8944 29.1147H83.1951L83.6248 27.6997H78.6912L78.1669 29.1147Z" fill="#1A232F"/>
<path d="M86.5183 27.9915C87.1542 27.9915 87.2487 28.0516 87.3778 28.4119L88.1768 30.838L87.5927 32.7328C87.4034 33.4101 87.2487 33.4615 86.5526 33.4702L86.4668 33.7617H89.0108L89.0966 33.4615C88.6066 33.4702 88.3487 33.4444 88.3487 33.1874C88.3487 33.0928 88.4176 32.8871 88.4519 32.7841L89.0882 30.7008L91.3137 28.3944C91.6493 28.0429 91.7522 28.0174 92.2681 27.9744L92.3454 27.7084H90.1623L90.0849 27.9828C90.3428 27.9828 90.6522 27.9915 90.7551 28.0684C90.7723 28.0771 90.8241 28.12 90.8241 28.1888C90.8241 28.2914 90.7642 28.3602 90.6176 28.54L88.8817 30.3922L88.2542 28.4203C88.2458 28.3686 88.2283 28.3257 88.2283 28.2743C88.2283 28.0771 88.3746 28.0345 88.4691 28.0173C88.538 28.0002 88.538 28.0002 88.916 27.9915L89.0018 27.7084H86.604L86.5183 27.9915Z" fill="#1A232F"/>
<path d="M5.82233 4.31708C8.30388 4.31708 10.5311 5.96746 11.4217 9.42706H12.09V3.93613H11.4217C11.3583 4.31708 11.2945 4.92017 10.5945 5.77699C9.83107 4.95181 8.49482 3.55551 5.72686 3.55551C2.22718 3.55551 0.159225 6.03106 0.159225 8.76039C0.159225 12.7595 3.62718 14.2513 5.98155 15.267C6.17217 15.3303 7.22233 15.7748 7.41295 15.8701C9.54466 16.7902 11.7081 17.9963 11.7081 20.4722C11.7081 22.408 10.1492 24.5662 7.03139 24.5662C2.1 24.5662 1.05016 19.4246 0.763754 17.9647H0V24.725H0.763754C1.01812 23.4553 1.33625 22.9794 1.52719 22.6937C2.03625 23.2651 3.84984 25.3281 7.31748 25.3281C11.3583 25.3281 13.967 22.8206 13.967 19.2661C13.967 15.267 11.3583 14.0609 7.25405 12.2516C4.80421 11.1727 2.19547 10.0298 2.19547 7.52261C2.19547 6.12631 3.14984 4.31708 5.82233 4.31708Z" fill="#1A232F"/>
<path fill-rule="evenodd" clip-rule="evenodd" d="M22.7465 17.2039V22.2186C22.2057 22.6628 20.3287 24.1228 18.8969 24.1228C17.6562 24.1228 17.0516 23.0754 17.0516 21.9645C17.0516 19.8383 19.406 18.5685 21.0604 17.9022L22.7465 17.2039ZM20.3287 17.458C15.938 19.2352 14.4746 20.7587 14.4746 22.5676C14.4746 24.4088 16.1927 25.2656 17.6244 25.2656C19.374 25.2656 21.1876 24.1547 22.7465 23.0438C22.9054 23.8054 23.1601 25.2656 25.228 25.2656C26.9778 25.2656 27.7733 24.0595 27.8371 22.6312H27.2643C27.0416 23.9326 26.3419 24.1228 25.96 24.1228C24.9736 24.1228 24.9736 23.1707 24.9736 21.3298V16.1882C24.9736 14.6331 24.9736 11.7449 20.1377 11.7449C16.2245 11.7449 14.9516 13.8079 14.9516 14.6647C14.9516 15.2361 15.429 15.5535 15.9063 15.5535C16.9562 15.5535 17.1154 14.4742 17.2426 13.8079C17.4652 12.697 18.7377 12.4113 19.8513 12.4113C22.4601 12.4113 22.7465 13.9667 22.7465 15.8392V16.4739L20.3287 17.458Z" fill="#1A232F"/>
<path d="M28.1714 4.98192C30.2711 4.98192 30.3031 5.68023 30.3031 8.02892V20.5972C30.3031 23.898 30.2711 24.247 28.3941 24.247H27.9805V24.9453H34.7889V24.247C32.53 24.247 32.53 24.1521 32.53 20.5972V3.61724C32.1164 3.61724 31.5436 3.83937 31.162 3.93461C30.7164 4.02985 29.3801 4.2836 28.1714 4.2836V4.98192Z" fill="#1A232F"/>
<path d="M35.7715 13.2654C37.9987 13.2654 38.1893 13.2655 38.1893 16.7567V20.5972C38.1893 23.898 38.1893 24.247 36.3123 24.247H35.7715V24.9453H42.6437V24.247C40.4165 24.247 40.4165 24.1201 40.4165 20.5972V11.7419C39.9074 11.7419 39.1437 12.0277 38.6666 12.1229C37.4576 12.345 36.5987 12.5039 35.7715 12.5675V13.2654Z" fill="#1A232F"/>
<path d="M44.4561 25.3266C44.5198 25.0409 44.8059 24.3742 45.1244 24.0252C45.8561 24.7236 46.5878 25.4219 48.2422 25.4219C50.5011 25.4219 52.1234 23.8667 52.1234 21.7085C52.1234 18.9472 49.96 17.9632 48.2739 17.2016C46.8105 16.5349 45.2833 15.8366 45.2833 14.3767C45.2833 13.4563 45.9833 12.409 47.3512 12.409C49.3872 12.409 50.4053 14.6941 50.66 15.9002H51.2325V11.9648H50.66C50.6279 12.028 50.3101 12.7899 50.0554 13.0753C49.3237 12.2185 48.4328 11.7426 47.2878 11.7426C45.0286 11.7426 43.8833 13.742 43.8833 15.2655C43.8833 17.5822 45.9512 18.5979 47.4784 19.3598C49.1645 20.185 50.5645 20.8514 50.5645 22.5021C50.5645 23.0732 50.2464 24.7552 48.2101 24.7552C46.8422 24.7552 45.9512 24.0572 45.3787 23.2637C44.8059 22.4701 44.5516 21.5497 44.4561 21.169H43.8516V25.3266H44.4561Z" fill="#1A232F"/>
<path fill-rule="evenodd" clip-rule="evenodd" d="M55.6557 14.5985C56.3874 13.8685 57.7874 12.5038 59.7599 12.5038C62.0505 12.5038 63.8321 14.2811 63.8321 18.3434C63.8321 20.7557 63.1324 24.6912 59.4735 24.6912C57.2783 24.6912 56.2919 23.1041 56.0376 22.565C55.7194 21.898 55.6557 21.3272 55.6557 19.5816V14.5985ZM55.6557 3.61691C55.2738 3.61691 54.7013 3.87099 54.3198 3.93427C53.8421 4.02951 52.5062 4.28326 51.3926 4.28326V4.98157C53.4288 4.98157 53.4288 5.58465 53.4288 8.47281V25.4531H54.033C54.3832 24.7232 55.0512 23.7072 55.6557 23.1041C56.8644 25.0405 58.4874 25.4531 59.9188 25.4531C63.9913 25.4531 66.4091 22.2473 66.4091 18.5023C66.4091 14.5032 63.7369 11.7419 60.1415 11.7419C58.8372 11.7419 57.3418 12.1862 55.6557 13.678V3.61691Z" fill="#1A232F"/>
<path d="M74.3983 12.2498V12.9481C76.6255 12.9481 76.6255 13.075 76.6255 16.5978V19.486C76.6255 20.8826 76.5935 21.6758 75.6394 22.7871C74.4304 24.215 73.0304 24.3739 72.4896 24.3739C70.0398 24.3739 70.0397 22.3742 70.0397 21.0411V12.2498H65.7129V12.9481C67.8126 12.9481 67.8126 13.1386 67.8126 16.5978V20.9143C67.8126 21.549 67.8126 22.9456 68.3533 23.8024C69.0854 24.9769 70.6126 25.4531 71.7579 25.4531C74.0802 25.4531 75.7666 23.866 76.5621 22.5014H76.6255C76.6255 23.231 76.6572 24.5324 77.1663 25.4531C77.5164 25.4531 78.0572 25.199 78.4388 25.1354C79.2342 24.9769 79.6799 24.9769 80.7931 24.9453V24.247C78.8527 24.247 78.8527 23.9613 78.8527 20.5653V12.2498H74.3983Z" fill="#1A232F"/>
<path d="M86.3217 14.9794C86.3217 13.0433 86.0353 12.2498 85.8761 11.7423L85.6534 11.8055C85.1444 11.9644 83.49 12.4722 82.0586 12.6627V13.3607C84.2537 13.3607 84.2537 13.4879 84.2537 17.0108V20.5972C84.2537 24.1201 84.2537 24.247 82.0586 24.247V24.9453H88.8033V24.247H88.358C86.4806 24.247 86.4806 23.898 86.4806 20.5972V18.3122C86.4806 16.6934 86.4806 15.7094 87.4036 14.408C88.0078 13.5512 88.9308 12.8529 89.5667 12.8529C90.0758 12.8529 90.3304 13.3607 90.5214 13.8685C90.712 14.3447 90.9033 14.7573 91.5712 14.7573C92.1758 14.7573 92.6211 14.2495 92.6211 13.678C92.6211 12.9164 91.8576 11.7423 90.3942 11.7423C89.1851 11.7423 87.2761 12.7576 86.3855 14.9794H86.3217Z" fill="#1A232F"/>
<path d="M98.1692 15.1392C97.9462 14.6314 97.5644 13.8378 97.5644 13.584C97.5644 13.0446 98.3281 13.0126 99.1236 12.9493V12.251H93.2695V12.9493C94.765 12.981 95.0194 13.4888 95.7511 15.044L100.524 25.2639L99.3145 28.279C98.8689 29.3899 98.5191 29.5804 97.4372 30.0562C96.8647 30.3103 95.8148 30.7865 95.8148 31.8338C95.8148 32.4369 96.2922 32.7539 96.8009 32.7539C98.0417 32.7539 98.8055 31.3576 99.6326 29.3899L105.296 15.7423C106.091 13.8378 106.409 13.0446 108 12.9493V12.251H103.546V12.9493C103.864 12.981 105.264 13.0126 105.264 13.7745C105.264 14.0283 105.137 14.3456 104.882 14.9171C104.755 15.1392 104.66 15.4249 104.627 15.4882L101.669 22.5659L98.1692 15.1392Z" fill="#1A232F"/>
</svg>
