<svg width="139" height="31" viewBox="0 0 139 31" fill="none" xmlns="http://www.w3.org/2000/svg">
<path d="M15.2569 0.152344C6.96052 0.152344 0.234375 6.86747 0.234375 15.1523C0.234375 23.4358 6.96052 30.1523 15.2569 30.1523C23.5538 30.1523 30.2804 23.4358 30.2804 15.1523C30.2804 6.86747 23.5543 0.152344 15.2569 0.152344ZM15.2569 28.459C7.89631 28.459 1.92839 22.5009 1.92839 15.1523C1.92839 7.80229 7.89582 1.84468 15.2569 1.84468C22.618 1.84468 28.5855 7.80229 28.5855 15.1523C28.5855 22.5009 22.618 28.459 15.2569 28.459Z" fill="#1A232F"/>
<path d="M26.1754 21.1914L23.9942 18.6482C23.9673 18.6175 23.9355 18.5911 23.8988 18.5696C23.7873 18.5061 23.6562 18.5046 23.548 18.5569C23.2149 18.7142 22.8123 18.7112 22.4689 18.5134C22.1632 18.3386 21.9685 18.0436 21.9078 17.7232C21.7542 16.9071 21.2597 16.1608 20.4834 15.7139L19.5065 15.1512L25.0601 11.9502L24.3728 10.7609L18.1319 14.3581L17.382 13.9263V13.0613L23.6224 9.46372L22.9351 8.27493L17.382 11.4765V10.3507C17.382 9.45542 16.9819 8.65394 16.3513 8.11376C16.1033 7.90179 15.9458 7.58628 15.9458 7.23414C15.9458 6.83804 16.1444 6.48736 16.4482 6.27832C16.5475 6.21092 16.6116 6.09663 16.6116 5.96818C16.6116 5.92569 16.6047 5.88466 16.592 5.84657L15.4772 2.68949C15.4463 2.59719 15.3593 2.53125 15.257 2.53125C15.1553 2.53125 15.0682 2.59719 15.0374 2.68949L13.9231 5.84657C13.9098 5.88466 13.903 5.92569 13.903 5.96818C13.903 6.09663 13.9676 6.21092 14.0659 6.27832C14.3692 6.48736 14.5688 6.83804 14.5688 7.23414C14.5688 7.58628 14.4117 7.90179 14.1627 8.11376C13.5317 8.65394 13.1325 9.45591 13.1325 10.3507V11.4765L7.57895 8.27493L6.89166 9.46372L13.1325 13.0613V13.9268L12.3826 14.3581L6.14175 10.7609L5.45495 11.9502L11.0085 15.1512L10.0312 15.7139C9.25486 16.1608 8.75981 16.9071 8.6067 17.7232C8.54605 18.0436 8.35184 18.3386 8.04611 18.5134C7.70222 18.7112 7.30012 18.7142 6.9665 18.5569C6.8579 18.5051 6.7273 18.5061 6.61625 18.5696C6.57908 18.5911 6.54679 18.618 6.52086 18.6482L4.33915 21.1904C4.27506 21.2632 4.26137 21.3706 4.31224 21.4605C4.36312 21.5479 4.46389 21.5904 4.55878 21.5723L7.85484 20.956C7.89447 20.9482 7.93409 20.934 7.97029 20.913C8.08231 20.848 8.14786 20.7362 8.15764 20.616C8.18748 20.2497 8.39195 19.902 8.73536 19.7042C9.04011 19.5293 9.39281 19.5069 9.70148 19.6148C10.4856 19.8903 11.3803 19.8351 12.1566 19.3867L13.1335 18.825V25.2271H14.5081V18.0319L15.2585 17.5996L16.0084 18.0319V25.2266H17.3835V18.8246L18.3599 19.3862C19.1362 19.8346 20.0314 19.8898 20.8155 19.6143C21.1232 19.5059 21.4764 19.5284 21.7816 19.7037C22.125 19.9015 22.329 20.2492 22.3589 20.6156C22.3682 20.7357 22.4342 20.848 22.5452 20.9125C22.5819 20.9335 22.6215 20.9477 22.6612 20.9555L25.9567 21.5719C26.0521 21.5899 26.1524 21.5474 26.2038 21.46C26.2532 21.3706 26.239 21.2637 26.1754 21.1914ZM13.1321 17.2402L11.2991 18.2961C10.9401 18.5032 10.4817 18.3801 10.2748 18.0221C10.0679 17.6631 10.1906 17.2055 10.5497 16.9984L12.3826 15.942L13.1325 16.3747L13.1321 17.2402ZM14.5066 10.1563C14.5066 9.74211 14.8422 9.40658 15.2565 9.40658C15.6709 9.40658 16.0069 9.74211 16.0069 10.1563V12.2687L15.257 12.7004L14.5066 12.2687V10.1563ZM16.1194 15.6479L15.257 16.1447L14.3936 15.6475V14.6526L15.257 14.1549L16.1194 14.6526V15.6479ZM20.2388 18.0226C20.0314 18.3801 19.572 18.5032 19.2135 18.2966L17.381 17.2397V16.3752L18.1309 15.9425L19.9634 16.9989C20.3224 17.206 20.4452 17.6631 20.2388 18.0226Z" fill="#1A232F"/>
<path d="M115.284 12.1061H110.27V2.09766H105.689V28.2085H110.27V16.7421H115.284V28.2085H119.964V2.09766H115.284V12.1061Z" fill="#1A232F"/>
<path d="M33.625 2.09766L38.708 18.1082V28.2085H43.7959V17.5895L49.0653 2.09766H44.7836L41.3246 12.2702L38.1934 2.09766H33.625Z" fill="#1A232F"/>
<path d="M77.7986 2.09766L75.6046 14.5184L73.0604 2.09766H65.9102V28.2085H70.0104V8.52609L73.5095 25.6365H77.3387L80.4421 8.24818V28.2085H85.2497V2.09766H77.7986Z" fill="#1A232F"/>
<path d="M133.919 2.09766H126.836L122.057 28.2085H126.295L127.308 22.1327H132.58L133.563 28.2085H138.234L133.919 2.09766ZM128.035 17.78L129.984 6.10212L131.876 17.78H128.035Z" fill="#1A232F"/>
<path d="M92.1225 2.09766L87.3418 28.2085H91.581L92.5955 22.1327H97.8674L98.8506 28.2085H103.52L99.2043 2.09766H92.1225ZM93.3215 17.78L95.2703 6.10212L97.162 17.78H93.3215Z" fill="#1A232F"/>
<path d="M52.3432 2.09766L47.5625 28.2085H51.8022L52.8167 22.1327H58.0881L59.0718 28.2085H63.74L59.425 2.09766H52.3432ZM53.5427 17.78L55.4915 6.10212L57.3827 17.78H53.5427Z" fill="#1A232F"/>
</svg>
