<svg width="73" height="31" viewBox="0 0 73 31" fill="none" xmlns="http://www.w3.org/2000/svg">
<path d="M24.2881 6.51022L16.8532 18.8215V27.1032C17.7091 29.096 19.8722 29.3614 21.9453 29.4502V30.6015H7.39008V29.4502C9.46299 29.3614 11.9865 29.0518 12.6623 27.7234V19.1758L5.0919 6.5986C3.78534 4.47287 2.52361 3.76462 0 3.58728V2.43595H12.6624V3.58728C10.274 3.72 9.5081 4.16323 8.83227 4.69484L15.8619 16.6515L22.7563 4.73875C22.0353 4.20742 21.0891 3.72 18.7008 3.58742V2.43609H29.5155V3.58742C27.0821 3.67609 25.55 4.47287 24.2881 6.51022ZM39.0683 31.0001C36.6352 31.0001 35.4634 29.3614 35.3733 28.2104C33.841 29.8045 31.8587 31.0001 29.9661 31.0001C27.5327 31.0001 25.4596 29.5386 25.4596 27.0148C25.4596 25.7744 25.7751 24.4901 26.4061 23.4718L35.3733 20.2831V17.0059C35.3733 15.0132 34.4269 13.1088 32.3992 13.1088C31.1825 13.1088 30.0109 14.5699 29.9209 16.8288L25.8651 17.4927V17.0504C27.2169 13.0642 31.6782 11.5146 33.8409 11.5146C37.9416 11.5146 39.4286 13.64 39.3836 16.9172L39.2486 26.2171C39.2035 28.0329 40.1947 28.4757 41.0961 28.4757C41.8169 28.4757 42.5378 28.0329 43.3943 27.1916V28.4757C42.4031 29.6274 40.6458 31.0001 39.0683 31.0001ZM30.0561 23.7817C29.8758 24.4901 29.7408 25.1101 29.7408 26.0845C29.7408 27.4129 30.5068 28.7413 31.9937 28.7413C33.3455 28.7413 34.1116 28.2989 35.3284 27.3687L35.3733 21.3898C34.2018 21.9213 31.318 23.1617 30.0561 23.7817ZM43.8 30.6015V29.5828C45.8276 29.4501 46.4131 29.0073 46.7742 28.254V5.31412C46.7742 3.80839 46.5486 3.18867 43.4394 2.9228V2.0372L51.6859 0L51.956 0.753298L50.6494 2.34742V28.2541C51.1 29.1401 51.956 29.4502 53.8036 29.5829V30.6017H43.8V30.6015ZM64.6181 30.9558C59.8869 30.9558 56.2367 27.2801 56.2367 22.1429C56.2367 15.8543 60.1574 11.5585 65.7 11.5585C70.1609 11.5585 72.6394 14.039 72.6394 17.9801V18.7772L60.4728 18.6888C60.3828 19.1758 60.3373 19.9733 60.3373 20.9473C60.3373 25.4643 63.2214 28.4315 67.052 28.4315C69.3497 28.4315 70.5217 27.6343 72.3237 26.1287L72.9997 27.147C70.4314 29.4502 68.3134 30.9558 64.6181 30.9558ZM65.0242 12.9318C62.7707 12.9318 61.194 14.7029 60.6531 17.4927L68.5844 17.4043C68.5842 15.0572 67.0968 12.9318 65.0242 12.9318Z" fill="#1A232F"/>
</svg>
