<svg xmlns="http://www.w3.org/2000/svg" width="53.868" height="53.833" viewBox="0 0 53.868 53.833">
  <g id="bigcommerce-1" transform="translate(0.005 -0.03)">
    <path id="Path_7108" data-name="Path 7108" d="M1292.618,1165.74h6.8c1.932,0,3.155-1.062,3.155-2.77,0-1.61-1.223-2.77-3.155-2.77h-6.8a.421.421,0,0,0-.418.387v4.765A.418.418,0,0,0,1292.618,1165.74Zm0,10.98h7.02c2.158,0,3.445-1.095,3.445-3.027,0-1.675-1.223-3.028-3.445-3.028h-7.02a.421.421,0,0,0-.418.387v5.25A.421.421,0,0,0,1292.618,1176.72Z" transform="translate(-1264.24 -1135.063)" fill="#34313f"/>
    <path id="Path_7109" data-name="Path 7109" d="M53.238.148l-20.1,20.031h3.285c5.12,0,8.148,3.22,8.148,6.73a6.349,6.349,0,0,1-3.865,5.7.374.374,0,0,0,.032.708,6.512,6.512,0,0,1,3.96,6.15c0,3.993-2.673,7.18-7.858,7.18H22.612a.421.421,0,0,1-.418-.387V31.092L.134,53.058a.471.471,0,0,0,.322.805H53.5a.358.358,0,0,0,.355-.355V.438A.349.349,0,0,0,53.238.148Z" transform="translate(0 0)" fill="#34313f"/>
  </g>
</svg>
