<svg width="22" height="25" viewBox="0 0 22 25" fill="none" xmlns="http://www.w3.org/2000/svg">
<g clip-path="url(#clip0_1554_4650)">
<path d="M2.04176 6H19.9494C21.0826 6 22 6.89862 22 8.00878V14.7046C22 15.8147 21.0826 16.7134 19.9493 16.7134H13.5274L14.4089 18.8278L10.5323 16.7134H2.05096C0.917617 16.7134 6.47601e-05 15.8148 6.47601e-05 14.7046V8.00878C-0.00887271 6.90746 0.908421 6 2.04185 6H2.04176Z" fill="#7F54B2"/>
<path d="M1.25348 7.83092C1.37869 7.6645 1.56646 7.57686 1.81689 7.55936C2.27295 7.52434 2.53231 7.73453 2.59496 8.19011C2.87219 10.021 3.17624 11.5715 3.49816 12.8418L5.45667 9.18882C5.63559 8.85589 5.85912 8.68071 6.12741 8.6632C6.521 8.63694 6.76249 8.88215 6.8608 9.39902C7.08432 10.5641 7.37049 11.554 7.71038 12.395C7.94292 10.1698 8.33643 8.56682 8.8909 7.57686C9.02504 7.33165 9.22175 7.209 9.48111 7.19141C9.68685 7.1739 9.87471 7.23518 10.0445 7.36667C10.2145 7.49799 10.3039 7.6645 10.3218 7.86594C10.3307 8.02369 10.3039 8.15501 10.2324 8.28641C9.88356 8.91717 9.59739 9.97716 9.36493 11.4488C9.14132 12.8768 9.06079 13.9893 9.1145 14.7865C9.13238 15.0055 9.09663 15.1981 9.00717 15.3647C8.89983 15.5574 8.73887 15.6625 8.53323 15.68C8.30068 15.6975 8.0592 15.5924 7.82673 15.3559C6.99503 14.5237 6.33315 13.2798 5.85035 11.6241C5.26898 12.7453 4.83973 13.5863 4.56258 14.1469C4.03493 15.1369 3.58779 15.645 3.21216 15.6712C2.97068 15.6887 2.76494 15.4872 2.58611 15.0668C2.13004 13.9191 1.63814 11.7028 1.11048 8.41782C1.07473 8.19011 1.12836 7.98859 1.25357 7.83092H1.25348ZM20.4725 9.20624C20.1505 8.65436 19.6765 8.32143 19.0416 8.19003C18.8717 8.15501 18.7108 8.1375 18.5587 8.1375C17.7002 8.1375 17.0026 8.57549 16.4571 9.45154C15.9921 10.1961 15.7595 11.0196 15.7595 11.9219C15.7595 12.5964 15.9026 13.1745 16.1888 13.6564C16.5108 14.2083 16.9847 14.5411 17.6196 14.6726C17.7895 14.7076 17.9505 14.7251 18.1026 14.7251C18.97 14.7251 19.6675 14.2872 20.2042 13.4111C20.6692 12.6577 20.9017 11.8342 20.9017 10.932C20.9107 10.2487 20.7587 9.67933 20.4725 9.20624ZM19.3457 11.6328C19.2205 12.211 18.9969 12.6402 18.6659 12.9293C18.4066 13.1571 18.1652 13.2534 17.9416 13.2097C17.727 13.1659 17.548 12.9819 17.414 12.6403C17.3066 12.3687 17.253 12.0971 17.253 11.8431C17.253 11.6241 17.2709 11.4051 17.3156 11.2036C17.3961 10.8445 17.5481 10.494 17.7895 10.1611C18.0847 9.73186 18.3977 9.55668 18.7196 9.61797C18.9343 9.66174 19.1132 9.84576 19.2473 10.1874C19.3546 10.459 19.4082 10.7306 19.4082 10.9846C19.4082 11.2123 19.3904 11.4314 19.3457 11.6328ZM14.8741 9.20624C14.5521 8.65436 14.0692 8.32143 13.4432 8.19003C13.2734 8.15501 13.1124 8.1375 12.9603 8.1375C12.1018 8.1375 11.4042 8.57549 10.8587 9.45154C10.3937 10.1961 10.1611 11.0196 10.1611 11.9219C10.1611 12.5964 10.3042 13.1745 10.5904 13.6564C10.9124 14.2083 11.3863 14.5411 12.0212 14.6726C12.1911 14.7076 12.3521 14.7251 12.5042 14.7251C13.3717 14.7251 14.0691 14.2872 14.6058 13.4111C15.0708 12.6577 15.3034 11.8342 15.3034 10.932C15.3034 10.2487 15.1603 9.67933 14.8741 9.20624ZM13.7384 11.6328C13.6131 12.211 13.3895 12.6402 13.0586 12.9293C12.7993 13.1571 12.5578 13.2534 12.3343 13.2097C12.1196 13.1659 11.9407 12.9819 11.8067 12.6403C11.6993 12.3687 11.6457 12.0971 11.6457 11.8431C11.6457 11.6241 11.6636 11.4051 11.7083 11.2036C11.7888 10.8445 11.9408 10.494 12.1822 10.1611C12.4774 9.73186 12.7904 9.55668 13.1123 9.61797C13.327 9.66174 13.5059 9.84576 13.64 10.1874C13.7473 10.459 13.8009 10.7306 13.8009 10.9846C13.8099 11.2123 13.783 11.4314 13.7384 11.6328Z" fill="white"/>
</g>
<defs>
<clipPath id="clip0_1554_4650">
<rect width="22" height="25" fill="white"/>
</clipPath>
</defs>
</svg>
