<svg width="189" height="189" viewBox="0 0 189 189" fill="none" xmlns="http://www.w3.org/2000/svg">
<g clip-path="url(#clip0_10825_4801)">
<path d="M160.783 94.3589C160.783 96.3363 160.681 98.2631 160.479 100.19C160.631 98.2631 160.783 96.2856 160.783 94.3589Z" fill="url(#paint0_linear_10825_4801)"/>
<path d="M143.139 139.485C147.195 135.074 150.694 130.156 153.432 124.781C150.643 130.156 147.195 135.074 143.139 139.485Z" fill="url(#paint1_linear_10825_4801)"/>
<path d="M159.462 107.594C158.701 111.448 157.586 115.2 156.166 118.749C157.586 115.149 158.701 111.448 159.462 107.594Z" fill="url(#paint2_linear_10825_4801)"/>
<path d="M156.015 119.104C155.305 120.93 154.494 122.704 153.581 124.428C154.443 122.704 155.254 120.93 156.015 119.104Z" fill="url(#paint3_linear_10825_4801)"/>
<path d="M126.101 152.719C126.101 152.719 125.848 152.872 125.746 152.922C124.479 153.581 123.16 154.241 121.842 154.849C116.011 157.486 109.825 159.311 103.437 160.173C99.1775 160.781 94.817 160.933 90.4058 160.68C85.9946 160.426 81.5326 159.717 77.1214 158.5C70.0736 156.624 63.6342 153.581 57.854 149.779C45.7358 141.767 36.7612 130.055 31.9444 116.618H31.843C31.843 116.618 9.58404 90.2017 5.83196 61.8076C4.86859 64.4442 4.00663 67.1315 3.24607 69.8695C1.97848 74.6357 1.06581 79.4525 0.558773 84.2187C-4.20738 127.722 21.905 169.35 64.0398 183.649C100.952 179.288 129.752 150.59 129.752 150.59C128.586 151.35 127.369 152.06 126.101 152.719Z" fill="url(#paint4_linear_10825_4801)"/>
<path d="M126 5.52677C123.668 4.71551 121.284 3.95496 118.901 3.29581C78.6933 -7.55479 37.6233 9.32956 15.77 42.1349C11.7644 48.1686 8.41792 54.7601 5.83203 61.8079C9.58411 90.202 31.843 116.619 31.843 116.619H31.9445C30.6262 113.069 29.6121 109.317 28.9529 105.515C27.3811 96.3372 27.6853 86.7035 30.2205 77.1205C34.6825 60.4896 45.0767 47.0531 58.5132 38.4335C75.0933 20.4844 106.327 3.65074 126 5.47607V5.52677Z" fill="url(#paint5_linear_10825_4801)"/>
<path d="M159.31 80.3657C159.767 82.4953 160.172 84.6248 160.375 86.8051C161.288 94.9177 160.781 103.284 158.499 111.65C157.992 113.577 157.384 115.402 156.725 117.227C156.623 117.532 156.522 117.836 156.37 118.14C155.71 119.864 154.95 121.588 154.189 123.261C154.037 123.515 153.936 123.819 153.784 124.072C152.009 127.571 149.981 130.917 147.699 134.01C147.649 134.112 147.547 134.213 147.496 134.314C146.33 135.886 145.063 137.357 143.795 138.827C143.694 138.929 143.643 139.03 143.542 139.081C139.485 143.543 134.821 147.396 129.75 150.59C129.75 150.59 100.95 179.289 64.0381 183.649C65.9648 184.308 67.8916 184.968 69.869 185.525C114.995 197.643 161.237 174.928 180.099 133.858C179.44 104.45 159.31 80.4164 159.31 80.4164V80.3657Z" fill="url(#paint6_linear_10825_4801)"/>
<path d="M188.567 100.443C191.305 58.9167 166.054 19.7227 125.998 5.5257C106.325 3.70037 75.0918 20.534 58.5117 38.4831C73.7228 28.748 92.7874 25.1987 111.599 30.2691C120.32 32.6015 128.179 36.6071 134.922 41.8296C137.508 43.807 139.891 45.9873 142.122 48.3196C144.353 50.652 146.432 53.1365 148.257 55.7224C150.133 58.3083 151.807 61.0463 153.277 63.8857C155.964 69.0575 157.942 74.6349 159.209 80.4151C159.209 80.4151 179.339 104.449 179.998 133.857C182.178 129.091 184.003 124.122 185.423 118.95C187.096 112.815 188.06 106.629 188.465 100.494L188.567 100.443Z" fill="url(#paint7_linear_10825_4801)"/>
<path d="M140.604 73.418C140.654 74.0772 140.806 74.6856 140.806 75.2941C140.806 86.9052 131.426 96.2854 119.815 96.2854C108.204 96.2854 98.8237 86.9052 98.8237 75.2941C98.8237 63.6829 108.204 54.3027 119.815 54.3027C122.502 54.3027 125.088 54.8605 127.471 55.7731C119.916 49.638 110.283 45.9873 99.7871 45.9873C75.3986 45.9873 55.6748 65.7618 55.6748 90.0996C55.6748 114.437 75.4493 134.212 99.7871 134.212C124.125 134.212 143.899 114.437 143.899 90.0996C143.899 84.1672 142.733 78.5391 140.604 73.3673V73.418Z" fill="url(#paint8_linear_10825_4801)"/>
</g>
<defs>
<linearGradient id="paint0_linear_10825_4801" x1="96.1868" y1="159.209" x2="195.262" y2="64.0896" gradientUnits="userSpaceOnUse">
<stop stop-color="#F4BE44"/>
<stop offset="0.55" stop-color="#EE7E07"/>
<stop offset="1" stop-color="#EA5E47"/>
</linearGradient>
<linearGradient id="paint1_linear_10825_4801" x1="107.646" y1="171.124" x2="206.721" y2="76.0042" gradientUnits="userSpaceOnUse">
<stop stop-color="#F4BE44"/>
<stop offset="0.55" stop-color="#EE7E07"/>
<stop offset="1" stop-color="#EA5E47"/>
</linearGradient>
<linearGradient id="paint2_linear_10825_4801" x1="102.775" y1="166.056" x2="201.85" y2="70.9352" gradientUnits="userSpaceOnUse">
<stop stop-color="#F4BE44"/>
<stop offset="0.55" stop-color="#EE7E07"/>
<stop offset="1" stop-color="#EA5E47"/>
</linearGradient>
<linearGradient id="paint3_linear_10825_4801" x1="105.615" y1="168.997" x2="204.691" y2="73.8769" gradientUnits="userSpaceOnUse">
<stop stop-color="#F4BE44"/>
<stop offset="0.55" stop-color="#EE7E07"/>
<stop offset="1" stop-color="#EA5E47"/>
</linearGradient>
<linearGradient id="paint4_linear_10825_4801" x1="-7.79378" y1="95.7087" x2="105.356" y2="172.442" gradientUnits="userSpaceOnUse">
<stop stop-color="white"/>
<stop offset="0.51" stop-color="white"/>
<stop offset="0.77" stop-color="white" stop-opacity="0.8"/>
<stop offset="1" stop-color="white" stop-opacity="0.5"/>
</linearGradient>
<linearGradient id="paint5_linear_10825_4801" x1="90.0285" y1="-10.93" x2="20.6809" y2="114.391" gradientUnits="userSpaceOnUse">
<stop stop-color="white"/>
<stop offset="0.48" stop-color="white"/>
<stop offset="0.8" stop-color="white" stop-opacity="0.8"/>
<stop offset="1" stop-color="white" stop-opacity="0.5"/>
</linearGradient>
<linearGradient id="paint6_linear_10825_4801" x1="56.5351" y1="202.475" x2="178.504" y2="106.791" gradientUnits="userSpaceOnUse">
<stop stop-color="white"/>
<stop offset="0.49" stop-color="white"/>
<stop offset="0.76" stop-color="white" stop-opacity="0.8"/>
<stop offset="1" stop-color="white" stop-opacity="0.5"/>
</linearGradient>
<linearGradient id="paint7_linear_10825_4801" x1="205.531" y1="103.714" x2="75.0852" y2="13.9814" gradientUnits="userSpaceOnUse">
<stop stop-color="white"/>
<stop offset="0.42" stop-color="white"/>
<stop offset="0.73" stop-color="white" stop-opacity="0.8"/>
<stop offset="1" stop-color="white" stop-opacity="0.5"/>
</linearGradient>
<linearGradient id="paint8_linear_10825_4801" x1="125.291" y1="70.1223" x2="59.072" y2="122.144" gradientUnits="userSpaceOnUse">
<stop stop-color="white"/>
<stop offset="0.42" stop-color="white"/>
<stop offset="1" stop-color="white" stop-opacity="0.8"/>
</linearGradient>
<clipPath id="clip0_10825_4801">
<rect width="188.77" height="188.77" fill="white"/>
</clipPath>
</defs>
</svg>
