<svg width="50" height="50" viewBox="0 0 50 50" fill="none" xmlns="http://www.w3.org/2000/svg">
<path d="M14.5937 19.9247H20.7783C21.7242 19.9247 22.491 20.6931 22.491 21.6409V39.0883C22.491 43.4587 18.9552 47.0016 14.5937 47.0016C10.2321 47.0016 6.69641 43.4587 6.69641 39.0883V27.838C6.69641 23.4676 10.2321 19.9247 14.5937 19.9247ZM12.8841 30.2216C14.4052 30.2216 15.6383 28.9907 15.6383 27.4724C15.6383 25.954 14.4052 24.7232 12.8841 24.7232C11.3631 24.7232 10.13 25.954 10.13 27.4724C10.13 28.9907 11.3631 30.2216 12.8841 30.2216Z" fill="white"/>
<path d="M34.6037 3H41.835C42.7808 3 43.5476 3.76834 43.5476 4.71614V38.6576C43.5476 43.6073 39.5433 47.6197 34.6037 47.6197H27.3725C26.4266 47.6197 25.6598 46.8514 25.6598 45.9036V11.9621C25.6598 7.01246 29.6641 3 34.6037 3Z" fill="white"/>
</svg>
