<svg width="50" height="50" viewBox="0 0 50 50" fill="none" xmlns="http://www.w3.org/2000/svg">
<path d="M40.0427 47.937H9.993C9.0194 47.9247 8.09495 47.4977 7.44238 46.7585C6.55694 45.7583 6.11247 44.4297 6.2132 43.0842L9.14432 17.2455C9.28583 14.8912 10.946 13.047 12.924 13.047H16.2223V11.5671C16.2223 6.29155 20.168 2 25.0179 2C27.3935 2.00586 29.6577 3.03038 31.2599 4.82433C32.9187 6.65793 33.8323 9.06899 33.815 11.5671V13.0475H37.1124C39.0901 13.0475 40.7515 14.8917 40.8941 17.2459L41.1642 19.6363L43.823 43.0846C43.9235 44.43 43.4793 45.7583 42.594 46.7585C41.941 47.4977 41.0165 47.9247 40.0427 47.937ZM14.7635 20.4265C13.8359 20.4265 13.0841 21.1955 13.0841 22.1442C13.0841 23.0928 13.8359 23.8618 14.7635 23.8618C19.7827 23.8544 24.5971 25.8967 28.1377 29.5356C31.7159 33.1577 33.7248 38.0962 33.7152 43.2455C33.7157 44.1938 34.4675 44.9623 35.3947 44.9618C36.3213 44.9615 37.0724 44.1933 37.0727 43.2455C37.0724 30.6632 27.0646 20.4265 14.7635 20.4265ZM14.7635 27.6237C13.8359 27.6245 13.0846 28.3939 13.0853 29.3427C13.086 30.2902 13.8369 31.0585 14.7635 31.059C21.3407 31.0666 26.6708 36.5182 26.6782 43.2455C26.7124 44.179 27.4446 44.9278 28.3575 44.9625C29.2637 44.9837 30.0151 44.2492 30.0356 43.3223C30.0362 43.2969 30.0362 43.2716 30.0356 43.2463C30.0655 34.6487 23.2754 27.6542 14.8696 27.6237C14.8342 27.6235 14.7988 27.6235 14.7635 27.6237ZM17.4824 35.8843C15.0608 35.8764 13.0912 37.8778 13.0834 40.3547C13.0834 40.3638 13.0834 40.3729 13.0834 40.382C13.0834 42.9073 15.0566 44.9623 17.4824 44.9623C19.9024 44.9409 21.8589 42.9395 21.8797 40.4644C21.9225 39.2708 21.4858 38.1115 20.6711 37.2557C19.8361 36.3721 18.6839 35.8767 17.4824 35.8843ZM25.0179 3.87508C21.1793 3.87508 18.0556 7.3254 18.0556 11.5671V13.0475H31.9819V11.5671C31.9987 9.54439 31.2616 7.59112 29.9203 6.10458C28.6636 4.69193 26.8852 3.88316 25.0179 3.87508Z" fill="white"/>
</svg>
