<svg width="127" height="51" viewBox="0 0 127 51" fill="none" xmlns="http://www.w3.org/2000/svg">
<path d="M28.6257 36.5958V38.6064H27.7871V33.8521H33.1457V34.4746H28.6257V35.9733H32.335V36.5958H28.6257Z" fill="#1E2423"/>
<path d="M40.9861 33.8521H41.8161V36.255C41.8161 38.0355 40.4238 38.7343 38.8315 38.7343C37.2392 38.7343 35.8662 38.0355 35.8662 36.255V33.8521H36.6941V36.255C36.6941 37.6527 37.7617 38.1032 38.8293 38.1032C39.897 38.1032 40.9796 37.6516 40.9796 36.255L40.9861 33.8521Z" fill="#1E2423"/>
<path d="M49.8195 38.6064L48.3981 36.8421H46.0242V38.6064H45.1855V33.8521H48.7228C49.9431 33.8521 50.6968 34.4907 50.6968 35.3573C50.6968 36.0722 50.1528 36.5754 49.2991 36.7625L50.7764 38.6064H49.8195ZM46.0242 34.4746V36.2292H48.5508C49.3808 36.2292 49.841 35.9314 49.841 35.3519C49.841 34.7724 49.384 34.4746 48.5508 34.4746H46.0242Z" fill="#1E2423"/>
<path d="M54.8835 35.0965V38.6068H54.0449V33.7676L59.5755 37.422V33.8525H60.4045V38.6918L54.8835 35.0965Z" fill="#1E2423"/>
<path d="M64.9667 33.8521H64.1367V38.6064H64.9667V33.8521Z" fill="#1E2423"/>
<path d="M70.4805 38.6064V34.4746H67.9346V33.8521H73.8554V34.4746H71.3106V38.6064H70.4805Z" fill="#1E2423"/>
<path d="M81.4817 33.8521H82.3106V36.255C82.3106 38.0355 80.9194 38.7343 79.3271 38.7343C77.7348 38.7343 76.3672 38.0355 76.3672 36.255V33.8521H77.1961V36.255C77.1961 37.6527 78.2638 38.1032 79.3325 38.1032C80.4012 38.1032 81.4828 37.6516 81.4828 36.255L81.4817 33.8521Z" fill="#1E2423"/>
<path d="M90.1241 38.6064L88.7039 36.8421H86.3299V38.6064H85.4902V33.8521H89.0286C90.2489 33.8521 91.0015 34.4907 91.0015 35.3573C91.0015 36.0722 90.4585 36.5754 89.6038 36.7625L91.081 38.6118L90.1241 38.6064ZM86.3299 34.4746V36.2292H88.8565C89.6855 36.2292 90.1467 35.9314 90.1467 35.3519C90.1467 34.7724 89.6887 34.4746 88.8565 34.4746H86.3299Z" fill="#1E2423"/>
<path d="M94.0293 38.6064V33.8521H99.3879V34.466H94.8679V35.8293H98.6245V36.4507H94.8679V37.9839H99.3879V38.6064H94.0293Z" fill="#1E2423"/>
<path d="M26.1582 29.6183L27.0861 29.3667C28.0892 29.0915 28.2687 28.9162 28.2687 26.8089V16.3498C28.2687 14.2672 28.0924 14.0672 27.0861 13.7909L26.1582 13.5404V13.1104H38.3236V16.5508H37.7968L37.4957 15.4187C37.2441 14.4898 36.6926 14.236 33.8832 14.236H31.6512V20.5386H33.909C36.2163 20.5386 36.5679 20.4633 36.8184 19.5849L37.0936 18.6571H37.5452V23.6974H37.0936L36.7926 22.6437C36.542 21.7664 36.2163 21.6912 33.909 21.6912H31.6512V26.3315C31.6512 28.6893 31.9522 28.9119 33.0306 28.9119H34.5111C37.0915 28.9119 37.8215 28.5356 38.3236 27.4819L38.8751 26.2993L39.402 26.4251L38.6493 30.0365H26.1582V29.6183Z" fill="#1E2423"/>
<path d="M41.6077 26.6076V20.8888C41.6077 19.0837 41.4572 18.9073 40.5541 18.7321L39.6768 18.5364V18.1601L44.3666 17.5591L44.5171 17.6838V26.0109C44.5171 27.6172 45.4955 28.5912 47.076 28.5912C48.5059 28.5912 49.4091 27.7386 49.4091 26.986V20.8888C49.4091 19.0837 49.2585 18.9073 48.3554 18.7321L47.477 18.5364V18.1601L52.1679 17.5591L52.3184 17.6838V27.3161C52.3184 29.1213 52.4937 29.2718 53.3936 29.4729L54.2462 29.6728V30.0405L49.7305 30.2921L49.5553 30.1911V28.3386H49.5295C48.3758 29.5212 47.1717 30.4459 45.4439 30.4459C43.0603 30.4459 41.6056 28.9912 41.6056 26.6076" fill="#1E2423"/>
<path d="M54.9582 29.6936L55.7366 29.4678C56.6139 29.242 56.7645 29.0915 56.7645 27.2852V20.8891C56.7645 19.084 56.514 18.9076 55.6108 18.7324L54.7324 18.5367V18.1604L59.3481 17.5594L59.4986 17.6766V19.7613H59.5233C60.8027 18.1808 61.7553 17.4282 62.9348 17.4282C63.9626 17.4282 64.7152 18.1808 64.7152 19.184C64.7147 19.61 64.5455 20.0185 64.2448 20.3203C63.944 20.622 63.5361 20.7925 63.11 20.7945L62.9595 20.7193C62.8287 20.408 62.6092 20.1422 62.3283 19.9548C62.0475 19.7675 61.7177 19.6669 61.3801 19.6656C60.2254 19.6656 59.6738 20.5182 59.6738 21.1203V27.2906C59.6738 29.0969 59.8996 29.2474 60.778 29.4226L62.0564 29.699V30.0409H54.9604L54.9582 29.6936Z" fill="#1E2423"/>
<path d="M88.9442 27.4858C88.9442 24.4001 92.0547 23.7485 95.7177 23.0206V21.3907C95.7177 19.835 94.7651 18.7566 93.2599 18.7566C91.93 18.7566 91.5547 19.4845 91.5547 20.3123V20.9639L91.4795 21.1144C91.1324 21.3137 90.7419 21.4252 90.342 21.4391C89.8657 21.4391 89.5893 21.1381 89.5893 20.6607C89.5893 19.8081 90.4925 18.9555 91.1698 18.5039C92.1224 17.848 93.2485 17.4902 94.405 17.4761C97.2896 17.4761 98.5432 19.106 98.5432 21.6896V27.1578C98.5432 28.963 98.7443 29.2393 99.6474 29.4393L100.575 29.6651V30.0403L96.0596 30.2919L95.8833 30.1909V28.3631H95.8586C94.906 29.292 93.7513 30.3704 92.0955 30.3704C90.5151 30.3704 88.9346 29.2662 88.9346 27.4858M95.708 27.0342V23.899C92.8987 24.3506 91.8956 25.1785 91.8956 26.6332C91.8956 27.7363 92.7481 28.4889 93.8523 28.4889C95.006 28.4889 95.708 27.761 95.708 27.0342Z" fill="#1E2423"/>
<path d="M77.3255 14.666V23.9349C78.3695 23.2102 79.3683 22.4082 80.236 21.6685V11.4545L80.0854 11.333L75.3945 11.9351V12.3114L76.2729 12.5157C77.175 12.692 77.3255 12.8673 77.3255 14.6735" fill="#1E2423"/>
<path d="M88.3841 29.4925C87.6068 29.2667 87.281 28.8151 86.2779 27.2852L83.0417 22.3696L84.8694 20.6633C86.3499 19.3097 86.8767 18.728 87.7799 18.4818L88.6067 18.2808V17.9045H82.7664V18.2808L83.5706 18.4818C84.348 18.7076 84.8253 19.1839 83.2481 20.6633C83.2481 20.6633 80.5989 23.1362 80.2376 23.4437L79.5495 24.0199C79.2055 24.3027 78.4744 24.8736 78.4744 24.8736C78.1002 25.1596 77.7143 25.4424 77.3229 25.7144C75.4532 27.0142 73.4523 28.0657 71.8654 28.0657C69.5743 28.0657 68.0529 26.8454 67.3498 25.0693C72.8664 23.8339 75.0629 22.5749 75.164 22.5179V22.5029H75.1758C75.1979 22.3286 75.2065 22.1528 75.2016 21.9771C75.2016 19.5688 73.3739 17.3862 70.4613 17.3862C66.6735 17.3862 64.5662 20.7977 64.5662 24.1597C64.5662 24.3866 64.5759 24.608 64.592 24.8252C63.9222 25.0607 63.2438 25.2875 62.5664 25.4983H62.5761L62.6578 25.967C63.3746 25.8531 64.0537 25.7366 64.6952 25.6176C65.222 28.5291 67.3412 30.3816 70.1344 30.3816C70.2817 30.3816 70.4247 30.3816 70.5645 30.3655C71.4719 30.3214 74.0372 29.9956 76.7799 27.8238C76.9649 27.6776 77.1444 27.5335 77.3229 27.3938C77.3175 29.114 77.1573 29.2613 76.2951 29.4828L75.5177 29.7086V30.0408H82.0385V29.6903L81.2612 29.4645C80.3839 29.2387 80.2333 29.0882 80.2333 27.282V24.9381C80.5272 24.6815 80.8007 24.44 81.0537 24.2135L84.5716 30.0408H89.012V29.6903L88.3841 29.4925ZM67.4691 19.7795C67.7149 19.3673 68.0657 19.0277 68.4855 18.7952C68.9054 18.5627 69.3794 18.4457 69.8592 18.456C71.1375 18.456 72.1256 19.2882 72.2923 20.2139C72.3159 20.3214 72.4869 21.1063 72.3277 21.6546C70.9376 22.2997 69.0722 23.1157 67.0165 23.9124C66.5585 21.3912 67.1573 20.1999 67.4691 19.7752" fill="#1E2423"/>
</svg>
