<svg width="116" height="47" viewBox="0 0 116 47" fill="none" xmlns="http://www.w3.org/2000/svg">
<path d="M27.7451 15.0704C27.4727 14.7308 27.0641 14.4592 26.6554 14.2554C26.2468 13.9838 25.7701 13.848 25.2252 13.848C24.9528 13.848 24.6804 13.9159 24.408 13.9838C24.0675 14.0517 23.795 14.1196 23.5907 14.3233C23.3864 14.4592 23.1821 14.6629 23.0459 14.8666C22.9097 15.1383 22.8416 15.4099 22.8416 15.7495C22.8416 16.0211 22.9097 16.2928 23.0459 16.5644C23.1821 16.7682 23.3183 16.9719 23.5907 17.1077C23.8631 17.3115 24.1356 17.4473 24.408 17.5152C24.7485 17.651 25.089 17.7869 25.4296 17.8548C25.9063 17.9906 26.3149 18.1943 26.7917 18.3302C27.2684 18.466 27.677 18.7376 28.0856 19.0772C28.4943 19.4168 28.8348 19.7563 29.0391 20.2317C29.3115 20.775 29.4478 21.3183 29.4478 21.9295C29.4478 22.6086 29.3115 23.2198 29.0391 23.831C28.7667 24.3743 28.4262 24.8497 27.9494 25.1893C27.4727 25.5288 26.9279 25.8684 26.3149 26.0042C25.702 26.208 25.0209 26.2759 24.408 26.2759C23.5226 26.2759 22.5691 26.1401 21.7519 25.8005C20.9346 25.4609 20.2536 24.9176 19.6406 24.2385L21.4114 22.6086C21.82 23.084 22.2967 23.4236 22.8416 23.6952C23.3864 23.9669 23.9312 24.1027 24.5442 24.1027C24.8166 24.1027 25.1571 24.0348 25.4296 23.9669C25.702 23.899 25.9744 23.7631 26.2468 23.6273C26.4511 23.4915 26.6554 23.2877 26.7917 23.0161C26.9279 22.7444 27.0641 22.4049 27.0641 22.0653C27.0641 21.7258 26.996 21.3862 26.7917 21.1825C26.6554 20.9108 26.383 20.7071 26.1106 20.5713C25.7701 20.3675 25.4296 20.2317 25.089 20.0959C24.6123 20.0959 24.2037 19.8921 23.7269 19.7563C23.3183 19.6205 22.9097 19.4168 22.501 19.2809C22.0924 19.1451 21.6838 18.8735 21.3433 18.5339C21.0027 18.2622 20.7984 17.8548 20.5941 17.4473C20.3898 16.904 20.2536 16.3607 20.2536 15.8174C20.2536 15.2062 20.3898 14.5271 20.7303 13.9838C21.0027 13.5084 21.4114 13.1009 21.8881 12.7614C22.3648 12.4218 22.9097 12.1501 23.5226 12.0143C24.1356 11.8106 24.6804 11.7427 25.2933 11.7427C26.0425 11.7427 26.7235 11.8785 27.4046 12.1501C28.0856 12.3539 28.7667 12.7614 29.3115 13.2367L27.7451 15.0704Z" fill="#1E2423"/>
<path d="M30.8711 12.1953H33.3229V17.6962H39.7929V12.1953H42.2446V25.9136H39.7929V19.8015H33.3229V25.9136H30.9392L30.8711 12.1953Z" fill="#1E2423"/>
<path d="M59.7148 12.1953H64.2098C64.9589 12.1953 65.64 12.2632 66.3891 12.467C67.0021 12.6028 67.5469 12.8065 68.0237 13.214C68.9771 13.961 69.522 15.0476 69.4539 16.27C69.4539 16.9492 69.3177 17.5604 69.0452 18.1716C68.7728 18.7149 68.3642 19.1224 67.8874 19.394C67.3426 19.7336 66.7978 19.9373 66.1848 20.0731C65.5038 20.209 64.8227 20.3448 64.0736 20.3448H62.1666V26.0494H59.7148V12.1953ZM63.8693 18.1716C64.2779 18.1716 64.6184 18.1716 65.027 18.1037C65.3676 18.1037 65.7081 17.9678 65.9805 17.7641C66.2529 17.6283 66.5253 17.4246 66.6616 17.1529C66.8659 16.8133 66.934 16.4738 66.934 16.1342C66.934 15.7947 66.8659 15.4551 66.6616 15.1834C66.5253 14.9118 66.2529 14.7081 65.9805 14.5722C65.7081 14.5043 65.3676 14.3685 65.027 14.3685C64.6865 14.3006 64.346 14.3006 63.9374 14.3006H62.1666V18.2395L63.8693 18.1716Z" fill="#1E2423"/>
<path d="M57.8316 15.9872C57.3549 16.1909 56.81 16.4626 56.2652 16.5984C54.6988 17.0059 54.222 16.4626 54.1539 16.3947C54.0177 16.1909 53.9496 15.9872 53.8815 15.7835C53.8134 15.8514 53.7453 15.8514 53.6091 15.9193C53.3367 16.123 53.3367 16.5305 53.541 16.8021C53.8134 17.1417 54.222 17.1417 54.4945 16.938L54.5626 16.87C54.7669 16.938 54.9712 16.938 55.1755 16.938C55.4479 16.938 55.7885 16.87 56.0609 16.8021V18.8395C56.0609 18.9753 56.0609 19.1111 55.9247 19.1791L49.1823 24.6799C49.0461 24.8837 48.8417 24.8158 48.7055 24.6799L44.8917 20.0619C44.7554 19.9261 44.8235 19.7224 44.9598 19.5865L51.7703 14.0177C51.9065 13.9498 52.0427 13.9498 52.1789 13.9498L54.3583 14.4931V14.4252C54.6307 13.8819 54.9712 13.4065 55.3798 12.9311C54.9712 12.6595 54.4945 12.3878 54.0177 12.252C52.1108 11.5729 49.9995 11.5729 48.0245 12.252C47.1391 12.5916 46.39 13.067 45.7089 13.6782C45.0279 14.2894 44.483 15.0364 44.1425 15.9193C43.7339 16.87 43.5977 17.8887 43.5977 18.9074C43.5977 19.9261 43.802 20.9448 44.1425 21.8955C44.483 22.7784 45.0279 23.5254 45.7089 24.2046C46.39 24.8837 47.1391 25.3591 48.0245 25.6986C48.978 26.0382 49.9995 26.2419 51.0211 26.2419C52.0427 26.2419 53.0643 26.1061 54.0177 25.6986C54.9031 25.3591 55.7204 24.8837 56.3333 24.2046C57.0143 23.5254 57.4911 22.7784 57.8997 21.8955C58.2402 20.9448 58.4446 19.9261 58.4446 18.9074C58.3764 17.9566 58.1721 16.938 57.8316 15.9872Z" fill="#1E2423"/>
<path d="M54.6782 14.634L55.6997 14.9057C55.9041 14.9057 56.0403 15.1094 56.0403 15.3132V16.2639C55.6997 16.2639 55.4273 16.3318 55.0868 16.3318C54.9506 16.3318 54.7463 16.3318 54.6101 16.2639C54.6101 16.196 54.6101 16.1281 54.6101 16.1281C54.4738 16.0602 54.4057 15.9923 54.2695 15.9244C54.2695 16.0602 54.2695 16.196 54.4057 16.3318C54.6782 16.5356 55.0187 16.6035 55.3592 16.6035C56.1084 16.4677 56.8575 16.196 57.5386 15.7885C57.198 15.1094 56.7213 14.4982 56.1765 13.9549C55.9722 13.7512 55.7678 13.5474 55.5635 13.4116C55.1549 13.7512 54.8144 14.1587 54.6782 14.634Z" fill="#1E2423"/>
<path d="M75.2695 12.1953H77.7213V23.8083H83.5783V25.9815H75.2695V12.1953Z" fill="#1E2423"/>
<path d="M94.9207 15.4468C94.5802 14.9714 94.1035 14.5639 93.4905 14.3602C92.3328 13.8848 91.0388 13.8848 89.8129 14.3602C89.268 14.6318 88.7913 14.9714 88.3146 15.4468C87.9059 15.8542 87.5654 16.4654 87.3611 17.0087C87.0887 17.6879 87.0206 18.367 87.0206 18.9782C87.0206 19.6573 87.1568 20.4044 87.3611 21.0835C87.5654 21.6947 87.9059 22.238 88.3146 22.7134C88.7232 23.1888 89.1999 23.5283 89.8129 23.732C90.4258 24.0037 91.0388 24.1395 91.7198 24.1395C92.4009 24.1395 93.0819 24.0037 93.6949 23.6641C94.2397 23.3925 94.7164 22.985 95.057 22.5096L97.032 23.8679C96.4191 24.6149 95.6699 25.2261 94.7845 25.6336C93.8311 26.0411 92.7414 26.3127 91.6517 26.2448C90.6301 26.2448 89.6086 26.109 88.6551 25.7015C87.8378 25.4299 87.0206 24.8866 86.4076 24.2753C85.7266 23.6641 85.2498 22.8492 84.9093 21.9663C84.5007 21.0156 84.2964 19.9969 84.3645 18.9782C84.3645 17.9595 84.5007 16.9408 84.9093 15.9901C85.2498 15.1072 85.7947 14.3602 86.5438 13.749C87.974 12.4586 89.881 11.7795 91.856 11.8474C92.3328 11.8474 92.8095 11.9153 93.2181 11.9832C93.6949 12.0512 94.1716 12.187 94.5802 12.3907C95.057 12.5265 95.4656 12.7303 95.8061 13.0019C96.2828 13.2057 96.6234 13.5452 96.8958 13.8848L94.9207 15.4468Z" fill="#1E2423"/>
<path d="M35.3779 31.777C35.3779 32.0486 35.3098 32.3203 35.1736 32.5919C35.1055 32.7957 34.9012 32.9994 34.6969 33.1352C34.4925 33.2711 34.2882 33.4069 34.0839 33.4748C33.8115 33.5427 33.6072 33.6106 33.3348 33.6106H31.9727V29.9434H33.2667C33.5391 29.9434 33.8115 29.9434 34.0158 30.0113C34.2882 30.0792 34.4925 30.1471 34.6969 30.3508C34.9012 30.4867 35.0374 30.6904 35.1736 30.8941C35.3098 31.1658 35.3779 31.5053 35.3779 31.777ZM34.4925 31.777C34.4925 31.5733 34.4925 31.4374 34.3563 31.2337C34.2882 31.0979 34.2201 30.962 34.0839 30.8941C33.9477 30.8262 33.8115 30.7583 33.6753 30.7583C33.5391 30.7583 33.4029 30.6904 33.1985 30.6904H32.7218V32.7957H33.1304C33.2667 32.7957 33.4029 32.7957 33.6072 32.7278C33.7434 32.6598 33.8796 32.6598 34.0158 32.524C34.152 32.4561 34.2201 32.3203 34.2882 32.1845C34.4244 32.1165 34.4925 31.9807 34.4925 31.777Z" fill="#1E2423"/>
<path d="M36.7383 33.6106V29.9434H39.1901V30.7583H37.5555V31.4374H39.0539V32.1165H37.5555V32.8636H39.2582V33.6106H36.7383Z" fill="#1E2423"/>
<path d="M40.6211 33.6106V29.9434H41.5065V32.7957H42.8686V33.5427L40.6211 33.6106Z" fill="#1E2423"/>
<path d="M44.0898 33.6106V29.9434H44.9752V33.6106H44.0898Z" fill="#1E2423"/>
<path d="M48.31 33.6106H47.4246L46.0625 29.9434H47.016L47.8332 32.524H47.9013L48.7186 29.9434H49.6721L48.31 33.6106Z" fill="#1E2423"/>
<path d="M50.8359 33.6106V29.9434H53.2877V30.7583H51.6532V31.4374H53.1515V32.1165H51.6532V32.8636H53.3558V33.6106H50.8359Z" fill="#1E2423"/>
<path d="M56.6916 33.6106L55.8743 32.1845H55.5338V33.6106H54.6484V29.9434H56.0105C56.2149 29.9434 56.3511 29.9434 56.5554 30.0113C56.6916 30.0792 56.8959 30.0792 57.0321 30.215C57.1683 30.2829 57.3045 30.4187 57.3726 30.5546C57.4407 30.6904 57.5088 30.8941 57.5088 31.0979C57.5088 31.3016 57.4407 31.5053 57.3045 31.7091C57.1683 31.8449 56.964 31.9807 56.7597 32.1165L57.7132 33.6785L56.6916 33.6106ZM56.6235 31.0979C56.6235 31.03 56.6235 30.962 56.5554 30.8262C56.4873 30.7583 56.4873 30.6904 56.4192 30.6904C56.3511 30.6225 56.283 30.6225 56.2149 30.6225H55.6019V31.4374H56.2149C56.283 31.4374 56.3511 31.4374 56.4192 31.3695C56.4873 31.3695 56.5554 31.3016 56.5554 31.2337C56.6235 31.2337 56.6235 31.1658 56.6235 31.0979Z" fill="#1E2423"/>
<path d="M58.9414 33.6106V29.9434H59.8268V33.6106H58.9414Z" fill="#1E2423"/>
<path d="M63.7062 33.6106L62.2079 31.2337L62.276 33.6106H61.3906V29.9434H62.4122L63.9105 32.3203L63.8424 29.9434H64.7278V33.6106H63.7062Z" fill="#1E2423"/>
<path d="M68.8169 33.6107C68.5445 33.6786 68.2721 33.6786 67.9997 33.6786C67.7273 33.6786 67.4548 33.6107 67.1824 33.5428C66.9781 33.4749 66.7738 33.3391 66.5695 33.1353C66.1608 32.7958 65.9565 32.2525 66.0246 31.7771C66.0246 31.5054 66.0927 31.2338 66.1608 30.9621C66.2289 30.7584 66.3652 30.5547 66.5695 30.3509C66.7738 30.2151 66.9781 30.0793 67.1824 29.9434C67.4548 29.8755 67.7273 29.8076 67.9997 29.8076C68.2721 29.8076 68.5445 29.8076 68.8169 29.9434C69.0212 30.0114 69.2256 30.0793 69.4299 30.283L68.885 30.8942C68.8169 30.7584 68.6807 30.6905 68.5445 30.6226C68.4083 30.5547 68.204 30.4867 68.0678 30.4867C67.9316 30.4867 67.7954 30.4867 67.6591 30.5547C67.5229 30.6226 67.3867 30.6905 67.3186 30.8263C67.2505 30.9621 67.1143 31.0979 67.0462 31.2338C66.9781 31.3696 66.9781 31.5054 66.9781 31.7092C66.9781 31.845 66.9781 31.9808 67.0462 32.1845C67.0462 32.3204 67.1824 32.4562 67.3186 32.592C67.4548 32.6599 67.5229 32.7958 67.6591 32.8637C67.7954 32.9316 67.9997 32.9316 68.1359 32.9316C68.2721 32.9316 68.3402 32.9316 68.4764 32.8637C68.5445 32.8637 68.6807 32.8637 68.7488 32.7958V32.2525H68.0678V31.5054H69.5661V33.407C69.2937 33.4749 69.0212 33.6107 68.8169 33.6107Z" fill="#1E2423"/>
<path d="M74.5331 33.4068C74.3288 33.6106 74.1245 33.6785 73.8521 33.7464H73.6478C73.3753 33.7464 73.1029 33.6785 72.8305 33.4748C72.6262 33.3389 72.49 33.1352 72.4219 32.8635L73.2391 32.5919C73.2391 32.6598 73.3072 32.7277 73.3753 32.8635C73.4435 32.9315 73.5116 32.9315 73.6478 32.9315C73.784 32.9315 73.9202 32.8635 73.9883 32.7956C74.0564 32.6598 74.0564 32.524 74.0564 32.3882V30.0112H74.9418V32.3882C74.9418 32.5919 74.9418 32.8635 74.8056 33.0673C74.6693 33.2031 74.6012 33.3389 74.5331 33.4068Z" fill="#1E2423"/>
<path d="M83.1889 32.1165V33.6785H82.3035V32.1165L80.9414 30.0112H81.963L82.7802 31.3695L83.5975 30.0112H84.6191L83.1889 32.1165Z" fill="#1E2423"/>
<path d="M78.1882 33.7342C77.0985 33.7342 76.2812 32.9192 76.2812 31.9006C76.2812 30.8819 77.0985 29.999 78.1882 29.999C79.2779 29.999 80.0951 30.814 80.0951 31.9006C80.027 32.9192 79.2098 33.7342 78.1882 33.7342ZM78.1882 30.814C77.5752 30.814 77.0985 31.2894 77.0985 31.9006C77.0985 32.5118 77.5752 32.9872 78.1882 32.9872C78.8011 32.9872 79.2779 32.5118 79.2779 31.9006C79.2098 31.2894 78.733 30.814 78.1882 30.814Z" fill="#1E2423"/>
</svg>
