<svg width="116" height="47" viewBox="0 0 116 47" fill="none" xmlns="http://www.w3.org/2000/svg">
<path d="M9.904 27H6.784V26.968C7.04 26.4773 7.21067 26.04 7.296 25.656C7.38133 25.272 7.424 24.7547 7.424 24.104V18.184C7.424 17.5333 7.38133 17.016 7.296 16.632C7.21067 16.248 7.04 15.8107 6.784 15.32V15.288H14.656L15.28 18.136L15.136 18.168C14.976 18.008 14.688 17.6827 14.272 17.192C13.8667 16.7013 13.5093 16.3173 13.2 16.04C12.9013 15.7627 12.6453 15.624 12.432 15.624L9.264 15.512V20.792H10.96C11.1413 20.792 11.3333 20.728 11.536 20.6C11.7387 20.472 11.904 20.3387 12.032 20.2C12.16 20.0613 12.32 19.8693 12.512 19.624C12.7147 19.368 12.8587 19.1973 12.944 19.112H13.088V22.728H12.944C12.8907 22.6747 12.752 22.52 12.528 22.264C12.3147 22.008 12.1493 21.816 12.032 21.688C11.9147 21.56 11.7493 21.432 11.536 21.304C11.3333 21.176 11.1413 21.112 10.96 21.112H9.264V24.104C9.264 24.776 9.30133 25.2987 9.376 25.672C9.46133 26.0453 9.63733 26.4773 9.904 26.968V27ZM21.4805 24.872C21.2565 25.576 20.8725 26.1467 20.3285 26.584C19.7845 27.0213 19.1125 27.24 18.3125 27.24C17.2565 27.24 16.3925 26.872 15.7205 26.136C15.0485 25.3893 14.7125 24.4507 14.7125 23.32C14.7125 22.104 15.0912 21.1013 15.8485 20.312C16.6165 19.5227 17.4698 19.128 18.4085 19.128C19.3045 19.128 20.0458 19.464 20.6325 20.136C21.2298 20.7973 21.5072 21.5013 21.4645 22.248H16.3285V22.552C16.3285 23.6507 16.5792 24.4827 17.0805 25.048C17.5818 25.6027 18.2645 25.88 19.1285 25.88C20.0458 25.88 20.7978 25.5227 21.3845 24.808L21.4805 24.872ZM18.3445 19.416C17.7578 19.416 17.2938 19.656 16.9525 20.136C16.6218 20.6053 16.4245 21.224 16.3605 21.992L19.8325 21.912V21.736C19.8325 20.1893 19.3365 19.416 18.3445 19.416ZM25.0731 26.376C25.6171 26.376 26.0545 26.2213 26.3851 25.912V23.48C24.7318 23.8533 23.9051 24.4773 23.9051 25.352C23.9051 25.672 24.0065 25.9227 24.2091 26.104C24.4118 26.2853 24.6998 26.376 25.0731 26.376ZM27.7451 27.192C26.9985 27.192 26.5558 26.856 26.4171 26.184C25.7985 26.888 25.0305 27.24 24.1131 27.24C23.6118 27.24 23.2011 27.1227 22.8811 26.888C22.5611 26.6533 22.4011 26.3173 22.4011 25.88C22.4011 25.3787 22.6251 24.9307 23.0731 24.536C23.5211 24.1413 24.0225 23.848 24.5771 23.656C25.1425 23.4533 25.7451 23.304 26.3851 23.208V21.464C26.3851 21.016 26.2731 20.6747 26.0491 20.44C25.8251 20.2053 25.4465 20.088 24.9131 20.088C24.0811 20.088 23.3718 20.328 22.7851 20.808L22.7051 20.712C23.4411 19.656 24.5025 19.128 25.8891 19.128C26.6251 19.128 27.1585 19.3093 27.4891 19.672C27.8198 20.024 27.9851 20.4773 27.9851 21.032V25.592C27.9851 26.0613 28.1931 26.296 28.6091 26.296C28.8758 26.296 29.1371 26.1947 29.3931 25.992L29.4251 26.024C29.0305 26.8027 28.4705 27.192 27.7451 27.192ZM32.3659 27.24C31.1712 27.24 30.5739 26.5947 30.5739 25.304V19.656H29.7099V19.56L32.0299 17.56H32.1899V19.368H34.2539V19.656H32.1899V25.256C32.1899 26.0453 32.5632 26.44 33.3099 26.44C33.7152 26.44 34.0672 26.3493 34.3659 26.168L34.4139 26.232C33.9339 26.904 33.2512 27.24 32.3659 27.24ZM35.3305 27V26.968C35.5652 26.2533 35.6825 25.2293 35.6825 23.896V17.496C35.6825 16.6533 35.4425 15.96 34.9625 15.416V15.384L37.2825 14.552V20.6C38.0932 19.6187 38.9518 19.128 39.8585 19.128C40.5838 19.128 41.1438 19.336 41.5385 19.752C41.9332 20.1573 42.1305 20.7227 42.1305 21.448V23.896C42.1305 24.7067 42.1465 25.32 42.1785 25.736C42.2212 26.152 42.3225 26.5627 42.4825 26.968V27H40.1625V26.968C40.4078 26.2427 40.5305 25.2187 40.5305 23.896V21.816C40.5305 21.3253 40.4078 20.92 40.1625 20.6C39.9172 20.2693 39.5492 20.104 39.0585 20.104C38.3972 20.104 37.8052 20.376 37.2825 20.92V23.896C37.2825 25.304 37.4052 26.328 37.6505 26.968V27H35.3305ZM50.4024 24.872C50.1784 25.576 49.7944 26.1467 49.2504 26.584C48.7064 27.0213 48.0344 27.24 47.2344 27.24C46.1784 27.24 45.3144 26.872 44.6424 26.136C43.9704 25.3893 43.6344 24.4507 43.6344 23.32C43.6344 22.104 44.013 21.1013 44.7704 20.312C45.5384 19.5227 46.3917 19.128 47.3304 19.128C48.2264 19.128 48.9677 19.464 49.5544 20.136C50.1517 20.7973 50.429 21.5013 50.3864 22.248H45.2504V22.552C45.2504 23.6507 45.501 24.4827 46.0024 25.048C46.5037 25.6027 47.1864 25.88 48.0504 25.88C48.9677 25.88 49.7197 25.5227 50.3064 24.808L50.4024 24.872ZM47.2664 19.416C46.6797 19.416 46.2157 19.656 45.8744 20.136C45.5437 20.6053 45.3464 21.224 45.2824 21.992L48.7544 21.912V21.736C48.7544 20.1893 48.2584 19.416 47.2664 19.416ZM51.6129 27V26.968C51.8582 26.2427 51.9809 25.2187 51.9809 23.896V22.008C51.9809 21.1653 51.7409 20.472 51.2609 19.928V19.896L53.5169 19.048V21H53.5809C53.9222 20.5947 54.1729 20.3013 54.3329 20.12C54.4929 19.9387 54.7489 19.7307 55.1009 19.496C55.4635 19.2507 55.8049 19.128 56.1249 19.128L56.0929 21.08H56.0289C55.8902 20.9627 55.6609 20.856 55.3409 20.76C55.0315 20.6533 54.7862 20.6 54.6049 20.6C54.2742 20.6 53.9329 20.84 53.5809 21.32V23.88C53.5809 25.2987 53.6982 26.328 53.9329 26.968V27H51.6129ZM69.0268 27.24C68.1414 27.24 67.2934 26.8507 66.4828 26.072C65.6508 26.8507 64.6481 27.24 63.4748 27.24C62.3441 27.24 61.4854 26.9467 60.8988 26.36C60.3121 25.7627 60.0188 25.0373 60.0188 24.184C60.0188 23.4373 60.2374 22.776 60.6748 22.2C61.1121 21.624 61.7201 21.176 62.4988 20.856C62.0828 20.2693 61.7788 19.7627 61.5868 19.336C61.3948 18.8987 61.2988 18.44 61.2988 17.96C61.2988 17.096 61.5654 16.3973 62.0988 15.864C62.6428 15.32 63.3201 15.048 64.1308 15.048C64.8881 15.048 65.4748 15.2827 65.8908 15.752C66.3068 16.2213 66.5148 16.76 66.5148 17.368C66.5148 18.584 65.7574 19.56 64.2428 20.296C64.5308 20.6373 64.9574 21.1867 65.5228 21.944C65.6081 22.0507 65.7574 22.2587 65.9708 22.568C66.1948 22.8667 66.3601 23.096 66.4668 23.256C66.5841 23.4053 66.7334 23.5973 66.9148 23.832C67.1068 24.056 67.2828 24.248 67.4427 24.408C68.1788 23.2667 68.5468 22.184 68.5468 21.16C68.5468 20.84 68.4828 20.5893 68.3548 20.408C68.2268 20.216 67.9921 20.0613 67.6508 19.944V19.848H70.9948V19.944C70.4081 20.1467 70.0028 20.376 69.7788 20.632C69.5548 20.856 69.2988 21.304 69.0108 21.976C68.9681 22.0827 68.8721 22.296 68.7228 22.616C68.5841 22.936 68.4774 23.1813 68.4028 23.352C68.3281 23.5227 68.2214 23.736 68.0828 23.992C67.9441 24.2373 67.8054 24.4507 67.6667 24.632C68.4454 25.3573 69.2294 25.72 70.0188 25.72C70.7441 25.72 71.2401 25.4587 71.5068 24.936L71.5708 24.984C71.4214 25.6667 71.1334 26.216 70.7068 26.632C70.2801 27.0373 69.7201 27.24 69.0268 27.24ZM64.3708 26.424C65.0748 26.424 65.6988 26.2267 66.2428 25.832C65.9761 25.5547 65.7148 25.256 65.4588 24.936C65.2134 24.616 64.9148 24.2053 64.5628 23.704C64.2214 23.192 64.0134 22.8827 63.9388 22.776L62.6428 21.048C61.9601 21.5387 61.6188 22.3333 61.6188 23.432C61.6188 24.328 61.8534 25.0533 62.3228 25.608C62.8028 26.152 63.4854 26.424 64.3708 26.424ZM62.5468 17.176C62.5468 17.656 62.6588 18.0933 62.8828 18.488C63.1068 18.872 63.5228 19.4267 64.1308 20.152C65.1334 19.5547 65.6348 18.68 65.6348 17.528C65.6348 16.9413 65.4961 16.4347 65.2188 16.008C64.9414 15.5813 64.5468 15.368 64.0348 15.368C63.6188 15.368 63.2668 15.5227 62.9788 15.832C62.6908 16.1413 62.5468 16.5893 62.5468 17.176ZM75.2371 27V26.968C75.4931 26.4773 75.6638 26.04 75.7491 25.656C75.8345 25.272 75.8771 24.7547 75.8771 24.104V18.184C75.8771 17.5333 75.8345 17.016 75.7491 16.632C75.6638 16.248 75.4931 15.8107 75.2371 15.32V15.288C76.1118 15.288 76.9438 15.2773 77.7331 15.256C78.5225 15.2347 79.0878 15.224 79.4291 15.224C82.1385 15.224 83.4931 16.136 83.4931 17.96C83.4931 19.368 82.7678 20.312 81.3171 20.792C82.2878 20.952 82.9918 21.2987 83.4291 21.832C83.8771 22.3653 84.1011 23 84.1011 23.736C84.1011 24.7173 83.7171 25.5067 82.9491 26.104C82.1918 26.7013 81.0238 27 79.4451 27H75.2371ZM79.5731 20.744C80.0851 20.744 80.5065 20.6053 80.8371 20.328C81.1785 20.04 81.4131 19.704 81.5411 19.32C81.6691 18.936 81.7331 18.5147 81.7331 18.056C81.7331 17.2453 81.5091 16.6267 81.0611 16.2C80.6238 15.7627 79.9891 15.544 79.1571 15.544C78.5491 15.544 78.0691 15.5973 77.7171 15.704V20.744H79.5731ZM79.2211 26.68C80.1811 26.68 80.9118 26.424 81.4131 25.912C81.9145 25.4 82.1651 24.7013 82.1651 23.816C82.1651 22.984 81.9571 22.3173 81.5411 21.816C81.1251 21.3147 80.5171 21.064 79.7171 21.064H77.7171V26.488C78.1545 26.616 78.6558 26.68 79.2211 26.68ZM85.3301 26.968C85.5648 26.4667 85.6821 25.736 85.6821 24.776V17.496C85.6821 16.664 85.4421 15.976 84.9621 15.432V15.4L87.2821 14.552V24.76C87.2821 25.7947 87.4048 26.5307 87.6501 26.968V27H85.3301V26.968ZM91.5106 26.376C92.0546 26.376 92.492 26.2213 92.8226 25.912V23.48C91.1693 23.8533 90.3426 24.4773 90.3426 25.352C90.3426 25.672 90.444 25.9227 90.6466 26.104C90.8493 26.2853 91.1373 26.376 91.5106 26.376ZM94.1826 27.192C93.436 27.192 92.9933 26.856 92.8546 26.184C92.236 26.888 91.468 27.24 90.5506 27.24C90.0493 27.24 89.6386 27.1227 89.3186 26.888C88.9986 26.6533 88.8386 26.3173 88.8386 25.88C88.8386 25.3787 89.0626 24.9307 89.5106 24.536C89.9586 24.1413 90.46 23.848 91.0146 23.656C91.58 23.4533 92.1826 23.304 92.8226 23.208V21.464C92.8226 21.016 92.7106 20.6747 92.4866 20.44C92.2626 20.2053 91.884 20.088 91.3506 20.088C90.5186 20.088 89.8093 20.328 89.2226 20.808L89.1426 20.712C89.8786 19.656 90.94 19.128 92.3266 19.128C93.0626 19.128 93.596 19.3093 93.9266 19.672C94.2573 20.024 94.4226 20.4773 94.4226 21.032V25.592C94.4226 26.0613 94.6306 26.296 95.0466 26.296C95.3133 26.296 95.5746 26.1947 95.8306 25.992L95.8626 26.024C95.468 26.8027 94.908 27.192 94.1826 27.192ZM102.679 25.208C102.199 26.5627 101.202 27.24 99.6871 27.24C98.5991 27.24 97.7298 26.8827 97.0791 26.168C96.4285 25.4533 96.1031 24.504 96.1031 23.32C96.1031 22.136 96.5085 21.144 97.3191 20.344C98.1298 19.5333 99.0738 19.128 100.151 19.128C100.983 19.128 101.687 19.2667 102.263 19.544L102.471 21.32L102.327 21.352C102.071 20.904 101.703 20.472 101.223 20.056C100.754 19.6293 100.316 19.416 99.9111 19.416C99.2285 19.416 98.6845 19.7093 98.2791 20.296C97.8738 20.872 97.6711 21.656 97.6711 22.648C97.6711 23.6827 97.9218 24.4827 98.4231 25.048C98.9245 25.6027 99.6018 25.88 100.455 25.88C101.394 25.88 102.103 25.6347 102.583 25.144L102.679 25.208ZM103.674 26.968C103.909 26.4667 104.026 25.736 104.026 24.776V17.496C104.026 16.664 103.786 15.976 103.306 15.432V15.4L105.626 14.552V24.76C105.626 25.7733 105.754 26.5093 106.01 26.968V27H103.674V26.968ZM108.506 27L105.754 23.032L107.594 21.032C107.85 20.7547 108.021 20.4667 108.106 20.168C108.192 19.8587 108.17 19.6027 108.042 19.4V19.368H110.122V19.4C109.429 19.7093 108.661 20.3173 107.818 21.224L106.986 22.136L109.338 25.528C109.541 25.8053 109.696 26.0187 109.802 26.168C109.92 26.3067 110.058 26.4507 110.218 26.6C110.378 26.7493 110.549 26.872 110.73 26.968V27H108.506Z" fill="black"/>
</svg>
