<svg width="94" height="122" viewBox="0 0 94 122" fill="none" xmlns="http://www.w3.org/2000/svg">
<path d="M8.09961 89.8998L47.5996 110L85.5996 89.8998V11.2998H8.09961V89.8998Z" fill="white"/>
<path d="M86.4008 11.6001L7.30078 91.3001L48.3008 111.6L86.4008 92.1001V11.6001Z" fill="#F2F3F2"/>
<path d="M5.5 37.4997V91.5997L6.9 92.2997L46.4 112.4L47.6 113L48.8 112.4L86.9 92.2997L88.3 91.5997V8.69971H5.5V37.4997ZM8.1 90.0997V11.2997H85.7V90.0997L47.6 110.2L8.1 90.0997Z" fill="#DCDEDC"/>
<path d="M47.2129 12.5997C47.6129 12.5997 48.0129 12.5997 48.4129 12.6997L47.2129 14.9997C45.4129 14.8997 43.8129 16.2997 43.7129 18.0997C43.6129 19.8997 45.0129 21.4997 46.8129 21.5997H47.2129C48.0129 21.5997 48.8129 21.2997 49.4129 20.7997L50.7129 22.9997C49.7129 23.6997 48.5129 24.0997 47.2129 24.0997C44.0129 24.1997 41.3129 21.7997 41.2129 18.5997C41.1129 15.3997 43.5129 12.6997 46.7129 12.5997H47.2129ZM51.3129 17.4997L52.8129 19.9997L51.3129 22.3997L49.9129 19.9997H47.0129L48.5129 17.4997H51.3129ZM48.9129 16.5997C48.9129 16.1997 49.0129 15.7997 49.2129 15.4997C49.4129 15.1997 49.8129 14.8997 50.1129 14.6997L50.3129 14.5997C50.7129 14.3997 50.8129 14.2997 50.8129 14.0997C50.8129 13.8997 50.5129 13.6997 50.3129 13.6997C49.9129 13.6997 49.6129 13.8997 49.4129 14.2997L48.9129 13.7997C49.0129 13.5997 49.2129 13.3997 49.4129 13.1997C49.7129 12.9997 50.0129 12.9997 50.3129 12.9997C50.6129 12.9997 51.0129 13.0997 51.2129 13.2997C51.4129 13.4997 51.6129 13.7997 51.6129 14.0997C51.6129 14.5997 51.3129 14.9997 50.7129 15.1997L50.4129 15.3997C50.1129 15.5997 49.9129 15.6997 49.8129 15.9997H51.6129V16.6997L48.9129 16.5997ZM47.2129 29.0997L56.7129 23.6997V8.69971H37.6129V23.5997L47.2129 29.0997ZM90.5129 64.4997H3.91289L0.712891 71.4997L3.91289 78.4997H90.5129L93.6129 71.4997L90.5129 64.4997Z" fill="#FF492C"/>
<path d="M30.6058 74.9518C30.529 74.9518 30.4801 74.9169 30.4592 74.8471L28.5534 67.7582L28.543 67.7163C28.543 67.6535 28.5814 67.6221 28.6582 67.6221H29.6843C29.7611 67.6221 29.81 67.657 29.8309 67.7268L31.0246 72.5016C31.0316 72.5225 31.0421 72.533 31.056 72.533C31.07 72.533 31.0804 72.5225 31.0874 72.5016L32.2288 67.7268C32.2497 67.657 32.2951 67.6221 32.3649 67.6221H33.3701C33.4469 67.6221 33.4958 67.657 33.5167 67.7268L34.7313 72.512C34.7383 72.533 34.7488 72.5434 34.7628 72.5434C34.7767 72.5434 34.7872 72.533 34.7942 72.512L35.9669 67.7268C35.9879 67.657 36.0367 67.6221 36.1135 67.6221H37.0873C37.185 67.6221 37.2234 67.6674 37.2025 67.7582L35.391 74.8471C35.3701 74.9169 35.3212 74.9518 35.2444 74.9518H34.2706C34.1938 74.9518 34.145 74.9169 34.124 74.8471L32.8989 69.8524C32.8919 69.8315 32.8815 69.8175 32.8675 69.8105C32.8535 69.8105 32.8431 69.8245 32.8361 69.8524L31.6633 74.8471C31.6424 74.9169 31.597 74.9518 31.5272 74.9518H30.6058ZM38.3648 74.9518C38.3299 74.9518 38.2985 74.9378 38.2705 74.9099C38.2496 74.889 38.2391 74.861 38.2391 74.8261V67.7477C38.2391 67.7128 38.2496 67.6849 38.2705 67.664C38.2985 67.636 38.3299 67.6221 38.3648 67.6221H39.3281C39.363 67.6221 39.3909 67.636 39.4119 67.664C39.4398 67.6849 39.4538 67.7128 39.4538 67.7477V74.8261C39.4538 74.861 39.4398 74.889 39.4119 74.9099C39.3909 74.9378 39.363 74.9518 39.3281 74.9518H38.3648ZM45.2442 67.7477C45.2442 67.7128 45.2547 67.6849 45.2757 67.664C45.3036 67.636 45.335 67.6221 45.3699 67.6221H46.3332C46.3681 67.6221 46.3961 67.636 46.417 67.664C46.4449 67.6849 46.4589 67.7128 46.4589 67.7477V74.8261C46.4589 74.861 46.4449 74.889 46.417 74.9099C46.3961 74.9378 46.3681 74.9518 46.3332 74.9518H45.4013C45.3315 74.9518 45.2826 74.9239 45.2547 74.868L42.2391 69.9257C42.2251 69.9047 42.2111 69.8943 42.1972 69.8943C42.1832 69.9013 42.1762 69.9187 42.1762 69.9466L42.1972 74.8261C42.1972 74.861 42.1832 74.889 42.1553 74.9099C42.1343 74.9378 42.1064 74.9518 42.0715 74.9518H41.1082C41.0733 74.9518 41.0419 74.9378 41.0139 74.9099C40.993 74.889 40.9825 74.861 40.9825 74.8261V67.7477C40.9825 67.7128 40.993 67.6849 41.0139 67.664C41.0419 67.636 41.0733 67.6221 41.1082 67.6221H42.0401C42.1099 67.6221 42.1588 67.65 42.1867 67.7058L45.1919 72.6482C45.2058 72.6691 45.2198 72.6761 45.2338 72.6691C45.2477 72.6691 45.2547 72.6551 45.2547 72.6272L45.2442 67.7477ZM52.8043 67.6221C52.8392 67.6221 52.8671 67.636 52.8881 67.664C52.916 67.6849 52.93 67.7128 52.93 67.7477V68.554C52.93 68.5889 52.916 68.6168 52.8881 68.6378C52.8671 68.6657 52.8392 68.6796 52.8043 68.6796H50.8776C50.8427 68.6796 50.8253 68.6971 50.8253 68.732V74.8261C50.8253 74.861 50.8148 74.889 50.7939 74.9099C50.766 74.9378 50.7345 74.9518 50.6996 74.9518H49.7363C49.7014 74.9518 49.6735 74.9378 49.6525 74.9099C49.6246 74.889 49.6107 74.861 49.6107 74.8261V68.732C49.6107 68.6971 49.5932 68.6796 49.5583 68.6796H47.7049C47.67 68.6796 47.6386 68.6657 47.6107 68.6378C47.5897 68.6168 47.5793 68.5889 47.5793 68.554V67.7477C47.5793 67.7128 47.5897 67.6849 47.6107 67.664C47.6386 67.636 47.67 67.6221 47.7049 67.6221H52.8043ZM59.0136 68.5435C59.0136 68.5784 58.9997 68.6063 58.9717 68.6273C58.9508 68.6552 58.9229 68.6692 58.888 68.6692H55.3174C55.2825 68.6692 55.265 68.6866 55.265 68.7215V70.6796C55.265 70.7145 55.2825 70.732 55.3174 70.732H57.7152C57.7501 70.732 57.7815 70.7424 57.8095 70.7634C57.8304 70.7913 57.8409 70.8227 57.8409 70.8576V71.6534C57.8409 71.6883 57.8304 71.7197 57.8095 71.7476C57.7815 71.7686 57.7501 71.7791 57.7152 71.7791H55.3174C55.2825 71.7791 55.265 71.7965 55.265 71.8314V73.8523C55.265 73.8872 55.2825 73.9047 55.3174 73.9047H58.888C58.9229 73.9047 58.9508 73.9186 58.9717 73.9466C58.9997 73.9675 59.0136 73.9954 59.0136 74.0303V74.8261C59.0136 74.861 58.9997 74.889 58.9717 74.9099C58.9508 74.9378 58.9229 74.9518 58.888 74.9518H54.176C54.1411 74.9518 54.1097 74.9378 54.0818 74.9099C54.0608 74.889 54.0504 74.861 54.0504 74.8261V67.7477C54.0504 67.7128 54.0608 67.6849 54.0818 67.664C54.1097 67.636 54.1411 67.6221 54.176 67.6221H58.888C58.9229 67.6221 58.9508 67.636 58.9717 67.664C58.9997 67.6849 59.0136 67.7128 59.0136 67.7477V68.5435ZM64.3643 74.9518C64.2945 74.9518 64.2456 74.9204 64.2177 74.8575L62.8355 71.8419C62.8216 71.814 62.8006 71.8 62.7727 71.8H61.5162C61.4813 71.8 61.4638 71.8175 61.4638 71.8524V74.8261C61.4638 74.861 61.4499 74.889 61.422 74.9099C61.401 74.9378 61.3731 74.9518 61.3382 74.9518H60.3749C60.34 74.9518 60.3085 74.9378 60.2806 74.9099C60.2597 74.889 60.2492 74.861 60.2492 74.8261V67.7477C60.2492 67.7128 60.2597 67.6849 60.2806 67.664C60.3085 67.636 60.34 67.6221 60.3749 67.6221H63.2544C63.6802 67.6221 64.0572 67.7093 64.3853 67.8838C64.7133 68.0653 64.9681 68.3166 65.1496 68.6378C65.3311 68.9659 65.4219 69.3393 65.4219 69.7582C65.4219 70.2398 65.2962 70.6482 65.0449 70.9833C64.8006 71.3253 64.4586 71.5627 64.0188 71.6953C64.0048 71.6953 63.9943 71.7023 63.9874 71.7162C63.9804 71.7302 63.9804 71.7442 63.9874 71.7581L65.4638 74.8052C65.4777 74.8331 65.4847 74.8541 65.4847 74.868C65.4847 74.9239 65.4463 74.9518 65.3695 74.9518H64.3643ZM61.5162 68.6692C61.4813 68.6692 61.4638 68.6866 61.4638 68.7215V70.8053C61.4638 70.8402 61.4813 70.8576 61.5162 70.8576H63.0869C63.4219 70.8576 63.6942 70.7564 63.9036 70.554C64.106 70.3585 64.2073 70.0967 64.2073 69.7686C64.2073 69.4405 64.106 69.1753 63.9036 68.9728C63.6942 68.7704 63.4219 68.6692 63.0869 68.6692H61.5162Z" fill="white"/>
<path d="M25.3028 60.0002C25.2561 60.0002 25.2161 59.9835 25.1828 59.9502C25.1495 59.9169 25.1328 59.8769 25.1328 59.8302V50.3702C25.1328 50.3235 25.1495 50.2835 25.1828 50.2502C25.2161 50.2169 25.2561 50.2002 25.3028 50.2002H26.9428C26.9895 50.2002 27.0295 50.2169 27.0628 50.2502C27.0961 50.2835 27.1128 50.3235 27.1128 50.3702V58.2402C27.1128 58.2869 27.1361 58.3102 27.1828 58.3102H31.7628C31.8095 58.3102 31.8461 58.3235 31.8728 58.3502C31.9061 58.3835 31.9228 58.4235 31.9228 58.4702V59.8302C31.9228 59.8769 31.9061 59.9169 31.8728 59.9502C31.8461 59.9835 31.8095 60.0002 31.7628 60.0002H25.3028ZM39.3928 55.6602C39.4461 56.0135 39.4628 56.4102 39.4428 56.8502C39.4361 56.9635 39.3761 57.0202 39.2628 57.0202H34.9328C34.8795 57.0202 34.8628 57.0435 34.8828 57.0902C34.9095 57.2769 34.9595 57.4635 35.0328 57.6502C35.2795 58.1702 35.7761 58.4302 36.5228 58.4302C37.1161 58.4235 37.5861 58.1802 37.9328 57.7002C37.9728 57.6469 38.0161 57.6202 38.0628 57.6202C38.0895 57.6202 38.1195 57.6402 38.1528 57.6802L39.1628 58.6702C39.2095 58.7169 39.2328 58.7602 39.2328 58.8002C39.2328 58.8135 39.2161 58.8502 39.1828 58.9102C38.8695 59.2902 38.4728 59.5869 37.9928 59.8002C37.5061 60.0069 36.9728 60.1102 36.3928 60.1102C35.5928 60.1102 34.9128 59.9302 34.3528 59.5702C33.7995 59.2035 33.4028 58.6935 33.1628 58.0402C32.9628 57.5735 32.8628 56.9635 32.8628 56.2102C32.8628 55.6969 32.9328 55.2435 33.0728 54.8502C33.2861 54.1835 33.6628 53.6569 34.2028 53.2702C34.7361 52.8769 35.3728 52.6802 36.1128 52.6802C37.0461 52.6802 37.7961 52.9502 38.3628 53.4902C38.9228 54.0302 39.2661 54.7535 39.3928 55.6602ZM36.1228 54.3902C35.5361 54.3902 35.1495 54.6635 34.9628 55.2102C34.9295 55.3302 34.8961 55.4802 34.8628 55.6602C34.8628 55.7069 34.8861 55.7302 34.9328 55.7302H37.3628C37.4161 55.7302 37.4328 55.7069 37.4128 55.6602C37.3661 55.3869 37.3428 55.2569 37.3428 55.2702C37.2628 54.9902 37.1161 54.7735 36.9028 54.6202C36.6961 54.4669 36.4361 54.3902 36.1228 54.3902ZM43.4628 52.6902C44.0695 52.6902 44.6095 52.7969 45.0828 53.0102C45.5628 53.2169 45.9361 53.5035 46.2028 53.8702C46.4695 54.2302 46.6028 54.6369 46.6028 55.0902V59.8302C46.6028 59.8769 46.5861 59.9169 46.5528 59.9502C46.5195 59.9835 46.4795 60.0002 46.4328 60.0002H44.7928C44.7461 60.0002 44.7061 59.9835 44.6728 59.9502C44.6395 59.9169 44.6228 59.8769 44.6228 59.8302V59.3702C44.6228 59.3435 44.6128 59.3235 44.5928 59.3102C44.5795 59.3035 44.5628 59.3135 44.5428 59.3402C44.1495 59.8535 43.5195 60.1102 42.6528 60.1102C41.9261 60.1102 41.3361 59.9335 40.8828 59.5802C40.4361 59.2269 40.2128 58.7035 40.2128 58.0102C40.2128 57.2902 40.4661 56.7335 40.9728 56.3402C41.4728 55.9402 42.1895 55.7402 43.1228 55.7402H44.5528C44.5995 55.7402 44.6228 55.7169 44.6228 55.6702V55.3702C44.6228 55.0569 44.5295 54.8135 44.3428 54.6402C44.1561 54.4735 43.8761 54.3902 43.5028 54.3902C43.2161 54.3902 42.9761 54.4402 42.7828 54.5402C42.5895 54.6402 42.4661 54.7835 42.4128 54.9702C42.3861 55.0769 42.3261 55.1235 42.2328 55.1102L40.5328 54.8902C40.4261 54.8702 40.3761 54.8269 40.3828 54.7602C40.4228 54.3735 40.5795 54.0202 40.8528 53.7002C41.1261 53.3802 41.4895 53.1335 41.9428 52.9602C42.3961 52.7802 42.9028 52.6902 43.4628 52.6902ZM43.1828 58.6402C43.5828 58.6402 43.9228 58.5335 44.2028 58.3202C44.4828 58.1069 44.6228 57.8302 44.6228 57.4902V56.9902C44.6228 56.9435 44.5995 56.9202 44.5528 56.9202H43.5428C43.1228 56.9202 42.7961 57.0002 42.5628 57.1602C42.3228 57.3202 42.2028 57.5435 42.2028 57.8302C42.2028 58.0835 42.2928 58.2835 42.4728 58.4302C42.6461 58.5702 42.8828 58.6402 43.1828 58.6402ZM52.4528 50.3702C52.4528 50.3235 52.4695 50.2835 52.5028 50.2502C52.5361 50.2169 52.5761 50.2002 52.6228 50.2002H54.2528C54.2995 50.2002 54.3395 50.2169 54.3728 50.2502C54.4061 50.2835 54.4228 50.3235 54.4228 50.3702V59.8302C54.4228 59.8769 54.4061 59.9169 54.3728 59.9502C54.3395 59.9835 54.2995 60.0002 54.2528 60.0002H52.6228C52.5761 60.0002 52.5361 59.9835 52.5028 59.9502C52.4695 59.9169 52.4528 59.8769 52.4528 59.8302V59.3702C52.4528 59.3435 52.4428 59.3269 52.4228 59.3202C52.4028 59.3135 52.3828 59.3202 52.3628 59.3402C51.9762 59.8535 51.4395 60.1102 50.7528 60.1102C50.0995 60.1102 49.5395 59.9302 49.0728 59.5702C48.5995 59.2035 48.2595 58.7035 48.0528 58.0702C47.8928 57.5835 47.8128 57.0169 47.8128 56.3702C47.8128 55.7102 47.8995 55.1335 48.0728 54.6402C48.2861 54.0402 48.6228 53.5669 49.0828 53.2202C49.5428 52.8669 50.1161 52.6902 50.8028 52.6902C51.4695 52.6902 51.9895 52.9235 52.3628 53.3902C52.3828 53.4169 52.4028 53.4269 52.4228 53.4202C52.4428 53.4135 52.4528 53.3935 52.4528 53.3602V50.3702ZM52.1528 57.8202C52.3395 57.4735 52.4328 57.0002 52.4328 56.4002C52.4328 55.7735 52.3328 55.2835 52.1328 54.9302C51.9128 54.5702 51.5995 54.3902 51.1928 54.3902C50.7528 54.3902 50.4195 54.5702 50.1928 54.9302C49.9595 55.2969 49.8428 55.7935 49.8428 56.4202C49.8428 56.9802 49.9428 57.4469 50.1428 57.8202C50.3761 58.2202 50.7195 58.4202 51.1728 58.4202C51.5928 58.4202 51.9195 58.2202 52.1528 57.8202ZM62.2828 55.6602C62.3361 56.0135 62.3528 56.4102 62.3328 56.8502C62.3262 56.9635 62.2662 57.0202 62.1528 57.0202H57.8228C57.7695 57.0202 57.7528 57.0435 57.7728 57.0902C57.7995 57.2769 57.8495 57.4635 57.9228 57.6502C58.1695 58.1702 58.6662 58.4302 59.4128 58.4302C60.0062 58.4235 60.4762 58.1802 60.8228 57.7002C60.8628 57.6469 60.9062 57.6202 60.9528 57.6202C60.9795 57.6202 61.0095 57.6402 61.0428 57.6802L62.0528 58.6702C62.0995 58.7169 62.1228 58.7602 62.1228 58.8002C62.1228 58.8135 62.1062 58.8502 62.0728 58.9102C61.7595 59.2902 61.3628 59.5869 60.8828 59.8002C60.3962 60.0069 59.8628 60.1102 59.2828 60.1102C58.4828 60.1102 57.8028 59.9302 57.2428 59.5702C56.6895 59.2035 56.2928 58.6935 56.0528 58.0402C55.8528 57.5735 55.7528 56.9635 55.7528 56.2102C55.7528 55.6969 55.8228 55.2435 55.9628 54.8502C56.1761 54.1835 56.5528 53.6569 57.0928 53.2702C57.6262 52.8769 58.2628 52.6802 59.0028 52.6802C59.9362 52.6802 60.6862 52.9502 61.2528 53.4902C61.8128 54.0302 62.1561 54.7535 62.2828 55.6602ZM59.0128 54.3902C58.4261 54.3902 58.0395 54.6635 57.8528 55.2102C57.8195 55.3302 57.7862 55.4802 57.7528 55.6602C57.7528 55.7069 57.7761 55.7302 57.8228 55.7302H60.2528C60.3062 55.7302 60.3228 55.7069 60.3028 55.6602C60.2561 55.3869 60.2328 55.2569 60.2328 55.2702C60.1528 54.9902 60.0062 54.7735 59.7928 54.6202C59.5862 54.4669 59.3261 54.3902 59.0128 54.3902ZM67.1328 52.7102C67.4728 52.7102 67.7395 52.7735 67.9328 52.9002C68.0062 52.9402 68.0361 53.0102 68.0228 53.1102L67.7228 54.7102C67.7162 54.8235 67.6528 54.8569 67.5328 54.8102C67.3928 54.7635 67.2295 54.7402 67.0428 54.7402C66.9628 54.7402 66.8595 54.7469 66.7328 54.7602C66.3928 54.7935 66.1062 54.9169 65.8728 55.1302C65.6395 55.3502 65.5228 55.6435 65.5228 56.0102V59.8302C65.5228 59.8769 65.5095 59.9169 65.4828 59.9502C65.4495 59.9835 65.4095 60.0002 65.3628 60.0002H63.7228C63.6762 60.0002 63.6361 59.9835 63.6028 59.9502C63.5695 59.9169 63.5528 59.8769 63.5528 59.8302V52.9702C63.5528 52.9235 63.5695 52.8835 63.6028 52.8502C63.6361 52.8169 63.6762 52.8002 63.7228 52.8002H65.3628C65.4095 52.8002 65.4495 52.8169 65.4828 52.8502C65.5095 52.8835 65.5228 52.9235 65.5228 52.9702V53.5002C65.5228 53.5335 65.5328 53.5535 65.5528 53.5602C65.5728 53.5669 65.5861 53.5635 65.5928 53.5502C65.9795 52.9902 66.4928 52.7102 67.1328 52.7102ZM18.9328 36.3102C18.9795 36.2369 19.0461 36.2002 19.1328 36.2002H20.7728C20.8195 36.2002 20.8595 36.2169 20.8928 36.2502C20.9261 36.2835 20.9428 36.3235 20.9428 36.3702V45.8302C20.9428 45.8769 20.9261 45.9169 20.8928 45.9502C20.8595 45.9835 20.8195 46.0002 20.7728 46.0002H19.1328C19.0861 46.0002 19.0461 45.9835 19.0128 45.9502C18.9795 45.9169 18.9628 45.8769 18.9628 45.8302V39.6602C18.9628 39.6202 18.9528 39.6002 18.9328 39.6002C18.9195 39.6002 18.9028 39.6135 18.8828 39.6402L17.3928 41.9702C17.3461 42.0435 17.2828 42.0802 17.2028 42.0802H16.3728C16.2928 42.0802 16.2295 42.0435 16.1828 41.9702L14.6928 39.6402C14.6728 39.6135 14.6561 39.6035 14.6428 39.6102C14.6228 39.6169 14.6128 39.6369 14.6128 39.6702V45.8302C14.6128 45.8769 14.5961 45.9169 14.5628 45.9502C14.5295 45.9835 14.4895 46.0002 14.4428 46.0002H12.8028C12.7561 46.0002 12.7161 45.9835 12.6828 45.9502C12.6495 45.9169 12.6328 45.8769 12.6328 45.8302V36.3702C12.6328 36.3235 12.6495 36.2835 12.6828 36.2502C12.7161 36.2169 12.7561 36.2002 12.8028 36.2002H14.4428C14.5295 36.2002 14.5961 36.2369 14.6428 36.3102L16.7428 39.5702C16.7695 39.6302 16.7961 39.6302 16.8228 39.5702L18.9328 36.3102ZM25.7028 46.1102C24.9161 46.1102 24.2428 45.9069 23.6828 45.5002C23.1228 45.0869 22.7395 44.5269 22.5328 43.8202C22.4061 43.3802 22.3428 42.9035 22.3428 42.3902C22.3428 41.8369 22.4061 41.3402 22.5328 40.9002C22.7461 40.2135 23.1328 39.6735 23.6928 39.2802C24.2528 38.8869 24.9261 38.6902 25.7128 38.6902C26.4795 38.6902 27.1328 38.8835 27.6728 39.2702C28.2128 39.6569 28.5961 40.1969 28.8228 40.8902C28.9695 41.3569 29.0428 41.8469 29.0428 42.3602C29.0428 42.8669 28.9795 43.3369 28.8528 43.7702C28.6461 44.5035 28.2661 45.0769 27.7128 45.4902C27.1528 45.9035 26.4828 46.1102 25.7028 46.1102ZM25.7028 44.4202C26.0095 44.4202 26.2695 44.3269 26.4828 44.1402C26.6961 43.9535 26.8495 43.6969 26.9428 43.3702C27.0161 43.0702 27.0528 42.7435 27.0528 42.3902C27.0528 41.9969 27.0161 41.6635 26.9428 41.3902C26.8428 41.0769 26.6861 40.8302 26.4728 40.6502C26.2528 40.4769 25.9895 40.3902 25.6828 40.3902C25.3695 40.3902 25.1061 40.4769 24.8928 40.6502C24.6861 40.8302 24.5361 41.0769 24.4428 41.3902C24.3628 41.6169 24.3228 41.9502 24.3228 42.3902C24.3228 42.8102 24.3561 43.1369 24.4228 43.3702C24.5161 43.6969 24.6728 43.9535 24.8928 44.1402C25.1128 44.3269 25.3828 44.4202 25.7028 44.4202ZM38.3028 38.6902C39.0295 38.6902 39.5961 38.9102 40.0028 39.3502C40.4161 39.7902 40.6228 40.4069 40.6228 41.2002V45.8302C40.6228 45.8769 40.6061 45.9169 40.5728 45.9502C40.5395 45.9835 40.4995 46.0002 40.4528 46.0002H38.8128C38.7661 46.0002 38.7261 45.9835 38.6928 45.9502C38.6661 45.9169 38.6528 45.8769 38.6528 45.8302V41.6302C38.6528 41.2502 38.5528 40.9469 38.3528 40.7202C38.1595 40.5002 37.8995 40.3902 37.5728 40.3902C37.2461 40.3902 36.9795 40.5002 36.7728 40.7202C36.5661 40.9469 36.4628 41.2469 36.4628 41.6202V45.8302C36.4628 45.8769 36.4461 45.9169 36.4128 45.9502C36.3795 45.9835 36.3395 46.0002 36.2928 46.0002H34.6728C34.6261 46.0002 34.5861 45.9835 34.5528 45.9502C34.5195 45.9169 34.5028 45.8769 34.5028 45.8302V41.6302C34.5028 41.2569 34.3995 40.9569 34.1928 40.7302C33.9928 40.5035 33.7295 40.3902 33.4028 40.3902C33.1028 40.3902 32.8528 40.4769 32.6528 40.6502C32.4528 40.8302 32.3328 41.0769 32.2928 41.3902V45.8302C32.2928 45.8769 32.2761 45.9169 32.2428 45.9502C32.2095 45.9835 32.1695 46.0002 32.1228 46.0002H30.4828C30.4361 46.0002 30.3995 45.9835 30.3728 45.9502C30.3395 45.9169 30.3228 45.8769 30.3228 45.8302V38.9702C30.3228 38.9235 30.3395 38.8835 30.3728 38.8502C30.3995 38.8169 30.4361 38.8002 30.4828 38.8002H32.1228C32.1695 38.8002 32.2095 38.8169 32.2428 38.8502C32.2761 38.8835 32.2928 38.9235 32.2928 38.9702V39.5202C32.2928 39.5469 32.3028 39.5635 32.3228 39.5702C32.3428 39.5835 32.3595 39.5769 32.3728 39.5502C32.7595 38.9769 33.3528 38.6902 34.1528 38.6902C34.6195 38.6902 35.0295 38.7902 35.3828 38.9902C35.7295 39.1835 35.9961 39.4635 36.1828 39.8302C36.2095 39.8835 36.2428 39.8835 36.2828 39.8302C36.4895 39.4435 36.7661 39.1569 37.1128 38.9702C37.4661 38.7835 37.8628 38.6902 38.3028 38.6902ZM48.3328 41.6602C48.3928 42.0135 48.4128 42.4102 48.3928 42.8502C48.3861 42.9635 48.3261 43.0202 48.2128 43.0202H43.8828C43.8295 43.0202 43.8128 43.0435 43.8328 43.0902C43.8595 43.2769 43.9095 43.4635 43.9828 43.6502C44.2228 44.1702 44.7161 44.4302 45.4628 44.4302C46.0628 44.4235 46.5361 44.1802 46.8828 43.7002C46.9161 43.6469 46.9561 43.6202 47.0028 43.6202C47.0361 43.6202 47.0695 43.6402 47.1028 43.6802L48.1128 44.6702C48.1595 44.7169 48.1828 44.7602 48.1828 44.8002C48.1828 44.8135 48.1628 44.8502 48.1228 44.9102C47.8161 45.2902 47.4195 45.5869 46.9328 45.8002C46.4528 46.0069 45.9228 46.1102 45.3428 46.1102C44.5361 46.1102 43.8561 45.9302 43.3028 45.5702C42.7495 45.2035 42.3495 44.6935 42.1028 44.0402C41.9095 43.5735 41.8128 42.9635 41.8128 42.2102C41.8128 41.6969 41.8828 41.2435 42.0228 40.8502C42.2361 40.1835 42.6128 39.6569 43.1528 39.2702C43.6862 38.8769 44.3228 38.6802 45.0628 38.6802C45.9962 38.6802 46.7428 38.9502 47.3028 39.4902C47.8695 40.0302 48.2128 40.7535 48.3328 41.6602ZM45.0728 40.3902C44.4861 40.3902 44.0995 40.6635 43.9128 41.2102C43.8728 41.3302 43.8395 41.4802 43.8128 41.6602C43.8128 41.7069 43.8361 41.7302 43.8828 41.7302H46.3028C46.3628 41.7302 46.3828 41.7069 46.3628 41.6602C46.3161 41.3869 46.2928 41.2569 46.2928 41.2702C46.2061 40.9902 46.0595 40.7735 45.8528 40.6202C45.6395 40.4669 45.3795 40.3902 45.0728 40.3902ZM53.3628 38.6902C54.1095 38.6902 54.7128 38.9202 55.1728 39.3802C55.6261 39.8335 55.8528 40.4535 55.8528 41.2402V45.8302C55.8528 45.8769 55.8361 45.9169 55.8028 45.9502C55.7695 45.9835 55.7295 46.0002 55.6828 46.0002H54.0528C54.0061 46.0002 53.9661 45.9835 53.9328 45.9502C53.8995 45.9169 53.8828 45.8769 53.8828 45.8302V41.6502C53.8828 41.2769 53.7762 40.9735 53.5628 40.7402C53.3562 40.5069 53.0795 40.3902 52.7328 40.3902C52.3861 40.3902 52.1095 40.5069 51.9028 40.7402C51.6895 40.9735 51.5828 41.2769 51.5828 41.6502V45.8302C51.5828 45.8769 51.5661 45.9169 51.5328 45.9502C51.4995 45.9835 51.4595 46.0002 51.4128 46.0002H49.7828C49.7361 46.0002 49.6961 45.9835 49.6628 45.9502C49.6295 45.9169 49.6128 45.8769 49.6128 45.8302V38.9702C49.6128 38.9235 49.6295 38.8835 49.6628 38.8502C49.6961 38.8169 49.7361 38.8002 49.7828 38.8002H51.4128C51.4595 38.8002 51.4995 38.8169 51.5328 38.8502C51.5661 38.8835 51.5828 38.9235 51.5828 38.9702V39.4602C51.5828 39.4869 51.5928 39.5069 51.6128 39.5202C51.6328 39.5269 51.6462 39.5202 51.6528 39.5002C52.0395 38.9602 52.6095 38.6902 53.3628 38.6902ZM61.4028 40.2202C61.4028 40.2669 61.3861 40.3069 61.3528 40.3402C61.3195 40.3735 61.2795 40.3902 61.2328 40.3902H59.8828C59.8362 40.3902 59.8128 40.4135 59.8128 40.4602V43.4202C59.8128 43.7335 59.8762 43.9635 60.0028 44.1102C60.1295 44.2569 60.3328 44.3302 60.6128 44.3302H61.0728C61.1195 44.3302 61.1595 44.3469 61.1928 44.3802C61.2261 44.4135 61.2428 44.4535 61.2428 44.5002V45.8302C61.2428 45.9369 61.1862 45.9969 61.0728 46.0102C60.6862 46.0302 60.4062 46.0402 60.2328 46.0402C59.4595 46.0402 58.8828 45.9135 58.5028 45.6602C58.1162 45.4002 57.9195 44.9169 57.9128 44.2102V40.4602C57.9128 40.4135 57.8895 40.3902 57.8428 40.3902H57.0428C56.9962 40.3902 56.9561 40.3735 56.9228 40.3402C56.8895 40.3069 56.8728 40.2669 56.8728 40.2202V38.9702C56.8728 38.9235 56.8895 38.8835 56.9228 38.8502C56.9561 38.8169 56.9962 38.8002 57.0428 38.8002H57.8428C57.8895 38.8002 57.9128 38.7769 57.9128 38.7302V37.0702C57.9128 37.0235 57.9295 36.9835 57.9628 36.9502C57.9961 36.9169 58.0362 36.9002 58.0828 36.9002H59.6528C59.6995 36.9002 59.7361 36.9169 59.7628 36.9502C59.7961 36.9835 59.8128 37.0235 59.8128 37.0702V38.7302C59.8128 38.7769 59.8362 38.8002 59.8828 38.8002H61.2328C61.2795 38.8002 61.3195 38.8169 61.3528 38.8502C61.3861 38.8835 61.4028 38.9235 61.4028 38.9702V40.2202ZM66.7928 38.9702C66.7928 38.9235 66.8062 38.8835 66.8328 38.8502C66.8662 38.8169 66.9061 38.8002 66.9528 38.8002H68.5928C68.6395 38.8002 68.6795 38.8169 68.7128 38.8502C68.7462 38.8835 68.7628 38.9235 68.7628 38.9702V45.8302C68.7628 45.8769 68.7462 45.9169 68.7128 45.9502C68.6795 45.9835 68.6395 46.0002 68.5928 46.0002H66.9528C66.9061 46.0002 66.8662 45.9835 66.8328 45.9502C66.8062 45.9169 66.7928 45.8769 66.7928 45.8302V45.3602C66.7928 45.3269 66.7828 45.3102 66.7628 45.3102C66.7428 45.3035 66.7228 45.3135 66.7028 45.3402C66.3295 45.8469 65.7528 46.1002 64.9728 46.1002C64.2595 46.1002 63.6762 45.8835 63.2228 45.4502C62.7628 45.0235 62.5328 44.4235 62.5328 43.6502V38.9702C62.5328 38.9235 62.5495 38.8835 62.5828 38.8502C62.6162 38.8169 62.6562 38.8002 62.7028 38.8002H64.3228C64.3695 38.8002 64.4095 38.8169 64.4428 38.8502C64.4762 38.8835 64.4928 38.9235 64.4928 38.9702V43.1602C64.4928 43.5335 64.5928 43.8369 64.7928 44.0702C64.9928 44.3035 65.2695 44.4202 65.6228 44.4202C65.9428 44.4202 66.2062 44.3235 66.4128 44.1302C66.6195 43.9369 66.7462 43.6869 66.7928 43.3802V38.9702ZM78.2028 38.6902C78.9295 38.6902 79.4962 38.9102 79.9028 39.3502C80.3162 39.7902 80.5228 40.4069 80.5228 41.2002V45.8302C80.5228 45.8769 80.5062 45.9169 80.4728 45.9502C80.4395 45.9835 80.3995 46.0002 80.3528 46.0002H78.7128C78.6662 46.0002 78.6262 45.9835 78.5928 45.9502C78.5662 45.9169 78.5528 45.8769 78.5528 45.8302V41.6302C78.5528 41.2502 78.4528 40.9469 78.2528 40.7202C78.0595 40.5002 77.7995 40.3902 77.4728 40.3902C77.1462 40.3902 76.8795 40.5002 76.6728 40.7202C76.4662 40.9469 76.3628 41.2469 76.3628 41.6202V45.8302C76.3628 45.8769 76.3461 45.9169 76.3128 45.9502C76.2795 45.9835 76.2395 46.0002 76.1928 46.0002H74.5728C74.5262 46.0002 74.4861 45.9835 74.4528 45.9502C74.4195 45.9169 74.4028 45.8769 74.4028 45.8302V41.6302C74.4028 41.2569 74.2995 40.9569 74.0928 40.7302C73.8928 40.5035 73.6295 40.3902 73.3028 40.3902C73.0028 40.3902 72.7528 40.4769 72.5528 40.6502C72.3528 40.8302 72.2328 41.0769 72.1928 41.3902V45.8302C72.1928 45.8769 72.1762 45.9169 72.1428 45.9502C72.1095 45.9835 72.0695 46.0002 72.0228 46.0002H70.3828C70.3361 46.0002 70.2962 45.9835 70.2628 45.9502C70.2362 45.9169 70.2228 45.8769 70.2228 45.8302V38.9702C70.2228 38.9235 70.2362 38.8835 70.2628 38.8502C70.2962 38.8169 70.3361 38.8002 70.3828 38.8002H72.0228C72.0695 38.8002 72.1095 38.8169 72.1428 38.8502C72.1762 38.8835 72.1928 38.9235 72.1928 38.9702V39.5202C72.1928 39.5469 72.2028 39.5635 72.2228 39.5702C72.2428 39.5835 72.2595 39.5769 72.2728 39.5502C72.6595 38.9769 73.2528 38.6902 74.0528 38.6902C74.5195 38.6902 74.9295 38.7902 75.2828 38.9902C75.6295 39.1835 75.8962 39.4635 76.0828 39.8302C76.1095 39.8835 76.1428 39.8835 76.1828 39.8302C76.3895 39.4435 76.6662 39.1569 77.0128 38.9702C77.3662 38.7835 77.7628 38.6902 78.2028 38.6902Z" fill="#252530"/>
<path d="M33.5968 93.3846C33.5763 93.4051 33.5694 93.4256 33.5763 93.4462C33.5899 93.4667 33.6105 93.4769 33.6378 93.4769H37.6698C37.7177 93.4769 37.7587 93.494 37.7929 93.5282C37.834 93.5624 37.8545 93.6035 37.8545 93.6514V95.0979C37.8545 95.1458 37.834 95.1869 37.7929 95.2211C37.7587 95.2553 37.7177 95.2724 37.6698 95.2724H30.9806C30.9259 95.2724 30.8814 95.2553 30.8472 95.2211C30.813 95.1869 30.7959 95.1458 30.7959 95.0979V93.7232C30.7959 93.6343 30.8267 93.559 30.8883 93.4975C31.3739 93.0255 31.8698 92.5091 32.3759 91.9483C32.882 91.3874 33.2001 91.0386 33.33 90.9018C33.6036 90.5735 33.884 90.2589 34.1713 89.9579C35.0741 88.9593 35.5256 88.2172 35.5256 87.7316C35.5256 87.3828 35.4025 87.0955 35.1562 86.8698C34.91 86.651 34.5885 86.5415 34.1918 86.5415C33.7951 86.5415 33.4737 86.651 33.2274 86.8698C32.9744 87.0955 32.8478 87.3931 32.8478 87.7624V88.1317C32.8478 88.1796 32.8307 88.2207 32.7965 88.2549C32.7623 88.2891 32.7213 88.3062 32.6734 88.3062H30.919C30.8712 88.3062 30.8301 88.2891 30.7959 88.2549C30.7549 88.2207 30.7344 88.1796 30.7344 88.1317V87.4341C30.7686 86.9006 30.9396 86.4252 31.2474 86.008C31.5551 85.5976 31.9621 85.283 32.4682 85.0641C32.9812 84.8453 33.5557 84.7358 34.1918 84.7358C34.8963 84.7358 35.5085 84.8692 36.0283 85.136C36.5481 85.3959 36.9482 85.7481 37.2286 86.1927C37.5159 86.6441 37.6595 87.14 37.6595 87.6803C37.6595 88.0975 37.5535 88.525 37.3415 88.9628C37.1363 89.4005 36.8251 89.8724 36.4079 90.3786C36.1001 90.7616 35.7684 91.1446 35.4127 91.5276C35.057 91.9038 34.527 92.4476 33.8225 93.1589L33.5968 93.3846ZM42.6867 95.4365C41.5924 95.4365 40.7306 95.1321 40.1013 94.5234C39.4652 93.9147 39.1472 93.0837 39.1472 92.0304V88.101C39.1472 87.0682 39.4652 86.2508 40.1013 85.6489C40.7306 85.0402 41.5924 84.7358 42.6867 84.7358C43.7742 84.7358 44.6394 85.0402 45.2824 85.6489C45.9184 86.2508 46.2365 87.0682 46.2365 88.101V92.0304C46.2365 93.0837 45.9184 93.9147 45.2824 94.5234C44.6394 95.1321 43.7742 95.4365 42.6867 95.4365ZM42.6867 93.6411C43.1313 93.6411 43.4835 93.5043 43.7434 93.2307C44.0102 92.9571 44.1436 92.5912 44.1436 92.1329V88.0394C44.1436 87.588 44.0102 87.2255 43.7434 86.9519C43.4835 86.6783 43.1313 86.5415 42.6867 86.5415C42.249 86.5415 41.9001 86.6783 41.6402 86.9519C41.3735 87.2255 41.2401 87.588 41.2401 88.0394V92.1329C41.2401 92.5912 41.3735 92.9571 41.6402 93.2307C41.9001 93.5043 42.249 93.6411 42.6867 93.6411ZM50.4019 93.3846C50.3813 93.4051 50.3779 93.4256 50.3916 93.4462C50.3984 93.4667 50.419 93.4769 50.4532 93.4769H54.4851C54.533 93.4769 54.5741 93.494 54.6083 93.5282C54.6424 93.5624 54.6595 93.6035 54.6595 93.6514V95.0979C54.6595 95.1458 54.6424 95.1869 54.6083 95.2211C54.5741 95.2553 54.533 95.2724 54.4851 95.2724H47.7857C47.7378 95.2724 47.6968 95.2553 47.6626 95.2211C47.6284 95.1869 47.6113 95.1458 47.6113 95.0979V93.7232C47.6113 93.6343 47.6386 93.559 47.6933 93.4975C48.1858 93.0255 48.6817 92.5091 49.181 91.9483C49.6871 91.3874 50.0052 91.0386 50.1351 90.9018C50.4155 90.5735 50.6994 90.2589 50.9866 89.9579C51.8895 88.9593 52.3409 88.2172 52.3409 87.7316C52.3409 87.3828 52.2178 87.0955 51.9716 86.8698C51.7185 86.651 51.3936 86.5415 50.9969 86.5415C50.6002 86.5415 50.2787 86.651 50.0325 86.8698C49.7863 87.0955 49.6632 87.3931 49.6632 87.7624V88.1317C49.6632 88.1796 49.6461 88.2207 49.6119 88.2549C49.5777 88.2891 49.5332 88.3062 49.4785 88.3062H47.7241C47.6762 88.3062 47.6352 88.2891 47.601 88.2549C47.5668 88.2207 47.5497 88.1796 47.5497 88.1317V87.4341C47.5771 86.9006 47.7446 86.4252 48.0524 86.008C48.3602 85.5976 48.7706 85.283 49.2836 85.0641C49.7965 84.8453 50.3677 84.7358 50.9969 84.7358C51.7014 84.7358 52.3135 84.8692 52.8334 85.136C53.36 85.3959 53.7636 85.7481 54.044 86.1927C54.3244 86.6441 54.4646 87.14 54.4646 87.6803C54.4646 88.0975 54.362 88.525 54.1568 88.9628C53.9448 89.4005 53.6302 89.8724 53.213 90.3786C52.9052 90.7616 52.5734 91.1446 52.2178 91.5276C51.8621 91.9038 51.332 92.4476 50.6276 93.1589L50.4019 93.3846ZM62.5696 90.5222C62.7201 91.0078 62.7953 91.4798 62.7953 91.938C62.7953 92.4442 62.7167 92.9024 62.5594 93.3128C62.3337 93.942 61.9335 94.4448 61.359 94.8209C60.7776 95.1903 60.1005 95.375 59.3276 95.375C58.5753 95.375 57.9152 95.1937 57.3475 94.8312C56.773 94.4687 56.3695 93.9762 56.1369 93.3538C56.0343 93.0939 55.9591 92.8203 55.9112 92.5331V92.5023C55.9112 92.3929 55.9693 92.3381 56.0856 92.3381H57.8913C57.987 92.3381 58.052 92.3929 58.0862 92.5023C58.0931 92.5638 58.1067 92.6151 58.1273 92.6562C58.1478 92.6972 58.1615 92.7314 58.1683 92.7588C58.2709 93.0187 58.4214 93.217 58.6197 93.3538C58.8181 93.4906 59.0506 93.559 59.3174 93.559C59.5978 93.559 59.8406 93.4838 60.0458 93.3333C60.251 93.1897 60.4049 92.9845 60.5075 92.7177C60.6032 92.5194 60.6511 92.2595 60.6511 91.938C60.6511 91.6508 60.6066 91.3943 60.5177 91.1686C60.4493 90.9086 60.3125 90.7103 60.1073 90.5735C59.8953 90.4299 59.6525 90.3581 59.3789 90.3581C59.0985 90.3581 58.8386 90.423 58.5992 90.553C58.3666 90.6829 58.2093 90.8539 58.1273 91.066C58.0999 91.1617 58.0349 91.2096 57.9323 91.2096H56.1061C56.0514 91.2096 56.007 91.1925 55.9728 91.1583C55.9386 91.1241 55.9215 91.0831 55.9215 91.0352V85.0334C55.9215 84.9855 55.9386 84.9444 55.9728 84.9102C56.007 84.8761 56.0514 84.859 56.1061 84.859H62.2516C62.2995 84.859 62.3405 84.8761 62.3747 84.9102C62.4089 84.9444 62.426 84.9855 62.426 85.0334V86.48C62.426 86.5278 62.4089 86.5689 62.3747 86.6031C62.3405 86.6373 62.2995 86.6544 62.2516 86.6544H58.0965C58.0486 86.6544 58.0247 86.6817 58.0247 86.7364L58.0041 88.932C58.0041 89.0004 58.0349 89.0175 58.0965 88.9833C58.5411 88.696 59.0575 88.5524 59.6457 88.5524C60.3365 88.5524 60.9418 88.7268 61.4616 89.0756C61.9883 89.4313 62.3576 89.9135 62.5696 90.5222Z" fill="#252530"/>
</svg>
