<svg width="44" height="44" viewBox="0 0 44 44" fill="none" xmlns="http://www.w3.org/2000/svg">
<path d="M34.925 26.455C35.8325 28.7375 37.2625 30.9925 39.1737 33.165C39.7787 33.8525 39.8613 34.8425 39.3663 35.6125C38.9813 36.2175 38.3487 36.5475 37.6612 36.5475C37.4688 36.5475 37.2762 36.5338 37.0837 36.465C33.0412 35.2825 23.595 31.0888 23.3337 17.6413C23.2375 12.4575 27.0325 8.00251 31.9688 7.49376C34.705 7.21876 37.4275 8.11251 39.4488 9.92751C40.4484 10.8341 41.2474 11.9398 41.7944 13.1735C42.3414 14.4072 42.6243 15.7417 42.625 17.0913C42.625 21.6288 39.4075 25.6025 34.925 26.455ZM10.0238 7.49376C12.7463 7.21876 15.4687 8.11251 17.49 9.92751C18.4897 10.8341 19.2888 11.9397 19.8358 13.1735C20.3828 14.4072 20.6657 15.7417 20.6663 17.0913C20.6663 21.6288 17.4487 25.6025 12.9663 26.455C13.8738 28.7375 15.3038 30.9925 17.215 33.165C17.82 33.8525 17.9025 34.8425 17.4075 35.6125C17.0225 36.2175 16.39 36.5475 15.7025 36.5475C15.51 36.5475 15.3175 36.5338 15.125 36.465C11.0825 35.2825 1.63625 31.0888 1.375 17.6413V17.4488C1.375 12.3475 5.12875 8.00251 10.0238 7.49376Z" fill="#DCDCDC"/>
</svg>
