<svg width="67" height="52" viewBox="0 0 67 52" fill="none" xmlns="http://www.w3.org/2000/svg">
<path d="M8.84183 22.0304C8.91062 21.865 9.14493 21.865 9.21372 22.0304L10.0459 24.0312C10.0749 24.101 10.1405 24.1486 10.2158 24.1546L12.3758 24.3278C12.5543 24.3421 12.6267 24.565 12.4907 24.6815L10.845 26.0912C10.7876 26.1404 10.7626 26.2174 10.7801 26.2909L11.2829 28.3987C11.3245 28.573 11.1349 28.7107 10.982 28.6173L9.13275 27.4878C9.0683 27.4484 8.98725 27.4484 8.9228 27.4878L7.07352 28.6173C6.92065 28.7107 6.73109 28.573 6.77266 28.3987L7.27545 26.2909C7.29297 26.2174 7.26792 26.1404 7.21057 26.0912L5.56486 24.6815C5.42882 24.565 5.50122 24.3421 5.67978 24.3278L7.8398 24.1546C7.91508 24.1486 7.98065 24.101 8.00966 24.0312L8.84183 22.0304Z" fill="#C4CADA" stroke="#C4CADA" stroke-width="0.402778"/>
<path d="M17.7029 22.0304C17.7717 21.865 18.006 21.865 18.0748 22.0304L18.907 24.0312C18.936 24.101 19.0016 24.1486 19.0768 24.1546L21.2369 24.3278C21.4154 24.3421 21.4878 24.565 21.3518 24.6815L19.7061 26.0912C19.6487 26.1404 19.6237 26.2174 19.6412 26.2909L20.144 28.3987C20.1855 28.573 19.996 28.7107 19.8431 28.6173L17.9938 27.4878C17.9294 27.4484 17.8483 27.4484 17.7839 27.4878L15.9346 28.6173C15.7817 28.7107 15.5922 28.573 15.6337 28.3987L16.1365 26.2909C16.1541 26.2174 16.129 26.1404 16.0717 26.0912L14.4259 24.6815C14.2899 24.565 14.3623 24.3421 14.5409 24.3278L16.7009 24.1546C16.7762 24.1486 16.8417 24.101 16.8707 24.0312L17.7029 22.0304Z" fill="#C4CADA" stroke="#C4CADA" stroke-width="0.402778"/>
<path d="M26.5638 22.0303C26.6325 21.8649 26.8669 21.8649 26.9356 22.0303L27.7678 24.0311C27.7968 24.1008 27.8624 24.1485 27.9377 24.1545L30.0977 24.3277C30.2763 24.342 30.3487 24.5648 30.2126 24.6814L28.5669 26.0911C28.5096 26.1402 28.4845 26.2173 28.502 26.2908L29.0048 28.3986C29.0464 28.5728 28.8568 28.7106 28.704 28.6172L26.8547 27.4876C26.7902 27.4483 26.7092 27.4483 26.6447 27.4876L24.7954 28.6172C24.6426 28.7106 24.453 28.5728 24.4946 28.3986L24.9974 26.2908C25.0149 26.2173 24.9898 26.1402 24.9325 26.0911L23.2868 24.6814C23.1507 24.5648 23.2231 24.342 23.4017 24.3277L25.5617 24.1545C25.637 24.1485 25.7026 24.1008 25.7316 24.0311L26.5638 22.0303Z" fill="#C4CADA" stroke="#C4CADA" stroke-width="0.402778"/>
<path d="M35.4253 22.0303C35.4941 21.8649 35.7284 21.8649 35.7972 22.0303L36.6294 24.0311C36.6584 24.1008 36.724 24.1485 36.7992 24.1545L38.9593 24.3277C39.1378 24.342 39.2102 24.5648 39.0742 24.6814L37.4285 26.0911C37.3711 26.1402 37.3461 26.2173 37.3636 26.2908L37.8664 28.3986C37.908 28.5728 37.7184 28.7106 37.5655 28.6172L35.7162 27.4876C35.6518 27.4483 35.5707 27.4483 35.5063 27.4876L33.657 28.6172C33.5041 28.7106 33.3146 28.5728 33.3562 28.3986L33.8589 26.2908C33.8765 26.2173 33.8514 26.1402 33.7941 26.0911L32.1484 24.6814C32.0123 24.5648 32.0847 24.342 32.2633 24.3277L34.4233 24.1545C34.4986 24.1485 34.5642 24.1008 34.5932 24.0311L35.4253 22.0303Z" fill="#C4CADA" stroke="#C4CADA" stroke-width="0.402778"/>
<path d="M44.2864 22.0304C44.3552 21.865 44.5895 21.865 44.6583 22.0304L45.4905 24.0312C45.5195 24.101 45.5851 24.1486 45.6603 24.1546L47.8204 24.3278C47.9989 24.3421 48.0713 24.565 47.9353 24.6815L46.2896 26.0912C46.2322 26.1404 46.2072 26.2174 46.2247 26.2909L46.7275 28.3987C46.769 28.573 46.5795 28.7107 46.4266 28.6173L44.5773 27.4878C44.5129 27.4484 44.4318 27.4484 44.3674 27.4878L42.5181 28.6173C42.3652 28.7107 42.1757 28.573 42.2172 28.3987L42.72 26.2909C42.7375 26.2174 42.7125 26.1404 42.6551 26.0912L41.0094 24.6815C40.8734 24.565 40.9458 24.3421 41.1244 24.3278L43.2844 24.1546C43.3597 24.1486 43.4252 24.101 43.4542 24.0312L44.2864 22.0304Z" fill="#C4CADA" stroke="#C4CADA" stroke-width="0.402778"/>
<rect x="51.4001" y="23.6779" width="11.6" height="3.86667" rx="1.93333" fill="#C4CADA"/>
</svg>