<svg width="67" height="52" viewBox="0 0 67 52" fill="none" xmlns="http://www.w3.org/2000/svg">
<path d="M11.1355 18.4174C11.2812 18.0672 11.7773 18.0672 11.923 18.4174L13.6852 22.6543C13.7467 22.802 13.8855 22.9029 14.0449 22.9156L18.619 23.2823C18.9971 23.3127 19.1505 23.7845 18.8624 24.0313L15.3774 27.0166C15.2559 27.1206 15.2029 27.2838 15.24 27.4394L16.3047 31.9029C16.3927 32.2719 15.9913 32.5635 15.6676 32.3658L11.7516 29.9739C11.6151 29.8905 11.4434 29.8905 11.307 29.9739L7.39091 32.3658C7.06719 32.5635 6.66578 32.2719 6.75379 31.9029L7.81851 27.4394C7.85561 27.2838 7.80257 27.1206 7.68112 27.0166L4.19616 24.0313C3.90806 23.7845 4.06139 23.3127 4.43951 23.2823L9.01359 22.9156C9.173 22.9029 9.31186 22.802 9.37328 22.6543L11.1355 18.4174Z" fill="#C4CADA"/>
<path d="M27.1372 30.1197C26.5671 30.1197 26.0568 30.0128 25.6064 29.799C25.156 29.5824 24.7982 29.2859 24.5331 28.9096C24.2709 28.5333 24.1312 28.1029 24.1141 27.6182H25.6534C25.6819 27.9774 25.8373 28.2711 26.1195 28.4991C26.4017 28.7243 26.741 28.8369 27.1372 28.8369C27.4479 28.8369 27.7245 28.7657 27.9668 28.6231C28.2091 28.4806 28.4001 28.2825 28.5398 28.0287C28.6794 27.775 28.7479 27.4857 28.745 27.1607C28.7479 26.83 28.678 26.5364 28.5355 26.2799C28.3929 26.0233 28.1977 25.8223 27.9497 25.6769C27.7017 25.5287 27.4166 25.4546 27.0945 25.4546C26.8322 25.4517 26.5742 25.5002 26.3205 25.6C26.0668 25.6997 25.8658 25.8309 25.7176 25.9934L24.2851 25.7582L24.7426 21.2427H29.8226V22.5683H26.0554L25.8031 24.8901H25.8544C26.0169 24.6991 26.2464 24.5409 26.5428 24.4155C26.8393 24.2872 27.1643 24.2231 27.5178 24.2231C28.048 24.2231 28.5212 24.3485 28.9374 24.5994C29.3536 24.8474 29.6815 25.1895 29.9209 25.6256C30.1604 26.0618 30.2801 26.5606 30.2801 27.1222C30.2801 27.7009 30.1461 28.2169 29.8782 28.6702C29.613 29.1206 29.2439 29.4755 28.7707 29.7349C28.3003 29.9914 27.7558 30.1197 27.1372 30.1197ZM32.3893 30.0941C32.1298 30.0941 31.9075 30.0029 31.7222 29.8204C31.5369 29.638 31.4457 29.4156 31.4485 29.1533C31.4457 28.8968 31.5369 28.6773 31.7222 28.4948C31.9075 28.3124 32.1298 28.2212 32.3893 28.2212C32.6401 28.2212 32.8582 28.3124 33.0435 28.4948C33.2316 28.6773 33.3271 28.8968 33.33 29.1533C33.3271 29.3272 33.2815 29.4855 33.1931 29.628C33.1076 29.7705 32.9936 29.8845 32.8511 29.9701C32.7114 30.0527 32.5574 30.0941 32.3893 30.0941ZM37.807 30.1668C37.1029 30.1668 36.4985 29.9886 35.9939 29.6323C35.4922 29.2731 35.106 28.7557 34.8351 28.0801C34.5672 27.4016 34.4332 26.5849 34.4332 25.6299C34.436 24.6749 34.5715 23.8625 34.8394 23.1926C35.1102 22.5198 35.4965 22.0067 35.9982 21.6532C36.5028 21.2997 37.1057 21.123 37.807 21.123C38.5083 21.123 39.1112 21.2997 39.6157 21.6532C40.1203 22.0067 40.5066 22.5198 40.7746 23.1926C41.0454 23.8653 41.1808 24.6778 41.1808 25.6299C41.1808 26.5877 41.0454 27.4059 40.7746 28.0843C40.5066 28.76 40.1203 29.2759 39.6157 29.6323C39.114 29.9886 38.5111 30.1668 37.807 30.1668ZM37.807 28.8284C38.3543 28.8284 38.7862 28.559 39.1026 28.0202C39.4219 27.4786 39.5815 26.6818 39.5815 25.6299C39.5815 24.9343 39.5088 24.3499 39.3635 23.8767C39.2181 23.4035 39.0128 23.0472 38.7477 22.8077C38.4826 22.5654 38.169 22.4443 37.807 22.4443C37.2625 22.4443 36.8321 22.7151 36.5156 23.2567C36.1992 23.7955 36.0396 24.5865 36.0367 25.6299C36.0339 26.3283 36.1037 26.9156 36.2462 27.3916C36.3916 27.8677 36.5969 28.2269 36.862 28.4692C37.1271 28.7086 37.4421 28.8284 37.807 28.8284Z" fill="#C4CADA"/>
<rect x="45.0791" y="20.4811" width="18.062" height="11.0379" rx="2.00688" fill="#C4CADA"/>
</svg>
