 <svg xmlns="http://www.w3.org/2000/svg" width="110" height="108" viewBox="0 0 110 108" fill="none"> <circle cx="76.4844" cy="73.9844" r="33.5156" fill="#C4A2FC" /> <path d="M74.0449 55.2075C74.0449 53.8602 75.1371 52.7679 76.4844 52.7679C77.8317 52.7679 78.924 53.8602 78.924 55.2075V93.981C78.924 95.3283 77.8317 96.4205 76.4844 96.4205C75.1371 96.4205 74.0449 95.3283 74.0449 93.981V55.2075Z" fill="white" /> <path d="M95.871 72.1548C97.2183 72.1548 98.3105 73.247 98.3105 74.5943C98.3105 75.9416 97.2183 77.0338 95.871 77.0338L57.0975 77.0338C55.7502 77.0338 54.658 75.9416 54.658 74.5943C54.658 73.247 55.7502 72.1548 57.0975 72.1548L95.871 72.1548Z" fill="white" /> <path d="M55 75L41.2888 65.2926C41.0123 65.0969 40.6389 65.1108 40.3778 65.3265L31.4495 72.702C31.1572 72.9435 30.7307 72.9288 30.4557 72.6679L14.5996 57.6249C14.3522 57.3902 13.9776 57.352 13.6879 57.5318L1.71875 64.9609" stroke="#14166C" strokeWidth="3" /> <rect x="3" y="44" width="30" height="3" fill="#14166C" /> <rect x="31.5781" y="2.4375" width="53.7188" height="54.5781" rx="3.75" stroke="#14166C" strokeWidth="3" /> <path d="M48.125 40.9707V18.4824C48.125 16.7735 49.9552 15.6884 51.4546 16.5084L72.0152 27.7525C73.5758 28.6059 73.5758 30.8472 72.0152 31.7006L51.4546 42.9448C49.9552 43.7647 48.125 42.6796 48.125 40.9707Z" stroke="#14166C" strokeWidth="3" /> <path fillRule="evenodd" clipRule="evenodd" d="M30 30H6.04545C2.70664 30 0 32.713 0 36.0597V81.9403C0 85.287 2.70664 88 6.04546 88H50.9545C54.2934 88 57 85.287 57 81.9403V59H54V82.5C54 83.9343 52.84 85.097 51.4091 85.097H5.59091C4.15999 85.097 3 83.9343 3 82.5V35.597C3 34.1627 4.15999 33 5.59091 33H30V30Z" fill="#14166C" /> </svg>