<svg xmlns="http://www.w3.org/2000/svg" width="55.796" height="50.297" viewBox="0 0 55.796 50.297"><g id="Group_7618" data-name="Group 7618" transform="translate(-1017.986 -423.567)"><path id="Path_6215" data-name="Path 6215" d="M160.541,91.59,140.1,127a7.444,7.444,0,0,0,6.446,11.166H187.43A7.444,7.444,0,0,0,193.876,127L173.433,91.59a7.443,7.443,0,0,0-12.893,0L140.1,127a7.444,7.444,0,0,0,6.446,11.166H187.43A7.444,7.444,0,0,0,193.876,127L173.433,91.59A7.443,7.443,0,0,0,160.541,91.59Z" transform="translate(878.896 335.699)" fill="#ff4051"></path><ellipse id="Ellipse_197" data-name="Ellipse 197" cx="4.383" cy="4.383" rx="4.383" ry="4.383" transform="translate(1041.883 457.91)" fill="#fff"></ellipse><path id="Path_6217" data-name="Path 6217" d="M246.618,160.24h-1.666a2.492,2.492,0,0,1-2.492-2.492v-9.223a2.492,2.492,0,0,1,2.492-2.492h1.666a2.492,2.492,0,0,1,2.492,2.492v9.223A2.492,2.492,0,0,1,246.618,160.24Z" transform="translate(800.482 291.577)" fill="#fff"></path></g></svg>