<svg width="105" height="105" viewBox="0 0 105 105" fill="none" xmlns="http://www.w3.org/2000/svg">
<g clip-path="url(#clip0_1_21)">
<path d="M27.6294 29.7647C25.4791 29.7647 23.6906 31.5096 23.6418 33.6602C23.6174 34.7436 24.028 35.7784 24.7962 36.5697C25.5685 37.365 26.5929 37.8073 27.6863 37.8154C27.6985 37.8154 27.7106 37.8154 27.7228 37.8154C29.9138 37.8154 31.7104 36.0503 31.7308 33.8631C31.743 32.7797 31.3283 31.7611 30.5641 30.9861C29.7919 30.2029 28.7513 29.7687 27.6416 29.7647H27.6253H27.6294ZM29.6984 33.8428C29.6862 34.9221 28.7756 35.7946 27.7025 35.7865C27.1579 35.7825 26.6416 35.5593 26.2514 35.1575C25.8653 34.7598 25.6579 34.2445 25.6701 33.7048C25.6945 32.6498 26.5685 31.7936 27.6253 31.7936H27.6335C28.1984 31.7936 28.7229 32.0167 29.1171 32.4104C29.4992 32.7959 29.7024 33.3031 29.6984 33.8428Z" fill="#5C7EFD"/>
<path d="M39.1166 68.2574C32.8243 61.9758 26.5361 55.6903 20.2397 49.4127C19.4064 48.5809 19.0202 47.6678 19.0283 46.5398C19.0365 44.8639 19.004 40.2218 18.9714 36.1273C18.9471 33.011 18.9267 30.069 18.9267 28.807C18.9267 27.7195 19.2804 26.7943 19.9429 26.1409C20.6014 25.4877 21.5241 25.1387 22.6135 25.1509C26.1865 25.1671 29.7594 25.1914 33.3324 25.2198C35.7022 25.2361 38.072 25.2523 40.4458 25.2685C41.523 25.2767 42.4254 25.6581 43.2059 26.4372C46.039 29.2696 48.1974 31.6516 51.0347 34.484L52.4574 33.0637C49.6039 30.2151 47.4942 27.8534 44.6448 25.0048C43.4822 23.8442 42.0758 23.2518 40.462 23.2396C38.0923 23.2275 35.7225 23.2072 33.3527 23.1909C29.7675 23.1625 26.1946 23.1382 22.6176 23.1219C21.0038 23.1098 19.5446 23.6779 18.5081 24.7045C17.4675 25.7312 16.8943 27.1879 16.8903 28.803C16.8903 30.0731 16.9147 33.0191 16.935 36.1435C16.9675 40.2339 17 44.8679 16.9919 46.5276C16.9838 48.1873 17.5894 49.64 18.8007 50.8492C25.593 57.6258 32.3812 64.4065 39.1695 71.1872C39.141 70.2377 39.1166 69.215 39.1125 68.2615L39.1166 68.2574Z" fill="url(#paint0_linear_1_21)"/>
<path d="M52.5387 82.7683C51.3762 82.7683 50.3193 82.3219 49.4617 81.4698L45.6489 77.6676C40.3564 72.3883 35.0641 67.1091 29.7839 61.8176C27.9791 60.0119 28.036 57.4271 29.9221 55.5361C32.0114 53.4381 34.1089 51.3484 36.2063 49.2585C37.3119 48.1589 38.4176 47.0552 39.5191 45.9555L40.0597 45.4158C46.8276 38.6595 53.5915 31.9072 60.3553 25.1509C61.5179 23.9903 62.9243 23.3979 64.5381 23.3857C66.8997 23.3735 69.2572 23.3532 71.6189 23.337C75.2041 23.3127 78.7893 23.2843 82.3744 23.268C84.0085 23.268 85.4515 23.824 86.4839 24.8506C87.5204 25.8773 88.0976 27.334 88.1017 28.949C88.1017 30.2192 88.0774 33.1692 88.0571 36.2896C88.0245 40.3759 87.992 45.01 88.0001 46.6737C88.0083 48.3334 87.4025 49.7902 86.1913 50.9953C76.1512 61.0101 66.1111 71.0289 56.0791 81.0559C55.3028 81.835 54.315 82.6425 52.8883 82.7521C52.7704 82.7602 52.6485 82.7642 52.5306 82.7642L52.5387 82.7683ZM82.4109 25.301H82.3866C78.8055 25.3173 75.2204 25.3416 71.6393 25.37C69.2776 25.3862 66.9159 25.4025 64.5583 25.4187C63.4812 25.4268 62.5788 25.8083 61.7983 26.5873C55.0345 33.3436 48.2666 40.1 41.4987 46.8563L40.9581 47.3961C39.8525 48.4998 38.7468 49.5994 37.6412 50.7031C35.5437 52.793 33.4504 54.8787 31.3611 56.9725C30.2839 58.0519 30.2311 59.3951 31.2228 60.3893C36.503 65.6807 41.7954 70.9559 47.0838 76.2351L50.8965 80.0374C51.4208 80.5608 52.0225 80.788 52.7338 80.7353C53.4533 80.6785 54.0183 80.2525 54.6402 79.6275C64.6721 69.6006 74.7082 59.5817 84.7523 49.5629C85.5856 48.7311 85.9717 47.818 85.9636 46.6899C85.9555 45.014 85.988 40.3759 86.0205 36.2815C86.0449 33.1611 86.0652 30.2151 86.0652 28.9571C86.0652 27.8696 85.7116 26.9485 85.049 26.2911C84.3946 25.6419 83.48 25.301 82.3987 25.301H82.4109ZM77.2731 37.9656C75.0821 37.9656 73.2855 36.2004 73.2611 34.0132C73.2489 32.9298 73.6635 31.9112 74.4277 31.1362C75.2001 30.353 76.2406 29.9189 77.3503 29.9148H77.3666C79.5209 29.9148 81.3054 31.6597 81.3541 33.8103C81.3785 34.8937 80.9679 35.9286 80.1998 36.7198C79.4274 37.5151 78.4031 37.9574 77.3097 37.9656H77.2731ZM77.3666 31.9437H77.3585C76.7934 31.9437 76.265 32.1669 75.8748 32.5605C75.4927 32.946 75.2894 33.4532 75.2935 33.9929C75.3057 35.0723 76.2162 35.9448 77.2893 35.9367C77.834 35.9326 78.3503 35.7094 78.7405 35.3077C79.1267 34.91 79.3339 34.3947 79.3217 33.855C79.2973 32.7999 78.4234 31.9437 77.3666 31.9437Z" fill="url(#paint1_linear_1_21)"/>
</g>
<defs>
<linearGradient id="paint0_linear_1_21" x1="52.2473" y1="69.9244" x2="8.44131" y2="36.8313" gradientUnits="userSpaceOnUse">
<stop stop-color="#4100FB"/>
<stop offset="0.11" stop-color="#4209FB"/>
<stop offset="0.29" stop-color="#4822FB"/>
<stop offset="0.52" stop-color="#514CFC"/>
<stop offset="0.78" stop-color="#5D85FD"/>
<stop offset="0.99" stop-color="#68B8FE"/>
</linearGradient>
<linearGradient id="paint1_linear_1_21" x1="86.535" y1="81.2051" x2="30.1613" y2="24.7049" gradientUnits="userSpaceOnUse">
<stop stop-color="#4100FB"/>
<stop offset="0.11" stop-color="#4209FB"/>
<stop offset="0.29" stop-color="#4822FB"/>
<stop offset="0.52" stop-color="#514CFC"/>
<stop offset="0.78" stop-color="#5D85FD"/>
<stop offset="0.99" stop-color="#68B8FE"/>
</linearGradient>
<clipPath id="clip0_1_21">
<rect width="105" height="105" fill="white"/>
</clipPath>
</defs>
</svg>
