<svg width="82" height="82" viewBox="0 0 82 82" fill="none" xmlns="http://www.w3.org/2000/svg">
<g clip-path="url(#clip0_1007_87)">
<path d="M13.0631 15.4617C10.6477 15.4617 8.63871 17.4217 8.58392 19.8375C8.55652 21.0545 9.01768 22.2168 9.88065 23.1057C10.7482 23.999 11.8988 24.4959 13.127 24.505C13.1407 24.505 13.1544 24.505 13.1681 24.505C15.6292 24.505 17.6473 22.5222 17.6702 20.0654C17.6839 18.8484 17.2181 17.7043 16.3597 16.8337C15.4922 15.9539 14.3233 15.4662 13.0768 15.4617H13.0585H13.0631ZM15.3872 20.0426C15.3735 21.255 14.3507 22.235 13.1453 22.2259C12.5335 22.2214 11.9536 21.9707 11.5153 21.5194C11.0815 21.0727 10.8486 20.4938 10.8623 19.8876C10.8897 18.7025 11.8714 17.7407 13.0585 17.7407H13.0677C13.7023 17.7407 14.2914 17.9914 14.7343 18.4336C15.1635 18.8666 15.3917 19.4364 15.3872 20.0426V20.0426Z" fill="#5C7EFD"/>
<path d="M25.9666 58.7001C18.8985 51.6441 11.835 44.5836 4.76234 37.5321C3.82632 36.5977 3.39256 35.5721 3.40169 34.305C3.41082 32.4225 3.37429 27.208 3.33777 22.6088C3.31037 19.1082 3.28754 15.8035 3.28754 14.3859C3.28754 13.1644 3.68478 12.1251 4.42903 11.3912C5.16871 10.6574 6.20518 10.2654 7.42886 10.2791C11.4423 10.2973 15.4558 10.3246 19.4693 10.3565C22.1312 10.3748 24.7932 10.393 27.4597 10.4112C28.6697 10.4204 29.6833 10.8488 30.56 11.724C33.7424 14.9056 36.1669 17.5812 39.354 20.7628L40.9521 19.1674C37.7468 15.9676 35.377 13.3148 32.1763 10.115C30.8704 8.81134 29.2906 8.14585 27.4779 8.13218C24.816 8.11851 22.154 8.09571 19.4921 8.07748C15.4649 8.04558 11.4515 8.01823 7.43342 7.99999C5.62074 7.98632 3.98156 8.62446 2.81725 9.77767C1.64836 10.9309 1.00457 12.5672 1 14.3814C1 15.8081 1.0274 19.1173 1.05023 22.627C1.08675 27.2216 1.12328 32.427 1.11415 34.2913C1.10502 36.1556 1.78534 37.7874 3.146 39.1457C10.7757 46.7578 18.4008 54.3744 26.026 61.9911C25.994 60.9245 25.9666 59.7758 25.962 58.7047L25.9666 58.7001Z" fill="url(#paint0_linear_1007_87)"/>
<path d="M41.0435 75C39.7376 75 38.5505 74.4986 37.5871 73.5414L33.3042 69.2704C27.3593 63.3403 21.4145 57.4102 15.4833 51.4664C13.456 49.438 13.5199 46.5345 15.6385 44.4104C17.9854 42.0538 20.3415 39.7064 22.6975 37.3589C23.9394 36.1237 25.1814 34.8839 26.4187 33.6486L27.026 33.0424C34.6283 25.4531 42.2261 17.8684 49.8238 10.2791C51.1297 8.97544 52.7095 8.30995 54.5222 8.29628C57.175 8.2826 59.8232 8.25981 62.476 8.24158C66.5032 8.21423 70.5304 8.18233 74.5576 8.16409C76.3931 8.16409 78.014 8.78856 79.1737 9.94177C80.338 11.095 80.9864 12.7313 80.991 14.5455C80.991 15.9722 80.9636 19.2859 80.9408 22.7911C80.9042 27.3812 80.8677 32.5866 80.8768 34.4554C80.886 36.3197 80.2056 37.9561 78.845 39.3098C67.5671 50.5593 56.2892 61.8133 45.0204 73.0765C44.1483 73.9516 43.0388 74.8587 41.4362 74.9818C41.3037 74.9909 41.1668 74.9954 41.0344 74.9954L41.0435 75ZM74.5986 10.4477H74.5713C70.5487 10.466 66.5215 10.4933 62.4989 10.5252C59.8461 10.5434 57.1932 10.5617 54.545 10.5799C53.335 10.589 52.3214 11.0175 51.4447 11.8926C43.847 19.4819 36.2447 27.0712 28.6424 34.6605L28.0351 35.2668C26.7932 36.5066 25.5512 37.7418 24.3093 38.9816C21.9532 41.3291 19.6018 43.672 17.2549 46.0239C16.0449 47.2364 15.9856 48.7452 17.0996 49.8619C23.0308 55.8057 28.9757 61.7313 34.916 67.6614L39.1988 71.9324C39.7878 72.5204 40.4636 72.7756 41.2626 72.7164C42.0708 72.6526 42.7055 72.174 43.4041 71.472C54.6728 60.2089 65.9462 48.9548 77.2286 37.7008C78.1647 36.7664 78.5984 35.7408 78.5893 34.4736C78.5802 32.5911 78.6167 27.3812 78.6532 22.782C78.6806 19.2768 78.7034 15.9676 78.7034 14.5546C78.7034 13.333 78.3062 12.2983 77.5619 11.5599C76.8268 10.8306 75.7995 10.4477 74.5849 10.4477H74.5986ZM68.8273 24.6737C66.3662 24.6737 64.3481 22.6909 64.3207 20.234C64.307 19.017 64.7727 17.8729 65.6311 17.0023C66.4987 16.1226 67.6675 15.6349 68.914 15.6303H68.9323C71.3523 15.6303 73.3567 17.5903 73.4115 20.0061C73.4389 21.2231 72.9777 22.3855 72.1148 23.2743C71.2472 24.1677 70.0966 24.6645 68.8684 24.6737H68.8273V24.6737ZM68.9323 17.9094H68.9232C68.2885 17.9094 67.6949 18.1601 67.2566 18.6022C66.8274 19.0352 66.5991 19.605 66.6037 20.2112C66.6174 21.4237 67.6401 22.4037 68.8455 22.3946C69.4574 22.39 70.0373 22.1393 70.4756 21.6881C70.9094 21.2414 71.1422 20.6625 71.1285 20.0563C71.1011 18.8711 70.1194 17.9094 68.9323 17.9094V17.9094Z" fill="url(#paint1_linear_1007_87)"/>
</g>
<defs>
<linearGradient id="paint0_linear_1007_87" x1="40.7161" y1="60.5726" x2="-8.4906" y2="23.3995" gradientUnits="userSpaceOnUse">
<stop stop-color="#4100FB"/>
<stop offset="0.11" stop-color="#4209FB"/>
<stop offset="0.29" stop-color="#4822FB"/>
<stop offset="0.52" stop-color="#514CFC"/>
<stop offset="0.78" stop-color="#5D85FD"/>
<stop offset="0.99" stop-color="#68B8FE"/>
</linearGradient>
<linearGradient id="paint1_linear_1007_87" x1="79.2311" y1="73.2441" x2="15.9072" y2="9.77809" gradientUnits="userSpaceOnUse">
<stop stop-color="#4100FB"/>
<stop offset="0.11" stop-color="#4209FB"/>
<stop offset="0.29" stop-color="#4822FB"/>
<stop offset="0.52" stop-color="#514CFC"/>
<stop offset="0.78" stop-color="#5D85FD"/>
<stop offset="0.99" stop-color="#68B8FE"/>
</linearGradient>
<clipPath id="clip0_1007_87">
<rect width="80" height="67" fill="white" transform="translate(1 8)"/>
</clipPath>
</defs>
</svg>
