<svg id="Group_1" data-name="Group 1" xmlns="http://www.w3.org/2000/svg" width="24" height="24" viewBox="0 0 24 24">
  <path id="Path_5" data-name="Path 5" d="M17.995,21.905A2.708,2.708,0,0,0,20.7,19.2V5.153h2.821c-.017-.076-.039-.149-.054-.227h0c-.024-.134-.041-.268-.054-.4V4.07h-3.8V18.114a2.708,2.708,0,0,1-2.708,2.708,2.681,2.681,0,0,1-1.286-.339A2.7,2.7,0,0,0,17.995,21.905Z" transform="translate(-7.908 -2.884)" fill="#81d4fa"/>
  <path id="Path_6" data-name="Path 6" d="M32.11,8.961a4.881,4.881,0,0,1-.87-2.034h0c-.024-.134-.041-.268-.054-.4V6.07h-.975a4.911,4.911,0,0,0,1.9,2.891Z" transform="translate(-14.594 -3.8)" fill="#f55376"/>
  <path id="Path_7" data-name="Path 7" d="M15.707,22.708a2.7,2.7,0,0,0-1.286,5.078,2.681,2.681,0,0,1-.339-1.286,2.708,2.708,0,0,1,3.25-2.654V20.027c-.179-.015-.359-.028-.542-.028s-.362.012-.542.027v2.736A2.741,2.741,0,0,0,15.707,22.708Z" transform="translate(-6.704 -10.185)" fill="#f55376"/>
  <path id="Path_8" data-name="Path 8" d="M35.094,12.693a4.9,4.9,0,0,0,1.52.613v-.953a4.9,4.9,0,0,1-2.6-.744c-.1-.063-.2-.134-.291-.2A4.929,4.929,0,0,0,35.094,12.693Z" transform="translate(-16.202 -6.246)" fill="#81d4fa"/>
  <path id="Path_9" data-name="Path 9" d="M13.04,19.11V18.027c-.179-.015-.359-.027-.542-.027A6.494,6.494,0,0,0,8.48,29.6a6.489,6.489,0,0,1,4.56-10.49Z" transform="translate(-3.495 -9.269)" fill="#81d4fa"/>
  <path id="Path_10" data-name="Path 10" d="M26.006,14.914v2.563a8.4,8.4,0,0,1-4.9-1.567v7.175l-.005-.01v.01a6.493,6.493,0,0,1-10.517,5.1,6.494,6.494,0,0,0,11.6-4.018v-.01l.008.01V16.993a8.4,8.4,0,0,0,4.9,1.567V15.045a4.882,4.882,0,0,1-1.085-.131Z" transform="translate(-5.595 -7.854)" fill="#ec407a"/>
  <path id="Path_11" data-name="Path 11" d="M19.915,19.03v-.01l.008.01V11.855a8.4,8.4,0,0,0,4.9,1.567V10.859a4.8,4.8,0,0,1-2.894-1.9,4.909,4.909,0,0,1-1.9-2.891H17.207V20.113A2.7,2.7,0,0,1,12.13,21.4a2.7,2.7,0,0,1,1.828-5.023V13.641A6.488,6.488,0,0,0,9.4,24.131a6.493,6.493,0,0,0,10.517-5.1Z" transform="translate(-4.412 -3.8)"/>
  <path id="Path_1" data-name="Path 1" d="M0,0H24V24H0Z" fill="none"/>
</svg>
