<svg xmlns="http://www.w3.org/2000/svg" width="90" height="20" viewBox="0 0 90 20" fill="none"><path d="M85.1362 14.7275C84.9253 14.7275 84.7378 14.6572 84.5972 14.5166C84.2925 14.2354 84.2925 13.7432 84.5972 13.4619L87.8081 10.2275L84.5972 7.0166C84.2925 6.73535 84.2925 6.24316 84.5972 5.96191C84.8784 5.65723 85.3706 5.65723 85.6519 5.96191L89.4019 9.71191C89.7065 9.99316 89.7065 10.4854 89.4019 10.7666L85.6519 14.5166C85.5112 14.6572 85.3237 14.7275 85.1362 14.7275Z" fill="#C4CADA"></path><path d="M5.5 14.7275C5.28906 14.7275 5.10156 14.6572 4.96094 14.5166L1.21094 10.7666C0.90625 10.4854 0.90625 9.99316 1.21094 9.71191L4.96094 5.96191C5.24219 5.65723 5.73438 5.65723 6.01562 5.96191C6.32031 6.24316 6.32031 6.73535 6.01562 7.0166L2.80469 10.2275L6.01562 13.4619C6.32031 13.7432 6.32031 14.2354 6.01562 14.5166C5.875 14.6572 5.6875 14.7275 5.5 14.7275Z" fill="#C4CADA"></path><rect x="10.3635" width="20" height="20" fill="#C4CADA"></rect><rect x="34.3635" width="20" height="20" fill="#C4CADA"></rect><rect x="58.3635" width="20" height="20" fill="#C4CADA"></rect></svg>