<svg xmlns="http://www.w3.org/2000/svg" width="89" height="45" viewBox="0 0 89 45" fill="none"><path d="M84.1357 28.7275C83.9248 28.7275 83.7373 28.6572 83.5967 28.5166C83.292 28.2354 83.292 27.7432 83.5967 27.4619L86.8076 24.2275L83.5967 21.0166C83.292 20.7354 83.292 20.2432 83.5967 19.9619C83.8779 19.6572 84.3701 19.6572 84.6514 19.9619L88.4014 23.7119C88.7061 23.9932 88.7061 24.4854 88.4014 24.7666L84.6514 28.5166C84.5107 28.6572 84.3232 28.7275 84.1357 28.7275Z" fill="#C4CADA"></path><path d="M5.5 28.7275C5.28906 28.7275 5.10156 28.6572 4.96094 28.5166L1.21094 24.7666C0.90625 24.4854 0.90625 23.9932 1.21094 23.7119L4.96094 19.9619C5.24219 19.6572 5.73438 19.6572 6.01562 19.9619C6.32031 20.2432 6.32031 20.7354 6.01562 21.0166L2.80469 24.2275L6.01562 27.4619C6.32031 27.7432 6.32031 28.2354 6.01562 28.5166C5.875 28.6572 5.6875 28.7275 5.5 28.7275Z" fill="#C4CADA"></path><rect x="10.3633" width="44" height="45" fill="#C4CADA"></rect><rect x="57.3633" width="21" height="21" fill="#C4CADA"></rect><rect x="57.3633" y="24" width="21" height="21" fill="#C4CADA"></rect></svg>