<svg xmlns="http://www.w3.org/2000/svg" width="90" height="22" viewBox="0 0 90 22" fill="none"><path d="M85.1357 15.7275C84.9248 15.7275 84.7373 15.6572 84.5967 15.5166C84.292 15.2354 84.292 14.7432 84.5967 14.4619L87.8076 11.2275L84.5967 8.0166C84.292 7.73535 84.292 7.24316 84.5967 6.96191C84.8779 6.65723 85.3701 6.65723 85.6514 6.96191L89.4014 10.7119C89.7061 10.9932 89.7061 11.4854 89.4014 11.7666L85.6514 15.5166C85.5107 15.6572 85.3232 15.7275 85.1357 15.7275Z" fill="#C4CADA"></path><path d="M5.5 15.7275C5.28906 15.7275 5.10156 15.6572 4.96094 15.5166L1.21094 11.7666C0.90625 11.4854 0.90625 10.9932 1.21094 10.7119L4.96094 6.96191C5.24219 6.65723 5.73438 6.65723 6.01562 6.96191C6.32031 7.24316 6.32031 7.73535 6.01562 8.0166L2.80469 11.2275L6.01562 14.4619C6.32031 14.7432 6.32031 15.2354 6.01562 15.5166C5.875 15.6572 5.6875 15.7275 5.5 15.7275Z" fill="#C4CADA"></path><circle cx="20.3633" cy="11" r="11" fill="#C4CADA"></circle><circle cx="45.3633" cy="11" r="11" fill="#C4CADA"></circle><circle cx="70.3633" cy="11" r="11" fill="#C4CADA"></circle></svg>