<svg xmlns="http://www.w3.org/2000/svg" width="55" height="40" viewBox="0 0 55 40" fill="none"><rect x="3" y="26" width="4" height="4" fill="#C4CADA"></rect><path fill-rule="evenodd" clip-rule="evenodd" d="M17 5H1V29H2V25H8V29H17V5Z" fill="#C4CADA"></path><rect x="2" y="32" width="13" height="1" fill="#C4CADA"></rect><rect x="2" y="34" width="9" height="1" fill="#C4CADA"></rect><rect x="21" y="26" width="4" height="4" fill="#C4CADA"></rect><path fill-rule="evenodd" clip-rule="evenodd" d="M35 5H19V29H20V25H26V29H35V5Z" fill="#C4CADA"></path><rect x="20" y="32" width="13" height="1" fill="#C4CADA"></rect><rect x="20" y="34" width="9" height="1" fill="#C4CADA"></rect><rect x="39" y="26" width="4" height="4" fill="#C4CADA"></rect><path fill-rule="evenodd" clip-rule="evenodd" d="M53 5H37V29H38V25H44V29H53V5Z" fill="#C4CADA"></path><rect x="38" y="32" width="13" height="1" fill="#C4CADA"></rect><rect x="38" y="34" width="9" height="1" fill="#C4CADA"></rect></svg>