<svg width="56" height="56" viewBox="0 0 56 56" fill="none" xmlns="http://www.w3.org/2000/svg">
<g clip-path="url(#clip0_13219_1111)">
<path d="M25.9176 6.25275C32.3065 9.21625 38.8 12.2767 45.18 15.2586C45.5204 15.4179 45.9668 15.5262 45.9673 16.0082C45.968 16.4911 45.5222 16.5986 45.181 16.7579C38.7761 19.7548 32.3687 22.7464 25.9589 25.7328C24.9825 26.1874 23.9798 26.1815 23.0021 25.7259C16.5801 22.7317 10.1599 19.7336 3.74147 16.7316C3.41111 16.5771 2.99543 16.4602 3.00836 15.9904C3.02046 15.5509 3.41816 15.4367 3.73593 15.288C10.1814 12.2763 16.6922 9.21726 23.1461 6.22403C23.8283 5.90811 25.2068 5.92978 25.9176 6.25275ZM24.4796 49.928C24.0149 49.928 23.6667 49.7517 23.0026 49.5031C16.5894 46.5283 10.1841 43.5365 3.77926 40.5436C3.43882 40.3845 2.99795 40.2721 3.00198 39.7871C3.00618 39.3046 3.44739 39.1981 3.78799 39.0362C4.85029 38.531 5.91812 38.0372 6.98545 37.5426C8.05194 37.0483 9.11121 37.0552 10.1807 37.5565C14.4265 39.5468 18.6767 41.5269 22.9242 43.5129C23.9789 44.006 25.0246 43.9958 26.078 43.5024C30.3376 41.5083 34.5984 39.5168 38.8605 37.5278C39.8668 37.0581 40.8865 37.045 41.8975 37.5031C43.0345 38.0182 44.1632 38.5518 45.2925 39.0827C45.4599 39.1615 45.6297 39.2503 45.77 39.3682C46.0718 39.6227 46.0758 39.9671 45.7678 40.2139C45.5805 40.3638 45.3565 40.4742 45.1368 40.5766C38.7837 43.545 32.4314 46.5151 26.0698 49.465C25.5753 49.6941 24.9445 49.928 24.4796 49.928ZM24.4571 38.0332C24.2446 38.0332 23.4192 37.8078 22.9492 37.5896C16.5624 34.6236 10.1841 31.6391 3.80529 28.6561C3.46267 28.4959 3.01592 28.3924 3.00702 27.9151C2.99761 27.4087 3.46519 27.3075 3.81789 27.1397C4.89211 26.6283 5.96935 26.1226 7.05045 25.6258C8.07563 25.1548 9.10248 25.1659 10.1268 25.6443C14.4155 27.6476 18.7041 29.6512 22.9958 31.6478C23.9892 32.11 24.9981 32.1063 25.9923 31.6436C30.2964 29.6395 34.5975 27.6291 38.9011 25.6236C39.896 25.1599 40.9014 25.16 41.897 25.6145C43.0317 26.1321 44.1593 26.6654 45.2881 27.1956C45.4431 27.2685 45.6022 27.3454 45.7349 27.4509C46.0775 27.723 46.0746 28.0822 45.7282 28.3545C45.5948 28.4594 45.4364 28.5369 45.2814 28.6094C38.8371 31.622 32.3942 34.6372 25.9421 37.6326C25.4987 37.8387 24.6694 38.0332 24.4571 38.0332Z" fill="black"/>
</g>
<defs>
<clipPath id="clip0_13219_1111">
<rect width="43" height="44.0033" fill="white" transform="translate(3 5.99854)"/>
</clipPath>
</defs>
</svg>
