<svg width="56" height="56" viewBox="0 0 56 56" fill="none" xmlns="http://www.w3.org/2000/svg">
<g clip-path="url(#clip0_13219_1186)">
<path d="M53 28C53 40.4785 43.8574 50.8213 31.9062 52.6963V35.2266H37.7314L38.8398 28H31.9062V23.3105C31.9062 21.333 32.875 19.4062 35.9805 19.4062H39.1328V13.2539C39.1328 13.2539 36.2715 12.7656 33.5361 12.7656C27.8262 12.7656 24.0938 16.2266 24.0938 22.4922V28H17.7461V35.2266H24.0938V52.6963C12.1426 50.8213 3 40.4785 3 28C3 14.1934 14.1934 3 28 3C41.8066 3 53 14.1934 53 28Z" fill="#1877F2"/>
<path d="M37.7314 35.2266L38.8398 28H31.9062V23.3104C31.9062 21.3334 32.8748 19.4062 35.9804 19.4062H39.1328V13.2539C39.1328 13.2539 36.2719 12.7656 33.5366 12.7656C27.8261 12.7656 24.0938 16.2266 24.0938 22.4922V28H17.7461V35.2266H24.0938V52.6962C25.3666 52.8959 26.6711 53 28 53C29.3289 53 30.6334 52.8959 31.9062 52.6962V35.2266H37.7314Z" fill="white"/>
</g>
<defs>
<clipPath id="clip0_13219_1186">
<rect width="50" height="50" fill="white" transform="translate(3 3)"/>
</clipPath>
</defs>
</svg>
