<svg width="56" height="56" viewBox="0 0 56 56" fill="none" xmlns="http://www.w3.org/2000/svg">
<g clip-path="url(#clip0_13219_1136)">
<g clip-path="url(#clip1_13219_1136)">
<path d="M5.58932 -0.14616C5.71155 -0.491496 6.07894 -0.679834 6.42674 -0.58487L6.47626 -0.569363C6.47626 -0.569363 17.5295 3.63255 25.2396 6.56359C26.1267 6.41751 27.0075 6.3448 27.8741 6.35101C31.1487 6.37371 34.2411 7.10885 37.3423 8.94071L55.3899 7.44657C55.6033 7.43708 55.805 7.54481 55.9156 7.72765C56.0732 7.98827 56.0033 8.32302 55.7625 8.50003L55.7114 8.53359C55.4875 8.66403 49.8349 11.9564 44.437 15.1005C44.6191 15.3093 44.8016 15.5226 44.9846 15.7405C50.1211 21.8652 53.2457 30.7275 54.738 35.8517C55.6193 38.8781 55.047 42.142 53.1887 44.688C49.8345 49.2786 42.6813 55.5282 28.6473 55.4286C13.3259 55.3225 5.41209 47.6999 1.60989 43.0152C-0.0103138 41.0027 -0.442876 38.2824 0.473191 35.8666L0.757613 35.1229C3.00137 29.2872 7.18128 19.1516 10.5295 15.3828C12.5452 13.1166 14.8696 11.1599 17.3254 9.65278L5.80156 0.621255C5.57674 0.435339 5.49196 0.128839 5.58932 -0.14616Z" fill="#FF4C46"/>
<path d="M28.2113 39.5257C28.2359 39.4626 28.307 39.4314 28.3701 39.456C30.8189 40.8617 33.7587 41.1205 36.4117 40.1701L36.5644 40.1139C36.6118 40.0918 36.6681 40.1039 36.7023 40.1436C36.7383 40.1855 36.7394 40.2456 36.7082 40.2885L33.3496 43.9868C33.1361 44.2202 32.7756 44.2411 32.5365 44.0341C31.2946 42.9669 29.2205 40.7373 28.2265 39.6425C28.2018 39.6087 28.1962 39.5647 28.2113 39.5257ZM32.8741 20.5851C41.5592 14.5424 46.2676 19.7877 48.9094 25.6064C50.818 29.7999 51.4938 37.6511 45.2982 38.8542C40.5524 39.7797 36.167 34.9716 32.9237 30.4825C32.5908 30.0228 31.9481 29.92 31.4884 30.2529C31.4018 30.3157 31.3256 30.3915 31.2623 30.4777L31.1303 30.6615C28.9102 33.7745 23.6161 42.2374 15.7814 40.0956C8.22138 38.0259 6.56028 29.5219 9.70433 23.6433C14.3568 14.7791 21.1534 11.8908 32.8741 20.5851ZM31.6396 32.7489C31.9392 32.4608 32.4076 32.4566 32.712 32.7298L32.7557 32.7723L36.9061 37.5018C36.9282 37.5269 36.9472 37.5547 36.9626 37.5844C37.0699 37.7903 36.9899 38.0442 36.7839 38.1515C35.5345 38.7884 34.1578 39.1359 32.7558 39.1682C30.9104 39.153 29.0217 37.9282 28.2486 37.3651L28.217 37.3396C28.0551 37.1955 28.0308 36.9544 28.1537 36.7818L28.1824 36.746L31.5928 32.7901L31.5985 32.7915C31.6116 32.7768 31.6254 32.7626 31.6396 32.7489Z" fill="white"/>
<path d="M42.9531 25.8105L43.0009 25.8882C44.0052 27.4472 43.5554 29.525 41.9965 30.5293C40.4375 31.5336 38.3596 31.0839 37.3553 29.5249C36.3784 28.0085 36.7762 25.9978 38.2404 24.9643L38.3213 24.9089C39.7795 23.8653 41.8076 24.2013 42.8512 25.6594C42.8866 25.7088 42.9206 25.7592 42.9531 25.8105ZM21.9582 24.0219C20.2105 24.6176 19.3415 26.4738 19.8623 28.2025C20.4581 29.9502 22.3143 30.8192 24.043 30.2984C25.7907 29.7026 26.6453 27.8229 26.1388 26.1178C26.1435 26.1065 26.1322 26.0744 26.1108 26.0358C25.5731 24.3532 23.856 23.4641 22.2213 23.9288C22.1462 23.9098 22.0522 23.9658 21.9582 24.0219Z" fill="#FF4C46"/>
</g>
</g>
<defs>
<clipPath id="clip0_13219_1136">
<rect width="56" height="56" fill="white"/>
</clipPath>
<clipPath id="clip1_13219_1136">
<rect width="56" height="56.2188" fill="white" transform="translate(0 -0.609375)"/>
</clipPath>
</defs>
</svg>
