<svg width="56" height="56" viewBox="0 0 56 56" fill="none" xmlns="http://www.w3.org/2000/svg">
<path d="M40.0438 20.2484V14.6113C40.7887 14.2632 41.4195 13.7106 41.8626 13.0179C42.3057 12.3252 42.5429 11.521 42.5467 10.6987V10.5694C42.5467 8.17191 40.6032 6.22839 38.2059 6.22839H38.0764C35.679 6.22839 33.7354 8.17191 33.7354 10.5694V10.6987C33.7392 11.521 33.9765 12.3252 34.4196 13.0179C34.8627 13.7106 35.4934 14.2632 36.2383 14.6113V20.2484C34.0974 20.5763 32.081 21.464 30.3934 22.8218L14.9335 10.7801C15.0438 10.3821 15.1013 9.97291 15.1078 9.56216C15.1097 8.59471 14.8246 7.64844 14.2886 6.84303C13.7526 6.03763 12.9898 5.40927 12.0967 5.03745C11.2035 4.66563 10.2202 4.56704 9.27101 4.75416C8.32183 4.94128 7.44947 5.40571 6.76427 6.08869C6.07907 6.77166 5.61182 7.64251 5.42162 8.59108C5.23142 9.53965 5.32682 10.5233 5.69574 11.4177C6.06467 12.312 6.69055 13.0768 7.49421 13.6154C8.29787 14.154 9.24322 14.4422 10.2107 14.4434C11.057 14.4394 11.8875 14.2135 12.6192 13.7881L27.8428 25.6344C25.0439 29.8624 25.1188 35.3728 28.0313 39.5235L23.4011 44.155C23.0267 44.0354 22.6369 43.9718 22.244 43.9665C20.0265 43.9684 18.2301 45.7667 18.2306 47.9842C18.2312 50.2015 20.0288 51.9989 22.2461 51.9994C24.4635 52 26.2619 50.2036 26.2638 47.9861C26.2586 47.5932 26.1949 47.2033 26.075 46.8291L30.6556 42.2469C34.7484 45.3976 40.3695 45.6691 44.747 42.9274C49.1243 40.1855 51.3334 35.0092 50.2845 29.9518C49.2357 24.8943 45.1505 21.0236 40.0438 20.2484ZM38.1452 38.7882C37.299 38.8109 36.4567 38.6639 35.6683 38.3558C34.8798 38.0477 34.161 37.5847 33.5545 36.9942C32.9479 36.4037 32.4657 35.6977 32.1365 34.9178C31.8073 34.1379 31.6377 33.3 31.6377 32.4534C31.6377 31.6069 31.8073 30.7689 32.1365 29.989C32.4657 29.2091 32.9479 28.5031 33.5545 27.9126C34.161 27.3221 34.8798 26.8591 35.6683 26.551C36.4567 26.2429 37.299 26.0959 38.1452 26.1187C41.5554 26.2381 44.2587 29.0363 44.2606 32.4488C44.2621 35.8609 41.5617 38.6621 38.1515 38.7849" fill="#FF7A59"/>
</svg>
