<svg width="56" height="56" viewBox="0 0 56 56" fill="none" xmlns="http://www.w3.org/2000/svg">
<g clip-path="url(#clip0_13219_1192)">
<path d="M33.125 5.625H44.375C47.4512 5.625 50 8.17383 50 11.25V22.5C50 23.291 49.2969 23.9062 48.5938 23.9062H44.0234C43.4082 23.9062 42.9688 24.4336 42.9688 24.9609V25.3125C42.9688 26.8945 41.6504 28.125 40.1562 28.125C38.5742 28.125 37.3438 26.8945 37.3438 25.3125V24.9609C37.3438 24.4336 36.8164 23.9062 36.2891 23.9062H33.125C32.334 23.9062 31.7188 23.291 31.7188 22.5V19.6875C31.7188 18.9844 32.334 18.2812 33.125 18.2812H34.5312C36.0254 18.2812 37.3438 17.0508 37.3438 15.4688C37.3438 13.9746 36.0254 12.6562 34.5312 12.6562H33.125C32.334 12.6562 31.7188 12.041 31.7188 11.25V7.03125C31.7188 6.32812 32.334 5.625 33.125 5.625ZM5 28.125V16.875C5 13.7988 7.46094 11.25 10.625 11.25H21.875C22.5781 11.25 23.2812 11.9531 23.2812 12.6562V15.8203C23.2812 16.4355 23.7207 16.875 24.3359 16.875H24.6875C26.1816 16.875 27.5 18.1934 27.5 19.6875C27.5 21.2695 26.1816 22.5 24.6875 22.5H24.3359C23.7207 22.5 23.2812 23.0273 23.2812 23.5547V28.125C23.2812 28.916 22.5781 29.5312 21.875 29.5312H19.0625C18.2715 29.5312 17.6562 28.916 17.6562 28.125V26.7188C17.6562 25.2246 16.3379 23.9062 14.8438 23.9062C13.2617 23.9062 12.0312 25.2246 12.0312 26.7188V28.125C12.0312 28.916 11.3281 29.5312 10.625 29.5312H6.40625C5.61523 29.5312 5 28.916 5 28.125ZM5 45V33.75C5 33.0469 5.61523 32.3438 6.40625 32.3438H21.875C22.5781 32.3438 23.2812 33.0469 23.2812 33.75V36.5625C23.2812 37.3535 22.5781 37.9688 21.875 37.9688H20.4688C18.8867 37.9688 17.6562 39.2871 17.6562 40.7812C17.6562 42.3633 18.8867 43.5938 20.4688 43.5938H21.875C22.5781 43.5938 23.2812 44.2969 23.2812 45V49.2188C23.2812 50.0098 22.5781 50.625 21.875 50.625H10.625C7.46094 50.625 5 48.1641 5 45ZM26.0938 33.75C26.0938 33.0469 26.709 32.3438 27.5 32.3438H30.3125C31.0156 32.3438 31.7188 33.0469 31.7188 33.75V35.1562C31.7188 36.7383 32.9492 37.9688 34.5312 37.9688C36.0254 37.9688 37.3438 36.7383 37.3438 35.1562V33.75C37.3438 33.0469 37.959 32.3438 38.75 32.3438H42.9688C43.6719 32.3438 44.375 33.0469 44.375 33.75V45C44.375 48.1641 41.8262 50.625 38.75 50.625H27.5C26.709 50.625 26.0938 50.0098 26.0938 49.2188V33.75Z" fill="#FF4051"/>
</g>
<defs>
<clipPath id="clip0_13219_1192">
<rect width="56" height="56" fill="white"/>
</clipPath>
</defs>
</svg>
