<svg width="56" height="56" viewBox="0 0 56 56" fill="none" xmlns="http://www.w3.org/2000/svg">
<g clip-path="url(#clip0_13219_1125)">
<path fill-rule="evenodd" clip-rule="evenodd" d="M21.7123 3.50079C18.9816 3.50281 16.7715 5.7189 16.7735 8.44966C16.7715 11.1804 18.9836 13.3965 21.7143 13.3985H26.6551V8.45168C26.6572 5.72092 24.4451 3.50483 21.7123 3.50079C21.7143 3.50079 21.7143 3.50079 21.7123 3.50079ZM21.7123 16.7005H8.5409C5.81014 16.7025 3.59808 18.9186 3.6001 21.6493C3.59607 24.3801 5.80812 26.5962 8.53888 26.6002H21.7123C24.4431 26.5982 26.6551 24.3821 26.6531 21.6514C26.6551 18.9186 24.4431 16.7025 21.7123 16.7005Z" fill="#36C5F0"/>
<path fill-rule="evenodd" clip-rule="evenodd" d="M53 21.6493C53.0021 18.9186 50.79 16.7025 48.0592 16.7005C45.3285 16.7025 43.1164 18.9186 43.1184 21.6493V26.6002H48.0592C50.79 26.5982 53.0021 24.3821 53 21.6493ZM39.8266 21.6493V8.44966C39.8286 5.72092 37.6186 3.50483 34.8878 3.50079C32.1571 3.50281 29.945 5.7189 29.947 8.44966V21.6493C29.943 24.3801 32.155 26.5962 34.8858 26.6002C37.6166 26.5982 39.8286 24.3821 39.8266 21.6493Z" fill="#2EB67D"/>
<path fill-rule="evenodd" clip-rule="evenodd" d="M34.8856 52.9989C37.6164 52.9968 39.8284 50.7807 39.8264 48.05C39.8284 45.3192 37.6164 43.1031 34.8856 43.1011H29.9448V48.05C29.9428 50.7787 32.1549 52.9948 34.8856 52.9989ZM34.8856 39.7972H48.0591C50.7898 39.7951 53.0019 37.579 52.9999 34.8483C53.0039 32.1175 50.7918 29.9014 48.0611 29.8974H34.8876C32.1569 29.8994 29.9448 32.1155 29.9468 34.8463C29.9448 37.579 32.1549 39.7951 34.8856 39.7972Z" fill="#ECB22E"/>
<path fill-rule="evenodd" clip-rule="evenodd" d="M3.6001 34.8488C3.59808 37.5795 5.81014 39.7956 8.5409 39.7976C11.2717 39.7956 13.4837 37.5795 13.4817 34.8488V29.8999H8.5409C5.81014 29.9019 3.59808 32.118 3.6001 34.8488ZM16.7735 34.8488V48.0485C16.7695 50.7792 18.9816 52.9953 21.7123 52.9993C24.4431 52.9973 26.6551 50.7812 26.6531 48.0505V34.8528C26.6572 32.1221 24.4451 29.906 21.7143 29.9019C18.9816 29.9019 16.7715 32.118 16.7735 34.8488Z" fill="#E01E5A"/>
</g>
<defs>
<clipPath id="clip0_13219_1125">
<rect width="49.3999" height="49.4988" fill="white" transform="translate(3.6001 3.50098)"/>
</clipPath>
</defs>
</svg>
