<svg width="56" height="56" viewBox="0 0 56 56" fill="none" xmlns="http://www.w3.org/2000/svg">
<g clip-path="url(#clip0_13219_1161)">
<g filter="url(#filter0_d_13219_1161)">
<rect x="2" y="1.5" width="52" height="52" rx="26" fill="#010101"/>
</g>
<g clip-path="url(#clip1_13219_1161)">
<path d="M24.844 28.2458C22.2575 28.2458 20.1679 30.3354 20.2061 32.8965C20.2316 34.5401 21.1362 35.9671 22.4677 36.7635C22.0154 36.0691 21.7478 35.2472 21.7351 34.3617C21.6968 31.8007 23.7864 29.7111 26.3729 29.7111C26.8826 29.7111 27.3731 29.7939 27.8318 29.9404V24.812C27.354 24.7419 26.8635 24.7037 26.3729 24.7037H26.3029V28.4752C25.8442 28.3287 25.3536 28.2458 24.844 28.2458ZM36.0246 12.8669H34.6612C35.0435 14.7845 36.1201 16.4537 37.6236 17.5876C36.6361 16.2816 36.0373 14.6507 36.0246 12.8669Z" fill="#F00044"/>
<path d="M43.8224 20.6704C43.3191 20.6704 42.8349 20.6195 42.3571 20.5303V24.2062C40.6243 24.2062 38.9424 23.8685 37.3625 23.1932C36.3431 22.76 35.3939 22.2058 34.5211 21.5368L34.5466 32.8703C34.5339 35.4186 33.5273 37.8076 31.7053 39.6105C30.2209 41.0758 28.3415 42.0123 26.3029 42.3117C25.8251 42.3818 25.3346 42.42 24.844 42.42C22.6652 42.42 20.5884 41.7129 18.9001 40.4069C19.0913 40.6362 19.2951 40.8592 19.5181 41.0758C21.3529 42.8851 23.7865 43.8853 26.3794 43.8853C26.8699 43.8853 27.3604 43.8471 27.8383 43.777C29.8769 43.4776 31.7562 42.5411 33.2406 41.0758C35.0626 39.2729 36.0692 36.8839 36.082 34.3356L35.9864 23.0021C36.8528 23.671 37.802 24.2317 38.8277 24.6585C40.414 25.3274 42.0959 25.6714 43.8224 25.6714" fill="#F00044"/>
<path d="M19.4992 27.5262C21.3148 25.7233 23.7293 24.7231 26.3031 24.704V23.347C25.8253 23.2769 25.3348 23.2387 24.8442 23.2387C22.245 23.2387 19.805 24.2389 17.9702 26.0609C16.1673 27.8511 15.1353 30.2975 15.1416 32.8394C15.1416 35.4004 16.1546 37.8022 17.983 39.6178C18.276 39.9045 18.5754 40.1721 18.894 40.4141C17.4542 38.7004 16.6706 36.5599 16.6642 34.3046C16.6706 31.7627 17.6963 29.3164 19.4992 27.5262ZM42.3573 20.5312V19.1678H42.3446C40.5735 19.1678 38.9426 18.5817 37.6302 17.5879C38.7706 19.0914 40.4397 20.1617 42.3573 20.5312Z" fill="#08FFF9"/>
<path d="M26.1121 38.8718C26.7173 38.9037 27.297 38.8208 27.8322 38.6488C29.6797 38.0436 31.0111 36.3235 31.0111 34.2976L31.0175 26.7165V12.8666H34.6616C34.566 12.3888 34.515 11.9046 34.5087 11.4013H29.4885V25.2449L29.4822 32.826C29.4822 34.8519 28.1507 36.572 26.3032 37.1772C25.768 37.3556 25.1883 37.4384 24.5831 37.4002C23.8122 37.3556 23.0923 37.1262 22.468 36.7567C23.2516 37.9672 24.5895 38.789 26.1121 38.8718Z" fill="#08FFF9"/>
<path d="M26.3032 42.3122C28.3418 42.0128 30.2212 41.0763 31.7056 39.6111C33.5276 37.8082 34.5342 35.4191 34.5469 32.8709L34.5214 21.5374C35.3878 22.2063 36.3371 22.7669 37.3627 23.1937C38.9491 23.8627 40.6309 24.2067 42.3574 24.2067V20.5308C40.4398 20.1613 38.7707 19.091 37.6303 17.5875C36.1268 16.4535 35.0438 14.7844 34.6679 12.8668H31.0175V26.7104L31.0111 34.2915C31.0111 36.3174 29.6797 38.0375 27.8322 38.6427C27.297 38.8211 26.7173 38.9039 26.1121 38.8657C24.5831 38.7829 23.2516 37.9611 22.468 36.757C21.1366 35.967 20.2319 34.5336 20.2064 32.89C20.1682 30.3289 22.2578 28.2393 24.8443 28.2393C25.354 28.2393 25.8445 28.3222 26.3032 28.4687V24.6972C23.7294 24.7163 21.3149 25.7165 19.4993 27.5195C17.6964 29.3096 16.6643 31.756 16.6707 34.2915C16.6707 36.5468 17.4543 38.6873 18.9004 40.401C20.595 41.707 22.6655 42.4142 24.8443 42.4142C25.3348 42.4205 25.8254 42.3823 26.3032 42.3122Z" fill="white"/>
</g>
</g>
<defs>
<filter id="filter0_d_13219_1161" x="-0.122449" y="1.5" width="56.2449" height="56.2449" filterUnits="userSpaceOnUse" color-interpolation-filters="sRGB">
<feFlood flood-opacity="0" result="BackgroundImageFix"/>
<feColorMatrix in="SourceAlpha" type="matrix" values="0 0 0 0 0 0 0 0 0 0 0 0 0 0 0 0 0 0 127 0" result="hardAlpha"/>
<feOffset dy="2.12245"/>
<feGaussianBlur stdDeviation="1.06122"/>
<feComposite in2="hardAlpha" operator="out"/>
<feColorMatrix type="matrix" values="0 0 0 0 0 0 0 0 0 0 0 0 0 0 0 0 0 0 0.25 0"/>
<feBlend mode="normal" in2="BackgroundImageFix" result="effect1_dropShadow_13219_1161"/>
<feBlend mode="normal" in="SourceGraphic" in2="effect1_dropShadow_13219_1161" result="shape"/>
</filter>
<clipPath id="clip0_13219_1161">
<rect width="56" height="56" fill="white"/>
</clipPath>
<clipPath id="clip1_13219_1161">
<rect width="32.618" height="32.618" fill="white" transform="translate(13.2432 11.3378)"/>
</clipPath>
</defs>
</svg>
