<svg width="114" height="56" viewBox="0 0 114 56" fill="none" xmlns="http://www.w3.org/2000/svg">
<g clip-path="url(#clip0_13219_1146)">
<path d="M27.004 33.1865L26.9894 33.1404L36.1766 24.7297V20.6772H21.4373V24.7297H30.2411L30.2557 24.7685L21.1582 33.1865V37.2389H36.3247V33.1865H27.004Z" fill="#201515"/>
<path d="M45.3733 20.2914C43.6732 20.2914 42.2876 20.5478 41.2166 21.0606C40.219 21.5075 39.3786 22.2439 38.8045 23.1742C38.2554 24.1106 37.9105 25.1526 37.7926 26.2318L42.2649 26.8603C42.4267 25.9074 42.7502 25.232 43.2356 24.834C43.7873 24.4178 44.4671 24.2075 45.1574 24.2395C46.0652 24.2395 46.7236 24.4821 47.1326 24.9675C47.5382 25.4528 47.7443 26.125 47.7443 27.0107V27.4523H43.4443C41.2554 27.4523 39.683 27.9377 38.7269 28.9083C37.7708 29.879 37.2936 31.1603 37.2952 32.7521C37.2952 34.3828 37.7724 35.5961 38.7269 36.3921C39.6814 37.188 40.8818 37.5835 42.328 37.5787C44.1221 37.5787 45.5022 36.9615 46.4678 35.7271C47.0384 34.9686 47.4457 34.1003 47.6642 33.1768H47.8266L48.4431 37.2292H52.4954V26.967C52.4954 24.8461 51.9367 23.2033 50.8188 22.0385C49.701 20.8737 47.8856 20.2914 45.3733 20.2914ZM46.7907 32.9414C46.1475 33.4776 45.3054 33.7446 44.2572 33.7446C43.3933 33.7446 42.7931 33.5933 42.4566 33.2908C42.2927 33.1477 42.1622 32.9702 42.0746 32.771C41.987 32.5718 41.9442 32.3557 41.9495 32.1382C41.9399 31.933 41.9722 31.728 42.0444 31.5357C42.1165 31.3434 42.2271 31.1677 42.3693 31.0195C42.5231 30.8753 42.7045 30.7637 42.9026 30.6916C43.1007 30.6194 43.3114 30.5881 43.5219 30.5997H47.7516V30.8787C47.76 31.2732 47.6777 31.6643 47.5114 32.022C47.3447 32.3796 47.0982 32.6942 46.7907 32.9414Z" fill="#201515"/>
<path d="M76.9997 20.6772H72.2122V37.2414H76.9997V20.6772Z" fill="#201515"/>
<path d="M105.267 20.6772C103.915 20.6772 102.849 21.1544 102.069 22.1089C101.509 22.7948 101.084 23.8083 100.793 25.1495H100.652L100.026 20.6772H95.937V37.2389H100.725V28.7457C100.725 27.6748 100.976 26.8538 101.477 26.2827C101.979 25.7116 102.904 25.4261 104.253 25.4261H106.07V20.6772H105.267Z" fill="#201515"/>
<path d="M91.1854 21.2183C90.068 20.5534 88.6578 20.2218 86.9562 20.2234C84.2771 20.2234 82.1805 20.9862 80.6663 22.5117C79.1518 24.0372 78.3949 26.1403 78.3949 28.821C78.3563 30.4416 78.7102 32.0475 79.4263 33.5019C80.0817 34.7979 81.1025 35.8736 82.3625 36.5959C83.6305 37.3287 85.1391 37.6959 86.8883 37.6976C88.4007 37.6976 89.6641 37.4646 90.6785 36.9987C91.6322 36.5803 92.4624 35.9244 93.0907 35.0938C93.6885 34.2784 94.1326 33.3607 94.4008 32.3857L90.2758 31.2306C90.1019 31.8646 89.7676 32.443 89.3052 32.9098C88.8389 33.3757 88.0583 33.6087 86.9634 33.6087C85.6609 33.6087 84.6903 33.2358 84.0514 32.49C83.5877 31.9513 83.2966 31.182 83.1681 30.1847H94.464C94.5102 29.7188 94.5344 29.3281 94.5344 29.0126V27.9813C94.5615 26.5959 94.2756 25.2221 93.6974 23.9628C93.156 22.8157 92.2804 21.859 91.1854 21.2183ZM86.8178 24.1715C88.7592 24.1715 89.8597 25.1268 90.1202 27.0374H83.2529C83.362 26.3999 83.6263 25.799 84.0221 25.2878C84.6517 24.542 85.5833 24.1699 86.8178 24.1715Z" fill="#201515"/>
<path d="M74.6579 14.0016C74.2977 13.9893 73.9388 14.0496 73.6024 14.1788C73.266 14.308 72.9592 14.5036 72.6996 14.7538C72.4442 15.0064 72.2435 15.3095 72.1112 15.6436C71.9788 15.9778 71.9173 16.3359 71.9305 16.6951C71.9177 17.0567 71.9792 17.417 72.112 17.7536C72.2444 18.0902 72.4451 18.396 72.7009 18.6516C72.9567 18.9073 73.2626 19.1075 73.5994 19.2398C73.9363 19.372 74.2965 19.4334 74.6579 19.4202C75.0172 19.4338 75.3753 19.3724 75.7096 19.24C76.0439 19.1075 76.3468 18.907 76.5992 18.651C76.85 18.3924 77.0451 18.0858 77.1741 17.7497C77.3031 17.4135 77.3624 17.0548 77.3493 16.6951C77.3658 16.3375 77.3077 15.9804 77.1783 15.6465C77.0489 15.3127 76.8517 15.0095 76.5988 14.7562C76.3455 14.503 76.0426 14.3053 75.7088 14.1758C75.3753 14.0462 75.0181 13.9877 74.6604 14.004L74.6579 14.0016Z" fill="#201515"/>
<path d="M64.7671 20.2234C63.1363 20.2234 61.8258 20.7355 60.8361 21.7595C60.103 22.5182 59.565 23.6506 59.2222 25.1568H59.0695L58.4433 20.6845H54.3545V42H59.1421V33.2205H59.3169C59.4628 33.8059 59.6677 34.375 59.9282 34.9191C60.3333 35.8055 60.9977 36.5483 61.8335 37.0497C62.6998 37.5226 63.6759 37.7578 64.6627 37.7316C66.6673 37.7316 68.1933 36.951 69.2416 35.3899C70.2899 33.8288 70.8143 31.6505 70.8143 28.855C70.8143 26.155 70.3069 24.0414 69.2929 22.5142C68.2786 20.987 66.77 20.2234 64.7671 20.2234ZM65.2524 32.2256C64.6941 33.0344 63.8206 33.4389 62.6315 33.4389C62.1415 33.4615 61.6527 33.367 61.2064 33.1632C60.7597 32.9593 60.3681 32.6521 60.0644 32.2668C59.4446 31.4887 59.1357 30.4234 59.1374 29.0709V28.7555C59.1374 27.382 59.4462 26.3305 60.0644 25.6009C60.6821 24.8712 61.5382 24.5105 62.6315 24.5186C63.8418 24.5186 64.7209 24.9028 65.2694 25.6712C65.8179 26.4397 66.092 27.5114 66.092 28.8865C66.0954 30.3085 65.8171 31.4215 65.2571 32.2256H65.2524Z" fill="#201515"/>
<path d="M19.3066 33.1865H2.74243V37.2438H19.3066V33.1865Z" fill="#FF4F00"/>
</g>
<defs>
<clipPath id="clip0_13219_1146">
<rect width="105" height="28" fill="white" transform="translate(2 14)"/>
</clipPath>
</defs>
</svg>
