<svg xmlns="http://www.w3.org/2000/svg" width="11" height="12" viewBox="0 0 11 12" fill="none">
    <path d="M7.02539 2.22266L8.25 1.75L8.70117 0.546875C8.72266 0.439453 8.83008 0.375 8.9375 0.375C9.02344 0.375 9.13086 0.439453 9.15234 0.546875L9.625 1.75L10.8281 2.22266C10.9355 2.24414 11 2.35156 11 2.4375C11 2.54492 10.9355 2.65234 10.8281 2.67383L9.625 3.125L9.15234 4.34961C9.13086 4.43555 9.02344 4.5 8.9375 4.5C8.83008 4.5 8.72266 4.43555 8.70117 4.34961L8.25 3.125L7.02539 2.67383C6.91797 2.65234 6.875 2.54492 6.875 2.4375C6.875 2.35156 6.91797 2.24414 7.02539 2.22266ZM5.52148 4.41406L7.9707 5.53125C8.09961 5.5957 8.18555 5.72461 8.18555 5.85352C8.18555 5.98242 8.09961 6.11133 7.9707 6.17578L5.52148 7.29297L4.4043 9.74219C4.33984 9.87109 4.21094 9.95703 4.08203 9.95703C3.95312 9.95703 3.82422 9.87109 3.78125 9.74219L2.64258 7.29297L0.193359 6.17578C0.0644531 6.11133 0 5.98242 0 5.85352C0 5.72461 0.0644531 5.5957 0.193359 5.53125L2.64258 4.41406L3.78125 1.96484C3.82422 1.83594 3.95312 1.75 4.08203 1.75C4.21094 1.75 4.33984 1.83594 4.4043 1.96484L5.52148 4.41406ZM8.70117 7.42188C8.72266 7.31445 8.83008 7.25 8.9375 7.25C9.02344 7.25 9.13086 7.31445 9.15234 7.42188L9.625 8.625L10.8281 9.09766C10.9355 9.11914 11 9.22656 11 9.3125C11 9.41992 10.9355 9.52734 10.8281 9.54883L9.625 10L9.15234 11.2246C9.13086 11.3105 9.02344 11.375 8.9375 11.375C8.83008 11.375 8.72266 11.3105 8.70117 11.2246L8.25 10L7.02539 9.54883C6.91797 9.52734 6.875 9.41992 6.875 9.3125C6.875 9.22656 6.91797 9.11914 7.02539 9.09766L8.25 8.625L8.70117 7.42188Z" fill="#4E69ED" />
</svg>