<svg width="364" height="75" viewBox="0 0 364 75" fill="none" xmlns="http://www.w3.org/2000/svg">
<rect x="130.266" width="9.11314" height="9.11314" transform="rotate(25.9223 130.266 0)" fill="#974AF5"/>
<rect x="19.8906" y="56.9496" width="6.83416" height="6.83416" transform="rotate(40.3693 19.8906 56.9496)" fill="#FF5731"/>
<rect x="45.5664" y="37.7545" width="3.90563" height="3.90563" fill="#0ED4FE"/>
<rect x="92.4336" y="53.377" width="3.90563" height="3.90563" fill="#0040FF"/>
<rect x="239.766" y="7.21069" width="7.50876" height="7.50876" transform="rotate(25.9223 239.766 7.21069)" fill="#35B861"/>
<rect x="296.746" y="11.7169" width="6.88591" height="6.88591" transform="rotate(33.7408 296.746 11.7169)" fill="#D581FF"/>
<rect x="359.238" y="55.9807" width="5.72757" height="5.72757" transform="rotate(33.7408 359.238 55.9807)" fill="#D9D9D9"/>
<rect x="348.902" y="7.81128" width="3.90563" height="3.90563" fill="#CD00FF"/>
<path d="M76.1603 46.8678C76.5943 41.6603 75.7698 30.4641 69 27.3396" stroke="#FF4B4B" stroke-width="1.30188"/>
<path d="M0 30.5942H6.50939C8.4622 30.5942 12.7584 29.6829 14.3207 26.0376" stroke="#7C00FF" stroke-width="1.30188"/>
<path d="M269.49 74.207C267.537 67.2636 259.856 53.1166 244.754 52.0751" stroke="#FF57BC" stroke-width="1.30188"/>
<path d="M331.979 46.8676C333.497 43.8299 339.269 38.0149 350.205 39.0564" stroke="#D6CE1E" stroke-width="1.30188"/>
</svg>
