<svg xmlns="http://www.w3.org/2000/svg" width="110.029" height="20.93" viewBox="0 0 110.029 20.93">
  <g id="Group_11680" data-name="Group 11680" transform="translate(-1529.63 -615)">
    <path id="Path_14613" data-name="Path 14613" d="M.186.75H.97L1.309-.966h.636c1.165,0,2.076-.5,2.076-1.716,0-.855-.636-1.187-1.518-1.187H1.111ZM1.443-1.587l.318-1.66h.593c.579,0,.9.2.9.671,0,.65-.438.989-1.243.989ZM5.427.835A2.092,2.092,0,0,0,7.341-1.39a1.277,1.277,0,0,0-1.3-1.42A2.1,2.1,0,0,0,4.127-.578,1.275,1.275,0,0,0,5.427.835ZM5.511.206c-.4,0-.6-.3-.6-.812,0-.883.5-1.568,1.045-1.568.388,0,.6.3.6.805C6.557-.486,6.055.206,5.511.206Zm2.7.544H9.17L9.848-.888c.141-.353.24-.678.374-1.13h.028c-.021.452-.035.777-.035,1.13L10.243.75H11.2l1.526-3.468h-.727L11.246-.86c-.12.3-.254.664-.381,1h-.028v-1l-.085-1.857H9.975L9.2-.86c-.127.3-.254.664-.367,1H8.8c0-.339.014-.706.007-1L8.76-2.718H8Zm6.074.085a1.812,1.812,0,0,0,1.13-.381l-.268-.466a1.214,1.214,0,0,1-.706.24.8.8,0,0,1-.848-.989h2.1a2.11,2.11,0,0,0,.148-.763c0-.72-.3-1.285-1.109-1.285A2.075,2.075,0,0,0,12.835-.634,1.352,1.352,0,0,0,14.283.835Zm-.622-2.161a1.088,1.088,0,0,1,.975-.876c.417,0,.558.3.558.629a.908.908,0,0,1-.035.247ZM16.2.75h.777l.4-2.091c.29-.523.614-.777.939-.777a.768.768,0,0,1,.325.049l.261-.671a.778.778,0,0,0-.353-.071,1.39,1.39,0,0,0-1.059.756h-.028l.064-.671H16.9Zm4.033.085a1.812,1.812,0,0,0,1.13-.381L21.1-.012a1.214,1.214,0,0,1-.706.24.8.8,0,0,1-.848-.989h2.1a2.11,2.11,0,0,0,.148-.763c0-.72-.3-1.285-1.109-1.285A2.075,2.075,0,0,0,18.789-.634,1.352,1.352,0,0,0,20.237.835Zm-.622-2.161A1.088,1.088,0,0,1,20.59-2.2c.417,0,.558.3.558.629a.908.908,0,0,1-.035.247ZM23.239.835A1.677,1.677,0,0,0,24.376.27H24.4l-.035.48H25l1.01-4.986H25.23l-.247,1.222-.092.664H24.87a.842.842,0,0,0-.756-.459A2.212,2.212,0,0,0,22.25-.429C22.25.383,22.624.835,23.239.835Zm.318-.643c-.311,0-.5-.226-.5-.727,0-.89.53-1.631,1.1-1.631a.665.665,0,0,1,.579.41l-.283,1.37A1.1,1.1,0,0,1,23.557.192Zm3.9.558h1.589c1.088,0,1.963-.438,1.963-1.5a.912.912,0,0,0-.819-.9l.007-.028a1.257,1.257,0,0,0,1.017-1.158c0-.7-.593-1.038-1.5-1.038H28.38Zm1.321-2.684.268-1.328h.509c.593,0,.855.2.855.558,0,.459-.332.77-1.081.77ZM28.352.143,28.67-1.39h.7c.579,0,.883.261.883.678,0,.579-.452.855-1.2.855ZM31.41,2.17c.664,0,1.116-.417,1.589-1.314l1.879-3.581h-.791l-.84,1.73c-.148.3-.311.685-.459.989h-.028c-.021-.3-.042-.685-.085-.989l-.219-1.73h-.8L32.272.757,32.18.934a.939.939,0,0,1-.777.593.628.628,0,0,1-.268-.049l-.233.565A.936.936,0,0,0,31.41,2.17Z" transform="translate(1536.241 627.293)" fill="currentColor" opacity="0.5" />
    <g id="Group_7370" data-name="Group 7370" transform="translate(1576.871 619.474)">
      <path id="Path_14614" data-name="Path 14614" d="M-15944.045,14865.954l-1.4-3.492a1.576,1.576,0,0,0,.406.066,1.361,1.361,0,0,0,1.205-.711l.014-.029h.029a1.417,1.417,0,0,0,.24.029,1.414,1.414,0,0,0,.592-.137l1.316,3.316a.128.128,0,0,1-.16.174l-1.234-.387a.093.093,0,0,0-.109.039l-.658,1.154a.138.138,0,0,1-.111.055A.134.134,0,0,1-15944.045,14865.954Zm-3.869-.029-.656-1.154a.09.09,0,0,0-.107-.043l-1.234.391a.122.122,0,0,1-.16-.158l1.314-3.289a1.382,1.382,0,0,0,.574.131,1.507,1.507,0,0,0,.246-.027h.023l.014.027a1.359,1.359,0,0,0,1.211.7,1.312,1.312,0,0,0,.4-.064l-1.385,3.477a.129.129,0,0,1-.123.088A.13.13,0,0,1-15947.914,14865.925Zm24.2-3.256a2.181,2.181,0,0,1-.7-1.734h.857a1.839,1.839,0,0,0,.273.934,1.8,1.8,0,0,0,1.607.674,2.937,2.937,0,0,0,.936-.146,1.04,1.04,0,0,0,.816-1.021.879.879,0,0,0-.344-.787,3.546,3.546,0,0,0-1.094-.4l-.914-.209a4.155,4.155,0,0,1-1.271-.441,1.416,1.416,0,0,1-.641-1.268,1.951,1.951,0,0,1,.627-1.494,2.549,2.549,0,0,1,1.785-.584,3.114,3.114,0,0,1,1.8.514,1.86,1.86,0,0,1,.744,1.641h-.861a1.737,1.737,0,0,0-.293-.836,1.722,1.722,0,0,0-1.424-.527,1.646,1.646,0,0,0-1.162.34,1.069,1.069,0,0,0-.354.791.77.77,0,0,0,.414.727,5.983,5.983,0,0,0,1.23.367l.947.217a3.021,3.021,0,0,1,1.055.43,1.6,1.6,0,0,1,.645,1.375,1.706,1.706,0,0,1-.818,1.6,3.6,3.6,0,0,1-1.895.484A2.845,2.845,0,0,1-15923.719,14862.669Zm16.793.137a1.864,1.864,0,0,1-.49-1.234h.793a1.238,1.238,0,0,0,.207.637,1.313,1.313,0,0,0,1.088.4,1.583,1.583,0,0,0,.8-.2.661.661,0,0,0,.355-.617.542.542,0,0,0-.283-.486,3.352,3.352,0,0,0-.707-.23l-.66-.164a3.193,3.193,0,0,1-.928-.354,1.044,1.044,0,0,1-.533-.928,1.421,1.421,0,0,1,.5-1.131,2,2,0,0,1,1.354-.434,1.884,1.884,0,0,1,1.605.654,1.438,1.438,0,0,1,.3.891h-.781a.932.932,0,0,0-.2-.508,1.258,1.258,0,0,0-.99-.326,1.149,1.149,0,0,0-.707.18.562.562,0,0,0-.244.471.592.592,0,0,0,.32.52,2.015,2.015,0,0,0,.541.2l.547.133a4.167,4.167,0,0,1,1.2.418,1.108,1.108,0,0,1,.48.994,1.516,1.516,0,0,1-.5,1.137,2.109,2.109,0,0,1-1.518.48A2.016,2.016,0,0,1-15906.926,14862.806Zm5.014-.184a2.614,2.614,0,0,1-.635-1.875,2.846,2.846,0,0,1,.639-1.928,2.138,2.138,0,0,1,1.688-.74,2.246,2.246,0,0,1,1.014.25,1.8,1.8,0,0,1,.75.637,2.217,2.217,0,0,1,.334.867,5.945,5.945,0,0,1,.07,1.084h-3.609a2.085,2.085,0,0,0,.354,1.205,1.19,1.19,0,0,0,1.027.453,1.3,1.3,0,0,0,1.031-.43,1.418,1.418,0,0,0,.316-.574h.814a1.719,1.719,0,0,1-.217.6,2.21,2.21,0,0,1-.4.547,1.957,1.957,0,0,1-.934.494,2.8,2.8,0,0,1-.678.076A2.079,2.079,0,0,1-15901.912,14862.622Zm.684-3.406a1.531,1.531,0,0,0-.41,1.045h2.738a2.217,2.217,0,0,0-.236-.861,1.2,1.2,0,0,0-1.135-.594A1.265,1.265,0,0,0-15901.229,14859.216Zm-16.26,3.406a2.607,2.607,0,0,1-.639-1.875,2.838,2.838,0,0,1,.643-1.928,2.131,2.131,0,0,1,1.682-.74,2.25,2.25,0,0,1,1.018.25,1.8,1.8,0,0,1,.75.637,2.125,2.125,0,0,1,.328.867,5.348,5.348,0,0,1,.076,1.084h-3.609a2.1,2.1,0,0,0,.354,1.205,1.185,1.185,0,0,0,1.027.453,1.312,1.312,0,0,0,1.033-.43,1.392,1.392,0,0,0,.314-.574h.811a1.658,1.658,0,0,1-.211.6,2.371,2.371,0,0,1-.406.547,1.948,1.948,0,0,1-.934.494,2.777,2.777,0,0,1-.678.076A2.072,2.072,0,0,1-15917.488,14862.622Zm.682-3.406a1.549,1.549,0,0,0-.41,1.045h2.738a2.217,2.217,0,0,0-.236-.861,1.208,1.208,0,0,0-1.135-.594A1.253,1.253,0,0,0-15916.807,14859.216Zm-12.639,3.33a2.076,2.076,0,0,1-.205-1.008v-3.346h.844v3.271a1.356,1.356,0,0,0,.121.611.828.828,0,0,0,.82.443,1.162,1.162,0,0,0,1.178-.773,3.05,3.05,0,0,0,.17-1.135v-2.418h.828v4.924h-.781l.01-.725a1.648,1.648,0,0,1-.4.471,1.747,1.747,0,0,1-1.15.387A1.487,1.487,0,0,1-15929.445,14862.546Zm20.137.57v-3.1a1.677,1.677,0,0,0-.133-.727.813.813,0,0,0-.8-.461,1.761,1.761,0,0,0-.486.061,1.283,1.283,0,0,0-.6.4,1.208,1.208,0,0,0-.268.5,3.538,3.538,0,0,0-.062.74v2.582h-.824v-4.924h.781v.7a2.3,2.3,0,0,1,.74-.621,2.033,2.033,0,0,1,.871-.189,1.423,1.423,0,0,1,1.414.736,2.548,2.548,0,0,1,.2,1.145v3.156Zm-23.57,0v-4.924h.787v.85a1.884,1.884,0,0,1,.477-.6,1.222,1.222,0,0,1,.865-.359c.016,0,.043.006.082.006l.188.018v.877a1.313,1.313,0,0,0-.137-.018,1.037,1.037,0,0,0-.137-.006,1.174,1.174,0,0,0-.961.4,1.4,1.4,0,0,0-.334.93v2.83Zm-3.74,0v-5.951h-2.277v-.8h5.48v.8h-2.275v5.951Zm-8.756-1.531-.174-.131a.574.574,0,0,0-.646,0l-.174.123a.554.554,0,0,1-.8-.189l-.109-.189a.526.526,0,0,0-.576-.281l-.215.041a.559.559,0,0,1-.646-.521l-.014-.219a.556.556,0,0,0-.4-.508l-.217-.057a.556.556,0,0,1-.363-.748l.08-.2a.563.563,0,0,0-.146-.633l-.16-.145a.552.552,0,0,1,0-.834l.16-.146a.564.564,0,0,0,.146-.631l-.08-.2a.56.56,0,0,1,.363-.754l.217-.066a.556.556,0,0,0,.4-.508l.014-.217a.573.573,0,0,1,.66-.523l.213.041a.566.566,0,0,0,.592-.281l.109-.187a.553.553,0,0,1,.816-.189l.172.137a.581.581,0,0,0,.646,0l.174-.123a.554.554,0,0,1,.807.189l.109.188a.541.541,0,0,0,.578.283l.211-.043a.56.56,0,0,1,.646.523v.23a.557.557,0,0,0,.4.508l.217.053a.559.559,0,0,1,.363.754l-.08.2a.563.563,0,0,0,.146.631l.174.146a.545.545,0,0,1,0,.828l-.16.152a.559.559,0,0,0-.146.631l.08.2a.562.562,0,0,1-.363.756l-.215.055a.559.559,0,0,0-.4.51l-.014.211a.567.567,0,0,1-.66.523l-.211-.037a.556.556,0,0,0-.594.283l-.1.188a.577.577,0,0,1-.5.293A.532.532,0,0,1-15945.375,14861.585Zm-3.02-4.08a2.537,2.537,0,0,0,2.533,2.541,2.545,2.545,0,0,0,2.541-2.541,2.535,2.535,0,0,0-2.541-2.535A2.532,2.532,0,0,0-15948.395,14857.5Z" transform="translate(15950.132 -14853.316)" fill="currentColor"/>
      <g id="Group_7368" data-name="Group 7368" transform="translate(2.81 3.132)">
        <path id="Path_5034" data-name="Path 5034" d="M250.14,185.513l-1.6,1.6a.265.265,0,0,1-.186.077v.108l0-.108a.264.264,0,0,1-.187-.08l-.81-.838a.262.262,0,0,1,.378-.364l.624.646,1.416-1.413a.262.262,0,1,1,.371.37Z" transform="translate(-247.278 -185.066)" fill="currentColor"/>
      </g>
    </g>
  </g>
</svg>
