<svg width="36" height="36" viewBox="0 0 36 36" fill="none" xmlns="http://www.w3.org/2000/svg">
<path d="M17.9995 1.48012e-08C14.4395 9.58768e-05 10.9594 1.05582 7.99939 3.03374C5.03937 5.01167 2.73234 7.82296 1.37004 11.112C0.00773517 14.4011 -0.348657 18.0203 0.345931 21.5119C1.04052 25.0035 2.75489 28.2108 5.27226 30.7281C7.7896 33.2454 10.9969 34.9597 14.4886 35.6541C17.9802 36.3487 21.5994 35.9922 24.8884 34.6298C28.1775 33.2674 30.9887 30.9603 32.9665 28.0002C34.9443 25.0401 36 21.56 36 18C36 15.6361 35.5344 13.2955 34.6298 11.1116C33.7252 8.92768 32.3993 6.94338 30.7278 5.27188C29.0562 3.60043 27.0719 2.27457 24.888 1.37001C22.704 0.465458 20.3634 -9.58472e-05 17.9995 1.48012e-08ZM17.9995 34.5491C14.7264 34.5491 11.5268 33.5785 8.8053 31.7601C6.08383 29.9416 3.96269 27.3571 2.71013 24.3331C1.45756 21.3091 1.12983 17.9817 1.76838 14.7714C2.40694 11.5612 3.98309 8.61244 6.29751 6.29799C8.61195 3.98355 11.5608 2.40738 14.7709 1.76885C17.9812 1.13031 21.3086 1.45801 24.3326 2.71059C27.3566 3.96313 29.9412 6.08431 31.7596 8.80579C33.578 11.5273 34.5486 14.7269 34.5486 18C34.5486 22.3891 32.8051 26.5984 29.7015 29.702C26.598 32.8056 22.3886 34.5491 17.9995 34.5491Z" fill="#2B2B2B"/>
<path fill-rule="evenodd" clip-rule="evenodd" d="M4.76486 9.17385C3.01921 11.7866 2.08752 14.8582 2.08762 18.0004C2.08774 22.2139 3.76163 26.2548 6.74106 29.2341C9.72045 32.2134 13.7614 33.8872 17.9748 33.8872C21.117 33.8872 24.1887 32.9554 26.8013 31.2097C29.414 29.464 31.4503 26.9827 32.6527 24.0796C33.8552 21.1766 34.1698 17.9822 33.5567 14.9004C32.9437 11.8185 31.4305 8.98769 29.2086 6.76584C26.9867 4.544 24.1558 3.03092 21.074 2.41798C17.9921 1.80503 14.7977 2.1197 11.8947 3.32224C8.99171 4.52478 6.51051 6.56118 4.76486 9.17385ZM6.61908 11.5332H29.3805V18.6365H23.0393L13.2134 27.2929V18.6365H6.61908V11.5332Z" fill="#2B2B2B"/>
</svg>
