<svg width="164" height="50" viewBox="0 0 1758 545" fill="none" xmlns="http://www.w3.org/2000/svg">
<mask id="mask0_1769_276" style="mask-type:luminance" maskUnits="userSpaceOnUse" x="0" y="0" width="1758" height="545">
<path d="M1758 0H0V545H1758V0Z" fill="white"/>
</mask>
<g mask="url(#mask0_1769_276)">
<path d="M0 28.1008C0.0663749 10.246 12.3457 -2.06659 30.3001 -2.00022C68.5653 -1.83428 106.83 -1.46922 145.062 -1.27009C153.857 -1.20372 161.225 1.98228 167.397 8.18833C212.101 52.9251 256.804 97.6286 301.508 142.332C322.084 162.908 342.76 183.451 363.27 204.094C372.728 213.586 373.16 226.297 364.166 235.357C322.018 277.671 279.77 319.852 237.523 362.066C232.843 366.746 227.168 368.969 220.564 368.472C213.76 367.941 208.815 364.091 204.169 359.445C139.62 294.762 75.0368 230.179 10.3877 165.597C3.94931 159.158 0.597374 151.592 0.663749 142.399C0.763311 123.515 0.663749 104.631 0.663749 85.7474M82.4376 60.6577C82.5372 49.7722 73.6761 40.878 62.6579 40.8448C52.237 40.8116 43.6747 49.1417 43.4424 59.5625C43.2101 70.4148 52.1043 79.5746 62.9898 79.6741C73.6098 79.7737 82.3049 71.2777 82.4376 60.6577Z" fill="url(#paint0_linear_1769_276)"/>
<path d="M444.613 86.7098C444.613 105.594 444.546 124.477 444.613 143.361C444.679 152.554 441.327 160.121 434.889 166.559C370.24 231.142 305.657 295.725 241.074 360.374C236.428 365.02 231.483 368.87 224.679 369.401C218.075 369.899 212.4 367.675 207.721 362.996C165.473 320.781 123.225 278.6 81.0774 236.286C72.0504 227.226 72.515 214.515 81.9734 205.023C102.516 184.381 123.159 163.871 143.735 143.261C188.439 98.5577 233.175 53.8542 277.846 9.11753C284.052 2.91148 291.386 -0.274521 300.181 -0.340896C338.446 -0.573208 376.711 -0.905083 414.943 -1.07102C432.898 -1.13739 445.177 11.1752 445.243 29.03M382.22 80.5701C393.106 80.4706 402.033 71.3109 401.768 60.4586C401.535 50.0377 393.006 41.7076 382.552 41.7408C371.501 41.774 362.64 50.6683 362.772 61.5537C362.872 72.1405 371.567 80.6365 382.22 80.5701Z" fill="url(#paint1_linear_1769_276)"/>
<path d="M609.156 77.7811H581.909V38.8522C581.909 35.1684 579.985 33.144 576.533 33.144H554.895C551.311 33.144 549.187 35.268 549.187 38.8522V77.7811H528.444C524.761 77.7811 522.371 80.0379 522.371 83.4894V98.5897C522.371 102.174 524.86 104.663 528.444 104.663H549.187V209.204C549.187 235.853 563.291 249.958 589.941 249.958C595.715 249.958 614.566 249.294 614.566 240.798V226.362C614.566 224.437 614.068 223.01 613.039 222.047C611.811 220.886 609.853 220.421 607.065 220.653C603.78 220.985 599.266 221.35 596.512 221.35C586.456 221.35 581.976 216.339 581.976 205.089V104.663H609.223C612.707 104.663 614.931 102.274 614.931 98.5897V83.4894C614.931 79.9051 612.807 77.7811 609.223 77.7811H609.156Z" fill="#2b2b2b"/>
<path d="M790.858 77.7812H770.946C767.494 77.7812 765.569 79.8056 765.569 83.4894L764.972 106.09C751.962 85.1488 730.291 73.666 703.608 73.666C655.52 73.666 620.606 111.168 620.606 162.841C620.606 214.514 655.52 252.016 703.608 252.016C730.391 252.016 751.531 241.031 764.972 220.156L765.569 242.159C765.569 245.843 767.461 247.867 770.946 247.867H790.858C794.442 247.867 796.566 245.743 796.566 242.159V83.4894C796.566 79.9052 794.442 77.7812 790.858 77.7812ZM709.117 221.715C675.864 221.715 652.666 197.522 652.666 162.841C652.666 128.16 675.897 103.966 709.117 103.966C742.338 103.966 764.209 128.326 764.209 163.173C764.209 198.02 742.073 221.682 709.117 221.682V221.715Z" fill="#2b2b2b"/>
<path d="M982.515 77.7812H962.603C959.019 77.7812 956.895 79.9052 956.895 83.4894L956.596 103.767C943.719 84.0536 922.944 73.666 896.327 73.666C848.073 73.666 814.354 108.911 814.354 159.423C814.354 209.934 848.206 245.511 896.659 245.511C922.678 245.511 943.221 235.356 956.198 216.074V238.741C956.198 285.668 915.51 290.745 898.02 290.745C880.53 290.745 864.733 286.265 851.027 277.802C847.741 276.176 844.489 277.139 842.962 280.258L836.424 292.305C834.765 295.591 835.827 299.142 839.112 301.365C854.179 312.019 876.946 318.357 900.078 318.357C923.209 318.357 945.047 311.952 960.313 300.37C978.367 286.663 987.892 265.722 987.892 239.836V83.4894C987.892 79.8056 986 77.7812 982.515 77.7812ZM901.438 215.509C869.014 215.509 846.347 192.444 846.347 159.389C846.347 126.335 868.981 103.635 901.438 103.635C933.896 103.635 955.501 126.335 955.501 160.086C955.501 193.838 933.763 215.509 901.438 215.509Z" fill="#2b2b2b"/>
<path d="M1080.58 152.719L1062.03 145.152C1047.96 139.709 1037.2 134.466 1037.2 120.593C1037.2 108.613 1046.83 100.88 1061.7 100.88C1073.38 100.88 1083.67 105.692 1094.02 116.08C1095.95 118.005 1097.64 118.834 1099.23 118.801C1100.72 118.702 1102.18 117.806 1103.58 116.047L1111.84 106.422C1114.17 103.635 1114.3 100.515 1112.21 98.0587C1099.56 82.3279 1081.14 73.666 1060.34 73.666C1033.25 73.666 1005.84 90.0274 1005.84 121.29C1005.84 141.999 1017.92 156.668 1043.84 167.454L1064.12 176.05C1079.35 182.289 1087.62 188.163 1087.62 201.305C1087.62 215.343 1077.19 223.408 1058.97 223.408C1044.17 223.408 1031.86 217.866 1019.08 205.454C1017.49 203.861 1015.73 203.064 1014.01 203.164C1012.35 203.263 1010.79 204.192 1009.46 205.885L1002.56 215.576C1000.93 218.297 999.44 221.915 1002.66 225.565C1010.72 235.455 1028.94 251.982 1060.37 251.982C1089.11 251.982 1120.01 236.318 1120.01 201.969C1120.4 172.532 1097.7 159.755 1080.61 152.686L1080.58 152.719Z" fill="#2b2b2b"/>
<path d="M1226.24 73.6662C1202.91 73.6662 1183.96 83.6556 1172.54 101.842V6.22924C1172.54 2.54543 1170.65 0.520996 1167.17 0.520996H1145.53C1141.94 0.520996 1139.82 2.64499 1139.82 6.22924V242.192C1139.82 245.776 1141.94 247.9 1145.53 247.9H1167.17C1170.62 247.9 1172.54 245.876 1172.54 242.192V148.073C1172.54 121.689 1190.13 103.966 1216.28 103.966C1242.44 103.966 1255.58 120.029 1255.58 148.073V242.192C1255.58 245.876 1257.47 247.9 1260.95 247.9H1282.59C1286.18 247.9 1288.3 245.776 1288.3 242.192V143.26C1288.3 100.316 1264.54 73.6662 1226.24 73.6662Z" fill="#2b2b2b"/>
<path d="M1393.84 73.666C1343.79 73.666 1306.02 111.998 1306.02 162.841C1306.02 213.684 1343.79 252.016 1393.84 252.016C1443.88 252.016 1481.32 213.684 1481.32 162.841C1481.32 111.998 1443.72 73.666 1393.84 73.666ZM1393.84 221.35C1361.01 221.35 1338.08 197.29 1338.08 162.841C1338.08 128.392 1361.01 103.966 1393.84 103.966C1426.66 103.966 1449.59 128.724 1449.59 162.841C1449.59 196.958 1426.13 221.35 1393.84 221.35Z" fill="#2b2b2b"/>
<path d="M1592 73.666C1565.32 73.666 1543.68 85.1488 1530.64 106.09L1530.04 83.4894C1530.04 79.8056 1528.11 77.7812 1524.66 77.7812H1504.75C1501.17 77.7812 1499.04 79.9052 1499.04 83.4894V307.472C1499.04 311.056 1501.17 313.18 1504.75 313.18H1526.39C1529.97 313.18 1532.1 311.056 1532.1 307.472V221.981C1545.04 241.396 1566.18 252.049 1592 252.049C1640.09 252.049 1675 214.547 1675 162.874C1675 111.201 1640.09 73.6991 1592 73.6991V73.666ZM1586.49 104C1619.74 104 1642.94 128.193 1642.94 162.874C1642.94 197.555 1619.71 221.749 1586.49 221.749C1553.27 221.749 1531.4 198.219 1531.4 163.239C1531.4 128.26 1554.07 104.033 1586.49 104.033V104Z" fill="#2b2b2b"/>
<path d="M1135.06 509.998C1121.42 509.998 1108.09 505.954 1096.75 498.378C1085.41 490.801 1076.58 480.033 1071.36 467.433C1066.14 454.834 1064.77 440.97 1067.43 427.594C1070.09 414.22 1076.66 401.933 1086.3 392.29C1095.95 382.646 1108.23 376.08 1121.61 373.42C1134.98 370.759 1148.85 372.124 1161.45 377.343C1174.05 382.562 1184.82 391.4 1192.39 402.739C1199.97 414.078 1204.01 427.408 1204.01 441.047C1204.01 459.334 1196.75 476.872 1183.82 489.803C1170.89 502.734 1153.35 509.998 1135.06 509.998ZM1135.06 377.653C1122.52 377.653 1110.27 381.371 1099.84 388.336C1089.42 395.301 1081.3 405.2 1076.5 416.784C1071.7 428.366 1070.45 441.11 1072.89 453.407C1075.34 465.702 1081.37 476.997 1090.24 485.862C1099.1 494.727 1110.4 500.764 1122.69 503.209C1134.99 505.655 1147.73 504.4 1159.32 499.603C1170.9 494.805 1180.8 486.68 1187.76 476.256C1194.73 465.832 1198.45 453.577 1198.45 441.041C1198.45 424.229 1191.77 408.106 1179.88 396.218C1168 384.331 1151.87 377.653 1135.06 377.653Z" fill="#2b2b2b"/>
<path d="M1134.97 501.904C1130.85 501.912 1126.74 501.503 1122.71 500.686C1111.06 498.267 1100.36 492.496 1091.95 484.083C1083.53 475.67 1077.76 464.98 1075.33 453.328C1073.68 445.234 1073.68 436.89 1075.33 428.796C1077.75 417.138 1083.52 406.441 1091.94 398.022C1100.36 389.602 1111.05 383.827 1122.71 381.408C1130.81 379.755 1139.15 379.755 1147.25 381.408C1158.91 383.818 1169.6 389.589 1178.02 398.01C1186.43 406.431 1192.19 417.131 1194.59 428.79C1196.24 436.882 1196.24 445.224 1194.59 453.316C1192.2 464.976 1186.44 475.679 1178.03 484.097C1169.61 492.515 1158.91 498.277 1147.25 500.668C1143.21 501.486 1139.1 501.894 1134.97 501.887V501.904ZM1116.74 443.485V476.647L1154.38 443.485H1178.67V416.277H1091.47V443.485H1116.74Z" fill="#2b2b2b"/>
<path d="M1278.91 471.375C1279.71 472.145 1280.33 473.071 1280.75 474.096C1281.17 475.119 1281.38 476.219 1281.35 477.325V477.519C1281.34 479.714 1280.46 481.816 1278.91 483.37C1278.17 484.175 1277.26 484.816 1276.25 485.254C1275.25 485.69 1274.16 485.912 1273.06 485.906H1265.75C1262.32 485.946 1258.92 485.293 1255.75 483.986C1252.59 482.679 1249.72 480.745 1247.32 478.299C1244.87 475.923 1242.93 473.072 1241.62 469.919C1240.31 466.766 1239.66 463.38 1239.71 459.966V403.113H1230.35C1228.15 403.1 1226.05 402.224 1224.5 400.674C1223.7 399.925 1223.08 399.016 1222.66 398.007C1222.24 397 1222.03 395.915 1222.06 394.824V394.623C1222.07 392.398 1222.95 390.266 1224.5 388.673C1225.24 387.869 1226.15 387.227 1227.16 386.791C1228.16 386.355 1229.25 386.133 1230.35 386.139H1239.71V356.981C1239.72 354.756 1240.6 352.623 1242.15 351.031C1242.9 350.252 1243.82 349.641 1244.82 349.237C1245.83 348.833 1246.91 348.648 1248 348.69H1248.29C1250.48 348.667 1252.58 349.508 1254.14 351.031C1254.93 351.806 1255.55 352.733 1255.97 353.756C1256.39 354.778 1256.6 355.875 1256.58 356.981V385.749H1257.26V386.041H1273.06C1274.16 386.043 1275.24 386.269 1276.25 386.705C1277.26 387.141 1278.16 387.777 1278.91 388.576C1279.7 389.352 1280.32 390.279 1280.74 391.301C1281.16 392.324 1281.37 393.419 1281.35 394.525V394.72C1281.34 396.915 1280.46 399.017 1278.91 400.571C1278.16 401.364 1277.25 401.991 1276.25 402.411C1275.24 402.831 1274.15 403.035 1273.06 403.009H1257.26V403.399H1256.58V459.771C1256.56 460.955 1256.79 462.129 1257.25 463.22C1257.7 464.312 1258.39 465.296 1259.24 466.11C1260.08 466.978 1261.07 467.668 1262.18 468.138C1263.29 468.608 1264.48 468.847 1265.68 468.84H1272.99C1275.22 468.952 1277.33 469.851 1278.94 471.375H1278.91Z" fill="#2b2b2b"/>
<path d="M1323.56 395.023C1317.55 394.995 1311.6 396.158 1306.03 398.445C1300.48 400.733 1295.43 404.098 1291.18 408.349C1286.93 412.599 1283.56 417.65 1281.27 423.208C1278.99 428.767 1277.82 434.725 1277.85 440.734C1277.84 446.684 1279.03 452.575 1281.34 458.057C1283.64 463.54 1287.03 468.502 1291.29 472.653C1295.56 476.802 1300.61 480.053 1306.15 482.213C1311.7 484.374 1317.62 485.398 1323.56 485.228C1333.33 485.67 1342.89 482.434 1350.39 476.159C1350.5 478.459 1351.45 480.639 1353.03 482.304C1354.63 483.967 1356.77 485.005 1359.06 485.228C1360.26 485.268 1361.46 485.062 1362.57 484.621C1363.7 484.18 1364.71 483.513 1365.56 482.662C1366.42 481.812 1367.08 480.795 1367.53 479.677C1367.96 478.559 1368.17 477.361 1368.13 476.159V440.662C1368.27 434.719 1367.23 428.808 1365.06 423.276C1362.88 417.743 1359.62 412.703 1355.47 408.45C1351.31 404.196 1346.35 400.818 1340.87 398.511C1335.4 396.205 1329.51 395.02 1323.56 395.023ZM1323.56 467.486C1319.96 467.584 1316.36 466.968 1313 465.67C1309.63 464.373 1306.54 462.422 1303.93 459.928C1301.32 457.435 1299.24 454.449 1297.78 451.144C1296.33 447.838 1295.55 444.277 1295.48 440.668C1295.58 433.249 1298.57 426.162 1303.81 420.916C1309.06 415.67 1316.14 412.677 1323.56 412.576C1327.17 412.664 1330.73 413.461 1334.04 414.923C1337.34 416.385 1340.31 418.485 1342.81 421.099C1345.29 423.714 1347.25 426.794 1348.54 430.164C1349.84 433.533 1350.47 437.125 1350.39 440.734C1350.45 444.273 1349.81 447.787 1348.48 451.067C1347.16 454.349 1345.18 457.328 1342.68 459.826C1340.17 462.325 1337.18 464.291 1333.9 465.606C1330.62 466.921 1327.1 467.558 1323.56 467.48V467.486Z" fill="#2b2b2b"/>
<path d="M1424.42 394.627C1418.46 394.627 1412.55 395.802 1407.03 398.087C1401.52 400.371 1396.51 403.719 1392.29 407.939C1388.07 412.159 1384.72 417.17 1382.43 422.685C1380.15 428.198 1378.98 434.109 1378.98 440.077C1378.98 446.046 1380.15 451.955 1382.43 457.47C1384.72 462.985 1388.07 467.994 1392.29 472.216C1396.51 476.436 1401.52 479.784 1407.03 482.067C1412.55 484.351 1418.46 485.528 1424.42 485.528C1434.35 485.407 1443.98 482.128 1451.93 476.165V486.113C1451.8 492.302 1449.6 498.271 1445.67 503.058C1441.75 507.845 1436.32 511.17 1430.27 512.5C1424.23 513.831 1417.9 513.087 1412.34 510.39C1406.76 507.693 1402.25 503.199 1399.55 497.631C1398.46 495.54 1396.6 493.955 1394.36 493.209C1392.12 492.463 1389.69 492.616 1387.56 493.633C1386.48 494.142 1385.54 494.856 1384.75 495.735C1383.95 496.613 1383.35 497.641 1382.96 498.757C1382.57 499.871 1382.41 501.053 1382.48 502.233C1382.54 503.412 1382.84 504.567 1383.36 505.628C1387.88 514.855 1395.4 522.277 1404.68 526.689C1413.96 531.101 1424.45 532.24 1434.45 529.922C1444.47 527.603 1453.39 521.964 1459.79 513.922C1466.18 505.881 1469.67 495.911 1469.67 485.636V440.174C1469.69 434.211 1468.55 428.3 1466.29 422.782C1464.02 417.264 1460.7 412.244 1456.49 408.014C1452.29 403.783 1447.29 400.423 1441.78 398.126C1436.29 395.83 1430.38 394.64 1424.42 394.627ZM1424.42 467.48C1418.98 467.48 1413.67 465.868 1409.15 462.845C1404.62 459.824 1401.09 455.529 1399.01 450.504C1396.93 445.479 1396.39 439.95 1397.45 434.615C1398.52 429.28 1401.13 424.38 1404.97 420.535C1408.83 416.688 1413.72 414.068 1419.06 413.008C1424.39 411.947 1429.93 412.491 1434.95 414.573C1439.97 416.654 1444.27 420.179 1447.29 424.702C1450.31 429.223 1451.93 434.54 1451.93 439.979C1451.93 447.273 1449.03 454.268 1443.86 459.425C1438.71 464.583 1431.71 467.48 1424.42 467.48Z" fill="#2b2b2b"/>
<path d="M1522.89 394.335C1512.97 394.319 1503.33 397.528 1495.4 403.477V358.442C1495.4 357.263 1495.16 356.098 1494.71 355.009C1494.26 353.92 1493.6 352.931 1492.76 352.097C1491.93 351.265 1490.94 350.604 1489.85 350.153C1488.76 349.703 1487.59 349.471 1486.42 349.471C1485.24 349.471 1484.07 349.703 1482.98 350.153C1481.9 350.604 1480.91 351.265 1480.08 352.097C1479.25 352.931 1478.59 353.92 1478.14 355.009C1477.68 356.098 1477.45 357.263 1477.45 358.442V439.675C1477.4 448.71 1480.04 457.554 1485.03 465.087C1490 472.62 1497.12 478.503 1505.46 481.986C1513.79 485.471 1522.97 486.402 1531.84 484.659C1540.71 482.917 1548.85 478.58 1555.25 472.2C1561.64 465.819 1566 457.682 1567.76 448.822C1569.53 439.962 1568.62 430.777 1565.15 422.434C1561.69 414.09 1555.83 406.964 1548.31 401.959C1540.78 396.954 1531.95 394.297 1522.92 394.323L1522.89 394.335ZM1522.89 467.187C1516.53 467.182 1510.38 464.971 1505.47 460.935C1500.56 456.898 1497.2 451.284 1495.96 445.05C1494.73 438.815 1495.7 432.346 1498.69 426.742C1501.7 421.14 1506.54 416.75 1512.42 414.322C1518.29 411.893 1524.83 411.575 1530.91 413.422C1536.99 415.27 1542.24 419.17 1545.77 424.455C1549.3 429.74 1550.88 436.086 1550.27 442.411C1549.64 448.736 1546.84 454.649 1542.35 459.142C1539.8 461.697 1536.76 463.721 1533.42 465.102C1530.08 466.483 1526.51 467.192 1522.89 467.187Z" fill="#2b2b2b"/>
<path d="M1624.32 394.627C1615.34 394.627 1606.55 397.293 1599.07 402.287C1591.6 407.281 1585.77 414.379 1582.33 422.685C1578.89 430.989 1577.99 440.127 1579.76 448.944C1581.51 457.761 1585.83 465.859 1592.19 472.216C1598.54 478.572 1606.65 482.9 1615.46 484.654C1624.27 486.407 1633.41 485.507 1641.72 482.067C1650.02 478.628 1657.13 472.802 1662.11 465.328C1667.11 457.854 1669.77 449.066 1669.77 440.077C1669.77 428.023 1664.99 416.462 1656.46 407.939C1647.94 399.416 1636.38 394.627 1624.32 394.627ZM1624.32 467.48C1618.88 467.48 1613.58 465.868 1609.05 462.845C1604.52 459.824 1601 455.529 1598.92 450.504C1596.84 445.479 1596.29 439.95 1597.36 434.615C1598.42 429.28 1601.03 424.38 1604.88 420.535C1608.73 416.688 1613.62 414.068 1618.97 413.008C1624.3 411.947 1629.83 412.491 1634.85 414.573C1639.88 416.654 1644.17 420.179 1647.2 424.702C1650.21 429.223 1651.83 434.54 1651.83 439.979C1651.83 447.273 1648.93 454.268 1643.77 459.425C1638.61 464.583 1631.62 467.48 1624.32 467.48Z" fill="#2b2b2b"/>
<path d="M1726.82 440.071L1750.71 409.059C1751.45 408.118 1751.98 407.044 1752.29 405.897C1752.59 404.751 1752.68 403.554 1752.52 402.377C1752.37 401.2 1751.98 400.064 1751.39 399.035C1750.8 398.007 1750.01 397.105 1749.06 396.382C1748.15 395.648 1747.1 395.107 1745.97 394.792C1744.85 394.478 1743.67 394.395 1742.51 394.55C1741.35 394.705 1740.24 395.095 1739.24 395.694C1738.23 396.295 1737.36 397.093 1736.67 398.04L1715.51 425.346L1694.37 398.034C1693.68 397.092 1692.79 396.298 1691.79 395.703C1690.77 395.107 1689.65 394.72 1688.49 394.567C1687.32 394.412 1686.14 394.492 1685.01 394.803C1683.88 395.114 1682.81 395.648 1681.89 396.377C1680.96 397.098 1680.17 398 1679.56 399.028C1678.97 400.056 1678.58 401.192 1678.43 402.37C1678.27 403.548 1678.36 404.745 1678.66 405.891C1678.98 407.039 1679.52 408.114 1680.24 409.054L1704.13 440.064L1680.24 471.076C1678.79 472.952 1678.16 475.323 1678.45 477.67C1678.76 480.017 1679.96 482.151 1681.83 483.606C1683.7 485.061 1686.06 485.719 1688.42 485.437C1690.77 485.156 1692.91 483.956 1694.37 482.101L1715.53 454.796L1736.71 482.101C1737.55 483.157 1738.61 484.012 1739.83 484.602C1741.04 485.193 1742.37 485.505 1743.73 485.514C1745.68 485.507 1747.58 484.817 1749.08 483.564C1750.03 482.864 1750.82 481.982 1751.41 480.97C1752.01 479.958 1752.39 478.838 1752.56 477.673C1752.71 476.509 1752.63 475.327 1752.32 474.194C1752 473.062 1751.47 472.004 1750.74 471.082L1726.82 440.071Z" fill="#2b2b2b"/>
<path d="M947.614 430.478C949.035 435.306 949.733 440.317 949.686 445.349C949.779 450.524 948.996 455.675 947.37 460.587C945.85 465.565 942.826 469.952 938.715 473.142C934.477 476.231 929.329 477.819 924.087 477.653C921.413 477.715 918.761 477.164 916.33 476.044C913.901 474.925 911.76 473.265 910.069 471.193C909.907 470.948 909.743 470.868 909.581 470.948C909.498 470.997 909.429 471.069 909.387 471.156C909.343 471.243 909.326 471.339 909.338 471.436V475.214C909.342 475.408 909.305 475.599 909.232 475.777C909.158 475.956 909.05 476.116 908.911 476.251C908.776 476.389 908.616 476.498 908.437 476.572C908.259 476.645 908.067 476.681 907.874 476.678H896.66C896.467 476.681 896.276 476.645 896.098 476.572C895.92 476.498 895.758 476.389 895.624 476.251C895.486 476.116 895.376 475.956 895.303 475.777C895.229 475.599 895.194 475.408 895.198 475.214V392.811C895.194 392.619 895.229 392.427 895.303 392.25C895.376 392.071 895.486 391.909 895.624 391.776C895.758 391.637 895.92 391.527 896.098 391.454C896.276 391.381 896.467 391.345 896.66 391.349H907.874C908.067 391.345 908.259 391.381 908.437 391.454C908.616 391.527 908.776 391.637 908.911 391.776C909.05 391.909 909.158 392.071 909.232 392.25C909.305 392.427 909.342 392.619 909.338 392.811V419.264C909.326 419.359 909.343 419.457 909.387 419.544C909.429 419.631 909.498 419.703 909.581 419.751C909.664 419.791 909.758 419.799 909.847 419.778C909.936 419.755 910.014 419.703 910.069 419.629C911.757 417.6 913.887 415.986 916.295 414.907C918.704 413.829 921.328 413.319 923.966 413.412C929.308 413.204 934.564 414.793 938.898 417.923C942.991 421.144 946.026 425.517 947.614 430.478ZM932.255 459.612C934.414 455.266 935.421 450.44 935.18 445.594C935.474 440.382 934.2 435.203 931.523 430.722C930.503 429.076 929.06 427.733 927.345 426.833C925.63 425.932 923.706 425.508 921.772 425.602C919.899 425.555 918.05 426.032 916.435 426.98C914.82 427.927 913.501 429.308 912.629 430.965C910.336 435.442 909.282 440.451 909.581 445.472C909.284 450.347 910.249 455.219 912.386 459.612C913.231 461.405 914.58 462.913 916.269 463.952C917.957 464.991 919.911 465.516 921.893 465.463C924.023 465.5 926.125 464.974 927.988 463.939C929.782 462.918 931.258 461.42 932.255 459.612ZM959.804 500.936C959.673 500.928 959.546 500.884 959.439 500.809C959.331 500.734 959.246 500.63 959.194 500.509C959.024 500.191 958.94 499.833 958.95 499.473V490.697C958.949 490.504 958.987 490.314 959.06 490.135C959.134 489.958 959.241 489.796 959.377 489.66C959.513 489.524 959.675 489.416 959.852 489.343C960.03 489.27 960.221 489.232 960.413 489.233H960.534C963.171 489.251 965.796 488.902 968.336 488.198C970.219 487.578 971.846 486.357 972.969 484.723C974.478 482.36 975.59 479.766 976.26 477.043C976.344 476.807 976.344 476.549 976.26 476.313L956.146 415.973C956.059 415.781 956.018 415.573 956.025 415.363C956.025 414.631 956.431 414.266 957.243 414.266H969.19C969.573 414.23 969.957 414.333 970.27 414.558C970.584 414.781 970.806 415.111 970.897 415.484L983.086 458.393C983.167 458.636 983.289 458.758 983.452 458.758C983.614 458.758 983.736 458.636 983.817 458.393L996.007 415.484C996.098 415.111 996.321 414.781 996.634 414.558C996.947 414.333 997.33 414.23 997.714 414.266H1009.29C1009.49 414.249 1009.68 414.279 1009.86 414.353C1010.05 414.427 1010.2 414.543 1010.33 414.692C1010.44 414.887 1010.5 415.104 1010.51 415.326C1010.52 415.547 1010.48 415.768 1010.39 415.973L988.937 480.091C987.488 484.629 985.482 488.968 982.964 493.012C981.025 495.847 978.226 497.984 974.98 499.107C970.339 500.504 965.499 501.122 960.657 500.936H959.804Z" fill="#2b2b2b"/>
</g>
<defs>
<linearGradient id="paint0_linear_1769_276" x1="233.241" y1="73.9659" x2="75.9993" y2="231.208" gradientUnits="userSpaceOnUse">
<stop stop-color="#4100FB"/>
<stop offset="0.11" stop-color="#4209FB"/>
<stop offset="0.29" stop-color="#4822FB"/>
<stop offset="0.52" stop-color="#514CFC"/>
<stop offset="0.78" stop-color="#5D85FD"/>
<stop offset="0.99" stop-color="#68B8FE"/>
</linearGradient>
<linearGradient id="paint1_linear_1769_276" x1="259.958" y1="369.467" x2="259.958" y2="-1.03785" gradientUnits="userSpaceOnUse">
<stop stop-color="#4100FB"/>
<stop offset="0.11" stop-color="#4209FB"/>
<stop offset="0.29" stop-color="#4822FB"/>
<stop offset="0.52" stop-color="#514CFC"/>
<stop offset="0.78" stop-color="#5D85FD"/>
<stop offset="0.99" stop-color="#68B8FE"/>
</linearGradient>
</defs>
</svg>
