<svg width="512" height="512" viewBox="0 0 512 512" fill="none" xmlns="http://www.w3.org/2000/svg">
<path d="M6.91895 82.072C6.99312 62.1183 20.7159 48.3585 40.7808 48.4326C83.5439 48.6181 126.307 49.0261 169.033 49.2486C178.862 49.3228 187.095 52.8833 193.994 59.8188C243.952 109.814 293.91 159.773 343.869 209.731C366.864 232.726 389.97 255.684 412.891 278.753C423.461 289.36 423.943 303.565 413.892 313.69C366.789 360.978 319.576 408.118 272.362 455.294C267.132 460.524 260.79 463.009 253.41 462.452C245.806 461.859 240.28 457.557 235.088 452.364C162.951 380.079 90.7762 307.904 18.5277 235.73C11.3325 228.535 7.58654 220.079 7.66072 209.805C7.77198 188.702 7.66072 167.598 7.66072 146.495M99.047 118.456C99.1582 106.291 89.2556 96.3511 76.9422 96.314C65.2964 96.2769 55.7275 105.586 55.4679 117.232C55.2083 129.36 65.148 139.596 77.3131 139.708C89.1814 139.819 98.8986 130.324 99.047 118.456Z" fill="url(#paint0_linear_2_224)"/>
<path d="M503.794 147.571C503.794 168.674 503.719 189.777 503.794 210.881C503.868 221.154 500.122 229.61 492.927 236.806C420.678 308.98 348.504 381.154 276.329 453.403C271.137 458.595 265.611 462.898 258.008 463.491C250.627 464.047 244.285 461.562 239.055 456.333C191.841 409.156 144.628 362.017 97.5252 314.729C87.4371 304.604 87.9564 290.399 98.5266 279.791C121.484 256.722 144.554 233.801 167.548 210.769C217.507 160.811 267.502 110.853 317.423 60.8574C324.359 53.9219 332.556 50.3614 342.384 50.2872C385.147 50.0276 427.91 49.6567 470.636 49.4712C490.701 49.3971 504.424 63.1569 504.498 83.1106M434.067 140.709C446.232 140.598 456.209 130.361 455.912 118.233C455.653 106.588 446.121 97.2784 434.438 97.3155C422.087 97.3526 412.185 107.292 412.333 119.457C412.444 131.289 422.162 140.783 434.067 140.709Z" fill="url(#paint1_linear_2_224)"/>
<defs>
<linearGradient id="paint0_linear_2_224" x1="267.577" y1="133.328" x2="91.8518" y2="309.054" gradientUnits="userSpaceOnUse">
<stop stop-color="#4100FB"/>
<stop offset="0.11" stop-color="#4209FB"/>
<stop offset="0.29" stop-color="#4822FB"/>
<stop offset="0.52" stop-color="#514CFC"/>
<stop offset="0.78" stop-color="#5D85FD"/>
<stop offset="0.99" stop-color="#68B8FE"/>
</linearGradient>
<linearGradient id="paint1_linear_2_224" x1="297.433" y1="463.565" x2="297.433" y2="49.5083" gradientUnits="userSpaceOnUse">
<stop stop-color="#4100FB"/>
<stop offset="0.11" stop-color="#4209FB"/>
<stop offset="0.29" stop-color="#4822FB"/>
<stop offset="0.52" stop-color="#514CFC"/>
<stop offset="0.78" stop-color="#5D85FD"/>
<stop offset="0.99" stop-color="#68B8FE"/>
</linearGradient>
</defs>
</svg>
