<svg width="88" height="88" viewBox="0 0 88 88" fill="none" xmlns="http://www.w3.org/2000/svg">
<g clip-path="url(#clip0_818_12154)">
<path d="M76 0H12C5.37258 0 0 5.37258 0 12V76C0 82.6274 5.37258 88 12 88H76C82.6274 88 88 82.6274 88 76V12C88 5.37258 82.6274 0 76 0Z" fill="white"/>
<path d="M62.0441 60.3675C41.8042 70 29.243 61.9408 21.2023 57.0458C20.7047 56.7373 19.859 57.1179 20.5928 57.9607C23.2716 61.2088 32.0505 69.0376 43.5095 69.0376C54.9765 69.0376 61.7983 62.7807 62.6516 61.6892C63.4992 60.607 62.9005 60.01 62.0439 60.3675H62.0441ZM67.7284 57.2283C67.1849 56.5205 64.4234 56.3886 62.6855 56.6021C60.9449 56.8094 58.3323 57.8732 58.5594 58.5119C58.676 58.7512 58.9139 58.6438 60.1096 58.5363C61.3086 58.4167 64.6675 57.9928 65.3673 58.9077C66.0705 59.829 64.2961 64.2176 63.972 64.9254C63.6589 65.6331 64.0916 65.8157 64.6798 65.3443C65.2598 64.8731 66.31 63.6527 67.0147 61.9258C67.7145 60.1894 68.1415 57.7672 67.7284 57.2283Z" fill="#FF9900"/>
<path fill-rule="evenodd" clip-rule="evenodd" d="M48.435 40.7125C48.435 43.2399 48.4988 45.3476 47.2213 47.5921C46.1903 49.4172 44.557 50.5394 42.7322 50.5394C40.2411 50.5394 38.7903 48.6415 38.7903 45.8404C38.7903 40.3109 43.7448 39.3073 48.435 39.3073V40.7125ZM54.9771 56.5251C54.5482 56.9082 53.9277 56.9357 53.4442 56.6801C51.2909 54.8919 50.9076 54.0616 49.7215 52.3552C46.163 55.9868 43.6446 57.0725 39.0277 57.0725C33.5713 57.0725 29.3192 53.7056 29.3192 46.9626C29.3192 41.698 32.1753 38.112 36.2354 36.3602C39.7576 34.8089 44.6757 34.5352 48.435 34.1065V33.267C48.435 31.7249 48.5534 29.9 47.6502 28.5679C46.8563 27.3726 45.3417 26.8799 44.0094 26.8799C41.5368 26.8799 39.3287 28.1481 38.7903 30.7759C38.6807 31.36 38.252 31.9349 37.6681 31.9622L31.3722 31.2871C30.843 31.1683 30.2591 30.7396 30.4051 29.9273C31.8559 22.2995 38.7446 20 44.9126 20C48.0697 20 52.1939 20.8395 54.6849 23.2302C57.842 26.1773 57.5408 30.1099 57.5408 34.3892V44.4991C57.5408 47.5375 58.8 48.8696 59.9861 50.5121C60.4058 51.096 60.4972 51.7988 59.9679 52.2365C58.6448 53.3405 56.2907 55.3936 54.9952 56.5434L54.9769 56.5251" fill="black"/>
<path d="M62.0441 60.3675C41.8042 70 29.243 61.9408 21.2023 57.0458C20.7047 56.7373 19.859 57.1179 20.5928 57.9607C23.2716 61.2088 32.0505 69.0376 43.5095 69.0376C54.9765 69.0376 61.7983 62.7807 62.6516 61.6892C63.4992 60.607 62.9005 60.01 62.0439 60.3675H62.0441ZM67.7284 57.2283C67.1849 56.5205 64.4234 56.3886 62.6855 56.6021C60.9449 56.8094 58.3323 57.8732 58.5594 58.5119C58.676 58.7512 58.9139 58.6438 60.1096 58.5363C61.3086 58.4167 64.6675 57.9928 65.3673 58.9077C66.0705 59.829 64.2961 64.2176 63.972 64.9254C63.6589 65.6331 64.0916 65.8157 64.6798 65.3443C65.2598 64.8731 66.31 63.6527 67.0147 61.9258C67.7145 60.1894 68.1415 57.7672 67.7284 57.2283Z" fill="#FF9900"/>
<path fill-rule="evenodd" clip-rule="evenodd" d="M48.435 40.7125C48.435 43.2399 48.4988 45.3476 47.2213 47.5921C46.1903 49.4172 44.557 50.5394 42.7322 50.5394C40.2411 50.5394 38.7903 48.6415 38.7903 45.8404C38.7903 40.3109 43.7448 39.3073 48.435 39.3073V40.7125ZM54.9771 56.5251C54.5482 56.9082 53.9277 56.9357 53.4442 56.6801C51.2909 54.8919 50.9076 54.0616 49.7215 52.3552C46.163 55.9868 43.6446 57.0725 39.0277 57.0725C33.5713 57.0725 29.3192 53.7056 29.3192 46.9626C29.3192 41.698 32.1753 38.112 36.2354 36.3602C39.7576 34.8089 44.6757 34.5352 48.435 34.1065V33.267C48.435 31.7249 48.5534 29.9 47.6502 28.5679C46.8563 27.3726 45.3417 26.8799 44.0094 26.8799C41.5368 26.8799 39.3287 28.1481 38.7903 30.7759C38.6807 31.36 38.252 31.9349 37.6681 31.9622L31.3722 31.2871C30.843 31.1683 30.2591 30.7396 30.4051 29.9273C31.8559 22.2995 38.7446 20 44.9126 20C48.0697 20 52.1939 20.8395 54.6849 23.2302C57.842 26.1773 57.5408 30.1099 57.5408 34.3892V44.4991C57.5408 47.5375 58.8 48.8696 59.9861 50.5121C60.4058 51.096 60.4972 51.7988 59.9679 52.2365C58.6448 53.3405 56.2907 55.3936 54.9952 56.5434L54.9769 56.5251" fill="white"/>
<g clip-path="url(#clip1_818_12154)">
<path d="M6.875 0C5.05164 0 3.30295 0.724328 2.01364 2.01364C0.724328 3.30295 0 5.05164 0 6.875L0 81.125C0 82.9484 0.724328 84.697 2.01364 85.9864C3.30295 87.2757 5.05164 88 6.875 88H81.125C82.9484 88 84.697 87.2757 85.9864 85.9864C87.2757 84.697 88 82.9484 88 81.125V6.875C88 5.05164 87.2757 3.30295 85.9864 2.01364C84.697 0.724328 82.9484 0 81.125 0L6.875 0Z" fill="#E62E04"/>
<path d="M24.2002 29.4968C24.5371 30.8718 24.3474 32.3568 24.6787 33.7552C25.8337 32.9095 26.6037 31.5139 26.4456 30.0605C26.4222 27.459 23.4962 25.4199 21.0474 26.2958C19.5074 26.7358 18.3689 28.1177 18.1104 29.6783C17.8024 31.4658 18.8762 33.2945 20.4726 34.1113C20.3145 32.5713 19.9446 30.9488 20.3585 29.4418C20.991 27.8 23.6159 27.833 24.2002 29.4968ZM69.765 31.3613C70.326 29.3428 69.105 27.0025 67.103 26.3563C65.178 25.6 62.7951 26.5625 61.9467 28.438C61.0007 30.1747 61.5727 32.6455 63.3025 33.663C63.6435 32.2688 63.3919 30.7755 63.7975 29.4212C64.4437 27.8028 67.0356 27.8495 67.6255 29.4899C68.0009 30.9557 67.6612 32.4957 67.5196 33.9752C68.6939 33.6122 69.4267 32.4902 69.7636 31.3654L69.765 31.3613Z" fill="#B32100"/>
<path d="M63.7992 29.4189C63.3922 30.7871 63.6439 32.2679 63.3042 33.6608C62.2977 39.7108 58.247 45.1173 52.7621 47.8274C50.0319 49.2013 47.0173 49.9151 43.9609 49.9113C40.9045 49.9075 37.8916 49.1862 35.1649 47.8054C29.7309 45.1022 25.7117 39.7411 24.6791 33.7557C24.3491 32.3559 24.5361 30.8861 24.2006 29.4973C23.6176 27.8473 20.9914 27.7992 20.3589 29.4423C19.9464 30.9631 20.3176 32.5732 20.473 34.1118C21.628 41.5918 26.633 48.3087 33.4145 51.6431C36.5311 53.1849 39.9472 54.0264 43.4234 54.1086C46.8996 54.1908 50.3516 53.5117 53.5376 52.1188C60.8705 48.9522 66.3526 41.8806 67.5255 33.9688C67.6671 32.4893 68.0067 30.9479 67.63 29.4836C67.0387 27.8432 64.4482 27.7978 63.8006 29.4148L63.7992 29.4189Z" fill="white"/>
<path d="M6.875 0C5.05164 0 3.30295 0.724328 2.01364 2.01364C0.724328 3.30295 0 5.05164 0 6.875L0 19.9375C0 18.1141 0.724328 16.3655 2.01364 15.0761C3.30295 13.7868 5.05164 13.0625 6.875 13.0625H81.125C82.9484 13.0625 84.697 13.7868 85.9864 15.0761C87.2757 16.3655 88 18.1141 88 19.9375V6.875C88 5.05164 87.2757 3.30295 85.9864 2.01364C84.697 0.724328 82.9484 0 81.125 0L6.875 0Z" fill="#FF9900"/>
</g>
</g>
<defs>
<clipPath id="clip0_818_12154">
<rect width="88" height="88" fill="white"/>
</clipPath>
<clipPath id="clip1_818_12154">
<rect width="88" height="88" fill="white"/>
</clipPath>
</defs>
</svg>
