<svg width="88" height="88" viewBox="0 0 88 88" fill="none" xmlns="http://www.w3.org/2000/svg">
<g clip-path="url(#clip0_818_12135)">
<path d="M76 0H12C5.37258 0 0 5.37258 0 12V76C0 82.6274 5.37258 88 12 88H76C82.6274 88 88 82.6274 88 76V12C88 5.37258 82.6274 0 76 0Z" fill="#231F20"/>
<path d="M62.0441 60.3675C41.8042 70 29.243 61.9408 21.2023 57.0458C20.7047 56.7373 19.859 57.1179 20.5928 57.9607C23.2716 61.2088 32.0505 69.0376 43.5095 69.0376C54.9765 69.0376 61.7983 62.7807 62.6516 61.6892C63.4992 60.607 62.9005 60.01 62.0439 60.3675H62.0441ZM67.7284 57.2283C67.1849 56.5205 64.4234 56.3886 62.6855 56.6021C60.9449 56.8094 58.3323 57.8732 58.5594 58.5119C58.676 58.7512 58.9139 58.6438 60.1096 58.5363C61.3086 58.4167 64.6675 57.9928 65.3673 58.9077C66.0705 59.829 64.2961 64.2176 63.972 64.9254C63.6589 65.6331 64.0916 65.8157 64.6798 65.3443C65.2598 64.8731 66.31 63.6527 67.0147 61.9258C67.7145 60.1894 68.1415 57.7672 67.7284 57.2283Z" fill="#FF9900"/>
<path fill-rule="evenodd" clip-rule="evenodd" d="M48.435 40.7125C48.435 43.2399 48.4988 45.3476 47.2213 47.5921C46.1903 49.4172 44.557 50.5394 42.7322 50.5394C40.2411 50.5394 38.7903 48.6415 38.7903 45.8404C38.7903 40.3109 43.7448 39.3073 48.435 39.3073V40.7125ZM54.9771 56.5251C54.5482 56.9082 53.9277 56.9357 53.4442 56.6801C51.2909 54.8919 50.9076 54.0616 49.7215 52.3552C46.163 55.9868 43.6446 57.0725 39.0277 57.0725C33.5713 57.0725 29.3192 53.7056 29.3192 46.9626C29.3192 41.698 32.1753 38.112 36.2354 36.3602C39.7576 34.8089 44.6757 34.5352 48.435 34.1065V33.267C48.435 31.7249 48.5534 29.9 47.6502 28.5679C46.8563 27.3726 45.3417 26.8799 44.0094 26.8799C41.5368 26.8799 39.3287 28.1481 38.7903 30.7759C38.6807 31.36 38.252 31.9349 37.6681 31.9622L31.3722 31.2871C30.843 31.1683 30.2591 30.7396 30.4051 29.9273C31.8559 22.2995 38.7446 20 44.9126 20C48.0697 20 52.1939 20.8395 54.6849 23.2302C57.842 26.1773 57.5408 30.1099 57.5408 34.3892V44.4991C57.5408 47.5375 58.8 48.8696 59.9861 50.5121C60.4058 51.096 60.4972 51.7988 59.9679 52.2365C58.6448 53.3405 56.2907 55.3936 54.9952 56.5434L54.9769 56.5251" fill="black"/>
<path d="M62.0441 60.3675C41.8042 70 29.243 61.9408 21.2023 57.0458C20.7047 56.7373 19.859 57.1179 20.5928 57.9607C23.2716 61.2088 32.0505 69.0376 43.5095 69.0376C54.9765 69.0376 61.7983 62.7807 62.6516 61.6892C63.4992 60.607 62.9005 60.01 62.0439 60.3675H62.0441ZM67.7284 57.2283C67.1849 56.5205 64.4234 56.3886 62.6855 56.6021C60.9449 56.8094 58.3323 57.8732 58.5594 58.5119C58.676 58.7512 58.9139 58.6438 60.1096 58.5363C61.3086 58.4167 64.6675 57.9928 65.3673 58.9077C66.0705 59.829 64.2961 64.2176 63.972 64.9254C63.6589 65.6331 64.0916 65.8157 64.6798 65.3443C65.2598 64.8731 66.31 63.6527 67.0147 61.9258C67.7145 60.1894 68.1415 57.7672 67.7284 57.2283Z" fill="#FF9900"/>
<path fill-rule="evenodd" clip-rule="evenodd" d="M48.435 40.7125C48.435 43.2399 48.4988 45.3476 47.2213 47.5921C46.1903 49.4172 44.557 50.5394 42.7322 50.5394C40.2411 50.5394 38.7903 48.6415 38.7903 45.8404C38.7903 40.3109 43.7448 39.3073 48.435 39.3073V40.7125ZM54.9771 56.5251C54.5482 56.9082 53.9277 56.9357 53.4442 56.6801C51.2909 54.8919 50.9076 54.0616 49.7215 52.3552C46.163 55.9868 43.6446 57.0725 39.0277 57.0725C33.5713 57.0725 29.3192 53.7056 29.3192 46.9626C29.3192 41.698 32.1753 38.112 36.2354 36.3602C39.7576 34.8089 44.6757 34.5352 48.435 34.1065V33.267C48.435 31.7249 48.5534 29.9 47.6502 28.5679C46.8563 27.3726 45.3417 26.8799 44.0094 26.8799C41.5368 26.8799 39.3287 28.1481 38.7903 30.7759C38.6807 31.36 38.252 31.9349 37.6681 31.9622L31.3722 31.2871C30.843 31.1683 30.2591 30.7396 30.4051 29.9273C31.8559 22.2995 38.7446 20 44.9126 20C48.0697 20 52.1939 20.8395 54.6849 23.2302C57.842 26.1773 57.5408 30.1099 57.5408 34.3892V44.4991C57.5408 47.5375 58.8 48.8696 59.9861 50.5121C60.4058 51.096 60.4972 51.7988 59.9679 52.2365C58.6448 53.3405 56.2907 55.3936 54.9952 56.5434L54.9769 56.5251" fill="white"/>
</g>
<defs>
<clipPath id="clip0_818_12135">
<rect width="88" height="88" fill="white"/>
</clipPath>
</defs>
</svg>
