<svg width="28" height="28" viewBox="0 0 28 28" fill="none" xmlns="http://www.w3.org/2000/svg">
<rect width="28" height="28" rx="3" fill="#4E69ED"/>
<path d="M11.125 13.75C9.18359 13.75 7.625 12.1914 7.625 10.25C7.625 8.33594 9.18359 6.75 11.125 6.75C13.0391 6.75 14.625 8.33594 14.625 10.25C14.625 12.1914 13.0391 13.75 11.125 13.75ZM12.4922 15.0625C15.1172 15.0625 17.25 17.1953 17.25 19.8203C17.25 20.3398 16.8125 20.75 16.293 20.75H5.92969C5.41016 20.75 5 20.3398 5 19.8203C5 17.1953 7.10547 15.0625 9.73047 15.0625H12.4922ZM18.0977 15.5C20.5312 15.5 22.5 17.4688 22.5 19.875C22.5 20.3672 22.0898 20.75 21.625 20.75H17.8516C18.0156 20.4766 18.125 20.1758 18.125 19.8203C18.125 18.0977 17.332 16.5391 16.0742 15.5H18.0977ZM16.8125 13.75C15.9375 13.75 15.1719 13.4219 14.625 12.8477C15.1719 12.1367 15.5 11.2344 15.5 10.25C15.5 9.53906 15.2812 8.85547 14.9805 8.25391C15.4727 7.87109 16.1016 7.625 16.8125 7.625C18.4805 7.625 19.875 9.01953 19.875 10.6875C19.875 12.3828 18.4805 13.75 16.8125 13.75Z" fill="white"/>
</svg>
