<svg xmlns="http://www.w3.org/2000/svg" width="88" height="88.001" viewBox="0 0 88 88.001">
  <path id="Path_1" data-name="Path 1" d="M45.238,88H12A12,12,0,0,1,0,76V12A12,12,0,0,1,12,0H76A12,12,0,0,1,88,12V76A12,12,0,0,1,76,88H58.608l.013-25.754h9.661a1.3,1.3,0,0,0,1.291-1.293V50.537a1.294,1.294,0,0,0-1.291-1.293H58.62V43.15c0-2.927.7-4.414,4.513-4.414h5.54a1.292,1.292,0,0,0,1.29-1.292v-9.67a1.3,1.3,0,0,0-1.291-1.293l-8.218-.013c-9.23,0-15.195,6.12-15.195,15.591v7.187H36.994A1.3,1.3,0,0,0,35.7,50.54V60.955A1.291,1.291,0,0,0,37,62.247h8.26L45.238,88Z" fill="#1b74e4"/>
</svg>
