<svg width="233" height="16" viewBox="0 0 233 16" fill="none" xmlns="http://www.w3.org/2000/svg">
<path fill-rule="evenodd" clip-rule="evenodd" d="M151.922 0.970322C151.87 1.01815 149.799 0.954708 147.32 0.829596C144.841 0.704467 142.745 0.701744 142.661 0.824054C142.578 0.946059 142.098 0.897974 141.596 0.717016C141.093 0.536364 140.583 0.443554 140.462 0.510621C140.341 0.577995 138.647 0.624676 136.697 0.614029C131.313 0.585224 129.575 0.590997 129.572 0.637432C129.571 0.660955 127.963 0.629309 125.999 0.567243C122.398 0.453474 118.318 0.467871 115.562 0.604477C114.291 0.66743 110.989 0.661333 107.513 0.589827C107.021 0.579657 106.415 0.632899 106.164 0.708005C105.914 0.783111 104.971 0.842984 104.069 0.840886C101.447 0.835186 98.8412 0.922389 94.3607 1.16646C92.0577 1.2917 89.131 1.3941 87.8571 1.39374C86.5835 1.3934 85.4383 1.45026 85.3125 1.52042C85.0709 1.65459 81.5667 1.86407 80.6837 1.79686C80.3982 1.77518 80.1587 1.85215 80.1519 1.96763C80.1452 2.0831 79.8375 2.18366 79.468 2.19076C79.0985 2.19787 77.8568 2.21258 76.7083 2.22357C75.5598 2.23457 74.2808 2.31085 73.866 2.39346C73.4512 2.47607 72.5062 2.57505 71.766 2.61341C68.8315 2.7653 66.8414 2.93254 65.5723 3.13325C65.1044 3.20722 64.0489 3.29419 63.2271 3.32652C61.4569 3.39571 58.9326 3.80101 58.1996 4.13376C57.9021 4.26894 57.6154 4.25179 57.5329 4.09398C57.45 3.93584 56.9017 3.90576 56.2559 4.02385C55.6335 4.13749 54.1797 4.32122 53.0254 4.4321C51.871 4.54299 50.5886 4.67732 50.1755 4.7303C49.7625 4.78328 48.3433 4.96076 47.0219 5.12467C42.5518 5.67866 40.1131 6.05773 39.305 6.32415C38.8623 6.47011 38.4338 6.51237 38.3525 6.4187C38.2713 6.32472 37.4121 6.4413 36.4432 6.67774C35.4744 6.91448 34.3957 7.12822 34.0463 7.15336C32.6349 7.25436 25.384 8.35706 25.1029 8.51344C24.9371 8.60547 24.4059 8.68983 23.9226 8.70036C23.4393 8.71089 22.6502 8.98395 22.1694 9.30669C21.6579 9.65001 21.2596 9.75628 21.209 9.56263C21.1516 9.34161 20.5231 9.36661 19.3188 9.63764C18.3269 9.86108 16.8606 10.1256 16.0605 10.2257C15.2606 10.3259 14.4308 10.5404 14.2162 10.7029C14.0018 10.865 13.7522 10.9117 13.6615 10.8067C13.5704 10.7017 13.3137 10.7185 13.0904 10.844C12.8669 10.9694 12.5456 11.0854 12.3761 11.1021C11.9056 11.148 8.57088 11.9557 7.56391 12.2678C7.07318 12.4198 6.46074 12.568 6.20291 12.5973C5.82264 12.6403 1.9144 13.4964 1.35204 13.6599C1.26863 13.6841 0.984461 13.6696 0.720402 13.6274C0.111323 13.5306 -0.241774 14.8262 0.248829 15.3562C0.680016 15.8217 1.22077 15.894 1.24457 15.4889C1.254 15.3285 1.73376 15.1347 2.31068 15.0583C2.88763 14.9815 3.30688 14.8179 3.24228 14.6946C3.17767 14.5712 3.51653 14.5531 3.99535 14.6545C4.47419 14.7556 5.04711 14.7016 5.26863 14.5341C5.49015 14.3665 6.27144 14.1761 7.00512 14.111C8.11312 14.0127 11.1258 13.39 13.0261 12.8668C13.2762 12.7978 13.8598 12.7131 14.3231 12.6784C14.7863 12.6437 15.4495 12.4803 15.7964 12.315C16.1436 12.1496 16.9163 11.9832 17.514 11.9447C18.9594 11.8522 22.718 11.0614 22.5634 10.8825C22.4961 10.8047 22.799 10.7489 23.2361 10.7586C24.5504 10.7877 31.1834 9.88568 32.0029 9.5666C32.4225 9.40303 33.035 9.25325 33.3641 9.23366C35.182 9.12497 36.6379 8.92543 37.0805 8.72429C37.3559 8.59915 37.7491 8.56983 37.9544 8.65914C38.1596 8.74876 38.5629 8.73475 38.8506 8.62781C39.4138 8.41935 39.5085 8.40591 41.7719 8.21579C42.5958 8.14649 43.7877 7.98478 44.4205 7.85642C45.7234 7.5921 45.7222 7.59233 51.2292 7.09437C57.1453 6.55974 58.7465 6.3436 59.1718 6.02188C59.4164 5.8367 59.6481 5.84541 59.8218 6.04628C59.9937 6.24522 60.4535 6.27438 61.088 6.12712C61.636 5.99992 63.1139 5.87217 64.3723 5.84311C65.6307 5.81375 66.9323 5.72316 67.2651 5.64155C67.9036 5.48503 68.0265 5.47508 70.8595 5.35645C71.8458 5.31508 72.9913 5.22759 73.4052 5.16147C73.819 5.09536 74.8976 5.00515 75.8021 4.96112C76.7066 4.91679 77.6514 4.82025 77.9016 4.74698C78.1519 4.6734 79.1606 4.59656 80.1427 4.5764C81.125 4.55626 82.0388 4.38342 82.1732 4.19206C82.357 3.93064 82.4131 3.93946 82.3999 4.22653C82.3899 4.43684 82.5729 4.61988 82.8065 4.6336C83.0397 4.6473 83.4176 4.49723 83.646 4.29974C83.9095 4.07183 85.0363 3.98875 86.7365 4.07179C88.2081 4.14354 90.2196 4.15812 91.2067 4.10392C92.1937 4.04973 93.7353 3.97599 94.6321 3.9404C95.5289 3.90481 96.3767 3.71368 96.516 3.51525C96.7015 3.25087 96.7644 3.25058 96.7524 3.51474C96.7426 3.72752 97.0727 3.85298 97.5588 3.82176C98.0113 3.79256 99.7249 3.74273 101.367 3.71136C103.008 3.67968 104.721 3.64635 105.172 3.63701C105.624 3.62766 106.095 3.59436 106.22 3.56247C106.345 3.53088 107.081 3.55391 107.857 3.61389C108.632 3.67386 109.273 3.62259 109.28 3.50041C109.288 3.37795 110.197 3.32619 111.299 3.38517C114.656 3.56494 121.796 3.51116 122.709 3.29902C123.182 3.18948 123.637 3.17819 123.72 3.27411C123.803 3.37002 124.713 3.46702 125.742 3.48979C129.09 3.56326 132.649 3.5949 134.022 3.56336C134.761 3.54638 138.38 3.59811 142.065 3.67821C145.749 3.7583 148.967 3.79715 149.215 3.7642C149.463 3.73126 149.908 3.70807 150.205 3.71261C150.554 3.71779 150.673 3.58162 150.543 3.32569C150.388 3.02014 150.435 3.01646 150.75 3.30904C151.261 3.78356 153.949 4.37835 153.97 4.02184C153.979 3.87673 155.889 3.90008 158.216 4.07418C160.542 4.24796 162.889 4.29296 163.43 4.17428C163.972 4.05561 164.337 4.07277 164.242 4.21246C164.146 4.35214 166.946 4.62182 170.464 4.81197C174.863 5.04957 176.868 5.05334 176.884 4.8244C176.9 4.61318 176.984 4.63068 177.114 4.87256C177.265 5.1521 180.044 5.4558 187.552 6.0128C193.18 6.43024 198.228 6.88196 198.771 7.01622C199.486 7.19376 199.703 7.15871 199.562 6.88862C199.42 6.61819 199.514 6.60379 199.906 6.83617C200.202 7.01177 201.379 7.24062 202.521 7.34449C203.663 7.44867 205.127 7.63528 205.776 7.75984C206.425 7.88439 207.09 7.98172 207.254 7.97605C207.418 7.97068 207.957 7.94223 208.45 7.91299C208.944 7.88375 209.473 7.94458 209.626 8.04799C209.78 8.15173 210.442 8.30251 211.097 8.38273C211.753 8.46327 213.222 8.65469 214.361 8.80806C215.499 8.96142 217.629 9.24597 219.094 9.43992C220.558 9.63417 222.576 9.90813 223.577 10.0488C224.619 10.1953 225.666 10.1771 226.023 10.0071C226.527 9.76753 226.7 9.81756 226.911 10.2631C227.122 10.7068 227.254 10.7455 227.572 10.4574C228.035 10.0382 228.568 9.99846 228.291 10.4037C228.018 10.8033 230.546 11.4438 230.846 11.051C231.003 10.8453 231.077 10.8693 231.065 11.1224C231.055 11.3327 231.381 11.5242 231.79 11.5482C232.729 11.6034 232.815 10.8577 231.943 10.2173C231.589 9.95769 230.503 9.60265 229.529 9.42865C228.556 9.25465 227.013 8.88872 226.101 8.61533C224.904 8.25655 224.347 8.20574 224.099 8.43242C223.854 8.65651 223.761 8.65168 223.775 8.41553C223.786 8.23346 223.464 7.99906 223.06 7.89471C222.657 7.79036 222.318 7.84037 222.308 8.00564C222.299 8.17092 222.097 8.12045 221.861 7.8932C221.624 7.66595 221.34 7.56222 221.231 7.66276C221.121 7.76297 220.889 7.70889 220.716 7.54237C220.542 7.37584 219.225 7.09212 217.788 6.91172C216.35 6.73133 215.092 6.52433 214.99 6.45182C214.888 6.37933 213.34 6.13937 211.549 5.91888C209.758 5.69809 207.762 5.42506 207.112 5.31181C206.463 5.19887 204.963 4.99057 203.779 4.84925C202.595 4.70794 201.499 4.5007 201.344 4.38888C201.189 4.27708 200.919 4.49634 200.744 4.87633C200.436 5.54704 200.428 5.54806 200.447 4.91064C200.465 4.29374 200.31 4.24294 197.851 4.0644C196.412 3.95994 194.245 3.73728 193.035 3.56961C189.601 3.09413 186.3 2.85354 183.757 2.89358C182.475 2.91388 181.36 2.85452 181.281 2.76216C181.017 2.45792 155.043 0.989665 155.026 1.27805C155.017 1.43049 154.864 1.45 154.685 1.32151C154.364 1.08989 152.105 0.802634 151.922 0.970322ZM209.425 6.55552C209.516 6.72947 209.523 6.86787 209.442 6.86307C209.36 6.85827 209.219 6.71202 209.127 6.53806C209.036 6.3641 209.029 6.22571 209.11 6.23051C209.192 6.23531 209.333 6.38156 209.425 6.55552ZM223.161 8.72399C223.156 8.79822 222.992 8.94769 222.797 9.05636C222.576 9.17921 222.529 9.12496 222.674 8.91426C222.906 8.57446 223.176 8.46921 223.161 8.72399Z" fill="#4E69ED"/>
</svg>
