<svg width="277" height="186" viewBox="0 0 277 186" fill="none" xmlns="http://www.w3.org/2000/svg">
<g clip-path="url(#clip0_5756_7793)">
<path d="M276.041 46.0065L270.641 60.4944C270.592 60.6257 270.518 60.746 270.423 60.8486C270.328 60.9512 270.213 61.034 270.086 61.0922C269.959 61.1505 269.821 61.183 269.681 61.188C269.541 61.1931 269.402 61.1704 269.271 61.1215L244.092 51.7415C243.961 51.6926 243.84 51.6184 243.738 51.523C243.635 51.4277 243.553 51.3131 243.495 51.1857C243.436 51.0584 243.404 50.9208 243.399 50.7809C243.394 50.6411 243.417 50.5016 243.466 50.3705L248.866 35.8824C248.914 35.7513 248.989 35.631 249.084 35.5285C249.179 35.426 249.294 35.3433 249.421 35.2851C249.548 35.2269 249.686 35.1943 249.825 35.1892C249.965 35.1841 250.105 35.2066 250.236 35.2555L275.415 44.6355C275.546 44.6843 275.666 44.7585 275.769 44.8539C275.871 44.9492 275.954 45.0639 276.012 45.1912C276.07 45.3185 276.103 45.4561 276.108 45.5959C276.113 45.7358 276.09 45.8754 276.041 46.0065Z" fill="#4E69ED"/>
<path d="M276.043 46.0078L275.743 46.8078L261.201 50.7738C260.507 50.9769 259.767 50.9535 259.087 50.7069C258.407 50.4604 257.824 50.0036 257.421 49.4028L248.695 36.3418L248.866 35.8838C248.915 35.7525 248.989 35.6321 249.084 35.5295C249.18 35.427 249.295 35.3442 249.422 35.286C249.549 35.2277 249.687 35.1951 249.827 35.1901C249.967 35.1851 250.106 35.2078 250.237 35.2568L275.414 44.6368C275.546 44.6854 275.666 44.7595 275.769 44.8547C275.872 44.95 275.955 45.0646 276.013 45.1919C276.071 45.3192 276.104 45.4568 276.109 45.5968C276.115 45.7368 276.092 45.8764 276.043 46.0078Z" fill="#FFD3D7"/>
<path d="M22.3694 35.3633L19.8984 39.4103L41.1665 53.9203L22.3694 35.3633Z" fill="#4E69ED"/>
<path d="M17.7031 40.5352L18.9901 45.1751L40.2181 49.5191L17.7031 40.5352Z" fill="#FF8892"/>
<path d="M41.1629 53.919L5.29688 41.694L17.6969 37.332L41.1629 53.919Z" fill="#FFB2B9"/>
<path d="M22.3672 35.3643L41.1672 53.9203L30.1672 32.0723L22.3672 35.3643Z" fill="#FDB2B9"/>
<path d="M265.713 151.426L262.826 147.36L257.878 147.976C257.771 147.989 257.662 147.971 257.565 147.923C257.468 147.875 257.387 147.8 257.333 147.706C257.278 147.613 257.253 147.506 257.259 147.398C257.265 147.29 257.302 147.186 257.367 147.099L260.342 143.099L258.227 138.583C258.181 138.485 258.165 138.376 258.181 138.27C258.196 138.163 258.243 138.063 258.315 137.982C258.387 137.902 258.481 137.844 258.585 137.816C258.689 137.789 258.799 137.792 258.902 137.826L263.628 139.418L267.269 136.011C267.348 135.938 267.446 135.889 267.553 135.871C267.659 135.853 267.769 135.867 267.867 135.91C267.966 135.954 268.05 136.025 268.109 136.116C268.167 136.206 268.198 136.312 268.197 136.42L268.143 141.406L272.508 143.816C272.602 143.868 272.679 143.947 272.729 144.043C272.779 144.138 272.8 144.246 272.79 144.354C272.779 144.461 272.737 144.563 272.669 144.646C272.601 144.73 272.51 144.792 272.408 144.825L267.649 146.314L266.705 151.214C266.684 151.32 266.633 151.418 266.558 151.495C266.483 151.573 266.386 151.626 266.28 151.649C266.175 151.672 266.065 151.664 265.964 151.624C265.863 151.585 265.776 151.517 265.714 151.429L265.713 151.426Z" fill="#FFBFC5"/>
<path d="M6.68391 124.805L4.40291 121.592L0.492909 122.079C0.408594 122.088 0.323327 122.073 0.247555 122.035C0.171783 121.996 0.108799 121.937 0.0663339 121.864C0.023869 121.79 0.00376771 121.706 0.00848782 121.621C0.0132079 121.536 0.0425445 121.455 0.0929071 121.387L2.44391 118.225L0.772907 114.657C0.736118 114.579 0.722962 114.493 0.735073 114.408C0.747184 114.323 0.784023 114.244 0.841 114.18C0.897977 114.116 0.97256 114.07 1.05542 114.048C1.13829 114.026 1.22576 114.029 1.30691 114.057L5.04091 115.315L7.91791 112.623C7.98026 112.564 8.05839 112.525 8.14259 112.511C8.22679 112.497 8.31336 112.507 8.39154 112.542C8.46973 112.576 8.53609 112.633 8.58238 112.705C8.62867 112.776 8.65285 112.86 8.65191 112.946L8.60891 116.886L12.0589 118.786C12.1344 118.827 12.196 118.889 12.2361 118.965C12.2762 119.041 12.293 119.127 12.2844 119.213C12.2757 119.298 12.242 119.379 12.1875 119.445C12.133 119.512 12.0601 119.56 11.9779 119.586L8.21791 120.763L7.47291 124.632C7.45669 124.715 7.41617 124.793 7.3564 124.854C7.29663 124.915 7.22024 124.957 7.13672 124.975C7.0532 124.993 6.96623 124.986 6.88662 124.955C6.807 124.924 6.73825 124.87 6.68891 124.801L6.68391 124.805Z" fill="#FFCBCF"/>
<path d="M57.2774 73.3247L52.3134 72.8527L49.5444 77.0007C49.4846 77.0913 49.3995 77.1623 49.2996 77.2048C49.1997 77.2472 49.0894 77.2592 48.9827 77.2394C48.876 77.2195 48.7775 77.1687 48.6995 77.0931C48.6216 77.0176 48.5676 76.9207 48.5444 76.8147L47.4594 71.9477L42.6594 70.5977C42.5555 70.5683 42.4625 70.509 42.392 70.4273C42.3214 70.3456 42.2764 70.245 42.2624 70.1379C42.2485 70.0308 42.2663 69.922 42.3135 69.8249C42.3608 69.7278 42.4355 69.6467 42.5284 69.5917L46.8224 67.0557L46.6224 62.0727C46.6178 61.9646 46.645 61.8576 46.7008 61.7649C46.7566 61.6722 46.8384 61.598 46.9361 61.5515C47.0338 61.505 47.143 61.4883 47.2501 61.5035C47.3572 61.5186 47.4575 61.565 47.5384 61.6367L51.2774 64.9367L55.9554 63.2077C56.057 63.1691 56.1676 63.1614 56.2735 63.1855C56.3794 63.2097 56.4758 63.2646 56.5506 63.3433C56.6254 63.4221 56.6752 63.5212 56.6939 63.6282C56.7125 63.7352 56.6991 63.8453 56.6554 63.9447L54.6714 68.5197L57.7614 72.4337C57.8287 72.5184 57.8695 72.6211 57.8788 72.7288C57.8881 72.8366 57.8655 72.9447 57.8138 73.0397C57.7621 73.1347 57.6836 73.2124 57.588 73.2631C57.4925 73.3138 57.3841 73.3352 57.2764 73.3247H57.2774Z" fill="#FDB2B9"/>
<path d="M99.507 13.2008L96.568 10.2008L92.536 11.3758C92.4486 11.4013 92.3556 11.4006 92.2686 11.3736C92.1816 11.3467 92.1045 11.2948 92.0468 11.2243C91.9891 11.1538 91.9535 11.0679 91.9443 10.9773C91.935 10.8867 91.9527 10.7954 91.995 10.7148L93.937 6.99278L91.58 3.51978C91.529 3.44458 91.5012 3.35605 91.5 3.26518C91.4989 3.17432 91.5245 3.08513 91.5736 3.00866C91.6227 2.9322 91.6931 2.87183 91.7762 2.83505C91.8593 2.79828 91.9514 2.78671 92.041 2.80178L96.18 3.50178L98.755 0.185785C98.8107 0.113804 98.8864 0.0598042 98.9726 0.0305193C99.0588 0.00123433 99.1517 -0.00204236 99.2398 0.0210893C99.3278 0.044221 99.4071 0.0927377 99.4678 0.160608C99.5285 0.228478 99.5679 0.312699 99.581 0.40278L100.197 4.55478L104.145 5.97978C104.231 6.01063 104.305 6.06591 104.359 6.13877C104.414 6.21163 104.446 6.29885 104.451 6.3896C104.456 6.48036 104.434 6.57065 104.389 6.64926C104.343 6.72787 104.275 6.79133 104.194 6.83178L100.435 8.70078L100.3 12.9008C100.298 12.9928 100.269 13.0821 100.217 13.1575C100.164 13.2329 100.09 13.291 100.004 13.3243C99.9185 13.3577 99.8248 13.3648 99.735 13.3447C99.6452 13.3247 99.5634 13.2784 99.5 13.2118L99.507 13.2008Z" fill="#FFB1B8"/>
<path d="M232.843 69.2073L228.656 68.9073L226.408 72.4523C226.36 72.5293 226.289 72.5903 226.206 72.6277C226.123 72.6651 226.031 72.6773 225.941 72.6627C225.851 72.6481 225.768 72.6074 225.701 72.5456C225.634 72.4838 225.587 72.4037 225.565 72.3153L224.556 68.2403L220.49 67.1983C220.402 67.1759 220.322 67.128 220.261 67.0606C220.2 66.9932 220.16 66.9092 220.146 66.8193C220.132 66.7293 220.145 66.6373 220.183 66.5546C220.221 66.472 220.283 66.4023 220.36 66.3543L223.923 64.1353L223.658 59.9463C223.652 59.8555 223.673 59.765 223.718 59.686C223.763 59.6071 223.831 59.5431 223.912 59.502C223.993 59.461 224.084 59.4447 224.175 59.4553C224.265 59.4658 224.351 59.5027 224.42 59.5614L227.631 62.2613L231.531 60.7143C231.616 60.6811 231.708 60.6733 231.797 60.692C231.885 60.7107 231.967 60.7551 232.031 60.8196C232.095 60.8841 232.138 60.9659 232.156 61.0549C232.174 61.1439 232.165 61.2362 232.131 61.3203L230.551 65.2093L233.228 68.4423C233.286 68.5123 233.323 68.5978 233.333 68.6884C233.343 68.7789 233.326 68.8703 233.285 68.9514C233.243 69.0324 233.179 69.0994 233.099 69.1441C233.02 69.1887 232.929 69.209 232.838 69.2023L232.843 69.2073Z" fill="#FFBFC5"/>
<path d="M90.5522 170.209L80.4142 173.466C79.7781 173.67 79.0872 173.613 78.4931 173.308C77.899 173.003 77.4502 172.474 77.2452 171.839L73.9872 161.7C73.7836 161.064 73.8407 160.373 74.1459 159.779C74.4511 159.185 74.9795 158.737 75.6152 158.532L78.0342 157.755C78.3052 157.674 78.5972 157.702 78.8474 157.834C79.0977 157.966 79.2863 158.19 79.3728 158.46C79.4593 158.729 79.4368 159.022 79.3101 159.274C79.1834 159.527 78.9627 159.721 78.6952 159.813L76.2752 160.59C76.1849 160.619 76.1099 160.682 76.0666 160.767C76.0233 160.851 76.0153 160.949 76.0442 161.039L79.3012 171.178C79.3303 171.268 79.394 171.343 79.4784 171.386C79.5628 171.429 79.6609 171.437 79.7512 171.408L89.8892 168.152C89.9794 168.122 90.0544 168.059 90.0977 167.974C90.141 167.89 90.1491 167.792 90.1202 167.702L86.8632 157.564C86.8341 157.473 86.7704 157.398 86.686 157.355C86.6016 157.312 86.5035 157.304 86.4132 157.333L84.1052 158.074C83.8341 158.154 83.5422 158.126 83.2919 157.994C83.0417 157.862 82.8531 157.638 82.7666 157.368C82.6801 157.099 82.7026 156.807 82.8292 156.554C82.9559 156.301 83.1767 156.108 83.4442 156.016L85.7522 155.275C86.3883 155.071 87.0794 155.128 87.6735 155.433C88.2677 155.738 88.7164 156.267 88.9212 156.902L92.1792 167.041C92.3825 167.676 92.3254 168.367 92.0204 168.961C91.7154 169.555 91.1875 170.003 90.5522 170.209Z" fill="#FFD8DB"/>
<path d="M82.6828 151.944L78.7389 149.325C78.5994 149.232 78.4403 149.173 78.2741 149.153C78.1079 149.132 77.9392 149.15 77.7813 149.206C77.6234 149.262 77.4807 149.354 77.3643 149.474C77.2479 149.594 77.1612 149.74 77.1109 149.9L75.7458 154.224C75.6991 154.36 75.6802 154.505 75.69 154.649C75.6999 154.792 75.7385 154.933 75.8035 155.062C75.8684 155.19 75.9584 155.305 76.0682 155.398C76.178 155.491 76.3055 155.562 76.4429 155.605C76.5804 155.649 76.7251 155.664 76.8686 155.651C77.0122 155.637 77.1516 155.596 77.2787 155.528C77.4058 155.459 77.518 155.367 77.6087 155.255C77.6994 155.143 77.7668 155.014 77.8069 154.875L78.2369 153.513L82.0599 165.413C82.1551 165.676 82.3487 165.892 82.6 166.016C82.8513 166.139 83.1406 166.16 83.4072 166.075C83.6737 165.989 83.8966 165.803 84.029 165.557C84.1613 165.31 84.1929 165.022 84.1169 164.752L80.3349 152.981L81.4878 153.746C81.606 153.825 81.7386 153.88 81.8779 153.907C82.0173 153.935 82.1607 153.935 82.3 153.907C82.4393 153.879 82.5717 153.824 82.6897 153.745C82.8078 153.666 82.909 153.564 82.9878 153.446C83.0666 153.328 83.1214 153.195 83.149 153.056C83.1765 152.917 83.1764 152.773 83.1485 152.634C83.1207 152.495 83.0657 152.362 82.9866 152.244C82.9076 152.126 82.806 152.025 82.6879 151.946L82.6828 151.944Z" fill="#FED8DB"/>
<path d="M119.655 164.182C119.655 165.183 119.358 166.162 118.802 166.994C118.246 167.827 117.455 168.476 116.53 168.859C115.605 169.242 114.588 169.342 113.606 169.147C112.624 168.952 111.722 168.469 111.014 167.761C110.306 167.054 109.824 166.151 109.629 165.17C109.433 164.188 109.533 163.17 109.917 162.245C110.3 161.32 110.948 160.529 111.781 159.973C112.613 159.417 113.592 159.12 114.593 159.12C115.936 159.12 117.223 159.653 118.173 160.603C119.122 161.552 119.655 162.839 119.655 164.182Z" fill="white"/>
<path d="M198.277 19.3516C198.277 20.1679 198.035 20.9658 197.582 21.6445C197.128 22.3231 196.484 22.8521 195.73 23.1645C194.976 23.4768 194.146 23.5585 193.345 23.3993C192.545 23.2401 191.809 22.847 191.232 22.2698C190.655 21.6927 190.262 20.9573 190.103 20.1568C189.943 19.3562 190.025 18.5264 190.338 17.7723C190.65 17.0182 191.179 16.3736 191.858 15.9201C192.536 15.4667 193.334 15.2246 194.15 15.2246C195.245 15.2246 196.295 15.6594 197.069 16.4334C197.843 17.2073 198.277 18.2571 198.277 19.3516Z" fill="#FFE3E6"/>
<path d="M105.193 183.222C104.455 183.222 103.733 183.003 103.12 182.593C102.506 182.183 102.027 181.6 101.745 180.918C101.463 180.236 101.389 179.486 101.533 178.762C101.677 178.038 102.032 177.373 102.554 176.851C103.076 176.329 103.741 175.974 104.465 175.83C105.189 175.686 105.939 175.759 106.621 176.042C107.303 176.324 107.886 176.803 108.296 177.416C108.706 178.03 108.925 178.752 108.925 179.49C108.925 180.48 108.532 181.429 107.832 182.129C107.132 182.829 106.183 183.222 105.193 183.222ZM105.193 177.187C104.738 177.187 104.293 177.322 103.915 177.575C103.537 177.827 103.242 178.186 103.068 178.607C102.894 179.027 102.848 179.489 102.937 179.936C103.026 180.382 103.245 180.792 103.567 181.113C103.888 181.435 104.298 181.654 104.744 181.743C105.19 181.831 105.653 181.786 106.073 181.612C106.493 181.438 106.853 181.143 107.105 180.765C107.358 180.386 107.493 179.942 107.493 179.487C107.493 178.877 107.251 178.292 106.819 177.861C106.388 177.429 105.803 177.187 105.193 177.187Z" fill="white"/>
<path d="M249.488 102.47C248.284 102.47 247.107 102.113 246.105 101.444C245.104 100.775 244.323 99.8234 243.862 98.7106C243.401 97.5978 243.281 96.3733 243.515 95.192C243.75 94.0106 244.331 92.9254 245.182 92.0737C246.034 91.222 247.119 90.642 248.3 90.4071C249.482 90.1721 250.706 90.2927 251.819 90.7536C252.932 91.2146 253.883 91.9952 254.552 92.9967C255.221 93.9982 255.578 95.1756 255.578 96.3801C255.578 97.9953 254.937 99.5443 253.795 100.686C252.653 101.828 251.104 102.47 249.488 102.47ZM249.488 92.6231C248.745 92.6231 248.018 92.8435 247.4 93.2564C246.782 93.6694 246.301 94.2563 246.016 94.9429C245.732 95.6296 245.658 96.3852 245.803 97.1142C245.948 97.8432 246.306 98.5128 246.831 99.0383C247.357 99.5639 248.026 99.9218 248.755 100.067C249.484 100.212 250.24 100.137 250.927 99.853C251.613 99.5685 252.2 99.0869 252.613 98.4689C253.026 97.8509 253.246 97.1243 253.246 96.3811C253.247 95.8875 253.149 95.3988 252.961 94.9428C252.772 94.4868 252.495 94.0725 252.146 93.7235C251.797 93.3745 251.383 93.0976 250.927 92.9088C250.471 92.72 249.982 92.6229 249.488 92.6231Z" fill="#4E69ED"/>
<path d="M122.93 91.9131C122.336 91.9131 121.756 91.7371 121.263 91.4075C120.77 91.0779 120.385 90.6093 120.158 90.0611C119.931 89.5129 119.872 88.9097 119.987 88.3278C120.103 87.7458 120.389 87.2113 120.808 86.7918C121.228 86.3722 121.762 86.0865 122.344 85.9707C122.926 85.855 123.53 85.9144 124.078 86.1414C124.626 86.3685 125.094 86.753 125.424 87.2464C125.754 87.7397 125.93 88.3198 125.93 88.9131C125.93 89.7088 125.614 90.4718 125.051 91.0344C124.488 91.597 123.725 91.9131 122.93 91.9131ZM122.93 86.5891C122.469 86.5891 122.019 86.7257 121.636 86.9816C121.253 87.2375 120.954 87.6013 120.778 88.0268C120.602 88.4524 120.556 88.9207 120.645 89.3725C120.735 89.8242 120.957 90.2393 121.283 90.565C121.609 90.8907 122.023 91.1125 122.475 91.2024C122.927 91.2922 123.395 91.2461 123.821 91.0698C124.247 90.8935 124.61 90.595 124.866 90.212C125.122 89.829 125.259 89.3787 125.259 88.9181C125.259 88.612 125.199 88.3088 125.082 88.0259C124.965 87.743 124.794 87.4859 124.578 87.2693C124.361 87.0527 124.104 86.8809 123.822 86.7636C123.539 86.6464 123.236 86.5861 122.93 86.5861V86.5891Z" fill="#EDF1FF"/>
<path d="M200.722 185.395C200.028 185.395 199.349 185.189 198.772 184.804C198.194 184.418 197.744 183.87 197.478 183.229C197.213 182.588 197.143 181.882 197.278 181.201C197.414 180.52 197.748 179.894 198.239 179.403C198.73 178.912 199.355 178.578 200.036 178.443C200.717 178.307 201.423 178.376 202.064 178.642C202.705 178.908 203.254 179.358 203.639 179.935C204.025 180.512 204.231 181.191 204.231 181.885C204.231 182.816 203.861 183.708 203.203 184.367C202.545 185.025 201.653 185.395 200.722 185.395ZM200.722 179.157C200.182 179.157 199.655 179.317 199.206 179.617C198.758 179.916 198.408 180.343 198.202 180.841C197.995 181.34 197.941 181.888 198.046 182.417C198.152 182.946 198.412 183.432 198.793 183.814C199.175 184.196 199.661 184.455 200.19 184.561C200.719 184.666 201.267 184.612 201.766 184.405C202.264 184.199 202.69 183.849 202.99 183.401C203.29 182.952 203.45 182.425 203.45 181.885C203.45 181.161 203.163 180.468 202.651 179.956C202.139 179.444 201.445 179.157 200.722 179.157Z" fill="#FF9FA7"/>
<path d="M120.537 84.3108C120.215 84.3108 119.899 84.2152 119.631 84.036C119.363 83.8568 119.154 83.602 119.03 83.304C118.907 83.006 118.875 82.678 118.938 82.3617C119.001 82.0453 119.156 81.7546 119.384 81.5265C119.612 81.2984 119.903 81.1431 120.219 81.0802C120.535 81.0172 120.863 81.0496 121.161 81.173C121.459 81.2964 121.714 81.5055 121.893 81.7737C122.073 82.0419 122.168 82.3573 122.168 82.6798C122.168 83.1124 121.996 83.5272 121.691 83.8331C121.385 84.139 120.97 84.3108 120.537 84.3108ZM120.537 81.6488C120.333 81.6488 120.134 81.7093 119.964 81.8226C119.795 81.9359 119.663 82.0969 119.585 82.2853C119.507 82.4737 119.486 82.6809 119.526 82.8809C119.566 83.0809 119.664 83.2646 119.808 83.4088C119.952 83.553 120.136 83.6512 120.336 83.691C120.536 83.7308 120.743 83.7104 120.932 83.6323C121.12 83.5543 121.281 83.4221 121.395 83.2526C121.508 83.083 121.568 82.8837 121.568 82.6798C121.569 82.544 121.543 82.4094 121.491 82.2837C121.44 82.1581 121.364 82.0438 121.268 81.9475C121.172 81.8513 121.058 81.7749 120.933 81.7228C120.808 81.6707 120.673 81.6438 120.537 81.6438V81.6488Z" fill="#EDF1FF"/>
<path d="M205.395 177.407C205.018 177.407 204.648 177.295 204.334 177.085C204.019 176.875 203.774 176.576 203.63 176.227C203.485 175.878 203.447 175.494 203.521 175.123C203.595 174.752 203.777 174.412 204.044 174.145C204.311 173.877 204.652 173.695 205.023 173.622C205.393 173.548 205.777 173.586 206.127 173.73C206.476 173.875 206.774 174.12 206.984 174.434C207.194 174.748 207.306 175.118 207.306 175.496C207.306 176.003 207.105 176.489 206.747 176.847C206.388 177.206 205.902 177.407 205.395 177.407ZM205.395 174.288C205.157 174.288 204.923 174.359 204.724 174.492C204.526 174.624 204.371 174.813 204.279 175.034C204.188 175.254 204.164 175.497 204.211 175.732C204.257 175.966 204.372 176.181 204.541 176.35C204.71 176.519 204.925 176.634 205.16 176.681C205.394 176.727 205.637 176.703 205.858 176.612C206.078 176.521 206.267 176.366 206.4 176.167C206.533 175.968 206.603 175.735 206.603 175.496C206.603 175.176 206.476 174.868 206.25 174.642C206.023 174.415 205.716 174.288 205.395 174.288Z" fill="#FFB1B8"/>
<path d="M208.287 180.199C208.287 180.462 208.209 180.72 208.063 180.939C207.916 181.157 207.708 181.328 207.465 181.429C207.222 181.53 206.955 181.556 206.696 181.505C206.438 181.453 206.201 181.326 206.015 181.14C205.829 180.954 205.702 180.717 205.651 180.459C205.599 180.201 205.626 179.933 205.726 179.69C205.827 179.447 205.998 179.239 206.217 179.092C206.435 178.946 206.693 178.868 206.956 178.868C207.309 178.868 207.648 179.008 207.897 179.258C208.147 179.508 208.287 179.846 208.287 180.199Z" fill="#4E69ED"/>
<path d="M227.091 180.561C226.736 180.561 226.389 180.455 226.094 180.258C225.799 180.061 225.569 179.781 225.433 179.453C225.298 179.125 225.262 178.765 225.331 178.417C225.401 178.069 225.571 177.749 225.822 177.498C226.073 177.247 226.393 177.076 226.741 177.007C227.089 176.938 227.45 176.973 227.777 177.109C228.105 177.245 228.385 177.475 228.583 177.77C228.78 178.065 228.885 178.412 228.885 178.767C228.885 179.002 228.839 179.236 228.748 179.453C228.658 179.671 228.526 179.869 228.359 180.035C228.193 180.202 227.995 180.334 227.777 180.424C227.56 180.514 227.326 180.561 227.091 180.561ZM227.091 177.442C226.829 177.442 226.573 177.519 226.355 177.665C226.137 177.811 225.967 178.017 225.867 178.26C225.766 178.502 225.74 178.768 225.791 179.025C225.842 179.282 225.969 179.518 226.154 179.704C226.339 179.889 226.575 180.015 226.832 180.066C227.089 180.117 227.356 180.091 227.598 179.991C227.84 179.89 228.047 179.721 228.193 179.503C228.338 179.285 228.416 179.029 228.416 178.767C228.416 178.592 228.382 178.42 228.316 178.259C228.249 178.098 228.152 177.951 228.029 177.828C227.906 177.704 227.76 177.607 227.599 177.54C227.438 177.473 227.265 177.439 227.091 177.439V177.442Z" fill="#EDF1FF"/>
<path d="M163.381 24.9341C162.888 24.9341 162.407 24.7881 161.997 24.5145C161.588 24.2409 161.269 23.852 161.08 23.397C160.892 22.942 160.842 22.4413 160.938 21.9583C161.035 21.4753 161.272 21.0316 161.62 20.6834C161.968 20.3352 162.412 20.098 162.895 20.0019C163.378 19.9059 163.879 19.9552 164.334 20.1436C164.789 20.3321 165.177 20.6513 165.451 21.0607C165.725 21.4702 165.871 21.9516 165.871 22.4441C165.871 23.1045 165.608 23.7378 165.141 24.2048C164.674 24.6718 164.041 24.9341 163.381 24.9341ZM163.381 20.6971C163.035 20.6971 162.697 20.7996 162.41 20.9915C162.123 21.1835 161.899 21.4563 161.767 21.7756C161.634 22.0948 161.6 22.446 161.667 22.7849C161.735 23.1238 161.901 23.4351 162.145 23.6794C162.39 23.9237 162.701 24.0901 163.04 24.1575C163.379 24.225 163.73 24.1903 164.049 24.0581C164.368 23.9259 164.641 23.702 164.833 23.4147C165.025 23.1274 165.128 22.7896 165.128 22.4441C165.128 22.2147 165.082 21.9875 164.995 21.7756C164.907 21.5636 164.778 21.371 164.616 21.2088C164.454 21.0466 164.261 20.9179 164.049 20.8301C163.837 20.7423 163.61 20.6971 163.381 20.6971Z" fill="#FFE3E6"/>
<path d="M136.295 50.0217L100.795 79.2397C99.9264 80.0432 99.2332 81.0177 98.7589 82.1018C98.2846 83.1859 98.0396 84.3564 98.0391 85.5397V115.237L184.139 114.111V85.5437C184.139 84.3604 183.893 83.1899 183.419 82.1058C182.945 81.0217 182.252 80.0472 181.383 79.2437L145.883 50.0257C144.579 48.8183 142.867 48.1472 141.09 48.1465C139.313 48.1457 137.6 48.8154 136.295 50.0217Z" fill="#4E69ED"/>
<g filter="url(#filter0_d_5756_7793)">
<path d="M180.075 59.1875H101.953V116.187H180.075V59.1875Z" fill="white"/>
</g>
<path d="M112.255 74.0725H169.982C171.576 74.0725 172.869 74.8845 172.869 75.8855V77.1675C172.869 78.1675 171.576 78.9805 169.982 78.9805H112.254C110.66 78.9805 109.367 78.1685 109.367 77.1675V75.8855C109.364 74.8845 110.664 74.0725 112.255 74.0725Z" fill="#FFF0F2"/>
<path d="M169.064 88.6956H114.311C113.551 88.7018 112.799 88.5382 112.111 88.2166C110.53 87.4446 109.375 86.5266 109.375 85.4396V85.3156C109.375 83.9946 111.08 82.9236 113.184 82.9236H169.064C171.164 82.9236 172.873 83.9946 172.873 85.3156V85.4396C172.864 86.7616 171.164 87.8326 169.064 88.6956Z" fill="#FFF0F2"/>
<path d="M112.254 92.3135H169.981C171.576 92.3135 172.868 93.1255 172.868 94.1265V95.4085C172.868 96.4085 171.575 97.2215 169.981 97.2215H112.254C110.66 97.2215 109.367 96.4095 109.367 95.4085V94.1265C109.364 93.1245 110.664 92.3135 112.254 92.3135Z" fill="#FFF0F2"/>
<path d="M112.844 101.512H169.391C171.311 101.512 172.868 102.489 172.868 103.695V105.24C172.868 106.446 171.311 107.423 169.391 107.423H112.844C110.924 107.423 109.367 106.445 109.367 105.24V103.695C109.364 102.489 110.924 101.512 112.844 101.512Z" fill="#FFF0F2"/>
<g filter="url(#filter1_d_5756_7793)">
<path d="M184.139 141.223H98.0391V85.6997L141.089 109.9L184.139 85.6997V141.223Z" fill="#4E69ED"/>
</g>
<path d="M136.295 105.842L98.0391 141.226H184.139L145.882 105.842C143.177 103.34 140.227 101.013 136.295 105.842Z" fill="#4E69ED"/>
<path d="M131.845 104.709L135.326 106.662L97.9766 141.147L131.845 104.709Z" fill="#3145A8"/>
<path d="M150.231 104.786L146.75 106.739L184.099 141.224L150.231 104.786Z" fill="#3145A8"/>
<path d="M178.24 70.9227C183.105 70.9227 187.05 66.9784 187.05 62.1127C187.05 57.2471 183.105 53.3027 178.24 53.3027C173.374 53.3027 169.43 57.2471 169.43 62.1127C169.43 66.9784 173.374 70.9227 178.24 70.9227Z" fill="#4E69ED"/>
<path d="M181.97 64.7166L181.336 64.0826V61.6226C181.385 60.9285 181.191 60.2391 180.788 59.6723C180.384 59.1055 179.796 58.6966 179.124 58.5156V58.1816C179.124 57.986 179.047 57.7984 178.908 57.6601C178.77 57.5218 178.583 57.4441 178.387 57.4441C178.191 57.4441 178.004 57.5218 177.865 57.6601C177.727 57.7984 177.649 57.986 177.649 58.1816V58.5156C176.977 58.6947 176.387 59.1032 175.984 59.6704C175.58 60.2377 175.387 60.9281 175.437 61.6226V64.0806L174.801 64.7166C174.732 64.7852 174.685 64.8727 174.666 64.968C174.647 65.0634 174.656 65.1623 174.693 65.2523C174.73 65.3423 174.793 65.4194 174.873 65.4737C174.954 65.528 175.049 65.5572 175.146 65.5576H181.619C181.717 65.5586 181.813 65.5305 181.895 65.4767C181.977 65.4229 182.041 65.3459 182.079 65.2556C182.116 65.1653 182.126 65.0658 182.107 64.9697C182.088 64.8737 182.04 64.7856 181.97 64.7166ZM180.353 64.5696H176.418V61.6226C176.386 61.345 176.412 61.0637 176.496 60.7971C176.58 60.5305 176.72 60.2847 176.906 60.0758C177.091 59.867 177.319 59.6999 177.574 59.5854C177.829 59.4709 178.105 59.4118 178.385 59.4118C178.664 59.4118 178.941 59.4709 179.196 59.5854C179.451 59.6999 179.679 59.867 179.864 60.0758C180.05 60.2847 180.19 60.5305 180.274 60.7971C180.357 61.0637 180.384 61.345 180.351 61.6226L180.353 64.5696ZM178.387 67.0276C178.648 67.0268 178.897 66.923 179.082 66.7388C179.266 66.5546 179.37 66.3051 179.37 66.0446H177.403C177.404 66.3045 177.508 66.5536 177.692 66.7374C177.875 66.9212 178.125 67.0248 178.384 67.0256L178.387 67.0276Z" fill="white"/>
<path d="M180.337 46.7774C180.174 46.2419 179.607 45.9404 179.071 46.1042C178.536 46.2679 178.234 46.8348 178.398 47.3703L179.584 51.2491C179.748 51.7846 180.314 52.0861 180.85 51.9223C181.386 51.7586 181.687 51.1917 181.523 50.6562L180.337 46.7774Z" fill="#4E69ED"/>
<path d="M187.697 48.0654C188.018 47.6066 187.907 46.9744 187.448 46.6531C186.989 46.3319 186.357 46.4434 186.036 46.9022L183.709 50.2246C183.388 50.6834 183.499 51.3156 183.958 51.6369C184.417 51.9581 185.049 51.8466 185.37 51.3878L187.697 48.0654Z" fill="#4E69ED"/>
<path d="M190.459 55.531C191.019 55.5212 191.465 55.0594 191.455 54.4994C191.445 53.9395 190.984 53.4935 190.424 53.5033L186.368 53.5741C185.808 53.5839 185.362 54.0457 185.372 54.6056C185.382 55.1656 185.844 55.6115 186.404 55.6018L190.459 55.531Z" fill="#4E69ED"/>
<path d="M193.528 65.4696C194.648 65.4696 195.556 64.5616 195.556 63.4416C195.556 62.3215 194.648 61.4136 193.528 61.4136C192.408 61.4136 191.5 62.3215 191.5 63.4416C191.5 64.5616 192.408 65.4696 193.528 65.4696Z" fill="#FFBAC0"/>
</g>
<defs>
<filter id="filter0_d_5756_7793" x="89.9531" y="39.1875" width="102.125" height="80.999" filterUnits="userSpaceOnUse" color-interpolation-filters="sRGB">
<feFlood flood-opacity="0" result="BackgroundImageFix"/>
<feColorMatrix in="SourceAlpha" type="matrix" values="0 0 0 0 0 0 0 0 0 0 0 0 0 0 0 0 0 0 127 0" result="hardAlpha"/>
<feOffset dy="-8"/>
<feGaussianBlur stdDeviation="6"/>
<feColorMatrix type="matrix" values="0 0 0 0 0.870588 0 0 0 0 0.870588 0 0 0 0 0.870588 0 0 0 0.09 0"/>
<feBlend mode="normal" in2="BackgroundImageFix" result="effect1_dropShadow_5756_7793"/>
<feBlend mode="normal" in="SourceGraphic" in2="effect1_dropShadow_5756_7793" result="shape"/>
</filter>
<filter id="filter1_d_5756_7793" x="86.0391" y="70.6997" width="110.102" height="79.5229" filterUnits="userSpaceOnUse" color-interpolation-filters="sRGB">
<feFlood flood-opacity="0" result="BackgroundImageFix"/>
<feColorMatrix in="SourceAlpha" type="matrix" values="0 0 0 0 0 0 0 0 0 0 0 0 0 0 0 0 0 0 127 0" result="hardAlpha"/>
<feOffset dy="-3"/>
<feGaussianBlur stdDeviation="6"/>
<feColorMatrix type="matrix" values="0 0 0 0 0.694118 0 0 0 0 0.101961 0 0 0 0 0.152941 0 0 0 0.365 0"/>
<feBlend mode="normal" in2="BackgroundImageFix" result="effect1_dropShadow_5756_7793"/>
<feBlend mode="normal" in="SourceGraphic" in2="effect1_dropShadow_5756_7793" result="shape"/>
</filter>
<clipPath id="clip0_5756_7793">
<rect width="276.104" height="185.396" fill="white"/>
</clipPath>
</defs>
</svg>
