<svg width="249" height="24" viewBox="0 0 249 24" fill="none" xmlns="http://www.w3.org/2000/svg">
<path fill-rule="evenodd" clip-rule="evenodd" d="M186.516 7.01001C185.997 7.01001 185.576 7.4289 185.576 7.94562V14.8068C185.576 15.3235 185.997 15.7424 186.516 15.7424C187.035 15.7424 187.455 15.3235 187.455 14.8068V7.94562C187.455 7.4289 187.035 7.01001 186.516 7.01001ZM182.131 9.81684C182.131 9.30012 182.552 8.88123 183.071 8.88123C183.589 8.88123 184.01 9.30012 184.01 9.81684V14.8068C184.01 15.3235 183.589 15.7424 183.071 15.7424C182.552 15.7424 182.131 15.3235 182.131 14.8068V9.81684ZM179.625 11.3762C179.106 11.3762 178.686 11.7951 178.686 12.3118V14.8068C178.686 15.3235 179.106 15.7424 179.625 15.7424C180.144 15.7424 180.565 15.3235 180.565 14.8068V12.3118C180.565 11.7951 180.144 11.3762 179.625 11.3762ZM176.18 12.6237C175.661 12.6237 175.24 13.0426 175.24 13.5593V14.8068C175.24 15.3235 175.661 15.7424 176.18 15.7424C176.699 15.7424 177.12 15.3235 177.12 14.8068V13.5593C177.12 13.0426 176.699 12.6237 176.18 12.6237Z" fill="white"/>
<path fill-rule="evenodd" clip-rule="evenodd" d="M204.833 9.66679C204.95 9.53921 204.94 9.34151 204.808 9.23011C203.124 7.80834 200.988 7.0201 198.774 7.01011C196.559 7.00012 194.416 7.76906 192.719 9.17558C192.587 9.28578 192.575 9.48339 192.69 9.61201L193.628 10.6598C193.743 10.7884 193.94 10.7992 194.074 10.6902C195.395 9.61572 197.053 9.0291 198.765 9.03683C200.477 9.04455 202.129 9.6461 203.44 10.7325C203.573 10.8427 203.771 10.8336 203.887 10.706L204.833 9.66679ZM202.496 11.8063C202.619 11.6845 202.619 11.4863 202.49 11.3715C201.459 10.4531 200.122 9.94159 198.731 9.94159C197.341 9.94159 196.003 10.4531 194.972 11.3715C194.843 11.4863 194.844 11.6845 194.966 11.8063L195.741 12.5782C195.864 12.6999 196.061 12.6989 196.193 12.5872C196.899 11.9889 197.798 11.6569 198.731 11.6569C199.665 11.6569 200.564 11.9889 201.27 12.5872C201.401 12.6989 201.599 12.6999 201.721 12.5782L202.496 11.8063ZM198.731 12.6237C199.457 12.6237 200.157 12.8745 200.714 13.328C200.848 13.437 200.847 13.6358 200.725 13.7576L198.953 15.5218C198.83 15.6436 198.632 15.6436 198.51 15.5218L196.738 13.7576C196.616 13.6359 196.615 13.437 196.749 13.328C197.306 12.8745 198.005 12.6237 198.731 12.6237Z" fill="white"/>
<path fill-rule="evenodd" clip-rule="evenodd" d="M211.886 7.63379H224.415C225.452 7.63379 226.294 8.47156 226.294 9.50501V13.8712C226.294 14.9046 225.452 15.7424 224.415 15.7424H211.886C210.848 15.7424 210.007 14.9046 210.007 13.8712V9.50501C210.007 8.47156 210.848 7.63379 211.886 7.63379ZM211.886 8.25753C211.194 8.25753 210.633 8.81605 210.633 9.50501V13.8712C210.633 14.5602 211.194 15.1187 211.886 15.1187H224.415C225.107 15.1187 225.667 14.5602 225.667 13.8712V9.50501C225.667 8.81605 225.107 8.25753 224.415 8.25753H211.886ZM211.26 10.1288C211.26 9.43979 211.821 8.88127 212.513 8.88127H223.788C224.48 8.88127 225.041 9.43979 225.041 10.1288V13.2475C225.041 13.9364 224.48 14.4949 223.788 14.4949H212.513C211.821 14.4949 211.26 13.9364 211.26 13.2475V10.1288ZM228.173 11.6881C228.173 12.5493 227.612 13.2475 226.92 13.2475V10.1288C227.612 10.1288 228.173 10.8269 228.173 11.6881Z" fill="white"/>
<path d="M39.1993 8.14185C37.5821 8.14185 36.3914 9.22395 36.3914 10.7306V10.741C36.3914 12.1441 37.4105 13.1796 38.8561 13.1796C39.87 13.1796 40.6188 12.6618 40.9152 11.9784H40.9464C40.9464 12.0612 40.9412 12.1389 40.936 12.2166C40.884 13.63 40.3796 14.7794 39.1733 14.7794C38.5025 14.7794 38.0449 14.4481 37.8421 13.9355L37.8265 13.8889H36.4954L36.5058 13.9459C36.7397 15.0746 37.7797 15.8719 39.1681 15.8719C41.0816 15.8719 42.2307 14.3963 42.2307 11.9266V11.9163C42.2307 9.29643 40.8528 8.14185 39.1993 8.14185ZM39.1993 12.1493C38.3465 12.1493 37.7121 11.5435 37.7121 10.6944V10.684C37.7121 9.87632 38.3829 9.2343 39.2149 9.2343C40.0572 9.2343 40.7124 9.8815 40.7124 10.7099V10.7151C40.7124 11.5487 40.0572 12.1493 39.1993 12.1493Z" fill="white"/>
<path d="M44.331 10.8549C44.7522 10.8549 45.0798 10.5235 45.0798 10.1041C45.0798 9.68475 44.7522 9.35857 44.331 9.35857C43.9099 9.35857 43.5771 9.68475 43.5771 10.1041C43.5771 10.5235 43.9099 10.8549 44.331 10.8549ZM44.331 14.6552C44.7522 14.6552 45.0798 14.3238 45.0798 13.9044C45.0798 13.4851 44.7522 13.1589 44.331 13.1589C43.9099 13.1589 43.5771 13.4851 43.5771 13.9044C43.5771 14.3238 43.9099 14.6552 44.331 14.6552Z" fill="white"/>
<path d="M50.118 15.7425H51.3972V14.3083H52.4163V13.2106H51.3972V8.27128H49.4888L46.3742 13.1692V14.3083H50.118V15.7425ZM47.5805 13.2417V13.2055L50.1076 9.2809H50.1388V13.2417H47.5805Z" fill="white"/>
<path d="M55.5618 15.7425H56.8773V8.27128H55.5514L53.5911 9.64333V10.8704L55.5306 9.54496H55.5618V15.7425Z" fill="white"/>
<g opacity="0.6">
<path d="M85.9749 12C85.9749 5.45483 91.3036 0.148926 97.8769 0.148926H150.496C157.07 0.148926 162.399 5.45483 162.399 12C162.399 18.5452 157.07 23.8511 150.496 23.8511H97.8769C91.3036 23.8511 85.9749 18.5452 85.9749 12Z" fill="#1F1F1F"/>
<path d="M157.387 12.0001C157.387 15.7894 154.302 18.8612 150.497 18.8612C146.691 18.8612 143.606 15.7894 143.606 12.0001C143.606 8.21075 146.691 5.13892 150.497 5.13892C154.302 5.13892 157.387 8.21075 157.387 12.0001Z" fill="#333333"/>
</g>
</svg>
